%TF.GenerationSoftware,KiCad,Pcbnew,9.0.5*%
%TF.CreationDate,2026-01-19T09:10:44-05:00*%
%TF.ProjectId,PayloadBreakOut,5061796c-6f61-4644-9272-65616b4f7574,rev?*%
%TF.SameCoordinates,Original*%
%TF.FileFunction,Copper,L1,Top*%
%TF.FilePolarity,Positive*%
%FSLAX46Y46*%
G04 Gerber Fmt 4.6, Leading zero omitted, Abs format (unit mm)*
G04 Created by KiCad (PCBNEW 9.0.5) date 2026-01-19 09:10:44*
%MOMM*%
%LPD*%
G01*
G04 APERTURE LIST*
G04 Aperture macros list*
%AMRoundRect*
0 Rectangle with rounded corners*
0 $1 Rounding radius*
0 $2 $3 $4 $5 $6 $7 $8 $9 X,Y pos of 4 corners*
0 Add a 4 corners polygon primitive as box body*
4,1,4,$2,$3,$4,$5,$6,$7,$8,$9,$2,$3,0*
0 Add four circle primitives for the rounded corners*
1,1,$1+$1,$2,$3*
1,1,$1+$1,$4,$5*
1,1,$1+$1,$6,$7*
1,1,$1+$1,$8,$9*
0 Add four rect primitives between the rounded corners*
20,1,$1+$1,$2,$3,$4,$5,0*
20,1,$1+$1,$4,$5,$6,$7,0*
20,1,$1+$1,$6,$7,$8,$9,0*
20,1,$1+$1,$8,$9,$2,$3,0*%
G04 Aperture macros list end*
%TA.AperFunction,ComponentPad*%
%ADD10R,1.800000X1.800000*%
%TD*%
%TA.AperFunction,ComponentPad*%
%ADD11C,1.800000*%
%TD*%
%TA.AperFunction,ComponentPad*%
%ADD12RoundRect,0.250000X0.550000X0.550000X-0.550000X0.550000X-0.550000X-0.550000X0.550000X-0.550000X0*%
%TD*%
%TA.AperFunction,ComponentPad*%
%ADD13C,1.600000*%
%TD*%
%TA.AperFunction,SMDPad,CuDef*%
%ADD14R,1.500000X1.500000*%
%TD*%
%TA.AperFunction,ComponentPad*%
%ADD15C,1.200000*%
%TD*%
%TA.AperFunction,ComponentPad*%
%ADD16RoundRect,0.760000X1.140000X1.140000X-1.140000X1.140000X-1.140000X-1.140000X1.140000X-1.140000X0*%
%TD*%
%TA.AperFunction,ComponentPad*%
%ADD17C,4.000000*%
%TD*%
%TA.AperFunction,ComponentPad*%
%ADD18R,1.700000X1.700000*%
%TD*%
%TA.AperFunction,ComponentPad*%
%ADD19C,1.700000*%
%TD*%
%TA.AperFunction,ComponentPad*%
%ADD20RoundRect,0.250000X-0.550000X-0.550000X0.550000X-0.550000X0.550000X0.550000X-0.550000X0.550000X0*%
%TD*%
%TA.AperFunction,ComponentPad*%
%ADD21RoundRect,0.250000X1.350000X-1.350000X1.350000X1.350000X-1.350000X1.350000X-1.350000X-1.350000X0*%
%TD*%
%TA.AperFunction,ComponentPad*%
%ADD22C,3.200000*%
%TD*%
%TA.AperFunction,ViaPad*%
%ADD23C,0.600000*%
%TD*%
%TA.AperFunction,Conductor*%
%ADD24C,0.600000*%
%TD*%
G04 APERTURE END LIST*
D10*
%TO.P,J11,1,Pin_1*%
%TO.N,GND*%
X92100400Y-115036600D03*
D11*
%TO.P,J11,2,Pin_2*%
%TO.N,Net-(J11-Pin_2)*%
X94640400Y-115036600D03*
%TD*%
D12*
%TO.P,C_Pol3,1*%
%TO.N,+6V*%
X98247200Y-94208600D03*
D13*
%TO.P,C_Pol3,2*%
%TO.N,GND*%
X94747200Y-94208600D03*
%TD*%
D14*
%TO.P,TP8,1,1*%
%TO.N,Net-(J4-Pin_1)*%
X171145200Y-49987200D03*
%TD*%
%TO.P,TP3,1,1*%
%TO.N,/Left_GPIO*%
X109067600Y-46177200D03*
%TD*%
D15*
%TO.P,C_Pol1,1*%
%TO.N,VBAT*%
X177012600Y-105891200D03*
%TO.P,C_Pol1,2*%
%TO.N,GND*%
X177012600Y-107391200D03*
%TD*%
%TO.P,C1,1*%
%TO.N,VBAT*%
X170154600Y-96748600D03*
%TO.P,C1,2*%
%TO.N,GND*%
X170154600Y-95248600D03*
%TD*%
D10*
%TO.P,J7,1,Pin_1*%
%TO.N,GND*%
X92760800Y-105587800D03*
D11*
%TO.P,J7,2,Pin_2*%
%TO.N,+3.3V*%
X95300800Y-105587800D03*
%TD*%
D14*
%TO.P,TP7,1,1*%
%TO.N,Net-(J3-Pin_1)*%
X109067600Y-50088800D03*
%TD*%
D16*
%TO.P,PWR1,1,Pin_1*%
%TO.N,GND*%
X167919400Y-103276400D03*
D17*
%TO.P,PWR1,2,Pin_2*%
%TO.N,VBAT*%
X162919400Y-103276400D03*
%TD*%
D14*
%TO.P,TP5,1,1*%
%TO.N,Net-(J3-Pin_2)*%
X108991400Y-53594000D03*
%TD*%
%TO.P,TP4,1,1*%
%TO.N,/Right_GPIO*%
X171196000Y-45415200D03*
%TD*%
D18*
%TO.P,J9,1,Pin_1*%
%TO.N,Net-(J10-Pin_6)*%
X171119800Y-84074000D03*
D19*
%TO.P,J9,2,Pin_2*%
%TO.N,Net-(J10-Pin_5)*%
X171119800Y-86614000D03*
%TO.P,J9,3,Pin_3*%
%TO.N,Net-(J10-Pin_4)*%
X171119800Y-89154000D03*
%TO.P,J9,4,Pin_4*%
%TO.N,Net-(J10-Pin_3)*%
X171119800Y-91694000D03*
%TD*%
D14*
%TO.P,TP2,1,1*%
%TO.N,/Left_PWM*%
X109067600Y-42113200D03*
%TD*%
D20*
%TO.P,C_Pol2,1*%
%TO.N,+5V*%
X109758600Y-98552000D03*
D13*
%TO.P,C_Pol2,2*%
%TO.N,GND*%
X113258600Y-98552000D03*
%TD*%
D14*
%TO.P,TP6,1,1*%
%TO.N,Net-(J4-Pin_2)*%
X171221400Y-53695600D03*
%TD*%
%TO.P,TP1,1,1*%
%TO.N,/Right_PWM*%
X171246800Y-41579800D03*
%TD*%
D18*
%TO.P,J2,1,Pin_1*%
%TO.N,unconnected-(J2-Pin_1-Pad1)*%
X146253600Y-41193400D03*
D19*
%TO.P,J2,2,Pin_2*%
%TO.N,GND*%
X146253600Y-43733400D03*
%TO.P,J2,3,Pin_3*%
%TO.N,/Right_PWM*%
X146253600Y-46273400D03*
%TO.P,J2,4,Pin_4*%
%TO.N,/Right_GPIO*%
X146253600Y-48813400D03*
%TO.P,J2,5,Pin_5*%
%TO.N,GND*%
X146253600Y-51353400D03*
%TO.P,J2,6,Pin_6*%
%TO.N,+3.3V*%
X146253600Y-53893400D03*
%TO.P,J2,7,Pin_7*%
%TO.N,unconnected-(J2-Pin_7-Pad7)*%
X146253600Y-56433400D03*
%TD*%
D21*
%TO.P,D_Buck2,1,K*%
%TO.N,Net-(D_Buck2-K)*%
X111780000Y-123723400D03*
D22*
%TO.P,D_Buck2,2,A*%
%TO.N,GND*%
X111780000Y-108483400D03*
%TD*%
D21*
%TO.P,D_Buck1,1,K*%
%TO.N,Net-(D_Buck1-K)*%
X111754600Y-89662000D03*
D22*
%TO.P,D_Buck1,2,A*%
%TO.N,GND*%
X111754600Y-74422000D03*
%TD*%
D18*
%TO.P,RPI1,1,Pin_1*%
%TO.N,+3.3V*%
X105181400Y-123520200D03*
D19*
%TO.P,RPI1,2,Pin_2*%
%TO.N,+5V*%
X102641400Y-123520200D03*
%TO.P,RPI1,3,Pin_3*%
%TO.N,unconnected-(RPI1-Pin_3-Pad3)*%
X105181400Y-120980200D03*
%TO.P,RPI1,4,Pin_4*%
%TO.N,+5V*%
X102641400Y-120980200D03*
%TO.P,RPI1,5,Pin_5*%
%TO.N,unconnected-(RPI1-Pin_5-Pad5)*%
X105181400Y-118440201D03*
%TO.P,RPI1,6,Pin_6*%
%TO.N,unconnected-(RPI1-Pin_6-Pad6)*%
X102641400Y-118440200D03*
%TO.P,RPI1,7,Pin_7*%
%TO.N,unconnected-(RPI1-Pin_7-Pad7)*%
X105181400Y-115900200D03*
%TO.P,RPI1,8,Pin_8*%
%TO.N,unconnected-(RPI1-Pin_8-Pad8)*%
X102641400Y-115900200D03*
%TO.P,RPI1,9,Pin_9*%
%TO.N,unconnected-(RPI1-Pin_9-Pad9)*%
X105181400Y-113360200D03*
%TO.P,RPI1,10,Pin_10*%
%TO.N,unconnected-(RPI1-Pin_10-Pad10)*%
X102641400Y-113360200D03*
%TO.P,RPI1,11,Pin_11*%
%TO.N,/CS*%
X105181400Y-110820200D03*
%TO.P,RPI1,12,Pin_12*%
%TO.N,/Left_PWM*%
X102641400Y-110820200D03*
%TO.P,RPI1,13,Pin_13*%
%TO.N,/IRQ*%
X105181400Y-108280200D03*
%TO.P,RPI1,14,Pin_14*%
%TO.N,GND*%
X102641400Y-108280200D03*
%TO.P,RPI1,15,Pin_15*%
%TO.N,/RST*%
X105181400Y-105740199D03*
%TO.P,RPI1,16,Pin_16*%
%TO.N,/Left_GPIO*%
X102641400Y-105740200D03*
%TO.P,RPI1,17,Pin_17*%
%TO.N,+3.3V*%
X105181400Y-103200200D03*
%TO.P,RPI1,18,Pin_18*%
%TO.N,/Stepper_Dir*%
X102641400Y-103200200D03*
%TO.P,RPI1,19,Pin_19*%
%TO.N,/MOSI*%
X105181400Y-100660200D03*
%TO.P,RPI1,20,Pin_20*%
%TO.N,GND*%
X102641400Y-100660200D03*
%TO.P,RPI1,21,Pin_21*%
%TO.N,/MISO*%
X105181400Y-98120200D03*
%TO.P,RPI1,22,Pin_22*%
%TO.N,/Stepper_Enable*%
X102641400Y-98120200D03*
%TO.P,RPI1,23,Pin_23*%
%TO.N,/SCK*%
X105181400Y-95580201D03*
%TO.P,RPI1,24,Pin_24*%
%TO.N,unconnected-(RPI1-Pin_24-Pad24)*%
X102641400Y-95580200D03*
%TO.P,RPI1,25,Pin_25*%
%TO.N,GND*%
X105181400Y-93040200D03*
%TO.P,RPI1,26,Pin_26*%
%TO.N,unconnected-(RPI1-Pin_26-Pad26)*%
X102641400Y-93040200D03*
%TO.P,RPI1,27,Pin_27*%
%TO.N,unconnected-(RPI1-Pin_27-Pad27)*%
X105181400Y-90500200D03*
%TO.P,RPI1,28,Pin_28*%
%TO.N,unconnected-(RPI1-Pin_28-Pad28)*%
X102641400Y-90500200D03*
%TO.P,RPI1,29,Pin_29*%
%TO.N,unconnected-(RPI1-Pin_29-Pad29)*%
X105181400Y-87960200D03*
%TO.P,RPI1,30,Pin_30*%
%TO.N,GND*%
X102641400Y-87960200D03*
%TO.P,RPI1,31,Pin_31*%
%TO.N,/Right_GPIO*%
X105181400Y-85420201D03*
%TO.P,RPI1,32,Pin_32*%
%TO.N,/Stepper_Step*%
X102641400Y-85420200D03*
%TO.P,RPI1,33,Pin_33*%
%TO.N,/Right_PWM*%
X105181400Y-82880199D03*
%TO.P,RPI1,34,Pin_34*%
%TO.N,GND*%
X102641400Y-82880200D03*
%TO.P,RPI1,35,Pin_35*%
%TO.N,unconnected-(RPI1-Pin_35-Pad35)*%
X105181400Y-80340200D03*
%TO.P,RPI1,36,Pin_36*%
%TO.N,unconnected-(RPI1-Pin_36-Pad36)*%
X102641400Y-80340200D03*
%TO.P,RPI1,37,Pin_37*%
%TO.N,/EN*%
X105181400Y-77800200D03*
%TO.P,RPI1,38,Pin_38*%
%TO.N,unconnected-(RPI1-Pin_38-Pad38)*%
X102641400Y-77800200D03*
%TO.P,RPI1,39,Pin_39*%
%TO.N,GND*%
X105181400Y-75260200D03*
%TO.P,RPI1,40,Pin_40*%
%TO.N,unconnected-(RPI1-Pin_40-Pad40)*%
X102641400Y-75260200D03*
%TD*%
D18*
%TO.P,Trans1,1,Pin_1*%
%TO.N,+3.3V*%
X163957000Y-108153200D03*
D19*
%TO.P,Trans1,2,Pin_2*%
%TO.N,GND*%
X163957000Y-110693200D03*
%TO.P,Trans1,3,Pin_3*%
%TO.N,/EN*%
X163957000Y-113233200D03*
%TO.P,Trans1,4,Pin_4*%
%TO.N,/IRQ*%
X163957000Y-115773200D03*
%TO.P,Trans1,5,Pin_5*%
%TO.N,/SCK*%
X163957000Y-118313200D03*
%TO.P,Trans1,6,Pin_6*%
%TO.N,/MISO*%
X163957000Y-120853200D03*
%TO.P,Trans1,7,Pin_7*%
%TO.N,/MOSI*%
X163957000Y-123393200D03*
%TO.P,Trans1,8,Pin_8*%
%TO.N,/CS*%
X163957000Y-125933200D03*
%TO.P,Trans1,9,Pin_9*%
%TO.N,/RST*%
X163957000Y-128473200D03*
%TD*%
D18*
%TO.P,J10,1,Pin_1*%
%TO.N,VBAT*%
X174167800Y-96774000D03*
D19*
%TO.P,J10,2,Pin_2*%
%TO.N,GND*%
X174167800Y-94234000D03*
%TO.P,J10,3,Pin_3*%
%TO.N,Net-(J10-Pin_3)*%
X174167800Y-91694001D03*
%TO.P,J10,4,Pin_4*%
%TO.N,Net-(J10-Pin_4)*%
X174167800Y-89154000D03*
%TO.P,J10,5,Pin_5*%
%TO.N,Net-(J10-Pin_5)*%
X174167800Y-86614000D03*
%TO.P,J10,6,Pin_6*%
%TO.N,Net-(J10-Pin_6)*%
X174167800Y-84074000D03*
%TO.P,J10,7,Pin_7*%
%TO.N,+5V*%
X174167800Y-81534000D03*
%TO.P,J10,8,Pin_8*%
%TO.N,GND*%
X174167800Y-78993999D03*
%TD*%
D13*
%TO.P,R1,1*%
%TO.N,Net-(U1-FB)*%
X123393200Y-123469400D03*
%TO.P,R1,2*%
%TO.N,+6V*%
X115773200Y-123469400D03*
%TD*%
%TO.P,R2,1*%
%TO.N,+6V*%
X110921800Y-129844800D03*
%TO.P,R2,2*%
%TO.N,Net-(J11-Pin_2)*%
X103301800Y-129844800D03*
%TD*%
D18*
%TO.P,J5,1,Pin_1*%
%TO.N,+6V*%
X133553600Y-67763400D03*
D19*
%TO.P,J5,2,Pin_2*%
%TO.N,GND*%
X133553600Y-70303400D03*
%TO.P,J5,3,Pin_3*%
%TO.N,Net-(J3-Pin_2)*%
X133553600Y-72843400D03*
%TO.P,J5,4,Pin_4*%
%TO.N,Net-(J3-Pin_1)*%
X133553600Y-75383400D03*
%TO.P,J5,5,Pin_5*%
%TO.N,unconnected-(J5-Pin_5-Pad5)*%
X133553600Y-77923400D03*
%TO.P,J5,6,Pin_6*%
%TO.N,unconnected-(J5-Pin_6-Pad6)*%
X133553600Y-80463400D03*
%TO.P,J5,7,Pin_7*%
%TO.N,unconnected-(J5-Pin_7-Pad7)*%
X133553600Y-83003400D03*
%TD*%
D18*
%TO.P,J4,1,Pin_1*%
%TO.N,Net-(J4-Pin_1)*%
X155397200Y-46024800D03*
D19*
%TO.P,J4,2,Pin_2*%
%TO.N,Net-(J4-Pin_2)*%
X155397200Y-48564800D03*
%TD*%
D18*
%TO.P,J8,1,Pin_1*%
%TO.N,/Stepper_Enable*%
X161467800Y-96774000D03*
D19*
%TO.P,J8,2,Pin_2*%
%TO.N,unconnected-(J8-Pin_2-Pad2)*%
X161467800Y-94234000D03*
%TO.P,J8,3,Pin_3*%
%TO.N,unconnected-(J8-Pin_3-Pad3)*%
X161467800Y-91694001D03*
%TO.P,J8,4,Pin_4*%
%TO.N,unconnected-(J8-Pin_4-Pad4)*%
X161467800Y-89154000D03*
%TO.P,J8,5,Pin_5*%
%TO.N,Net-(J8-Pin_5)*%
X161467800Y-86614000D03*
%TO.P,J8,6,Pin_6*%
X161467800Y-84074000D03*
%TO.P,J8,7,Pin_7*%
%TO.N,/Stepper_Step*%
X161467800Y-81534000D03*
%TO.P,J8,8,Pin_8*%
%TO.N,/Stepper_Dir*%
X161467800Y-78993999D03*
%TD*%
D18*
%TO.P,J1,1,Pin_1*%
%TO.N,unconnected-(J1-Pin_1-Pad1)*%
X146253600Y-67763400D03*
D19*
%TO.P,J1,2,Pin_2*%
%TO.N,GND*%
X146253600Y-70303400D03*
%TO.P,J1,3,Pin_3*%
%TO.N,/Left_PWM*%
X146253600Y-72843400D03*
%TO.P,J1,4,Pin_4*%
%TO.N,/Left_GPIO*%
X146253600Y-75383400D03*
%TO.P,J1,5,Pin_5*%
%TO.N,GND*%
X146253600Y-77923400D03*
%TO.P,J1,6,Pin_6*%
%TO.N,+3.3V*%
X146253600Y-80463400D03*
%TO.P,J1,7,Pin_7*%
%TO.N,unconnected-(J1-Pin_7-Pad7)*%
X146253600Y-83003400D03*
%TD*%
D18*
%TO.P,J6,1,Pin_1*%
%TO.N,+6V*%
X133553600Y-41193400D03*
D19*
%TO.P,J6,2,Pin_2*%
%TO.N,GND*%
X133553600Y-43733400D03*
%TO.P,J6,3,Pin_3*%
%TO.N,Net-(J4-Pin_2)*%
X133553600Y-46273400D03*
%TO.P,J6,4,Pin_4*%
%TO.N,Net-(J4-Pin_1)*%
X133553600Y-48813400D03*
%TO.P,J6,5,Pin_5*%
%TO.N,unconnected-(J6-Pin_5-Pad5)*%
X133553600Y-51353400D03*
%TO.P,J6,6,Pin_6*%
%TO.N,unconnected-(J6-Pin_6-Pad6)*%
X133553600Y-53893400D03*
%TO.P,J6,7,Pin_7*%
%TO.N,unconnected-(J6-Pin_7-Pad7)*%
X133553600Y-56433400D03*
%TD*%
D18*
%TO.P,J3,1,Pin_1*%
%TO.N,Net-(J3-Pin_1)*%
X126009400Y-46482000D03*
D19*
%TO.P,J3,2,Pin_2*%
%TO.N,Net-(J3-Pin_2)*%
X126009400Y-49022000D03*
%TD*%
D23*
%TO.N,GND*%
X122114200Y-78378400D03*
X132283200Y-113157000D03*
X118714200Y-87528400D03*
X119481600Y-110845600D03*
X122114200Y-87528400D03*
%TO.N,+5V*%
X116616600Y-91694000D03*
X140614400Y-66268600D03*
X107569000Y-125857000D03*
X154228800Y-61874400D03*
%TO.N,+6V*%
X136499600Y-92405200D03*
X115697000Y-119989600D03*
X126949200Y-101981000D03*
%TO.N,/Left_GPIO*%
X137172700Y-40119300D03*
X140601700Y-118275100D03*
%TO.N,+3.3V*%
X152628600Y-67462400D03*
X98094800Y-126771400D03*
X108508800Y-103200200D03*
X152624800Y-80463400D03*
X159689800Y-112191800D03*
X152628600Y-70662800D03*
X108508800Y-115798600D03*
%TO.N,/Left_PWM*%
X137223500Y-38112700D03*
X138950700Y-118249700D03*
X151714200Y-105486200D03*
%TO.N,Net-(J4-Pin_2)*%
X151460200Y-36652200D03*
X168122600Y-53695600D03*
%TO.N,Net-(J4-Pin_1)*%
X168732200Y-49987200D03*
%TO.N,/Stepper_Dir*%
X142100300Y-118198900D03*
%TO.N,/Stepper_Step*%
X132867400Y-64287400D03*
X126796800Y-64287400D03*
%TO.N,/Stepper_Enable*%
X143548100Y-118148100D03*
%TO.N,Net-(J11-Pin_2)*%
X100609400Y-129844800D03*
%TO.N,/SCK*%
X154736800Y-109118400D03*
%TO.N,/RST*%
X149580600Y-114096800D03*
%TO.N,/MOSI*%
X151688800Y-111125000D03*
%TO.N,/MISO*%
X153263600Y-110159800D03*
%TO.N,/EN*%
X115062000Y-81788000D03*
X111887000Y-78638400D03*
%TD*%
D24*
%TO.N,GND*%
X121793000Y-113157000D02*
X119481600Y-110845600D01*
X132283200Y-113157000D02*
X121793000Y-113157000D01*
X114142200Y-110845600D02*
X119481600Y-110845600D01*
X122114200Y-87528400D02*
X122114200Y-78378400D01*
X111780000Y-108483400D02*
X114142200Y-110845600D01*
X118714200Y-87528400D02*
X122114200Y-87528400D01*
%TO.N,VBAT*%
X162919400Y-103276400D02*
X162233600Y-102590600D01*
X174142400Y-96748600D02*
X174167800Y-96774000D01*
X170154600Y-96748600D02*
X167944800Y-96748600D01*
X167944800Y-96823400D02*
X167944800Y-96748600D01*
X170154600Y-96748600D02*
X174142400Y-96748600D01*
X177012600Y-105891200D02*
X167944800Y-96823400D01*
X167944800Y-96748600D02*
X162919400Y-101774000D01*
X162919400Y-101774000D02*
X162919400Y-103276400D01*
%TO.N,+5V*%
X107569000Y-125857000D02*
X104978200Y-125857000D01*
X173888400Y-81534000D02*
X154228800Y-61874400D01*
X135610600Y-89433400D02*
X140614400Y-84429600D01*
X174167800Y-81534000D02*
X173888400Y-81534000D01*
X140614400Y-84429600D02*
X140614400Y-66268600D01*
X116616600Y-91694000D02*
X118877200Y-89433400D01*
X104978200Y-125857000D02*
X102641400Y-123520200D01*
X102641400Y-120980200D02*
X102641400Y-123520200D01*
X118877200Y-89433400D02*
X135610600Y-89433400D01*
%TO.N,+6V*%
X131558400Y-92495000D02*
X126949200Y-97104200D01*
X136409800Y-92495000D02*
X131558400Y-92495000D01*
X115697000Y-119989600D02*
X115697000Y-123393200D01*
X115697000Y-123393200D02*
X115773200Y-123469400D01*
X126949200Y-97104200D02*
X126949200Y-101981000D01*
X136499600Y-92405200D02*
X136409800Y-92495000D01*
%TO.N,/Left_GPIO*%
X104314633Y-127459000D02*
X103125800Y-127459000D01*
X138873600Y-120003200D02*
X121652400Y-120003200D01*
X140601700Y-118275100D02*
X138873600Y-120003200D01*
X123012200Y-46151800D02*
X109093000Y-46151800D01*
X130251200Y-38912800D02*
X123012200Y-46151800D01*
X104978205Y-127458998D02*
X104314635Y-127459002D01*
X108232571Y-127459000D02*
X104978205Y-127458998D01*
X121652400Y-120003200D02*
X114196602Y-127458998D01*
X108232573Y-127458998D02*
X108232571Y-127459000D01*
X99644200Y-123977400D02*
X99644200Y-108737400D01*
X135966200Y-38912800D02*
X130251200Y-38912800D01*
X99644200Y-108737400D02*
X102641400Y-105740200D01*
X109093000Y-46151800D02*
X109067600Y-46177200D01*
X114196602Y-127458998D02*
X108232573Y-127458998D01*
X137172700Y-40119300D02*
X135966200Y-38912800D01*
X104314635Y-127459002D02*
X104314633Y-127459000D01*
X103125800Y-127459000D02*
X99644200Y-123977400D01*
%TO.N,+3.3V*%
X105181400Y-123520200D02*
X108508800Y-120192800D01*
X152624800Y-80463400D02*
X152628600Y-80467200D01*
X116890800Y-103200200D02*
X105181400Y-103200200D01*
X96342200Y-106629200D02*
X95300800Y-105587800D01*
X108508800Y-120192800D02*
X108508800Y-115798600D01*
X152628600Y-67462400D02*
X152628600Y-60268400D01*
X159689800Y-112191800D02*
X125882400Y-112191800D01*
X152624800Y-80463400D02*
X152624800Y-70666600D01*
X152624800Y-70666600D02*
X152628600Y-70662800D01*
X152628600Y-80467200D02*
X152628600Y-96824800D01*
X125882400Y-112191800D02*
X116890800Y-103200200D01*
X152628600Y-96824800D02*
X163957000Y-108153200D01*
X96342200Y-125018800D02*
X96342200Y-106629200D01*
X98094800Y-126771400D02*
X96342200Y-125018800D01*
X152628600Y-60268400D02*
X146253600Y-53893400D01*
%TO.N,/Left_PWM*%
X103493200Y-126658000D02*
X100609400Y-123774200D01*
X108864400Y-121310400D02*
X108864400Y-125694385D01*
X138950700Y-118249700D02*
X138150600Y-119049800D01*
X100609400Y-123774200D02*
X100609400Y-112852200D01*
X137223500Y-38112700D02*
X127634338Y-38112700D01*
X151714200Y-105486200D02*
X151714200Y-78304000D01*
X138150600Y-119049800D02*
X111125000Y-119049800D01*
X104564207Y-126575793D02*
X104482000Y-126658000D01*
X100609400Y-112852200D02*
X102641400Y-110820200D01*
X104482000Y-126658000D02*
X103493200Y-126658000D01*
X111125000Y-119049800D02*
X108864400Y-121310400D01*
X107900785Y-126658000D02*
X104646415Y-126658000D01*
X127634338Y-38112700D02*
X123633838Y-42113200D01*
X104646415Y-126658000D02*
X104564207Y-126575793D01*
X151714200Y-78304000D02*
X146253600Y-72843400D01*
X108864400Y-125694385D02*
X107900785Y-126658000D01*
X123633838Y-42113200D02*
X109067600Y-42113200D01*
%TO.N,/Right_GPIO*%
X163576000Y-53035200D02*
X150475400Y-53035200D01*
X109646799Y-85420201D02*
X146253600Y-48813400D01*
X150475400Y-53035200D02*
X146253600Y-48813400D01*
X171196000Y-45415200D02*
X163576000Y-53035200D01*
X105181400Y-85420201D02*
X109646799Y-85420201D01*
%TO.N,/Right_PWM*%
X105181400Y-82880199D02*
X109646801Y-82880199D01*
X109646801Y-82880199D02*
X146253600Y-46273400D01*
X151186600Y-51206400D02*
X146253600Y-46273400D01*
X171246800Y-41579800D02*
X161620200Y-51206400D01*
X161620200Y-51206400D02*
X151186600Y-51206400D01*
%TO.N,Net-(J3-Pin_1)*%
X122402600Y-50088800D02*
X126009400Y-46482000D01*
X109067600Y-50088800D02*
X122402600Y-50088800D01*
%TO.N,Net-(J3-Pin_2)*%
X108991400Y-53594000D02*
X121437400Y-53594000D01*
X121437400Y-53594000D02*
X126009400Y-49022000D01*
%TO.N,Net-(J4-Pin_2)*%
X133553600Y-46273400D02*
X143174800Y-36652200D01*
X168122600Y-53695600D02*
X171221400Y-53695600D01*
X143174800Y-36652200D02*
X151460200Y-36652200D01*
%TO.N,Net-(J4-Pin_1)*%
X133558600Y-48813400D02*
X133553600Y-48813400D01*
X150114000Y-38379400D02*
X143992600Y-38379400D01*
X168732200Y-49987200D02*
X171145200Y-49987200D01*
X143992600Y-38379400D02*
X133558600Y-48813400D01*
X155397200Y-43662600D02*
X150114000Y-38379400D01*
X155397200Y-46024800D02*
X155397200Y-43662600D01*
%TO.N,/Stepper_Dir*%
X142100300Y-118198900D02*
X139395200Y-120904000D01*
X139395200Y-120904000D02*
X122097800Y-120904000D01*
X98399600Y-124180492D02*
X98399600Y-107442000D01*
X122097800Y-120904000D02*
X114741796Y-128260004D01*
X102479112Y-128260004D02*
X98399600Y-124180492D01*
X98399600Y-107442000D02*
X102641400Y-103200200D01*
X114741796Y-128260004D02*
X102479112Y-128260004D01*
%TO.N,Net-(J8-Pin_5)*%
X161467800Y-86614000D02*
X161467800Y-84074000D01*
%TO.N,/Stepper_Step*%
X161467800Y-81534000D02*
X161442400Y-81534000D01*
X158572200Y-75031600D02*
X147828000Y-64287400D01*
X161442400Y-81534000D02*
X158572200Y-78663800D01*
X126796800Y-64287400D02*
X107238800Y-64287400D01*
X158572200Y-78663800D02*
X158572200Y-75031600D01*
X107238800Y-64287400D02*
X101021800Y-70504400D01*
X101021800Y-83800600D02*
X102641400Y-85420200D01*
X147828000Y-64287400D02*
X132867400Y-64287400D01*
X101021800Y-70504400D02*
X101021800Y-83800600D01*
%TO.N,/Stepper_Enable*%
X102796800Y-131905200D02*
X101650800Y-130759200D01*
X139852400Y-121869200D02*
X122377200Y-121869200D01*
X143548100Y-118173500D02*
X139852400Y-121869200D01*
X101650800Y-128727200D02*
X97358200Y-124434600D01*
X143548100Y-118148100D02*
X143548100Y-118173500D01*
X122377200Y-121869200D02*
X112341200Y-131905200D01*
X97358200Y-124434600D02*
X97358200Y-103403400D01*
X97358200Y-103403400D02*
X102641400Y-98120200D01*
X101650800Y-130759200D02*
X101650800Y-128727200D01*
X112341200Y-131905200D02*
X102796800Y-131905200D01*
%TO.N,Net-(J10-Pin_4)*%
X171119800Y-89154000D02*
X174167800Y-89154000D01*
%TO.N,Net-(J10-Pin_6)*%
X171119800Y-84074000D02*
X174167800Y-84074000D01*
%TO.N,Net-(J10-Pin_5)*%
X171119800Y-86614000D02*
X174167800Y-86614000D01*
%TO.N,Net-(J10-Pin_3)*%
X171119800Y-91694000D02*
X174167800Y-91694001D01*
%TO.N,Net-(J11-Pin_2)*%
X94640400Y-125552200D02*
X98933000Y-129844800D01*
X98933000Y-129844800D02*
X100609400Y-129844800D01*
X94640400Y-115036600D02*
X94640400Y-125552200D01*
%TO.N,/SCK*%
X154736800Y-109118400D02*
X129082800Y-109118400D01*
X115544601Y-95580201D02*
X105181400Y-95580201D01*
X129082800Y-109118400D02*
X115544601Y-95580201D01*
%TO.N,/RST*%
X113538001Y-114096800D02*
X105181400Y-105740199D01*
X149580600Y-114096800D02*
X113538001Y-114096800D01*
%TO.N,/MOSI*%
X116306600Y-100685600D02*
X107492800Y-100685600D01*
X126746000Y-111125000D02*
X116306600Y-100685600D01*
X151688800Y-111125000D02*
X126746000Y-111125000D01*
X107492800Y-100685600D02*
X107467400Y-100660200D01*
X107467400Y-100660200D02*
X105181400Y-100660200D01*
%TO.N,/MISO*%
X153263600Y-110159800D02*
X128066800Y-110159800D01*
X128066800Y-110159800D02*
X114782600Y-96875600D01*
X114782600Y-96875600D02*
X106426000Y-96875600D01*
X106426000Y-96875600D02*
X105181400Y-98120200D01*
%TO.N,/CS*%
X154965400Y-116941600D02*
X163957000Y-125933200D01*
X111302800Y-116941600D02*
X154965400Y-116941600D01*
X105181400Y-110820200D02*
X111302800Y-116941600D01*
%TO.N,/IRQ*%
X112674400Y-115773200D02*
X163957000Y-115773200D01*
X105181400Y-108280200D02*
X112674400Y-115773200D01*
%TO.N,/EN*%
X158800800Y-108077000D02*
X163957000Y-113233200D01*
X115062000Y-81788000D02*
X115062000Y-91705585D01*
X115062000Y-91705585D02*
X131433415Y-108077000D01*
X105181400Y-77800200D02*
X111048800Y-77800200D01*
X131433415Y-108077000D02*
X158800800Y-108077000D01*
X111048800Y-77800200D02*
X111887000Y-78638400D01*
%TD*%
%TA.AperFunction,Conductor*%
%TO.N,GND*%
G36*
X92350400Y-116436599D02*
G01*
X92350401Y-116436600D01*
X93048225Y-116436600D01*
X93048232Y-116436599D01*
X93107771Y-116430198D01*
X93107778Y-116430196D01*
X93242487Y-116379953D01*
X93357587Y-116293789D01*
X93357590Y-116293786D01*
X93391565Y-116248402D01*
X93463843Y-116183478D01*
X93555464Y-116151156D01*
X93652479Y-116156357D01*
X93740120Y-116198287D01*
X93805044Y-116270565D01*
X93837366Y-116362186D01*
X93839900Y-116397622D01*
X93839900Y-125631046D01*
X93870661Y-125785692D01*
X93870663Y-125785697D01*
X93931003Y-125931373D01*
X93931006Y-125931380D01*
X94018608Y-126062485D01*
X94018611Y-126062489D01*
X98311211Y-130355089D01*
X98311210Y-130355089D01*
X98422709Y-130466587D01*
X98422711Y-130466589D01*
X98553821Y-130554194D01*
X98669777Y-130602224D01*
X98699503Y-130614537D01*
X98699504Y-130614537D01*
X98699506Y-130614538D01*
X98852099Y-130644890D01*
X98854157Y-130645300D01*
X100607612Y-130645300D01*
X100702900Y-130664254D01*
X100783682Y-130718230D01*
X100837658Y-130799012D01*
X100851827Y-130845722D01*
X100881061Y-130992692D01*
X100881063Y-130992697D01*
X100941403Y-131138373D01*
X100941406Y-131138380D01*
X101029010Y-131269487D01*
X101029011Y-131269489D01*
X101543952Y-131784431D01*
X101597928Y-131865212D01*
X101616882Y-131960500D01*
X101597928Y-132055788D01*
X101543951Y-132136570D01*
X101463170Y-132190546D01*
X101367882Y-132209500D01*
X95226234Y-132209500D01*
X95215373Y-132209263D01*
X94839508Y-132192852D01*
X94817868Y-132190959D01*
X94450251Y-132142562D01*
X94428858Y-132138790D01*
X94066856Y-132058535D01*
X94045875Y-132052913D01*
X93692246Y-131941415D01*
X93671833Y-131933985D01*
X93329270Y-131792090D01*
X93309590Y-131782914D01*
X92980691Y-131611700D01*
X92961878Y-131600838D01*
X92649160Y-131401614D01*
X92631367Y-131389155D01*
X92337206Y-131163438D01*
X92320565Y-131149475D01*
X92047189Y-130898972D01*
X92031829Y-130883612D01*
X91787990Y-130617509D01*
X91781325Y-130610235D01*
X91767367Y-130593601D01*
X91767366Y-130593600D01*
X91541639Y-130299427D01*
X91529182Y-130281635D01*
X91462135Y-130176393D01*
X91329956Y-129968914D01*
X91319110Y-129950129D01*
X91147877Y-129621195D01*
X91138704Y-129601520D01*
X91120396Y-129557321D01*
X91049619Y-129386449D01*
X90996816Y-129258969D01*
X90989386Y-129238558D01*
X90877885Y-128884921D01*
X90872263Y-128863938D01*
X90792011Y-128501944D01*
X90788239Y-128480553D01*
X90788239Y-128480552D01*
X90739838Y-128112918D01*
X90737948Y-128091307D01*
X90721537Y-127715429D01*
X90721300Y-127704568D01*
X90721300Y-116650180D01*
X90740254Y-116554892D01*
X90794230Y-116474110D01*
X90875012Y-116420134D01*
X90970300Y-116401180D01*
X91057318Y-116416880D01*
X91093021Y-116430196D01*
X91093028Y-116430198D01*
X91152567Y-116436599D01*
X91152575Y-116436600D01*
X91850399Y-116436600D01*
X91850400Y-116436599D01*
X91850400Y-115411877D01*
X91926706Y-115455933D01*
X92041156Y-115486600D01*
X92159644Y-115486600D01*
X92274094Y-115455933D01*
X92350400Y-115411877D01*
X92350400Y-116436599D01*
G37*
%TD.AperFunction*%
%TA.AperFunction,Conductor*%
G36*
X175226228Y-33210737D02*
G01*
X175602106Y-33227148D01*
X175623717Y-33229038D01*
X175991352Y-33277439D01*
X176012743Y-33281211D01*
X176078537Y-33295797D01*
X176374756Y-33361467D01*
X176395708Y-33367081D01*
X176749366Y-33478588D01*
X176769754Y-33486009D01*
X177112334Y-33627910D01*
X177132008Y-33637085D01*
X177460911Y-33808302D01*
X177479718Y-33819160D01*
X177792443Y-34018386D01*
X177810224Y-34030837D01*
X178104400Y-34256566D01*
X178121040Y-34270529D01*
X178394411Y-34521028D01*
X178409771Y-34536388D01*
X178660270Y-34809759D01*
X178674231Y-34826397D01*
X178822220Y-35019260D01*
X178899957Y-35120568D01*
X178912417Y-35138363D01*
X179111637Y-35451077D01*
X179122497Y-35469888D01*
X179293714Y-35798791D01*
X179302893Y-35818475D01*
X179329398Y-35882463D01*
X179444785Y-36161032D01*
X179452215Y-36181445D01*
X179563714Y-36535076D01*
X179569335Y-36556056D01*
X179569336Y-36556058D01*
X179649588Y-36918056D01*
X179653360Y-36939447D01*
X179701759Y-37307066D01*
X179703652Y-37328706D01*
X179711541Y-37509388D01*
X179719407Y-37689558D01*
X179720063Y-37704570D01*
X179720300Y-37715432D01*
X179720300Y-87775892D01*
X179754406Y-87903181D01*
X179754407Y-87903183D01*
X179754408Y-87903186D01*
X179820300Y-88017314D01*
X179913486Y-88110500D01*
X180027614Y-88176392D01*
X180154908Y-88210500D01*
X180286692Y-88210500D01*
X185154908Y-88210500D01*
X185215367Y-88210500D01*
X185226228Y-88210737D01*
X185602106Y-88227148D01*
X185623717Y-88229038D01*
X185991337Y-88277437D01*
X185991352Y-88277439D01*
X186012743Y-88281211D01*
X186078537Y-88295797D01*
X186374756Y-88361467D01*
X186395708Y-88367081D01*
X186749366Y-88478588D01*
X186769754Y-88486009D01*
X187112334Y-88627910D01*
X187132008Y-88637085D01*
X187460911Y-88808302D01*
X187479712Y-88819156D01*
X187792443Y-89018386D01*
X187810224Y-89030837D01*
X188104400Y-89256566D01*
X188121040Y-89270529D01*
X188394411Y-89521028D01*
X188409771Y-89536388D01*
X188660270Y-89809759D01*
X188674231Y-89826397D01*
X188837021Y-90038549D01*
X188899957Y-90120568D01*
X188912417Y-90138363D01*
X189111637Y-90451077D01*
X189122497Y-90469888D01*
X189293714Y-90798791D01*
X189302895Y-90818479D01*
X189444785Y-91161032D01*
X189452215Y-91181445D01*
X189563714Y-91535076D01*
X189569336Y-91556058D01*
X189649588Y-91918056D01*
X189653360Y-91939447D01*
X189701759Y-92307066D01*
X189703652Y-92328706D01*
X189720063Y-92704570D01*
X189720300Y-92715432D01*
X189720300Y-127704567D01*
X189720063Y-127715429D01*
X189703652Y-128091293D01*
X189701759Y-128112933D01*
X189653360Y-128480552D01*
X189649588Y-128501943D01*
X189569336Y-128863941D01*
X189563714Y-128884923D01*
X189452215Y-129238554D01*
X189444785Y-129258967D01*
X189302895Y-129601520D01*
X189293714Y-129621208D01*
X189122497Y-129950111D01*
X189111637Y-129968922D01*
X188912417Y-130281636D01*
X188899957Y-130299431D01*
X188674233Y-130593600D01*
X188660270Y-130610240D01*
X188409771Y-130883611D01*
X188394411Y-130898971D01*
X188121040Y-131149470D01*
X188104400Y-131163433D01*
X187810231Y-131389157D01*
X187792436Y-131401617D01*
X187479722Y-131600837D01*
X187460911Y-131611697D01*
X187132008Y-131782914D01*
X187112320Y-131792095D01*
X186769767Y-131933985D01*
X186749354Y-131941415D01*
X186395723Y-132052914D01*
X186374741Y-132058536D01*
X186012743Y-132138788D01*
X185991352Y-132142560D01*
X185623733Y-132190959D01*
X185602093Y-132192852D01*
X185262823Y-132207665D01*
X185226227Y-132209263D01*
X185215367Y-132209500D01*
X113770118Y-132209500D01*
X113674830Y-132190546D01*
X113594048Y-132136570D01*
X113540072Y-132055788D01*
X113521118Y-131960500D01*
X113540072Y-131865212D01*
X113594048Y-131784430D01*
X117159428Y-128219049D01*
X123070300Y-128219049D01*
X123070300Y-128269811D01*
X123070300Y-128500951D01*
X123107096Y-128780442D01*
X123135092Y-128884923D01*
X123180057Y-129052735D01*
X123180060Y-129052744D01*
X123287931Y-129313172D01*
X123287939Y-129313188D01*
X123428888Y-129557317D01*
X123428891Y-129557321D01*
X123570944Y-129742448D01*
X123600500Y-129780965D01*
X123799835Y-129980300D01*
X124023483Y-130151912D01*
X124124960Y-130210500D01*
X124267611Y-130292860D01*
X124267627Y-130292868D01*
X124391119Y-130344019D01*
X124528061Y-130400742D01*
X124800358Y-130473704D01*
X125039921Y-130505243D01*
X125079848Y-130510500D01*
X125079849Y-130510500D01*
X125361752Y-130510500D01*
X125396687Y-130505900D01*
X125641242Y-130473704D01*
X125913539Y-130400742D01*
X126131360Y-130310518D01*
X126173972Y-130292868D01*
X126173977Y-130292865D01*
X126173983Y-130292863D01*
X126418117Y-130151912D01*
X126641765Y-129980300D01*
X126841100Y-129780965D01*
X127012712Y-129557317D01*
X127153663Y-129313183D01*
X127163280Y-129289967D01*
X127202011Y-129196460D01*
X127261542Y-129052739D01*
X127334504Y-128780442D01*
X127371300Y-128500951D01*
X127371300Y-128219049D01*
X127334504Y-127939558D01*
X127261542Y-127667261D01*
X127210612Y-127544305D01*
X127153668Y-127406827D01*
X127153660Y-127406811D01*
X127048963Y-127225471D01*
X127012712Y-127162683D01*
X126841100Y-126939035D01*
X126641765Y-126739700D01*
X126641760Y-126739696D01*
X126641759Y-126739695D01*
X126418121Y-126568091D01*
X126418117Y-126568088D01*
X126173988Y-126427139D01*
X126173972Y-126427131D01*
X125913544Y-126319260D01*
X125913543Y-126319259D01*
X125913539Y-126319258D01*
X125641242Y-126246296D01*
X125641235Y-126246295D01*
X125361752Y-126209500D01*
X125361751Y-126209500D01*
X125079849Y-126209500D01*
X125079848Y-126209500D01*
X124800364Y-126246295D01*
X124800362Y-126246295D01*
X124800358Y-126246296D01*
X124594508Y-126301453D01*
X124528064Y-126319257D01*
X124528055Y-126319260D01*
X124267627Y-126427131D01*
X124267611Y-126427139D01*
X124023482Y-126568088D01*
X124023478Y-126568091D01*
X123799840Y-126739695D01*
X123600495Y-126939040D01*
X123428891Y-127162678D01*
X123428888Y-127162682D01*
X123287939Y-127406811D01*
X123287931Y-127406827D01*
X123180060Y-127667255D01*
X123180057Y-127667264D01*
X123170062Y-127704567D01*
X123107096Y-127939558D01*
X123107095Y-127939562D01*
X123107095Y-127939564D01*
X123078474Y-128156959D01*
X123070300Y-128219049D01*
X117159428Y-128219049D01*
X117343649Y-128034828D01*
X118415175Y-126963302D01*
X121709838Y-123668637D01*
X121790617Y-123614664D01*
X121885905Y-123595710D01*
X121981193Y-123614664D01*
X122061975Y-123668640D01*
X122115951Y-123749422D01*
X122122718Y-123767765D01*
X122187978Y-123968614D01*
X122187982Y-123968624D01*
X122255440Y-124101017D01*
X122280913Y-124151010D01*
X122401234Y-124316619D01*
X122545981Y-124461366D01*
X122711590Y-124581687D01*
X122893981Y-124674620D01*
X123088666Y-124737877D01*
X123159775Y-124749139D01*
X123290838Y-124769899D01*
X123290845Y-124769899D01*
X123290848Y-124769900D01*
X123290851Y-124769900D01*
X123495549Y-124769900D01*
X123495552Y-124769900D01*
X123495555Y-124769899D01*
X123495561Y-124769899D01*
X123591070Y-124754771D01*
X123697734Y-124737877D01*
X123892419Y-124674620D01*
X123952304Y-124644107D01*
X129720300Y-124644107D01*
X129720300Y-129775892D01*
X129754406Y-129903181D01*
X129754407Y-129903183D01*
X129754408Y-129903186D01*
X129820300Y-130017314D01*
X129913486Y-130110500D01*
X130027614Y-130176392D01*
X130154908Y-130210500D01*
X150286692Y-130210500D01*
X150413986Y-130176392D01*
X150528114Y-130110500D01*
X150621300Y-130017314D01*
X150687192Y-129903186D01*
X150721300Y-129775892D01*
X150721300Y-128219049D01*
X153070300Y-128219049D01*
X153070300Y-128269811D01*
X153070300Y-128500951D01*
X153107096Y-128780442D01*
X153135092Y-128884923D01*
X153180057Y-129052735D01*
X153180060Y-129052744D01*
X153287931Y-129313172D01*
X153287939Y-129313188D01*
X153428888Y-129557317D01*
X153428891Y-129557321D01*
X153570944Y-129742448D01*
X153600500Y-129780965D01*
X153799835Y-129980300D01*
X154023483Y-130151912D01*
X154124960Y-130210500D01*
X154267611Y-130292860D01*
X154267627Y-130292868D01*
X154391119Y-130344019D01*
X154528061Y-130400742D01*
X154800358Y-130473704D01*
X155039921Y-130505243D01*
X155079848Y-130510500D01*
X155079849Y-130510500D01*
X155361752Y-130510500D01*
X155396687Y-130505900D01*
X155641242Y-130473704D01*
X155913539Y-130400742D01*
X156131360Y-130310518D01*
X156173972Y-130292868D01*
X156173977Y-130292865D01*
X156173983Y-130292863D01*
X156418117Y-130151912D01*
X156641765Y-129980300D01*
X156841100Y-129780965D01*
X157012712Y-129557317D01*
X157153663Y-129313183D01*
X157163280Y-129289967D01*
X157202011Y-129196460D01*
X157261542Y-129052739D01*
X157334504Y-128780442D01*
X157371300Y-128500951D01*
X157371300Y-128219049D01*
X157334504Y-127939558D01*
X157261542Y-127667261D01*
X157210612Y-127544305D01*
X157153668Y-127406827D01*
X157153660Y-127406811D01*
X157048963Y-127225471D01*
X157012712Y-127162683D01*
X156841100Y-126939035D01*
X156641765Y-126739700D01*
X156641760Y-126739696D01*
X156641759Y-126739695D01*
X156418121Y-126568091D01*
X156418117Y-126568088D01*
X156173988Y-126427139D01*
X156173972Y-126427131D01*
X155913544Y-126319260D01*
X155913543Y-126319259D01*
X155913539Y-126319258D01*
X155641242Y-126246296D01*
X155641235Y-126246295D01*
X155361752Y-126209500D01*
X155361751Y-126209500D01*
X155079849Y-126209500D01*
X155079848Y-126209500D01*
X154800364Y-126246295D01*
X154800362Y-126246295D01*
X154800358Y-126246296D01*
X154594508Y-126301453D01*
X154528064Y-126319257D01*
X154528055Y-126319260D01*
X154267627Y-126427131D01*
X154267611Y-126427139D01*
X154023482Y-126568088D01*
X154023478Y-126568091D01*
X153799840Y-126739695D01*
X153600495Y-126939040D01*
X153428891Y-127162678D01*
X153428888Y-127162682D01*
X153287939Y-127406811D01*
X153287931Y-127406827D01*
X153180060Y-127667255D01*
X153180057Y-127667264D01*
X153170062Y-127704567D01*
X153107096Y-127939558D01*
X153107095Y-127939562D01*
X153107095Y-127939564D01*
X153078474Y-128156959D01*
X153070300Y-128219049D01*
X150721300Y-128219049D01*
X150721300Y-124644108D01*
X150687192Y-124516814D01*
X150621300Y-124402686D01*
X150528114Y-124309500D01*
X150413986Y-124243608D01*
X150413983Y-124243607D01*
X150413981Y-124243606D01*
X150286692Y-124209500D01*
X130286692Y-124209500D01*
X130154908Y-124209500D01*
X130027618Y-124243606D01*
X130027614Y-124243607D01*
X130027614Y-124243608D01*
X129913486Y-124309500D01*
X129820300Y-124402686D01*
X129777001Y-124477683D01*
X129754406Y-124516818D01*
X129720300Y-124644107D01*
X123952304Y-124644107D01*
X124074810Y-124581687D01*
X124240419Y-124461366D01*
X124385166Y-124316619D01*
X124505487Y-124151010D01*
X124598420Y-123968619D01*
X124661677Y-123773934D01*
X124678571Y-123667270D01*
X124693699Y-123571761D01*
X124693700Y-123571749D01*
X124693700Y-123367050D01*
X124693699Y-123367038D01*
X124671811Y-123228847D01*
X124661677Y-123164866D01*
X124621689Y-123041796D01*
X124606694Y-122995645D01*
X124595275Y-122899163D01*
X124621647Y-122805656D01*
X124681795Y-122729359D01*
X124766562Y-122681887D01*
X124843507Y-122669700D01*
X139931242Y-122669700D01*
X140085897Y-122638937D01*
X140231579Y-122578594D01*
X140362689Y-122490989D01*
X144169889Y-118683789D01*
X144257494Y-118552679D01*
X144317837Y-118406997D01*
X144348600Y-118252342D01*
X144348600Y-118094658D01*
X144348600Y-118069258D01*
X144342716Y-118039675D01*
X144342717Y-117942520D01*
X144379897Y-117852761D01*
X144448597Y-117784063D01*
X144538357Y-117746884D01*
X144586932Y-117742100D01*
X154530682Y-117742100D01*
X154625970Y-117761054D01*
X154706752Y-117815030D01*
X162533570Y-125641848D01*
X162587546Y-125722630D01*
X162606500Y-125817918D01*
X162606500Y-126039496D01*
X162639753Y-126249440D01*
X162697490Y-126427137D01*
X162705443Y-126451612D01*
X162801949Y-126641016D01*
X162814651Y-126658498D01*
X162926897Y-126812993D01*
X163077207Y-126963303D01*
X163130131Y-127001755D01*
X163196080Y-127073099D01*
X163229707Y-127164249D01*
X163225892Y-127261329D01*
X163185217Y-127349559D01*
X163130131Y-127404645D01*
X163077207Y-127443096D01*
X162926897Y-127593406D01*
X162801950Y-127765382D01*
X162705441Y-127954792D01*
X162639753Y-128156959D01*
X162606500Y-128366903D01*
X162606500Y-128579496D01*
X162639753Y-128789440D01*
X162639754Y-128789443D01*
X162705443Y-128991612D01*
X162801949Y-129181016D01*
X162926896Y-129352992D01*
X163077208Y-129503304D01*
X163249184Y-129628251D01*
X163438588Y-129724757D01*
X163640757Y-129790446D01*
X163714601Y-129802141D01*
X163850703Y-129823699D01*
X163850710Y-129823699D01*
X163850713Y-129823700D01*
X163850716Y-129823700D01*
X164063284Y-129823700D01*
X164063287Y-129823700D01*
X164063290Y-129823699D01*
X164063296Y-129823699D01*
X164162476Y-129807989D01*
X164273243Y-129790446D01*
X164475412Y-129724757D01*
X164664816Y-129628251D01*
X164836792Y-129503304D01*
X164987104Y-129352992D01*
X165112051Y-129181016D01*
X165208557Y-128991612D01*
X165274246Y-128789443D01*
X165299762Y-128628345D01*
X165307499Y-128579496D01*
X165307500Y-128579484D01*
X165307500Y-128366915D01*
X165307499Y-128366903D01*
X165274246Y-128156959D01*
X165274246Y-128156957D01*
X165208557Y-127954788D01*
X165112051Y-127765384D01*
X164987104Y-127593408D01*
X164836792Y-127443096D01*
X164783867Y-127404644D01*
X164717920Y-127333303D01*
X164684293Y-127242153D01*
X164688107Y-127145073D01*
X164728781Y-127056842D01*
X164783867Y-127001755D01*
X164836792Y-126963304D01*
X164987104Y-126812992D01*
X165112051Y-126641016D01*
X165208557Y-126451612D01*
X165274246Y-126249443D01*
X165303857Y-126062489D01*
X165307499Y-126039496D01*
X165307500Y-126039484D01*
X165307500Y-125826915D01*
X165307499Y-125826903D01*
X165282774Y-125670801D01*
X165274246Y-125616957D01*
X165208557Y-125414788D01*
X165112051Y-125225384D01*
X164987104Y-125053408D01*
X164836792Y-124903096D01*
X164783867Y-124864644D01*
X164717920Y-124793303D01*
X164684293Y-124702153D01*
X164688107Y-124605073D01*
X164728781Y-124516842D01*
X164783867Y-124461755D01*
X164836792Y-124423304D01*
X164987104Y-124272992D01*
X165112051Y-124101016D01*
X165208557Y-123911612D01*
X165274246Y-123709443D01*
X165307500Y-123499487D01*
X165307500Y-123286913D01*
X165307499Y-123286910D01*
X165307499Y-123286903D01*
X165274246Y-123076959D01*
X165274246Y-123076957D01*
X165208557Y-122874788D01*
X165112051Y-122685384D01*
X164987104Y-122513408D01*
X164836792Y-122363096D01*
X164783867Y-122324644D01*
X164717920Y-122253303D01*
X164684293Y-122162153D01*
X164688107Y-122065073D01*
X164728781Y-121976842D01*
X164783867Y-121921755D01*
X164836792Y-121883304D01*
X164987104Y-121732992D01*
X165112051Y-121561016D01*
X165208557Y-121371612D01*
X165274246Y-121169443D01*
X165307500Y-120959487D01*
X165307500Y-120746913D01*
X165307499Y-120746910D01*
X165307499Y-120746903D01*
X165274246Y-120536959D01*
X165274246Y-120536957D01*
X165208557Y-120334788D01*
X165112051Y-120145384D01*
X164987104Y-119973408D01*
X164836792Y-119823096D01*
X164783867Y-119784644D01*
X164717920Y-119713303D01*
X164684293Y-119622153D01*
X164688107Y-119525073D01*
X164728781Y-119436842D01*
X164783867Y-119381755D01*
X164836792Y-119343304D01*
X164987104Y-119192992D01*
X165112051Y-119021016D01*
X165208557Y-118831612D01*
X165274246Y-118629443D01*
X165307500Y-118419487D01*
X165307500Y-118206913D01*
X165307499Y-118206910D01*
X165307499Y-118206903D01*
X165274246Y-117996959D01*
X165274246Y-117996957D01*
X165208557Y-117794788D01*
X165112051Y-117605384D01*
X164987104Y-117433408D01*
X164836792Y-117283096D01*
X164783867Y-117244644D01*
X164717920Y-117173303D01*
X164684293Y-117082153D01*
X164688107Y-116985073D01*
X164728781Y-116896842D01*
X164783867Y-116841755D01*
X164836792Y-116803304D01*
X164987104Y-116652992D01*
X165112051Y-116481016D01*
X165208557Y-116291612D01*
X165274246Y-116089443D01*
X165307500Y-115879487D01*
X165307500Y-115666913D01*
X165307499Y-115666910D01*
X165307499Y-115666903D01*
X165274246Y-115456959D01*
X165274246Y-115456957D01*
X165208557Y-115254788D01*
X165112051Y-115065384D01*
X164987104Y-114893408D01*
X164836792Y-114743096D01*
X164783867Y-114704644D01*
X164717920Y-114633303D01*
X164684293Y-114542153D01*
X164688107Y-114445073D01*
X164728781Y-114356842D01*
X164783867Y-114301755D01*
X164836792Y-114263304D01*
X164987104Y-114112992D01*
X165112051Y-113941016D01*
X165208557Y-113751612D01*
X165274246Y-113549443D01*
X165294270Y-113423019D01*
X165307499Y-113339496D01*
X165307500Y-113339484D01*
X165307500Y-113126915D01*
X165307499Y-113126903D01*
X165274246Y-112916959D01*
X165274246Y-112916957D01*
X165208557Y-112714788D01*
X165112051Y-112525384D01*
X164987104Y-112353408D01*
X164836792Y-112203096D01*
X164664816Y-112078149D01*
X164475412Y-111981643D01*
X164463273Y-111977699D01*
X164441980Y-111965103D01*
X164422066Y-111947262D01*
X164389636Y-111925590D01*
X164371524Y-111901984D01*
X164369616Y-111900275D01*
X164368618Y-111898197D01*
X164350079Y-111874034D01*
X163956999Y-111193200D01*
X164022826Y-111193200D01*
X164149993Y-111159125D01*
X164264007Y-111093299D01*
X164357099Y-111000207D01*
X164390011Y-110943200D01*
X164751737Y-111569730D01*
X164901228Y-111658159D01*
X164986720Y-111572667D01*
X164986722Y-111572664D01*
X165111623Y-111400753D01*
X165208091Y-111211425D01*
X165208095Y-111211415D01*
X165273758Y-111009323D01*
X165306999Y-110799456D01*
X165307000Y-110799444D01*
X165307000Y-110586955D01*
X165306999Y-110586943D01*
X165273758Y-110377076D01*
X165231232Y-110246194D01*
X164457000Y-110693197D01*
X164457000Y-110627374D01*
X164422925Y-110500207D01*
X164357099Y-110386193D01*
X164264007Y-110293101D01*
X164206999Y-110260187D01*
X164984363Y-109811376D01*
X164985590Y-109802058D01*
X164952848Y-109753055D01*
X164933894Y-109657767D01*
X164952848Y-109562479D01*
X165006824Y-109481697D01*
X165036461Y-109459523D01*
X165035073Y-109457669D01*
X165049329Y-109446996D01*
X165049331Y-109446996D01*
X165164546Y-109360746D01*
X165250796Y-109245531D01*
X165301091Y-109110683D01*
X165307500Y-109051073D01*
X165307500Y-108327489D01*
X176429861Y-108327489D01*
X176429861Y-108327490D01*
X176436075Y-108332004D01*
X176590341Y-108410607D01*
X176590354Y-108410613D01*
X176755016Y-108464114D01*
X176926018Y-108491199D01*
X176926031Y-108491200D01*
X177099169Y-108491200D01*
X177099181Y-108491199D01*
X177270183Y-108464114D01*
X177270184Y-108464114D01*
X177434845Y-108410613D01*
X177434858Y-108410607D01*
X177589123Y-108332005D01*
X177595336Y-108327490D01*
X177012598Y-107744752D01*
X176429861Y-108327489D01*
X165307500Y-108327489D01*
X165307499Y-107255328D01*
X165301091Y-107195717D01*
X165250796Y-107060869D01*
X165164546Y-106945654D01*
X165049331Y-106859404D01*
X164929428Y-106814683D01*
X164914481Y-106809108D01*
X164854876Y-106802700D01*
X164854873Y-106802700D01*
X163841718Y-106802700D01*
X163746430Y-106783746D01*
X163665648Y-106729770D01*
X163113533Y-106177655D01*
X163059557Y-106096873D01*
X163040603Y-106001585D01*
X163059557Y-105906297D01*
X163113533Y-105825515D01*
X163194315Y-105771539D01*
X163261716Y-105754152D01*
X163338909Y-105745455D01*
X163612718Y-105682960D01*
X163877808Y-105590201D01*
X164130845Y-105468345D01*
X164368648Y-105318923D01*
X164588225Y-105143816D01*
X164786816Y-104945225D01*
X164961923Y-104725648D01*
X165077398Y-104541869D01*
X165144139Y-104471277D01*
X165232821Y-104431594D01*
X165329938Y-104428869D01*
X165420705Y-104463516D01*
X165491303Y-104530261D01*
X165529681Y-104613509D01*
X165585298Y-104834229D01*
X165585299Y-104834231D01*
X165679096Y-105040733D01*
X165679101Y-105040741D01*
X165808254Y-105227162D01*
X165968637Y-105387545D01*
X166155058Y-105516698D01*
X166155066Y-105516703D01*
X166361565Y-105610499D01*
X166581500Y-105665918D01*
X166714674Y-105676399D01*
X166714688Y-105676400D01*
X167669399Y-105676400D01*
X167669400Y-105676399D01*
X167669400Y-104603631D01*
X167813153Y-104626400D01*
X168025647Y-104626400D01*
X168169400Y-104603631D01*
X168169400Y-105676399D01*
X168169401Y-105676400D01*
X169124112Y-105676400D01*
X169124125Y-105676399D01*
X169257297Y-105665918D01*
X169257300Y-105665918D01*
X169477234Y-105610499D01*
X169683733Y-105516703D01*
X169683741Y-105516698D01*
X169870162Y-105387545D01*
X170030545Y-105227162D01*
X170159698Y-105040741D01*
X170159703Y-105040733D01*
X170253499Y-104834234D01*
X170308918Y-104614300D01*
X170308918Y-104614297D01*
X170319399Y-104481125D01*
X170319400Y-104481111D01*
X170319400Y-103526401D01*
X170319399Y-103526400D01*
X169246631Y-103526400D01*
X169269400Y-103382647D01*
X169269400Y-103170153D01*
X169246631Y-103026400D01*
X170319399Y-103026400D01*
X170319400Y-103026399D01*
X170319400Y-102071688D01*
X170319399Y-102071674D01*
X170308918Y-101938502D01*
X170308918Y-101938499D01*
X170253499Y-101718565D01*
X170159703Y-101512066D01*
X170159698Y-101512058D01*
X170030545Y-101325637D01*
X169870162Y-101165254D01*
X169683741Y-101036101D01*
X169683733Y-101036096D01*
X169477234Y-100942300D01*
X169257299Y-100886881D01*
X169124125Y-100876400D01*
X168169401Y-100876400D01*
X168169400Y-100876401D01*
X168169400Y-101949168D01*
X168025647Y-101926400D01*
X167813153Y-101926400D01*
X167669400Y-101949168D01*
X167669400Y-100876401D01*
X167669399Y-100876400D01*
X166714674Y-100876400D01*
X166581502Y-100886881D01*
X166581499Y-100886881D01*
X166361565Y-100942300D01*
X166155066Y-101036096D01*
X166155058Y-101036101D01*
X165968637Y-101165254D01*
X165808254Y-101325637D01*
X165679101Y-101512058D01*
X165679096Y-101512066D01*
X165585299Y-101718568D01*
X165585298Y-101718570D01*
X165529681Y-101939290D01*
X165488019Y-102027058D01*
X165415940Y-102092202D01*
X165324418Y-102124804D01*
X165227387Y-102119900D01*
X165139619Y-102078238D01*
X165077395Y-102010924D01*
X164961923Y-101827152D01*
X164883453Y-101728754D01*
X164786816Y-101607575D01*
X164786810Y-101607569D01*
X164786803Y-101607561D01*
X164678429Y-101499188D01*
X164624452Y-101418407D01*
X164605498Y-101323119D01*
X164624452Y-101227831D01*
X164678428Y-101147049D01*
X167731334Y-98094143D01*
X167812111Y-98040171D01*
X167907399Y-98021217D01*
X168002687Y-98040171D01*
X168083469Y-98094147D01*
X175844535Y-105855213D01*
X175898511Y-105935995D01*
X175914399Y-105992330D01*
X175939197Y-106148898D01*
X175992724Y-106313637D01*
X175992726Y-106313643D01*
X176071370Y-106467992D01*
X176091187Y-106495267D01*
X176131862Y-106583498D01*
X176135676Y-106680578D01*
X176102050Y-106771728D01*
X176091189Y-106787982D01*
X176071798Y-106814671D01*
X176071791Y-106814683D01*
X175993192Y-106968941D01*
X175993186Y-106968954D01*
X175939685Y-107133615D01*
X175939685Y-107133616D01*
X175912600Y-107304618D01*
X175912600Y-107477781D01*
X175939685Y-107648783D01*
X175939685Y-107648784D01*
X175993186Y-107813445D01*
X175993192Y-107813458D01*
X176071793Y-107967720D01*
X176076308Y-107973936D01*
X176659753Y-107390492D01*
X176712600Y-107355181D01*
X176712600Y-107430696D01*
X176733044Y-107506996D01*
X176772540Y-107575405D01*
X176828395Y-107631260D01*
X176896804Y-107670756D01*
X176973104Y-107691200D01*
X177052096Y-107691200D01*
X177128396Y-107670756D01*
X177196805Y-107631260D01*
X177252660Y-107575405D01*
X177292156Y-107506996D01*
X177312600Y-107430696D01*
X177312600Y-107355181D01*
X177365446Y-107390492D01*
X177365448Y-107390495D01*
X177948889Y-107973937D01*
X177953405Y-107967723D01*
X178032007Y-107813458D01*
X178032013Y-107813445D01*
X178085514Y-107648784D01*
X178085514Y-107648783D01*
X178112599Y-107477781D01*
X178112600Y-107477769D01*
X178112600Y-107304630D01*
X178112599Y-107304618D01*
X178085514Y-107133616D01*
X178085514Y-107133615D01*
X178032013Y-106968954D01*
X178032007Y-106968941D01*
X177953408Y-106814683D01*
X177953402Y-106814672D01*
X177934013Y-106787986D01*
X177893337Y-106699755D01*
X177889522Y-106602675D01*
X177923149Y-106511525D01*
X177934009Y-106495271D01*
X177953832Y-106467988D01*
X178032473Y-106313645D01*
X178086002Y-106148901D01*
X178113100Y-105977811D01*
X178113100Y-105804589D01*
X178086002Y-105633499D01*
X178032473Y-105468755D01*
X177953832Y-105314412D01*
X177953830Y-105314409D01*
X177953829Y-105314407D01*
X177852018Y-105174277D01*
X177852016Y-105174275D01*
X177852014Y-105174272D01*
X177729528Y-105051786D01*
X177729524Y-105051783D01*
X177729522Y-105051781D01*
X177589392Y-104949970D01*
X177435043Y-104871326D01*
X177435037Y-104871324D01*
X177270298Y-104817797D01*
X177113730Y-104792999D01*
X177022581Y-104759372D01*
X176976613Y-104723135D01*
X170445400Y-98191922D01*
X170391424Y-98111140D01*
X170372470Y-98015852D01*
X170391424Y-97920564D01*
X170445400Y-97839782D01*
X170498772Y-97799181D01*
X170520628Y-97786804D01*
X170577045Y-97768473D01*
X170731388Y-97689832D01*
X170871031Y-97588375D01*
X170883297Y-97581429D01*
X170916304Y-97570530D01*
X170947867Y-97555980D01*
X170967361Y-97553672D01*
X170975553Y-97550968D01*
X170984576Y-97551635D01*
X171005995Y-97549100D01*
X172583593Y-97549100D01*
X172678881Y-97568054D01*
X172759663Y-97622030D01*
X172813639Y-97702812D01*
X172818194Y-97716915D01*
X172818266Y-97716889D01*
X172823708Y-97731482D01*
X172823709Y-97731483D01*
X172830253Y-97749029D01*
X172869282Y-97853672D01*
X172874004Y-97866331D01*
X172960254Y-97981546D01*
X173075469Y-98067796D01*
X173210317Y-98118091D01*
X173269927Y-98124500D01*
X175065672Y-98124499D01*
X175125283Y-98118091D01*
X175260131Y-98067796D01*
X175375346Y-97981546D01*
X175461596Y-97866331D01*
X175511891Y-97731483D01*
X175518300Y-97671873D01*
X175518299Y-95876128D01*
X175511891Y-95816517D01*
X175461596Y-95681669D01*
X175375346Y-95566454D01*
X175260131Y-95480204D01*
X175260130Y-95480203D01*
X175260128Y-95480202D01*
X175254686Y-95478172D01*
X175254672Y-95478168D01*
X175125283Y-95429909D01*
X175065673Y-95423500D01*
X175065373Y-95423500D01*
X175044324Y-95417421D01*
X175023304Y-95406545D01*
X174990951Y-95396421D01*
X174962306Y-95374982D01*
X174958036Y-95372773D01*
X174955780Y-95370098D01*
X174934173Y-95353927D01*
X174297208Y-94716962D01*
X174360793Y-94699925D01*
X174474807Y-94634099D01*
X174567899Y-94541007D01*
X174633725Y-94426993D01*
X174650762Y-94363408D01*
X175244124Y-94956770D01*
X175299704Y-94972821D01*
X175322424Y-94941551D01*
X175418891Y-94752224D01*
X175418895Y-94752215D01*
X175484558Y-94550123D01*
X175517799Y-94340256D01*
X175517800Y-94340244D01*
X175517800Y-94127755D01*
X175517799Y-94127743D01*
X175484558Y-93917876D01*
X175418895Y-93715784D01*
X175418891Y-93715774D01*
X175322424Y-93526448D01*
X175283070Y-93472282D01*
X175283069Y-93472282D01*
X174650762Y-94104589D01*
X174633725Y-94041007D01*
X174567899Y-93926993D01*
X174474807Y-93833901D01*
X174360793Y-93768075D01*
X174297208Y-93751037D01*
X174929517Y-93118729D01*
X174927416Y-93092035D01*
X174894666Y-93003259D01*
X174898482Y-92906178D01*
X174939158Y-92817948D01*
X174994239Y-92762867D01*
X175047592Y-92724105D01*
X175197904Y-92573793D01*
X175322851Y-92401817D01*
X175419357Y-92212413D01*
X175485046Y-92010244D01*
X175506751Y-91873208D01*
X175518299Y-91800297D01*
X175518300Y-91800285D01*
X175518300Y-91587716D01*
X175518299Y-91587704D01*
X175485046Y-91377760D01*
X175485046Y-91377759D01*
X175485046Y-91377758D01*
X175419357Y-91175589D01*
X175322851Y-90986185D01*
X175197904Y-90814209D01*
X175047592Y-90663897D01*
X175047591Y-90663896D01*
X175047587Y-90663893D01*
X174994668Y-90625445D01*
X174928719Y-90554102D01*
X174895092Y-90462953D01*
X174898906Y-90365872D01*
X174939581Y-90277642D01*
X174994667Y-90222555D01*
X175047592Y-90184104D01*
X175197904Y-90033792D01*
X175322851Y-89861816D01*
X175419357Y-89672412D01*
X175485046Y-89470243D01*
X175516945Y-89268842D01*
X175518299Y-89260296D01*
X175518300Y-89260284D01*
X175518300Y-89047715D01*
X175518299Y-89047703D01*
X175485400Y-88839992D01*
X175485046Y-88837757D01*
X175419357Y-88635588D01*
X175322851Y-88446184D01*
X175197904Y-88274208D01*
X175047592Y-88123896D01*
X174994667Y-88085444D01*
X174928720Y-88014103D01*
X174895093Y-87922953D01*
X174898907Y-87825873D01*
X174939581Y-87737642D01*
X174994667Y-87682555D01*
X175047592Y-87644104D01*
X175197904Y-87493792D01*
X175322851Y-87321816D01*
X175419357Y-87132412D01*
X175485046Y-86930243D01*
X175509475Y-86776006D01*
X175518299Y-86720296D01*
X175518300Y-86720284D01*
X175518300Y-86507715D01*
X175518299Y-86507703D01*
X175485046Y-86297759D01*
X175485046Y-86297757D01*
X175419357Y-86095588D01*
X175322851Y-85906184D01*
X175197904Y-85734208D01*
X175047592Y-85583896D01*
X174994667Y-85545444D01*
X174928720Y-85474103D01*
X174895093Y-85382953D01*
X174898907Y-85285873D01*
X174939581Y-85197642D01*
X174994667Y-85142555D01*
X175047592Y-85104104D01*
X175197904Y-84953792D01*
X175322851Y-84781816D01*
X175419357Y-84592412D01*
X175485046Y-84390243D01*
X175504859Y-84265149D01*
X175518299Y-84180296D01*
X175518300Y-84180284D01*
X175518300Y-83967715D01*
X175518299Y-83967703D01*
X175485046Y-83757759D01*
X175485046Y-83757757D01*
X175419357Y-83555588D01*
X175322851Y-83366184D01*
X175197904Y-83194208D01*
X175047592Y-83043896D01*
X174994667Y-83005444D01*
X174928720Y-82934103D01*
X174895093Y-82842953D01*
X174898907Y-82745873D01*
X174939581Y-82657642D01*
X174994667Y-82602555D01*
X175047592Y-82564104D01*
X175197904Y-82413792D01*
X175322851Y-82241816D01*
X175419357Y-82052412D01*
X175485046Y-81850243D01*
X175503552Y-81733400D01*
X175518299Y-81640296D01*
X175518300Y-81640284D01*
X175518300Y-81427715D01*
X175518299Y-81427703D01*
X175485046Y-81217759D01*
X175485046Y-81217757D01*
X175419357Y-81015588D01*
X175322851Y-80826184D01*
X175197904Y-80654208D01*
X175047592Y-80503896D01*
X175047591Y-80503895D01*
X175047587Y-80503892D01*
X174994240Y-80465133D01*
X174928291Y-80393790D01*
X174894664Y-80302640D01*
X174898478Y-80205560D01*
X174926767Y-80144194D01*
X174929516Y-80109269D01*
X174297208Y-79476961D01*
X174360793Y-79459924D01*
X174474807Y-79394098D01*
X174567899Y-79301006D01*
X174633725Y-79186992D01*
X174650762Y-79123407D01*
X175283070Y-79755715D01*
X175322424Y-79701550D01*
X175418891Y-79512223D01*
X175418895Y-79512214D01*
X175484558Y-79310122D01*
X175517799Y-79100255D01*
X175517800Y-79100243D01*
X175517800Y-78887754D01*
X175517799Y-78887742D01*
X175484558Y-78677875D01*
X175418895Y-78475783D01*
X175418891Y-78475773D01*
X175322424Y-78286447D01*
X175283070Y-78232281D01*
X175283069Y-78232281D01*
X174650762Y-78864588D01*
X174633725Y-78801006D01*
X174567899Y-78686992D01*
X174474807Y-78593900D01*
X174360793Y-78528074D01*
X174297208Y-78511036D01*
X174929517Y-77878728D01*
X174875351Y-77839374D01*
X174875345Y-77839370D01*
X174686025Y-77742907D01*
X174686015Y-77742903D01*
X174483923Y-77677240D01*
X174274056Y-77643999D01*
X174061543Y-77643999D01*
X173851676Y-77677240D01*
X173649584Y-77742903D01*
X173649574Y-77742907D01*
X173460254Y-77839371D01*
X173460241Y-77839379D01*
X173406081Y-77878727D01*
X174038391Y-78511036D01*
X173974807Y-78528074D01*
X173860793Y-78593900D01*
X173767701Y-78686992D01*
X173701875Y-78801006D01*
X173684837Y-78864590D01*
X173052528Y-78232280D01*
X173013180Y-78286440D01*
X173013172Y-78286453D01*
X172916708Y-78475773D01*
X172916704Y-78475783D01*
X172851041Y-78677873D01*
X172833598Y-78788001D01*
X172799970Y-78879151D01*
X172734020Y-78950493D01*
X172645789Y-78991167D01*
X172548709Y-78994980D01*
X172457559Y-78961352D01*
X172411594Y-78925116D01*
X171636176Y-78149698D01*
X163266590Y-69780112D01*
X154739089Y-61252611D01*
X154739085Y-61252608D01*
X154607980Y-61165006D01*
X154607973Y-61165003D01*
X154462297Y-61104663D01*
X154462292Y-61104661D01*
X154307646Y-61073900D01*
X154307642Y-61073900D01*
X154149958Y-61073900D01*
X154149953Y-61073900D01*
X153995307Y-61104661D01*
X153995302Y-61104663D01*
X153849626Y-61165003D01*
X153849618Y-61165007D01*
X153816434Y-61187180D01*
X153726674Y-61224358D01*
X153629519Y-61224357D01*
X153539760Y-61187176D01*
X153471062Y-61118476D01*
X153433884Y-61028716D01*
X153429100Y-60980142D01*
X153429100Y-60189558D01*
X153429099Y-60189553D01*
X153398338Y-60034907D01*
X153398337Y-60034905D01*
X153398337Y-60034903D01*
X153337994Y-59889221D01*
X153250389Y-59758111D01*
X153250387Y-59758109D01*
X153138889Y-59646610D01*
X153138889Y-59646611D01*
X147677030Y-54184752D01*
X147623054Y-54103970D01*
X147604100Y-54008682D01*
X147604100Y-53787115D01*
X147604099Y-53787103D01*
X147570846Y-53577159D01*
X147570846Y-53577157D01*
X147505157Y-53374988D01*
X147408651Y-53185584D01*
X147283704Y-53013608D01*
X147133392Y-52863296D01*
X147080470Y-52824846D01*
X147080042Y-52824535D01*
X147014093Y-52753192D01*
X146980467Y-52662042D01*
X146984281Y-52564962D01*
X147024956Y-52476731D01*
X147080045Y-52421643D01*
X147133062Y-52383124D01*
X147283324Y-52232862D01*
X147408223Y-52060953D01*
X147504691Y-51871625D01*
X147504692Y-51871623D01*
X147544676Y-51748564D01*
X147592148Y-51663797D01*
X147668445Y-51603648D01*
X147761952Y-51577276D01*
X147858434Y-51588694D01*
X147943201Y-51636166D01*
X147957559Y-51649437D01*
X149965111Y-53656989D01*
X149965114Y-53656991D01*
X150096219Y-53744593D01*
X150096220Y-53744593D01*
X150096221Y-53744594D01*
X150241903Y-53804937D01*
X150241905Y-53804937D01*
X150241907Y-53804938D01*
X150392548Y-53834902D01*
X150396558Y-53835700D01*
X163654842Y-53835700D01*
X163809497Y-53804937D01*
X163955179Y-53744594D01*
X164086289Y-53656989D01*
X164126525Y-53616753D01*
X167322100Y-53616753D01*
X167322100Y-53774446D01*
X167352861Y-53929092D01*
X167352863Y-53929097D01*
X167413203Y-54074773D01*
X167413206Y-54074780D01*
X167500808Y-54205885D01*
X167500811Y-54205889D01*
X167612311Y-54317389D01*
X167612314Y-54317391D01*
X167743419Y-54404993D01*
X167743420Y-54404993D01*
X167743421Y-54404994D01*
X167889103Y-54465337D01*
X167889105Y-54465337D01*
X167889107Y-54465338D01*
X168030551Y-54493473D01*
X168043758Y-54496100D01*
X168201442Y-54496100D01*
X169783171Y-54496100D01*
X169878459Y-54515054D01*
X169959241Y-54569030D01*
X170013217Y-54649812D01*
X170016471Y-54658083D01*
X170027604Y-54687931D01*
X170113854Y-54803146D01*
X170229069Y-54889396D01*
X170275988Y-54906895D01*
X170358644Y-54957953D01*
X170415470Y-55036756D01*
X170437813Y-55131307D01*
X170422273Y-55227211D01*
X170371215Y-55309868D01*
X170292412Y-55366694D01*
X170284267Y-55370239D01*
X170267626Y-55377132D01*
X170267611Y-55377139D01*
X170023482Y-55518088D01*
X170023478Y-55518091D01*
X169799840Y-55689695D01*
X169600495Y-55889040D01*
X169428891Y-56112678D01*
X169428888Y-56112682D01*
X169287939Y-56356811D01*
X169287931Y-56356827D01*
X169202343Y-56563459D01*
X169180058Y-56617261D01*
X169107096Y-56889558D01*
X169070300Y-57169049D01*
X169070300Y-57219811D01*
X169070300Y-57450951D01*
X169107096Y-57730442D01*
X169180057Y-58002735D01*
X169180060Y-58002744D01*
X169287931Y-58263172D01*
X169287939Y-58263188D01*
X169428888Y-58507317D01*
X169600500Y-58730965D01*
X169799835Y-58930300D01*
X170023483Y-59101912D01*
X170139839Y-59169090D01*
X170267611Y-59242860D01*
X170267627Y-59242868D01*
X170430394Y-59310287D01*
X170528061Y-59350742D01*
X170800358Y-59423704D01*
X171039921Y-59455243D01*
X171079848Y-59460500D01*
X171079849Y-59460500D01*
X171361752Y-59460500D01*
X171396687Y-59455900D01*
X171641242Y-59423704D01*
X171913539Y-59350742D01*
X172089793Y-59277735D01*
X172173972Y-59242868D01*
X172173977Y-59242865D01*
X172173983Y-59242863D01*
X172418117Y-59101912D01*
X172641765Y-58930300D01*
X172841100Y-58730965D01*
X173012712Y-58507317D01*
X173153663Y-58263183D01*
X173261542Y-58002739D01*
X173334504Y-57730442D01*
X173371300Y-57450951D01*
X173371300Y-57169049D01*
X173334504Y-56889558D01*
X173261542Y-56617261D01*
X173221087Y-56519594D01*
X173153668Y-56356827D01*
X173153660Y-56356811D01*
X173042365Y-56164044D01*
X173012712Y-56112683D01*
X172841100Y-55889035D01*
X172641765Y-55689700D01*
X172641760Y-55689696D01*
X172641759Y-55689695D01*
X172418121Y-55518091D01*
X172418117Y-55518088D01*
X172173988Y-55377139D01*
X172173981Y-55377136D01*
X172157901Y-55370475D01*
X172077121Y-55316496D01*
X172023147Y-55235714D01*
X172004195Y-55140425D01*
X172023151Y-55045137D01*
X172077130Y-54964357D01*
X172157912Y-54910383D01*
X172166122Y-54907152D01*
X172213731Y-54889396D01*
X172328946Y-54803146D01*
X172415196Y-54687931D01*
X172465491Y-54553083D01*
X172471900Y-54493473D01*
X172471899Y-52897728D01*
X172465491Y-52838117D01*
X172415196Y-52703269D01*
X172328946Y-52588054D01*
X172213731Y-52501804D01*
X172133517Y-52471886D01*
X172078881Y-52451508D01*
X172019273Y-52445100D01*
X170423534Y-52445100D01*
X170423530Y-52445100D01*
X170423528Y-52445101D01*
X170410714Y-52446478D01*
X170363919Y-52451508D01*
X170363915Y-52451509D01*
X170229070Y-52501803D01*
X170113855Y-52588053D01*
X170113853Y-52588055D01*
X170027603Y-52703271D01*
X170016471Y-52733117D01*
X169965412Y-52815773D01*
X169886609Y-52872599D01*
X169792058Y-52894941D01*
X169783171Y-52895100D01*
X168043753Y-52895100D01*
X167889107Y-52925861D01*
X167889102Y-52925863D01*
X167743426Y-52986203D01*
X167743419Y-52986206D01*
X167612314Y-53073808D01*
X167500808Y-53185314D01*
X167413206Y-53316419D01*
X167413203Y-53316426D01*
X167352863Y-53462102D01*
X167352861Y-53462107D01*
X167322100Y-53616753D01*
X164126525Y-53616753D01*
X167570120Y-50173156D01*
X167650899Y-50119183D01*
X167746187Y-50100229D01*
X167841475Y-50119183D01*
X167922257Y-50173159D01*
X167976233Y-50253941D01*
X168022805Y-50366377D01*
X168022806Y-50366380D01*
X168094454Y-50473608D01*
X168110411Y-50497489D01*
X168221911Y-50608989D01*
X168221914Y-50608991D01*
X168353019Y-50696593D01*
X168353020Y-50696593D01*
X168353021Y-50696594D01*
X168498703Y-50756937D01*
X168498705Y-50756937D01*
X168498707Y-50756938D01*
X168640151Y-50785073D01*
X168653358Y-50787700D01*
X168811042Y-50787700D01*
X169706971Y-50787700D01*
X169802259Y-50806654D01*
X169883041Y-50860630D01*
X169937017Y-50941412D01*
X169940271Y-50949683D01*
X169944951Y-50962230D01*
X169951404Y-50979531D01*
X170037654Y-51094746D01*
X170152869Y-51180996D01*
X170287717Y-51231291D01*
X170347327Y-51237700D01*
X171943072Y-51237699D01*
X172002683Y-51231291D01*
X172137531Y-51180996D01*
X172252746Y-51094746D01*
X172338996Y-50979531D01*
X172389291Y-50844683D01*
X172395700Y-50785073D01*
X172395699Y-49189328D01*
X172389291Y-49129717D01*
X172338996Y-48994869D01*
X172252746Y-48879654D01*
X172137531Y-48793404D01*
X172037187Y-48755978D01*
X172002681Y-48743108D01*
X171943073Y-48736700D01*
X170347334Y-48736700D01*
X170347330Y-48736700D01*
X170347328Y-48736701D01*
X170334514Y-48738078D01*
X170287719Y-48743108D01*
X170287715Y-48743109D01*
X170152870Y-48793403D01*
X170084336Y-48844708D01*
X170037654Y-48879654D01*
X169961596Y-48981255D01*
X169951403Y-48994871D01*
X169940271Y-49024717D01*
X169889212Y-49107373D01*
X169810409Y-49164199D01*
X169715858Y-49186541D01*
X169706971Y-49186700D01*
X169157717Y-49186700D01*
X169062429Y-49167746D01*
X168981647Y-49113770D01*
X168927671Y-49032988D01*
X168908717Y-48937700D01*
X168927671Y-48842412D01*
X168981647Y-48761630D01*
X171004648Y-46738629D01*
X171085430Y-46684653D01*
X171180718Y-46665699D01*
X171993866Y-46665699D01*
X171993872Y-46665699D01*
X172053483Y-46659291D01*
X172188331Y-46608996D01*
X172303546Y-46522746D01*
X172389796Y-46407531D01*
X172440091Y-46272683D01*
X172446500Y-46213073D01*
X172446499Y-44617328D01*
X172440091Y-44557717D01*
X172389796Y-44422869D01*
X172303546Y-44307654D01*
X172188331Y-44221404D01*
X172108117Y-44191486D01*
X172053481Y-44171108D01*
X171993876Y-44164700D01*
X170395115Y-44164700D01*
X170299827Y-44145746D01*
X170219045Y-44091770D01*
X170165069Y-44010988D01*
X170146115Y-43915700D01*
X170165069Y-43820412D01*
X170219042Y-43739633D01*
X170219046Y-43739630D01*
X171055448Y-42903229D01*
X171136229Y-42849253D01*
X171231517Y-42830299D01*
X172044666Y-42830299D01*
X172044672Y-42830299D01*
X172104283Y-42823891D01*
X172239131Y-42773596D01*
X172354346Y-42687346D01*
X172440596Y-42572131D01*
X172490891Y-42437283D01*
X172497300Y-42377673D01*
X172497299Y-40781928D01*
X172490891Y-40722317D01*
X172440596Y-40587469D01*
X172354346Y-40472254D01*
X172254171Y-40397263D01*
X172189251Y-40324987D01*
X172156929Y-40233366D01*
X172162130Y-40136350D01*
X172204061Y-40048709D01*
X172276339Y-39983787D01*
X172278725Y-39982389D01*
X172418117Y-39901912D01*
X172641765Y-39730300D01*
X172841100Y-39530965D01*
X173012712Y-39307317D01*
X173153663Y-39063183D01*
X173261542Y-38802739D01*
X173334504Y-38530442D01*
X173371300Y-38250951D01*
X173371300Y-37969049D01*
X173334504Y-37689558D01*
X173261542Y-37417261D01*
X173220362Y-37317843D01*
X173153668Y-37156827D01*
X173153660Y-37156811D01*
X173042365Y-36964044D01*
X173012712Y-36912683D01*
X172926906Y-36800859D01*
X172841104Y-36689040D01*
X172841103Y-36689039D01*
X172841100Y-36689035D01*
X172641765Y-36489700D01*
X172641760Y-36489696D01*
X172641759Y-36489695D01*
X172418121Y-36318091D01*
X172418117Y-36318088D01*
X172173988Y-36177139D01*
X172173972Y-36177131D01*
X171913544Y-36069260D01*
X171913543Y-36069259D01*
X171913539Y-36069258D01*
X171641242Y-35996296D01*
X171641235Y-35996295D01*
X171361752Y-35959500D01*
X171361751Y-35959500D01*
X171079849Y-35959500D01*
X171079848Y-35959500D01*
X170800364Y-35996295D01*
X170800362Y-35996295D01*
X170800358Y-35996296D01*
X170673040Y-36030411D01*
X170528064Y-36069257D01*
X170528055Y-36069260D01*
X170267627Y-36177131D01*
X170267611Y-36177139D01*
X170023482Y-36318088D01*
X170023478Y-36318091D01*
X169799840Y-36489695D01*
X169600495Y-36689040D01*
X169428891Y-36912678D01*
X169428888Y-36912682D01*
X169287939Y-37156811D01*
X169287931Y-37156827D01*
X169185838Y-37403306D01*
X169180058Y-37417261D01*
X169107096Y-37689558D01*
X169107095Y-37689562D01*
X169107095Y-37689564D01*
X169082128Y-37879207D01*
X169070300Y-37969049D01*
X169070300Y-38019811D01*
X169070300Y-38250951D01*
X169107096Y-38530442D01*
X169161771Y-38734491D01*
X169180057Y-38802735D01*
X169180060Y-38802744D01*
X169287931Y-39063172D01*
X169287939Y-39063188D01*
X169400119Y-39257488D01*
X169428888Y-39307317D01*
X169600500Y-39530965D01*
X169799835Y-39730300D01*
X169799839Y-39730303D01*
X169799840Y-39730304D01*
X169859754Y-39776278D01*
X170023483Y-39901912D01*
X170180918Y-39992807D01*
X170192062Y-39999241D01*
X170265107Y-40063299D01*
X170308077Y-40150435D01*
X170314432Y-40247382D01*
X170283202Y-40339381D01*
X170219144Y-40412426D01*
X170216784Y-40414214D01*
X170139259Y-40472249D01*
X170139253Y-40472255D01*
X170053004Y-40587469D01*
X170002708Y-40722318D01*
X169996300Y-40781923D01*
X169996300Y-41595082D01*
X169977346Y-41690370D01*
X169923370Y-41771152D01*
X161361552Y-50332970D01*
X161280770Y-50386946D01*
X161185482Y-50405900D01*
X151621318Y-50405900D01*
X151526030Y-50386946D01*
X151445248Y-50332970D01*
X147677030Y-46564752D01*
X147623054Y-46483970D01*
X147604100Y-46388682D01*
X147604100Y-46167115D01*
X147604099Y-46167103D01*
X147570846Y-45957159D01*
X147570846Y-45957157D01*
X147505157Y-45754988D01*
X147408651Y-45565584D01*
X147283704Y-45393608D01*
X147133392Y-45243296D01*
X147080039Y-45204533D01*
X147014092Y-45133192D01*
X146980465Y-45042042D01*
X146984279Y-44944962D01*
X147012567Y-44883597D01*
X147015316Y-44848670D01*
X146383008Y-44216362D01*
X146446593Y-44199325D01*
X146560607Y-44133499D01*
X146653699Y-44040407D01*
X146719525Y-43926393D01*
X146736562Y-43862808D01*
X147368870Y-44495116D01*
X147408224Y-44440951D01*
X147504691Y-44251624D01*
X147504695Y-44251615D01*
X147570358Y-44049523D01*
X147603599Y-43839656D01*
X147603600Y-43839644D01*
X147603600Y-43627155D01*
X147603599Y-43627143D01*
X147570358Y-43417276D01*
X147504695Y-43215184D01*
X147504691Y-43215174D01*
X147408224Y-43025848D01*
X147368869Y-42971681D01*
X146736562Y-43603989D01*
X146719525Y-43540407D01*
X146653699Y-43426393D01*
X146560607Y-43333301D01*
X146446593Y-43267475D01*
X146383007Y-43250437D01*
X147019973Y-42613472D01*
X147049469Y-42593763D01*
X147076682Y-42571015D01*
X147089546Y-42566985D01*
X147100755Y-42559496D01*
X147169392Y-42541972D01*
X147172566Y-42541631D01*
X147247595Y-42548335D01*
X147256935Y-42536488D01*
X147331635Y-42492527D01*
X147345931Y-42487196D01*
X147461146Y-42400946D01*
X147547396Y-42285731D01*
X147597691Y-42150883D01*
X147604100Y-42091273D01*
X147604099Y-40295528D01*
X147597691Y-40235917D01*
X147547396Y-40101069D01*
X147461146Y-39985854D01*
X147345931Y-39899604D01*
X147258547Y-39867012D01*
X147211081Y-39849308D01*
X147151473Y-39842900D01*
X145355734Y-39842900D01*
X145355730Y-39842900D01*
X145355728Y-39842901D01*
X145342914Y-39844278D01*
X145296119Y-39849308D01*
X145296115Y-39849309D01*
X145161270Y-39899603D01*
X145046055Y-39985853D01*
X145046053Y-39985855D01*
X144959804Y-40101069D01*
X144909508Y-40235918D01*
X144903100Y-40295523D01*
X144903100Y-42091265D01*
X144903100Y-42091268D01*
X144903101Y-42091272D01*
X144905167Y-42110493D01*
X144909508Y-42150880D01*
X144909509Y-42150883D01*
X144959804Y-42285731D01*
X145046054Y-42400946D01*
X145161269Y-42487196D01*
X145296117Y-42537491D01*
X145355727Y-42543900D01*
X145356029Y-42543899D01*
X145377075Y-42549978D01*
X145398088Y-42560851D01*
X145430442Y-42570974D01*
X145459097Y-42592419D01*
X145463363Y-42594627D01*
X145465615Y-42597297D01*
X145487227Y-42613472D01*
X146124192Y-43250437D01*
X146060607Y-43267475D01*
X145946593Y-43333301D01*
X145853501Y-43426393D01*
X145787675Y-43540407D01*
X145770637Y-43603990D01*
X145177275Y-43010628D01*
X145121694Y-42994577D01*
X145098980Y-43025841D01*
X145098972Y-43025854D01*
X145002508Y-43215174D01*
X145002504Y-43215184D01*
X144936841Y-43417276D01*
X144903600Y-43627143D01*
X144903600Y-43839656D01*
X144936841Y-44049523D01*
X145002504Y-44251615D01*
X145002508Y-44251625D01*
X145098971Y-44440945D01*
X145098975Y-44440951D01*
X145138329Y-44495117D01*
X145770637Y-43862808D01*
X145787675Y-43926393D01*
X145853501Y-44040407D01*
X145946593Y-44133499D01*
X146060607Y-44199325D01*
X146124189Y-44216362D01*
X145491882Y-44848669D01*
X145493983Y-44875363D01*
X145526734Y-44964139D01*
X145522919Y-45061219D01*
X145482244Y-45149449D01*
X145427158Y-45204535D01*
X145373807Y-45243296D01*
X145223497Y-45393606D01*
X145098550Y-45565582D01*
X145002041Y-45754992D01*
X144936353Y-45957159D01*
X144903100Y-46167103D01*
X144903100Y-46388681D01*
X144884146Y-46483969D01*
X144830170Y-46564751D01*
X135257957Y-56136964D01*
X135177175Y-56190940D01*
X135081887Y-56209894D01*
X134986599Y-56190940D01*
X134905817Y-56136964D01*
X134851841Y-56056182D01*
X134845074Y-56037839D01*
X134805158Y-55914992D01*
X134805157Y-55914988D01*
X134708651Y-55725584D01*
X134583704Y-55553608D01*
X134433392Y-55403296D01*
X134380467Y-55364844D01*
X134314520Y-55293503D01*
X134280893Y-55202353D01*
X134284707Y-55105273D01*
X134325381Y-55017042D01*
X134380467Y-54961955D01*
X134433392Y-54923504D01*
X134583704Y-54773192D01*
X134708651Y-54601216D01*
X134805157Y-54411812D01*
X134870846Y-54209643D01*
X134892207Y-54074779D01*
X134904099Y-53999696D01*
X134904100Y-53999684D01*
X134904100Y-53787115D01*
X134904099Y-53787103D01*
X134870846Y-53577159D01*
X134870846Y-53577157D01*
X134805157Y-53374988D01*
X134708651Y-53185584D01*
X134583704Y-53013608D01*
X134433392Y-52863296D01*
X134380467Y-52824844D01*
X134314520Y-52753503D01*
X134280893Y-52662353D01*
X134284707Y-52565273D01*
X134325381Y-52477042D01*
X134380467Y-52421955D01*
X134433392Y-52383504D01*
X134583704Y-52233192D01*
X134708651Y-52061216D01*
X134805157Y-51871812D01*
X134870846Y-51669643D01*
X134904100Y-51459687D01*
X134904100Y-51247113D01*
X134904099Y-51247110D01*
X134904099Y-51247103D01*
X134877811Y-51081131D01*
X134870846Y-51037157D01*
X134805157Y-50834988D01*
X134708651Y-50645584D01*
X134583704Y-50473608D01*
X134433392Y-50323296D01*
X134380467Y-50284844D01*
X134314520Y-50213503D01*
X134280893Y-50122353D01*
X134284707Y-50025273D01*
X134325381Y-49937042D01*
X134380467Y-49881955D01*
X134433392Y-49843504D01*
X134583704Y-49693192D01*
X134708651Y-49521216D01*
X134805157Y-49331812D01*
X134870846Y-49129643D01*
X134904100Y-48919687D01*
X134904100Y-48707113D01*
X134904100Y-48703117D01*
X134923054Y-48607829D01*
X134977030Y-48527047D01*
X144251247Y-39252830D01*
X144332029Y-39198854D01*
X144427317Y-39179900D01*
X149679282Y-39179900D01*
X149774570Y-39198854D01*
X149855352Y-39252830D01*
X154523770Y-43921248D01*
X154577746Y-44002030D01*
X154596700Y-44097318D01*
X154596700Y-44449273D01*
X154577746Y-44544561D01*
X154523770Y-44625343D01*
X154442988Y-44679319D01*
X154434717Y-44682573D01*
X154304870Y-44731003D01*
X154189655Y-44817253D01*
X154189653Y-44817255D01*
X154103404Y-44932469D01*
X154053108Y-45067318D01*
X154046700Y-45126923D01*
X154046700Y-46922665D01*
X154046700Y-46922668D01*
X154046701Y-46922672D01*
X154048767Y-46941893D01*
X154053108Y-46982280D01*
X154053109Y-46982284D01*
X154103403Y-47117129D01*
X154103404Y-47117131D01*
X154189654Y-47232346D01*
X154304869Y-47318596D01*
X154304870Y-47318596D01*
X154319127Y-47329269D01*
X154316772Y-47332414D01*
X154366069Y-47373625D01*
X154411089Y-47459719D01*
X154419736Y-47556489D01*
X154390692Y-47649201D01*
X154371939Y-47676433D01*
X154372847Y-47677093D01*
X154367097Y-47685006D01*
X154367096Y-47685008D01*
X154323622Y-47744845D01*
X154242150Y-47856982D01*
X154145641Y-48046392D01*
X154079953Y-48248559D01*
X154046700Y-48458503D01*
X154046700Y-48671096D01*
X154079953Y-48881040D01*
X154126636Y-49024717D01*
X154145643Y-49083212D01*
X154242149Y-49272616D01*
X154367096Y-49444592D01*
X154517408Y-49594904D01*
X154689384Y-49719851D01*
X154878788Y-49816357D01*
X155080957Y-49882046D01*
X155139558Y-49891327D01*
X155244188Y-49907900D01*
X155244192Y-49907900D01*
X155290913Y-49915300D01*
X155503487Y-49915300D01*
X155550208Y-49907900D01*
X155550212Y-49907900D01*
X155638917Y-49893849D01*
X155713443Y-49882046D01*
X155915612Y-49816357D01*
X156105016Y-49719851D01*
X156276992Y-49594904D01*
X156427304Y-49444592D01*
X156552251Y-49272616D01*
X156648757Y-49083212D01*
X156714446Y-48881043D01*
X156733359Y-48761630D01*
X156747699Y-48671096D01*
X156747700Y-48671084D01*
X156747700Y-48458515D01*
X156747699Y-48458503D01*
X156714446Y-48248559D01*
X156714446Y-48248557D01*
X156648757Y-48046388D01*
X156552251Y-47856984D01*
X156427304Y-47685008D01*
X156427302Y-47685006D01*
X156421553Y-47677093D01*
X156423855Y-47675420D01*
X156385414Y-47606766D01*
X156374002Y-47510284D01*
X156400380Y-47416779D01*
X156460534Y-47340485D01*
X156475797Y-47329969D01*
X156475273Y-47329269D01*
X156489529Y-47318596D01*
X156489531Y-47318596D01*
X156604746Y-47232346D01*
X156690996Y-47117131D01*
X156741291Y-46982283D01*
X156747700Y-46922673D01*
X156747699Y-45126928D01*
X156741291Y-45067317D01*
X156690996Y-44932469D01*
X156604746Y-44817254D01*
X156489531Y-44731004D01*
X156489529Y-44731003D01*
X156359683Y-44682573D01*
X156277027Y-44631515D01*
X156220202Y-44552711D01*
X156197859Y-44458160D01*
X156197700Y-44449273D01*
X156197700Y-43583758D01*
X156197699Y-43583753D01*
X156166938Y-43429107D01*
X156166937Y-43429105D01*
X156166937Y-43429103D01*
X156106594Y-43283421D01*
X156018989Y-43152311D01*
X155972206Y-43105528D01*
X155907489Y-43040810D01*
X155907489Y-43040811D01*
X150744444Y-37877766D01*
X150690471Y-37796988D01*
X150671517Y-37701700D01*
X150690471Y-37606412D01*
X150744447Y-37525630D01*
X150825229Y-37471654D01*
X150920517Y-37452700D01*
X151539042Y-37452700D01*
X151693697Y-37421937D01*
X151839379Y-37361594D01*
X151970489Y-37273989D01*
X152081989Y-37162489D01*
X152169594Y-37031379D01*
X152216123Y-36919048D01*
X153070300Y-36919048D01*
X153070300Y-37200951D01*
X153103443Y-37452699D01*
X153107096Y-37480442D01*
X153168606Y-37710000D01*
X153180057Y-37752735D01*
X153180060Y-37752744D01*
X153287931Y-38013172D01*
X153287939Y-38013188D01*
X153428888Y-38257317D01*
X153428891Y-38257321D01*
X153521756Y-38378345D01*
X153600500Y-38480965D01*
X153799835Y-38680300D01*
X154023483Y-38851912D01*
X154026731Y-38853787D01*
X154267611Y-38992860D01*
X154267627Y-38992868D01*
X154430394Y-39060287D01*
X154528061Y-39100742D01*
X154800358Y-39173704D01*
X155039921Y-39205243D01*
X155079848Y-39210500D01*
X155079849Y-39210500D01*
X155361752Y-39210500D01*
X155396687Y-39205900D01*
X155641242Y-39173704D01*
X155913539Y-39100742D01*
X156089793Y-39027735D01*
X156173972Y-38992868D01*
X156173977Y-38992865D01*
X156173983Y-38992863D01*
X156418117Y-38851912D01*
X156641765Y-38680300D01*
X156841100Y-38480965D01*
X157012712Y-38257317D01*
X157153663Y-38013183D01*
X157261542Y-37752739D01*
X157334504Y-37480442D01*
X157371300Y-37200951D01*
X157371300Y-36919049D01*
X157334504Y-36639558D01*
X157261542Y-36367261D01*
X157186426Y-36185913D01*
X157153668Y-36106827D01*
X157153660Y-36106811D01*
X157024131Y-35882462D01*
X157012712Y-35862683D01*
X156841100Y-35639035D01*
X156641765Y-35439700D01*
X156641760Y-35439696D01*
X156641759Y-35439695D01*
X156418121Y-35268091D01*
X156418117Y-35268088D01*
X156173988Y-35127139D01*
X156173972Y-35127131D01*
X155913544Y-35019260D01*
X155913543Y-35019259D01*
X155913539Y-35019258D01*
X155641242Y-34946296D01*
X155641235Y-34946295D01*
X155361752Y-34909500D01*
X155361751Y-34909500D01*
X155079849Y-34909500D01*
X155079848Y-34909500D01*
X154800364Y-34946295D01*
X154800362Y-34946295D01*
X154800358Y-34946296D01*
X154594508Y-35001453D01*
X154528064Y-35019257D01*
X154528055Y-35019260D01*
X154267627Y-35127131D01*
X154267611Y-35127139D01*
X154023482Y-35268088D01*
X154023478Y-35268091D01*
X153799840Y-35439695D01*
X153600495Y-35639040D01*
X153428891Y-35862678D01*
X153428888Y-35862682D01*
X153287939Y-36106811D01*
X153287931Y-36106827D01*
X153180060Y-36367255D01*
X153180058Y-36367261D01*
X153107096Y-36639558D01*
X153107095Y-36639562D01*
X153107095Y-36639564D01*
X153070300Y-36919048D01*
X152216123Y-36919048D01*
X152229937Y-36885697D01*
X152260700Y-36731042D01*
X152260700Y-36573358D01*
X152229937Y-36418703D01*
X152169594Y-36273021D01*
X152108405Y-36181446D01*
X152081991Y-36141914D01*
X152081989Y-36141911D01*
X151970489Y-36030411D01*
X151921983Y-35998000D01*
X151839380Y-35942806D01*
X151839373Y-35942803D01*
X151693697Y-35882463D01*
X151693692Y-35882461D01*
X151539046Y-35851700D01*
X151539042Y-35851700D01*
X143253643Y-35851700D01*
X143095958Y-35851700D01*
X142941303Y-35882462D01*
X142941302Y-35882462D01*
X142941299Y-35882463D01*
X142795625Y-35942803D01*
X142795620Y-35942806D01*
X142664514Y-36030408D01*
X138398270Y-40296651D01*
X138317488Y-40350627D01*
X138222200Y-40369581D01*
X138126912Y-40350627D01*
X138046130Y-40296651D01*
X137992154Y-40215869D01*
X137973200Y-40120581D01*
X137973200Y-40040460D01*
X137969899Y-40023864D01*
X137942438Y-39885803D01*
X137911906Y-39812094D01*
X137882096Y-39740125D01*
X137882093Y-39740120D01*
X137875534Y-39730304D01*
X137794489Y-39609011D01*
X137647207Y-39461729D01*
X137445381Y-39259902D01*
X137391405Y-39179121D01*
X137372451Y-39083833D01*
X137391405Y-38988545D01*
X137445382Y-38907763D01*
X137526160Y-38853788D01*
X137602679Y-38822094D01*
X137733789Y-38734489D01*
X137845289Y-38622989D01*
X137932894Y-38491879D01*
X137993237Y-38346197D01*
X138024000Y-38191542D01*
X138024000Y-38033858D01*
X137993237Y-37879203D01*
X137932894Y-37733521D01*
X137920807Y-37715432D01*
X137845291Y-37602414D01*
X137845289Y-37602411D01*
X137733789Y-37490911D01*
X137721200Y-37482499D01*
X137602680Y-37403306D01*
X137602673Y-37403303D01*
X137456997Y-37342963D01*
X137456992Y-37342961D01*
X137302346Y-37312200D01*
X137302342Y-37312200D01*
X127713180Y-37312200D01*
X127620300Y-37312200D01*
X127525012Y-37293246D01*
X127444230Y-37239270D01*
X127390254Y-37158488D01*
X127371300Y-37063200D01*
X127371300Y-36919048D01*
X127363832Y-36862323D01*
X127334504Y-36639558D01*
X127261542Y-36367261D01*
X127186426Y-36185913D01*
X127153668Y-36106827D01*
X127153660Y-36106811D01*
X127024131Y-35882462D01*
X127012712Y-35862683D01*
X126841100Y-35639035D01*
X126641765Y-35439700D01*
X126641760Y-35439696D01*
X126641759Y-35439695D01*
X126418121Y-35268091D01*
X126418117Y-35268088D01*
X126173988Y-35127139D01*
X126173972Y-35127131D01*
X125913544Y-35019260D01*
X125913543Y-35019259D01*
X125913539Y-35019258D01*
X125641242Y-34946296D01*
X125641235Y-34946295D01*
X125361752Y-34909500D01*
X125361751Y-34909500D01*
X125079849Y-34909500D01*
X125079848Y-34909500D01*
X124800364Y-34946295D01*
X124800362Y-34946295D01*
X124800358Y-34946296D01*
X124594508Y-35001453D01*
X124528064Y-35019257D01*
X124528055Y-35019260D01*
X124267627Y-35127131D01*
X124267611Y-35127139D01*
X124023482Y-35268088D01*
X124023478Y-35268091D01*
X123799840Y-35439695D01*
X123600495Y-35639040D01*
X123428891Y-35862678D01*
X123428888Y-35862682D01*
X123287939Y-36106811D01*
X123287931Y-36106827D01*
X123180060Y-36367255D01*
X123180058Y-36367261D01*
X123107096Y-36639558D01*
X123107095Y-36639562D01*
X123107095Y-36639564D01*
X123070300Y-36919048D01*
X123070300Y-37200951D01*
X123103443Y-37452699D01*
X123107096Y-37480442D01*
X123168606Y-37710000D01*
X123180057Y-37752735D01*
X123180060Y-37752744D01*
X123287931Y-38013172D01*
X123287939Y-38013188D01*
X123428888Y-38257317D01*
X123428891Y-38257321D01*
X123521756Y-38378345D01*
X123600500Y-38480965D01*
X123799835Y-38680300D01*
X124023483Y-38851912D01*
X124026731Y-38853787D01*
X124267611Y-38992860D01*
X124267627Y-38992868D01*
X124430394Y-39060287D01*
X124528061Y-39100742D01*
X124800358Y-39173704D01*
X124866092Y-39182358D01*
X124958091Y-39213588D01*
X125031136Y-39277646D01*
X125074106Y-39364782D01*
X125080461Y-39461729D01*
X125049231Y-39553728D01*
X125009661Y-39605298D01*
X123375190Y-41239770D01*
X123294408Y-41293746D01*
X123199120Y-41312700D01*
X110505829Y-41312700D01*
X110410541Y-41293746D01*
X110329759Y-41239770D01*
X110275783Y-41158988D01*
X110272529Y-41150717D01*
X110268474Y-41139846D01*
X110261396Y-41120869D01*
X110175146Y-41005654D01*
X110059931Y-40919404D01*
X109978510Y-40889036D01*
X109925081Y-40869108D01*
X109865473Y-40862700D01*
X108269734Y-40862700D01*
X108269730Y-40862700D01*
X108269728Y-40862701D01*
X108256914Y-40864078D01*
X108210119Y-40869108D01*
X108210115Y-40869109D01*
X108075270Y-40919403D01*
X107960055Y-41005653D01*
X107960053Y-41005655D01*
X107873804Y-41120869D01*
X107823508Y-41255718D01*
X107817100Y-41315323D01*
X107817100Y-42911065D01*
X107817100Y-42911068D01*
X107817101Y-42911072D01*
X107817384Y-42913700D01*
X107823508Y-42970680D01*
X107823509Y-42970684D01*
X107849665Y-43040811D01*
X107873804Y-43105531D01*
X107960054Y-43220746D01*
X108075269Y-43306996D01*
X108210117Y-43357291D01*
X108269727Y-43363700D01*
X109865472Y-43363699D01*
X109925083Y-43357291D01*
X110059931Y-43306996D01*
X110175146Y-43220746D01*
X110261396Y-43105531D01*
X110272529Y-43075683D01*
X110323588Y-42993027D01*
X110402391Y-42936201D01*
X110496942Y-42913859D01*
X110505829Y-42913700D01*
X123712680Y-42913700D01*
X123867335Y-42882937D01*
X124013017Y-42822594D01*
X124144127Y-42734989D01*
X127892986Y-38986130D01*
X127973768Y-38932154D01*
X128069056Y-38913200D01*
X128517582Y-38913200D01*
X128612870Y-38932154D01*
X128693652Y-38986130D01*
X128747628Y-39066912D01*
X128766582Y-39162200D01*
X128747628Y-39257488D01*
X128693652Y-39338270D01*
X122753552Y-45278370D01*
X122672770Y-45332346D01*
X122577482Y-45351300D01*
X110496355Y-45351300D01*
X110401067Y-45332346D01*
X110320285Y-45278370D01*
X110266309Y-45197588D01*
X110263054Y-45189315D01*
X110261396Y-45184869D01*
X110175146Y-45069654D01*
X110059931Y-44983404D01*
X109956863Y-44944962D01*
X109925081Y-44933108D01*
X109865473Y-44926700D01*
X108269734Y-44926700D01*
X108269730Y-44926700D01*
X108269728Y-44926701D01*
X108256914Y-44928078D01*
X108210119Y-44933108D01*
X108210115Y-44933109D01*
X108075270Y-44983403D01*
X107960055Y-45069653D01*
X107960053Y-45069655D01*
X107873804Y-45184869D01*
X107823508Y-45319718D01*
X107817100Y-45379323D01*
X107817100Y-46975065D01*
X107817100Y-46975068D01*
X107817101Y-46975072D01*
X107817762Y-46981217D01*
X107823508Y-47034680D01*
X107823509Y-47034684D01*
X107854260Y-47117131D01*
X107873804Y-47169531D01*
X107960054Y-47284746D01*
X108075269Y-47370996D01*
X108210117Y-47421291D01*
X108269727Y-47427700D01*
X109865472Y-47427699D01*
X109925083Y-47421291D01*
X110059931Y-47370996D01*
X110175146Y-47284746D01*
X110261396Y-47169531D01*
X110282002Y-47114283D01*
X110333059Y-47031628D01*
X110411862Y-46974802D01*
X110506413Y-46952459D01*
X110515302Y-46952300D01*
X123091042Y-46952300D01*
X123245697Y-46921537D01*
X123391379Y-46861194D01*
X123522489Y-46773589D01*
X124233831Y-46062246D01*
X124314612Y-46008271D01*
X124409900Y-45989317D01*
X124505188Y-46008271D01*
X124585970Y-46062247D01*
X124639946Y-46143029D01*
X124658900Y-46238317D01*
X124658900Y-46597281D01*
X124639946Y-46692569D01*
X124585970Y-46773351D01*
X122143952Y-49215370D01*
X122063170Y-49269346D01*
X121967882Y-49288300D01*
X110505829Y-49288300D01*
X110410541Y-49269346D01*
X110329759Y-49215370D01*
X110275783Y-49134588D01*
X110272529Y-49126317D01*
X110265463Y-49107373D01*
X110261396Y-49096469D01*
X110175146Y-48981254D01*
X110059931Y-48895004D01*
X109979717Y-48865086D01*
X109925081Y-48844708D01*
X109865473Y-48838300D01*
X108269734Y-48838300D01*
X108269730Y-48838300D01*
X108269728Y-48838301D01*
X108256914Y-48839678D01*
X108210119Y-48844708D01*
X108210115Y-48844709D01*
X108075270Y-48895003D01*
X107960055Y-48981253D01*
X107960053Y-48981255D01*
X107873804Y-49096469D01*
X107823508Y-49231318D01*
X107817100Y-49290923D01*
X107817100Y-50886665D01*
X107817100Y-50886668D01*
X107817101Y-50886672D01*
X107817384Y-50889300D01*
X107823508Y-50946280D01*
X107823509Y-50946284D01*
X107862671Y-51051283D01*
X107873804Y-51081131D01*
X107960054Y-51196346D01*
X108075269Y-51282596D01*
X108210117Y-51332891D01*
X108269727Y-51339300D01*
X109865472Y-51339299D01*
X109925083Y-51332891D01*
X110059931Y-51282596D01*
X110175146Y-51196346D01*
X110261396Y-51081131D01*
X110272529Y-51051283D01*
X110323588Y-50968627D01*
X110402391Y-50911801D01*
X110496942Y-50889459D01*
X110505829Y-50889300D01*
X122408882Y-50889300D01*
X122504170Y-50908254D01*
X122584952Y-50962230D01*
X122638928Y-51043012D01*
X122657882Y-51138300D01*
X122638928Y-51233588D01*
X122584952Y-51314370D01*
X121178752Y-52720570D01*
X121097970Y-52774546D01*
X121002682Y-52793500D01*
X110429629Y-52793500D01*
X110334341Y-52774546D01*
X110253559Y-52720570D01*
X110199583Y-52639788D01*
X110196329Y-52631517D01*
X110186422Y-52604957D01*
X110185196Y-52601669D01*
X110098946Y-52486454D01*
X109983731Y-52400204D01*
X109903517Y-52370286D01*
X109848881Y-52349908D01*
X109789273Y-52343500D01*
X108193534Y-52343500D01*
X108193530Y-52343500D01*
X108193528Y-52343501D01*
X108180714Y-52344878D01*
X108133919Y-52349908D01*
X108133915Y-52349909D01*
X107999070Y-52400203D01*
X107883855Y-52486453D01*
X107883853Y-52486455D01*
X107797604Y-52601669D01*
X107747308Y-52736518D01*
X107740900Y-52796123D01*
X107740900Y-54391865D01*
X107740900Y-54391868D01*
X107740901Y-54391872D01*
X107742312Y-54404994D01*
X107747308Y-54451480D01*
X107747309Y-54451484D01*
X107785203Y-54553083D01*
X107797604Y-54586331D01*
X107883854Y-54701546D01*
X107999069Y-54787796D01*
X108133917Y-54838091D01*
X108193527Y-54844500D01*
X108301711Y-54844499D01*
X108396995Y-54863452D01*
X108477777Y-54917428D01*
X108531754Y-54998209D01*
X108550709Y-55093497D01*
X108531756Y-55188785D01*
X108477780Y-55269567D01*
X108396999Y-55323544D01*
X108396998Y-55323545D01*
X108267617Y-55377136D01*
X108267611Y-55377139D01*
X108023482Y-55518088D01*
X108023478Y-55518091D01*
X107799840Y-55689695D01*
X107600495Y-55889040D01*
X107428891Y-56112678D01*
X107428888Y-56112682D01*
X107287939Y-56356811D01*
X107287931Y-56356827D01*
X107202343Y-56563459D01*
X107180058Y-56617261D01*
X107107096Y-56889558D01*
X107070300Y-57169049D01*
X107070300Y-57219811D01*
X107070300Y-57450951D01*
X107107096Y-57730442D01*
X107180057Y-58002735D01*
X107180060Y-58002744D01*
X107287931Y-58263172D01*
X107287939Y-58263188D01*
X107428888Y-58507317D01*
X107600500Y-58730965D01*
X107799835Y-58930300D01*
X108023483Y-59101912D01*
X108139839Y-59169090D01*
X108267611Y-59242860D01*
X108267627Y-59242868D01*
X108430394Y-59310287D01*
X108528061Y-59350742D01*
X108800358Y-59423704D01*
X109039921Y-59455243D01*
X109079848Y-59460500D01*
X109079849Y-59460500D01*
X109361752Y-59460500D01*
X109396687Y-59455900D01*
X109641242Y-59423704D01*
X109913539Y-59350742D01*
X110089793Y-59277735D01*
X110173972Y-59242868D01*
X110173977Y-59242865D01*
X110173983Y-59242863D01*
X110418117Y-59101912D01*
X110641765Y-58930300D01*
X110841100Y-58730965D01*
X111012712Y-58507317D01*
X111153663Y-58263183D01*
X111261542Y-58002739D01*
X111334504Y-57730442D01*
X111371300Y-57450951D01*
X111371300Y-57169049D01*
X111334504Y-56889558D01*
X111261542Y-56617261D01*
X111221087Y-56519594D01*
X111153668Y-56356827D01*
X111153660Y-56356811D01*
X111042365Y-56164044D01*
X111012712Y-56112683D01*
X110841100Y-55889035D01*
X110641765Y-55689700D01*
X110641760Y-55689696D01*
X110641759Y-55689695D01*
X110418121Y-55518091D01*
X110418117Y-55518088D01*
X110173988Y-55377139D01*
X110173972Y-55377132D01*
X109919864Y-55271878D01*
X109839082Y-55217902D01*
X109785105Y-55137121D01*
X109766151Y-55041833D01*
X109785105Y-54946545D01*
X109839081Y-54865763D01*
X109919862Y-54811786D01*
X109928127Y-54808534D01*
X109983731Y-54787796D01*
X110098946Y-54701546D01*
X110185196Y-54586331D01*
X110196329Y-54556483D01*
X110247388Y-54473827D01*
X110326191Y-54417001D01*
X110420742Y-54394659D01*
X110429629Y-54394500D01*
X121516242Y-54394500D01*
X121670897Y-54363737D01*
X121816579Y-54303394D01*
X121947689Y-54215789D01*
X125718047Y-50445429D01*
X125798829Y-50391454D01*
X125894117Y-50372500D01*
X126115684Y-50372500D01*
X126115687Y-50372500D01*
X126115690Y-50372499D01*
X126115696Y-50372499D01*
X126214876Y-50356789D01*
X126325643Y-50339246D01*
X126527812Y-50273557D01*
X126717216Y-50177051D01*
X126889192Y-50052104D01*
X127039504Y-49901792D01*
X127164451Y-49729816D01*
X127260957Y-49540412D01*
X127326646Y-49338243D01*
X127350648Y-49186700D01*
X127359899Y-49128296D01*
X127359900Y-49128284D01*
X127359900Y-48915715D01*
X127359899Y-48915703D01*
X127331547Y-48736700D01*
X127326646Y-48705757D01*
X127260957Y-48503588D01*
X127164451Y-48314184D01*
X127039504Y-48142208D01*
X127039502Y-48142206D01*
X127033753Y-48134293D01*
X127036055Y-48132620D01*
X126997614Y-48063966D01*
X126986202Y-47967484D01*
X127012580Y-47873979D01*
X127072734Y-47797685D01*
X127087997Y-47787169D01*
X127087473Y-47786469D01*
X127101729Y-47775796D01*
X127101731Y-47775796D01*
X127216946Y-47689546D01*
X127303196Y-47574331D01*
X127353491Y-47439483D01*
X127359900Y-47379873D01*
X127359899Y-45584128D01*
X127353491Y-45524517D01*
X127303196Y-45389669D01*
X127216946Y-45274454D01*
X127101731Y-45188204D01*
X127021517Y-45158286D01*
X126966881Y-45137908D01*
X126907276Y-45131500D01*
X126907273Y-45131500D01*
X125765717Y-45131500D01*
X125670429Y-45112546D01*
X125589647Y-45058570D01*
X125535671Y-44977788D01*
X125516717Y-44882500D01*
X125535671Y-44787212D01*
X125589647Y-44706430D01*
X127895132Y-42400946D01*
X130509848Y-39786230D01*
X130590630Y-39732254D01*
X130685918Y-39713300D01*
X132052645Y-39713300D01*
X132147933Y-39732254D01*
X132228715Y-39786230D01*
X132282691Y-39867012D01*
X132301645Y-39962300D01*
X132282691Y-40057588D01*
X132267191Y-40084808D01*
X132268340Y-40085436D01*
X132259805Y-40101065D01*
X132209508Y-40235918D01*
X132203100Y-40295523D01*
X132203100Y-42091265D01*
X132203100Y-42091268D01*
X132203101Y-42091272D01*
X132205167Y-42110493D01*
X132209508Y-42150880D01*
X132209509Y-42150883D01*
X132259804Y-42285731D01*
X132346054Y-42400946D01*
X132461269Y-42487196D01*
X132596117Y-42537491D01*
X132655727Y-42543900D01*
X132656029Y-42543899D01*
X132677075Y-42549978D01*
X132698088Y-42560851D01*
X132730442Y-42570974D01*
X132759097Y-42592419D01*
X132763363Y-42594627D01*
X132765615Y-42597297D01*
X132787227Y-42613472D01*
X133424192Y-43250437D01*
X133360607Y-43267475D01*
X133246593Y-43333301D01*
X133153501Y-43426393D01*
X133087675Y-43540407D01*
X133070637Y-43603990D01*
X132477275Y-43010628D01*
X132421694Y-42994577D01*
X132398980Y-43025841D01*
X132398972Y-43025854D01*
X132302508Y-43215174D01*
X132302504Y-43215184D01*
X132236841Y-43417276D01*
X132203600Y-43627143D01*
X132203600Y-43839656D01*
X132236841Y-44049523D01*
X132302504Y-44251615D01*
X132302508Y-44251625D01*
X132398971Y-44440945D01*
X132398975Y-44440951D01*
X132438329Y-44495117D01*
X133070637Y-43862808D01*
X133087675Y-43926393D01*
X133153501Y-44040407D01*
X133246593Y-44133499D01*
X133360607Y-44199325D01*
X133424190Y-44216362D01*
X132791882Y-44848669D01*
X132793983Y-44875363D01*
X132826734Y-44964139D01*
X132822919Y-45061219D01*
X132782244Y-45149449D01*
X132727158Y-45204535D01*
X132673807Y-45243296D01*
X132523497Y-45393606D01*
X132398550Y-45565582D01*
X132302041Y-45754992D01*
X132236353Y-45957159D01*
X132203100Y-46167103D01*
X132203100Y-46379696D01*
X132236353Y-46589640D01*
X132296122Y-46773591D01*
X132302043Y-46791812D01*
X132398549Y-46981216D01*
X132497297Y-47117131D01*
X132523497Y-47153193D01*
X132673807Y-47303503D01*
X132726731Y-47341955D01*
X132792680Y-47413299D01*
X132826307Y-47504449D01*
X132822492Y-47601529D01*
X132781817Y-47689759D01*
X132726731Y-47744845D01*
X132673807Y-47783296D01*
X132523497Y-47933606D01*
X132398550Y-48105582D01*
X132302041Y-48294992D01*
X132236353Y-48497159D01*
X132203100Y-48707103D01*
X132203100Y-48919696D01*
X132236353Y-49129640D01*
X132288758Y-49290927D01*
X132302043Y-49331812D01*
X132359508Y-49444593D01*
X132398550Y-49521217D01*
X132523497Y-49693193D01*
X132673807Y-49843503D01*
X132726731Y-49881955D01*
X132792680Y-49953299D01*
X132826307Y-50044449D01*
X132822492Y-50141529D01*
X132781817Y-50229759D01*
X132726731Y-50284845D01*
X132673807Y-50323296D01*
X132523497Y-50473606D01*
X132398550Y-50645582D01*
X132302041Y-50834992D01*
X132236353Y-51037159D01*
X132203100Y-51247103D01*
X132203100Y-51459696D01*
X132236353Y-51669640D01*
X132301981Y-51871623D01*
X132302043Y-51871812D01*
X132398549Y-52061216D01*
X132523257Y-52232862D01*
X132523497Y-52233193D01*
X132673807Y-52383503D01*
X132726731Y-52421955D01*
X132792680Y-52493299D01*
X132826307Y-52584449D01*
X132822492Y-52681529D01*
X132781817Y-52769759D01*
X132726731Y-52824845D01*
X132673807Y-52863296D01*
X132523497Y-53013606D01*
X132398550Y-53185582D01*
X132302041Y-53374992D01*
X132236353Y-53577159D01*
X132203100Y-53787103D01*
X132203100Y-53999696D01*
X132236353Y-54209640D01*
X132299827Y-54404994D01*
X132302043Y-54411812D01*
X132398549Y-54601216D01*
X132471443Y-54701546D01*
X132523497Y-54773193D01*
X132673807Y-54923503D01*
X132726731Y-54961955D01*
X132792680Y-55033299D01*
X132826307Y-55124449D01*
X132822492Y-55221529D01*
X132781817Y-55309759D01*
X132726731Y-55364845D01*
X132673807Y-55403296D01*
X132523497Y-55553606D01*
X132398550Y-55725582D01*
X132302041Y-55914992D01*
X132236353Y-56117159D01*
X132203100Y-56327103D01*
X132203100Y-56539696D01*
X132236353Y-56749640D01*
X132275494Y-56870105D01*
X132302043Y-56951812D01*
X132398549Y-57141216D01*
X132523496Y-57313192D01*
X132673808Y-57463504D01*
X132845784Y-57588451D01*
X133035188Y-57684957D01*
X133126830Y-57714733D01*
X133158039Y-57724874D01*
X133242806Y-57772346D01*
X133302955Y-57848643D01*
X133329326Y-57942151D01*
X133317907Y-58038632D01*
X133270435Y-58123399D01*
X133257164Y-58137757D01*
X127694269Y-63700652D01*
X127613487Y-63754628D01*
X127518199Y-63773582D01*
X127422911Y-63754628D01*
X127342132Y-63700654D01*
X127307089Y-63665611D01*
X127307085Y-63665608D01*
X127175980Y-63578006D01*
X127175973Y-63578003D01*
X127030297Y-63517663D01*
X127030292Y-63517661D01*
X126875646Y-63486900D01*
X126875642Y-63486900D01*
X107317643Y-63486900D01*
X107159958Y-63486900D01*
X107005303Y-63517662D01*
X107005302Y-63517662D01*
X107005299Y-63517663D01*
X106859625Y-63578003D01*
X106859620Y-63578006D01*
X106728514Y-63665608D01*
X101146370Y-69247752D01*
X101065588Y-69301728D01*
X100970300Y-69320682D01*
X100875012Y-69301728D01*
X100794230Y-69247752D01*
X100740254Y-69166970D01*
X100721300Y-69071682D01*
X100721300Y-37969049D01*
X107070300Y-37969049D01*
X107070300Y-38019811D01*
X107070300Y-38250951D01*
X107107096Y-38530442D01*
X107161771Y-38734491D01*
X107180057Y-38802735D01*
X107180060Y-38802744D01*
X107287931Y-39063172D01*
X107287939Y-39063188D01*
X107400119Y-39257488D01*
X107428888Y-39307317D01*
X107600500Y-39530965D01*
X107799835Y-39730300D01*
X107799839Y-39730303D01*
X107799840Y-39730304D01*
X107859754Y-39776278D01*
X108023483Y-39901912D01*
X108128078Y-39962300D01*
X108267611Y-40042860D01*
X108267627Y-40042868D01*
X108430394Y-40110287D01*
X108528061Y-40150742D01*
X108800358Y-40223704D01*
X109039921Y-40255243D01*
X109079848Y-40260500D01*
X109079849Y-40260500D01*
X109361752Y-40260500D01*
X109396687Y-40255900D01*
X109641242Y-40223704D01*
X109913539Y-40150742D01*
X110138434Y-40057588D01*
X110173972Y-40042868D01*
X110173977Y-40042865D01*
X110173983Y-40042863D01*
X110418117Y-39901912D01*
X110641765Y-39730300D01*
X110841100Y-39530965D01*
X111012712Y-39307317D01*
X111153663Y-39063183D01*
X111261542Y-38802739D01*
X111334504Y-38530442D01*
X111371300Y-38250951D01*
X111371300Y-37969049D01*
X111334504Y-37689558D01*
X111261542Y-37417261D01*
X111220362Y-37317843D01*
X111153668Y-37156827D01*
X111153660Y-37156811D01*
X111042365Y-36964044D01*
X111012712Y-36912683D01*
X110926906Y-36800859D01*
X110841104Y-36689040D01*
X110841103Y-36689039D01*
X110841100Y-36689035D01*
X110641765Y-36489700D01*
X110641760Y-36489696D01*
X110641759Y-36489695D01*
X110418121Y-36318091D01*
X110418117Y-36318088D01*
X110173988Y-36177139D01*
X110173972Y-36177131D01*
X109913544Y-36069260D01*
X109913543Y-36069259D01*
X109913539Y-36069258D01*
X109641242Y-35996296D01*
X109641235Y-35996295D01*
X109361752Y-35959500D01*
X109361751Y-35959500D01*
X109079849Y-35959500D01*
X109079848Y-35959500D01*
X108800364Y-35996295D01*
X108800362Y-35996295D01*
X108800358Y-35996296D01*
X108673040Y-36030411D01*
X108528064Y-36069257D01*
X108528055Y-36069260D01*
X108267627Y-36177131D01*
X108267611Y-36177139D01*
X108023482Y-36318088D01*
X108023478Y-36318091D01*
X107799840Y-36489695D01*
X107600495Y-36689040D01*
X107428891Y-36912678D01*
X107428888Y-36912682D01*
X107287939Y-37156811D01*
X107287931Y-37156827D01*
X107185838Y-37403306D01*
X107180058Y-37417261D01*
X107107096Y-37689558D01*
X107107095Y-37689562D01*
X107107095Y-37689564D01*
X107082128Y-37879207D01*
X107070300Y-37969049D01*
X100721300Y-37969049D01*
X100721300Y-37715432D01*
X100721537Y-37704571D01*
X100722192Y-37689564D01*
X100737948Y-37328692D01*
X100739838Y-37307083D01*
X100788240Y-36939433D01*
X100792005Y-36918077D01*
X100872267Y-36556043D01*
X100877886Y-36535076D01*
X100989391Y-36181426D01*
X100996806Y-36161053D01*
X101138716Y-35818451D01*
X101147874Y-35798811D01*
X101319106Y-35469877D01*
X101329952Y-35451092D01*
X101529191Y-35138350D01*
X101541636Y-35120577D01*
X101767367Y-34826398D01*
X101781317Y-34809772D01*
X102031834Y-34536381D01*
X102047179Y-34521036D01*
X102320572Y-34270517D01*
X102337182Y-34256579D01*
X102631383Y-34030831D01*
X102649151Y-34018390D01*
X102961895Y-33819150D01*
X102980660Y-33808315D01*
X103309612Y-33637073D01*
X103329264Y-33627910D01*
X103671830Y-33486016D01*
X103692237Y-33478587D01*
X104045879Y-33367084D01*
X104066861Y-33361463D01*
X104428855Y-33281211D01*
X104450242Y-33277439D01*
X104817883Y-33229038D01*
X104839490Y-33227148D01*
X105215371Y-33210737D01*
X105226232Y-33210500D01*
X105286691Y-33210500D01*
X175154908Y-33210500D01*
X175215367Y-33210500D01*
X175226228Y-33210737D01*
G37*
%TD.AperFunction*%
%TA.AperFunction,Conductor*%
G36*
X101065588Y-85003271D02*
G01*
X101146370Y-85057247D01*
X101217970Y-85128847D01*
X101271946Y-85209629D01*
X101290900Y-85304917D01*
X101290900Y-85526496D01*
X101324153Y-85736440D01*
X101379305Y-85906182D01*
X101389843Y-85938612D01*
X101486349Y-86128016D01*
X101611296Y-86299992D01*
X101761608Y-86450304D01*
X101814956Y-86489063D01*
X101880905Y-86560406D01*
X101914532Y-86651556D01*
X101910718Y-86748636D01*
X101870044Y-86836867D01*
X101814958Y-86891953D01*
X101761938Y-86930474D01*
X101611675Y-87080737D01*
X101486776Y-87252646D01*
X101390308Y-87441974D01*
X101390302Y-87441987D01*
X101324643Y-87644070D01*
X101314169Y-87710200D01*
X102208388Y-87710200D01*
X102175475Y-87767207D01*
X102141400Y-87894374D01*
X102141400Y-88026026D01*
X102175475Y-88153193D01*
X102208388Y-88210200D01*
X101314170Y-88210200D01*
X101324643Y-88276329D01*
X101390302Y-88478412D01*
X101390308Y-88478425D01*
X101486776Y-88667753D01*
X101611675Y-88839662D01*
X101761935Y-88989922D01*
X101814956Y-89028444D01*
X101880905Y-89099787D01*
X101914532Y-89190937D01*
X101910718Y-89288017D01*
X101870044Y-89376248D01*
X101814958Y-89431334D01*
X101761609Y-89470094D01*
X101611297Y-89620406D01*
X101486350Y-89792382D01*
X101389841Y-89981792D01*
X101324153Y-90183959D01*
X101290900Y-90393903D01*
X101290900Y-90606496D01*
X101324153Y-90816440D01*
X101379306Y-90986185D01*
X101389843Y-91018612D01*
X101486349Y-91208016D01*
X101611296Y-91379992D01*
X101761608Y-91530304D01*
X101768176Y-91535076D01*
X101814531Y-91568755D01*
X101880480Y-91640099D01*
X101914107Y-91731249D01*
X101910292Y-91828329D01*
X101869617Y-91916559D01*
X101814531Y-91971645D01*
X101761607Y-92010096D01*
X101611297Y-92160406D01*
X101486350Y-92332382D01*
X101389841Y-92521792D01*
X101324153Y-92723959D01*
X101290900Y-92933903D01*
X101290900Y-93146496D01*
X101324153Y-93356440D01*
X101383860Y-93540200D01*
X101389843Y-93558612D01*
X101486349Y-93748016D01*
X101599813Y-93904186D01*
X101611297Y-93919993D01*
X101761607Y-94070303D01*
X101814531Y-94108755D01*
X101880480Y-94180099D01*
X101914107Y-94271249D01*
X101910292Y-94368329D01*
X101869617Y-94456559D01*
X101814531Y-94511645D01*
X101761607Y-94550096D01*
X101611297Y-94700406D01*
X101486350Y-94872382D01*
X101389841Y-95061792D01*
X101324153Y-95263959D01*
X101290900Y-95473903D01*
X101290900Y-95686496D01*
X101324153Y-95896440D01*
X101370540Y-96039206D01*
X101389843Y-96098612D01*
X101486349Y-96288016D01*
X101611296Y-96459992D01*
X101761608Y-96610304D01*
X101761611Y-96610306D01*
X101814531Y-96648755D01*
X101880480Y-96720099D01*
X101914107Y-96811249D01*
X101910292Y-96908329D01*
X101869617Y-96996559D01*
X101814531Y-97051645D01*
X101761607Y-97090096D01*
X101611297Y-97240406D01*
X101498273Y-97395972D01*
X101486349Y-97412384D01*
X101401986Y-97577957D01*
X101389841Y-97601792D01*
X101324153Y-97803959D01*
X101290900Y-98013903D01*
X101290900Y-98235481D01*
X101271946Y-98330769D01*
X101217970Y-98411551D01*
X96847911Y-102781611D01*
X96847910Y-102781610D01*
X96736412Y-102893109D01*
X96736410Y-102893112D01*
X96648806Y-103024219D01*
X96648803Y-103024226D01*
X96588463Y-103169902D01*
X96588461Y-103169907D01*
X96557700Y-103324553D01*
X96557700Y-104281187D01*
X96538746Y-104376475D01*
X96484770Y-104457257D01*
X96403988Y-104511233D01*
X96308700Y-104530187D01*
X96213412Y-104511233D01*
X96162343Y-104482633D01*
X96034826Y-104389988D01*
X96034813Y-104389979D01*
X95838416Y-104289909D01*
X95838409Y-104289906D01*
X95838406Y-104289905D01*
X95628751Y-104221785D01*
X95628745Y-104221784D01*
X95628738Y-104221782D01*
X95411032Y-104187301D01*
X95411025Y-104187300D01*
X95411022Y-104187300D01*
X95190578Y-104187300D01*
X95190575Y-104187300D01*
X95190567Y-104187301D01*
X94972861Y-104221782D01*
X94972854Y-104221784D01*
X94972852Y-104221784D01*
X94972849Y-104221785D01*
X94763194Y-104289905D01*
X94763192Y-104289905D01*
X94763192Y-104289906D01*
X94763183Y-104289909D01*
X94566786Y-104389979D01*
X94566773Y-104389988D01*
X94438694Y-104483042D01*
X94350463Y-104523716D01*
X94253383Y-104527530D01*
X94162233Y-104493903D01*
X94093003Y-104430817D01*
X94017992Y-104330615D01*
X94017987Y-104330610D01*
X93902887Y-104244446D01*
X93768178Y-104194203D01*
X93768171Y-104194201D01*
X93708632Y-104187800D01*
X93010801Y-104187800D01*
X93010800Y-104187801D01*
X93010800Y-105212522D01*
X92934494Y-105168467D01*
X92820044Y-105137800D01*
X92701556Y-105137800D01*
X92587106Y-105168467D01*
X92510800Y-105212522D01*
X92510800Y-104187801D01*
X92510799Y-104187800D01*
X91812967Y-104187800D01*
X91753428Y-104194201D01*
X91753421Y-104194203D01*
X91618712Y-104244446D01*
X91503612Y-104330610D01*
X91503610Y-104330612D01*
X91417446Y-104445712D01*
X91367203Y-104580421D01*
X91367201Y-104580428D01*
X91360800Y-104639967D01*
X91360800Y-105337799D01*
X91360801Y-105337800D01*
X92385522Y-105337800D01*
X92341467Y-105414106D01*
X92310800Y-105528556D01*
X92310800Y-105647044D01*
X92341467Y-105761494D01*
X92385522Y-105837800D01*
X91360801Y-105837800D01*
X91360800Y-105837801D01*
X91360800Y-106535632D01*
X91367201Y-106595171D01*
X91367203Y-106595178D01*
X91417446Y-106729887D01*
X91503610Y-106844987D01*
X91503612Y-106844989D01*
X91618712Y-106931153D01*
X91753421Y-106981396D01*
X91753428Y-106981398D01*
X91812967Y-106987799D01*
X91812975Y-106987800D01*
X92510799Y-106987800D01*
X92510800Y-106987799D01*
X92510800Y-105963077D01*
X92587106Y-106007133D01*
X92701556Y-106037800D01*
X92820044Y-106037800D01*
X92934494Y-106007133D01*
X93010800Y-105963077D01*
X93010800Y-106987799D01*
X93010801Y-106987800D01*
X93708625Y-106987800D01*
X93708632Y-106987799D01*
X93768171Y-106981398D01*
X93768178Y-106981396D01*
X93902887Y-106931153D01*
X94017987Y-106844989D01*
X94017990Y-106844986D01*
X94093002Y-106744783D01*
X94165280Y-106679859D01*
X94256901Y-106647537D01*
X94353916Y-106652738D01*
X94438695Y-106692558D01*
X94566771Y-106785610D01*
X94566786Y-106785620D01*
X94763183Y-106885690D01*
X94763186Y-106885691D01*
X94763194Y-106885695D01*
X94972849Y-106953815D01*
X94972860Y-106953816D01*
X94972861Y-106953817D01*
X95033440Y-106963411D01*
X95190578Y-106988300D01*
X95190582Y-106988300D01*
X95292700Y-106988300D01*
X95387988Y-107007254D01*
X95468770Y-107061230D01*
X95522746Y-107142012D01*
X95541700Y-107237300D01*
X95541700Y-113517685D01*
X95522746Y-113612973D01*
X95468770Y-113693755D01*
X95387988Y-113747731D01*
X95292700Y-113766685D01*
X95197412Y-113747731D01*
X95179661Y-113739548D01*
X95178014Y-113738709D01*
X95178013Y-113738708D01*
X95178006Y-113738705D01*
X94968351Y-113670585D01*
X94968345Y-113670584D01*
X94968338Y-113670582D01*
X94750632Y-113636101D01*
X94750625Y-113636100D01*
X94750622Y-113636100D01*
X94530178Y-113636100D01*
X94530175Y-113636100D01*
X94530167Y-113636101D01*
X94312461Y-113670582D01*
X94312454Y-113670584D01*
X94312452Y-113670584D01*
X94312449Y-113670585D01*
X94102794Y-113738705D01*
X94102792Y-113738705D01*
X94102792Y-113738706D01*
X94102783Y-113738709D01*
X93906386Y-113838779D01*
X93906373Y-113838788D01*
X93778294Y-113931842D01*
X93690063Y-113972516D01*
X93592983Y-113976330D01*
X93501833Y-113942703D01*
X93432603Y-113879617D01*
X93357592Y-113779415D01*
X93357587Y-113779410D01*
X93242487Y-113693246D01*
X93107778Y-113643003D01*
X93107771Y-113643001D01*
X93048232Y-113636600D01*
X92350401Y-113636600D01*
X92350400Y-113636601D01*
X92350400Y-114661322D01*
X92274094Y-114617267D01*
X92159644Y-114586600D01*
X92041156Y-114586600D01*
X91926706Y-114617267D01*
X91850400Y-114661322D01*
X91850400Y-113636601D01*
X91850399Y-113636600D01*
X91152567Y-113636600D01*
X91093028Y-113643001D01*
X91093022Y-113643002D01*
X91057314Y-113656321D01*
X90961410Y-113671860D01*
X90866859Y-113649516D01*
X90788056Y-113592690D01*
X90736998Y-113510033D01*
X90721300Y-113423019D01*
X90721300Y-94106292D01*
X93447200Y-94106292D01*
X93447200Y-94310907D01*
X93447201Y-94310923D01*
X93479209Y-94513013D01*
X93542440Y-94707619D01*
X93542442Y-94707625D01*
X93635340Y-94889950D01*
X93667723Y-94934520D01*
X93667724Y-94934520D01*
X94347200Y-94255044D01*
X94347200Y-94261261D01*
X94374459Y-94362994D01*
X94427120Y-94454206D01*
X94501594Y-94528680D01*
X94592806Y-94581341D01*
X94694539Y-94608600D01*
X94700754Y-94608600D01*
X94021278Y-95288074D01*
X94021278Y-95288075D01*
X94065852Y-95320460D01*
X94248174Y-95413357D01*
X94248180Y-95413359D01*
X94442786Y-95476590D01*
X94644876Y-95508598D01*
X94644892Y-95508600D01*
X94849508Y-95508600D01*
X94849523Y-95508598D01*
X95051613Y-95476590D01*
X95246219Y-95413359D01*
X95246225Y-95413357D01*
X95428542Y-95320463D01*
X95428547Y-95320459D01*
X95473120Y-95288074D01*
X95473121Y-95288074D01*
X94793646Y-94608600D01*
X94799861Y-94608600D01*
X94901594Y-94581341D01*
X94992806Y-94528680D01*
X95067280Y-94454206D01*
X95119941Y-94362994D01*
X95147200Y-94261261D01*
X95147200Y-94255046D01*
X95826674Y-94934521D01*
X95826674Y-94934520D01*
X95859059Y-94889947D01*
X95859063Y-94889942D01*
X95951957Y-94707625D01*
X95951959Y-94707619D01*
X96015190Y-94513013D01*
X96047198Y-94310923D01*
X96047200Y-94310907D01*
X96047200Y-94106292D01*
X96047198Y-94106276D01*
X96015190Y-93904186D01*
X95951959Y-93709580D01*
X95951957Y-93709574D01*
X95900502Y-93608588D01*
X96946700Y-93608588D01*
X96946700Y-94808606D01*
X96957201Y-94911400D01*
X97012385Y-95077931D01*
X97012386Y-95077934D01*
X97056951Y-95150185D01*
X97088260Y-95200947D01*
X97104488Y-95227256D01*
X97228544Y-95351312D01*
X97377866Y-95443414D01*
X97377869Y-95443415D01*
X97377867Y-95443415D01*
X97514409Y-95488660D01*
X97544403Y-95498599D01*
X97647191Y-95509100D01*
X98847208Y-95509099D01*
X98949997Y-95498599D01*
X99116534Y-95443414D01*
X99265856Y-95351312D01*
X99389912Y-95227256D01*
X99482014Y-95077934D01*
X99537199Y-94911397D01*
X99547700Y-94808609D01*
X99547699Y-93608592D01*
X99537199Y-93505803D01*
X99482014Y-93339266D01*
X99389912Y-93189944D01*
X99265856Y-93065888D01*
X99116534Y-92973786D01*
X99116532Y-92973785D01*
X99116530Y-92973784D01*
X99116532Y-92973784D01*
X98950002Y-92918602D01*
X98949998Y-92918601D01*
X98949997Y-92918601D01*
X98847209Y-92908100D01*
X98847205Y-92908100D01*
X97647193Y-92908100D01*
X97544399Y-92918601D01*
X97377867Y-92973785D01*
X97228546Y-93065886D01*
X97104486Y-93189946D01*
X97012384Y-93339268D01*
X96957202Y-93505797D01*
X96957201Y-93505804D01*
X96946700Y-93608588D01*
X95900502Y-93608588D01*
X95859060Y-93527252D01*
X95826674Y-93482678D01*
X95147200Y-94162152D01*
X95147200Y-94155939D01*
X95119941Y-94054206D01*
X95067280Y-93962994D01*
X94992806Y-93888520D01*
X94901594Y-93835859D01*
X94799861Y-93808600D01*
X94793645Y-93808600D01*
X95473120Y-93129124D01*
X95473120Y-93129123D01*
X95428550Y-93096740D01*
X95246225Y-93003842D01*
X95246219Y-93003840D01*
X95051613Y-92940609D01*
X94849523Y-92908601D01*
X94849508Y-92908600D01*
X94644892Y-92908600D01*
X94644876Y-92908601D01*
X94442786Y-92940609D01*
X94248180Y-93003840D01*
X94248174Y-93003842D01*
X94065847Y-93096742D01*
X94021278Y-93129123D01*
X94700755Y-93808600D01*
X94694539Y-93808600D01*
X94592806Y-93835859D01*
X94501594Y-93888520D01*
X94427120Y-93962994D01*
X94374459Y-94054206D01*
X94347200Y-94155939D01*
X94347200Y-94162155D01*
X93667723Y-93482678D01*
X93635342Y-93527247D01*
X93542442Y-93709574D01*
X93542440Y-93709580D01*
X93479209Y-93904186D01*
X93447201Y-94106276D01*
X93447200Y-94106292D01*
X90721300Y-94106292D01*
X90721300Y-92715432D01*
X90721537Y-92704571D01*
X90723106Y-92668631D01*
X90737948Y-92328689D01*
X90739838Y-92307084D01*
X90788239Y-91939443D01*
X90792011Y-91918056D01*
X90796405Y-91898237D01*
X90872268Y-91556037D01*
X90877879Y-91535097D01*
X90989391Y-91181425D01*
X90996806Y-91161052D01*
X91138714Y-90818456D01*
X91147873Y-90798813D01*
X91319115Y-90469861D01*
X91329950Y-90451096D01*
X91529192Y-90138349D01*
X91541644Y-90120568D01*
X91767368Y-89826397D01*
X91781318Y-89809771D01*
X92031835Y-89536380D01*
X92047180Y-89521035D01*
X92320574Y-89270516D01*
X92337184Y-89256578D01*
X92631368Y-89030842D01*
X92649158Y-89018387D01*
X92961887Y-88819156D01*
X92980681Y-88808304D01*
X93309611Y-88637074D01*
X93329251Y-88627916D01*
X93671855Y-88486005D01*
X93692224Y-88478591D01*
X94045886Y-88367082D01*
X94066843Y-88361467D01*
X94428877Y-88281205D01*
X94450233Y-88277440D01*
X94817883Y-88229038D01*
X94839492Y-88227148D01*
X95215373Y-88210737D01*
X95226234Y-88210500D01*
X100286692Y-88210500D01*
X100413986Y-88176392D01*
X100528114Y-88110500D01*
X100621300Y-88017314D01*
X100687192Y-87903186D01*
X100721300Y-87775892D01*
X100721300Y-85233317D01*
X100740254Y-85138029D01*
X100794230Y-85057247D01*
X100875012Y-85003271D01*
X100970300Y-84984317D01*
X101065588Y-85003271D01*
G37*
%TD.AperFunction*%
%TA.AperFunction,Conductor*%
G36*
X116551370Y-104019654D02*
G01*
X116632152Y-104073630D01*
X125372111Y-112813589D01*
X125372114Y-112813591D01*
X125412033Y-112840264D01*
X125480732Y-112908963D01*
X125517911Y-112998722D01*
X125517912Y-113095877D01*
X125480732Y-113185637D01*
X125412033Y-113254336D01*
X125322274Y-113291515D01*
X125273696Y-113296300D01*
X113972719Y-113296300D01*
X113877431Y-113277346D01*
X113796649Y-113223370D01*
X111581749Y-111008470D01*
X111527773Y-110927688D01*
X111508819Y-110832400D01*
X111527773Y-110737112D01*
X111581749Y-110656330D01*
X111662531Y-110602354D01*
X111757819Y-110583400D01*
X111917641Y-110583400D01*
X112190570Y-110547468D01*
X112190575Y-110547467D01*
X112456453Y-110476225D01*
X112456476Y-110476217D01*
X112710786Y-110370880D01*
X112710795Y-110370875D01*
X112949196Y-110233235D01*
X112949202Y-110233231D01*
X113077686Y-110134641D01*
X112142292Y-109199247D01*
X112158942Y-109192351D01*
X112289970Y-109104801D01*
X112401401Y-108993370D01*
X112488951Y-108862342D01*
X112495847Y-108845692D01*
X113431241Y-109781086D01*
X113529831Y-109652602D01*
X113529835Y-109652596D01*
X113667475Y-109414195D01*
X113667480Y-109414186D01*
X113772817Y-109159876D01*
X113772825Y-109159853D01*
X113844067Y-108893975D01*
X113844068Y-108893970D01*
X113880000Y-108621040D01*
X113880000Y-108345759D01*
X113844068Y-108072829D01*
X113844067Y-108072824D01*
X113772825Y-107806946D01*
X113772817Y-107806923D01*
X113667480Y-107552613D01*
X113667475Y-107552604D01*
X113529835Y-107314203D01*
X113529832Y-107314198D01*
X113431240Y-107185712D01*
X112495846Y-108121105D01*
X112488951Y-108104458D01*
X112401401Y-107973430D01*
X112289970Y-107861999D01*
X112158942Y-107774449D01*
X112142291Y-107767551D01*
X113077686Y-106832157D01*
X112949201Y-106733567D01*
X112949196Y-106733564D01*
X112710795Y-106595924D01*
X112710786Y-106595919D01*
X112456476Y-106490582D01*
X112456453Y-106490574D01*
X112190575Y-106419332D01*
X112190570Y-106419331D01*
X111917641Y-106383400D01*
X111642359Y-106383400D01*
X111369429Y-106419331D01*
X111369424Y-106419332D01*
X111103546Y-106490574D01*
X111103523Y-106490582D01*
X110849213Y-106595919D01*
X110849204Y-106595924D01*
X110610795Y-106733568D01*
X110482312Y-106832157D01*
X111417707Y-107767552D01*
X111401058Y-107774449D01*
X111270030Y-107861999D01*
X111158599Y-107973430D01*
X111071049Y-108104458D01*
X111064152Y-108121107D01*
X110128757Y-107185712D01*
X110030168Y-107314195D01*
X109892524Y-107552604D01*
X109892519Y-107552613D01*
X109787182Y-107806923D01*
X109787174Y-107806946D01*
X109715932Y-108072824D01*
X109715931Y-108072829D01*
X109680000Y-108345759D01*
X109680000Y-108505581D01*
X109661046Y-108600869D01*
X109607070Y-108681651D01*
X109526288Y-108735627D01*
X109431000Y-108754581D01*
X109335712Y-108735627D01*
X109254930Y-108681651D01*
X106604830Y-106031551D01*
X106550854Y-105950769D01*
X106531900Y-105855481D01*
X106531900Y-105633914D01*
X106531899Y-105633902D01*
X106507139Y-105477578D01*
X106498646Y-105423956D01*
X106432957Y-105221787D01*
X106336451Y-105032383D01*
X106211504Y-104860407D01*
X106061192Y-104710095D01*
X106008267Y-104671643D01*
X105991485Y-104653488D01*
X105971508Y-104638925D01*
X105958832Y-104618164D01*
X105942320Y-104600302D01*
X105933762Y-104577105D01*
X105920879Y-104556005D01*
X105917112Y-104531973D01*
X105908693Y-104509152D01*
X105909663Y-104484448D01*
X105905835Y-104460022D01*
X105911552Y-104436376D01*
X105912507Y-104412072D01*
X105922857Y-104389619D01*
X105928668Y-104365588D01*
X105940662Y-104350997D01*
X105953181Y-104323841D01*
X105985901Y-104287080D01*
X105996545Y-104277271D01*
X106061192Y-104230304D01*
X106211504Y-104079992D01*
X106213225Y-104077622D01*
X106225209Y-104066581D01*
X106262402Y-104043871D01*
X106298646Y-104019654D01*
X106303718Y-104018645D01*
X106308129Y-104015952D01*
X106351179Y-104009204D01*
X106393934Y-104000700D01*
X108429958Y-104000700D01*
X108587642Y-104000700D01*
X116456082Y-104000700D01*
X116551370Y-104019654D01*
G37*
%TD.AperFunction*%
%TA.AperFunction,Conductor*%
G36*
X102175475Y-108473193D02*
G01*
X102241301Y-108587207D01*
X102334393Y-108680299D01*
X102448407Y-108746125D01*
X102511989Y-108763162D01*
X101879682Y-109395469D01*
X101881783Y-109422163D01*
X101914534Y-109510939D01*
X101910719Y-109608019D01*
X101870044Y-109696249D01*
X101814958Y-109751335D01*
X101761607Y-109790096D01*
X101611297Y-109940406D01*
X101486350Y-110112382D01*
X101389841Y-110301792D01*
X101324153Y-110503959D01*
X101290900Y-110713903D01*
X101290900Y-110935482D01*
X101271946Y-111030770D01*
X101217971Y-111111549D01*
X100869770Y-111459752D01*
X100788988Y-111513728D01*
X100693700Y-111532682D01*
X100598412Y-111513728D01*
X100517630Y-111459752D01*
X100463654Y-111378970D01*
X100444700Y-111283682D01*
X100444700Y-109172116D01*
X100463654Y-109076828D01*
X100517626Y-108996051D01*
X100937444Y-108576233D01*
X101018221Y-108522261D01*
X101113509Y-108503307D01*
X101208797Y-108522261D01*
X101289579Y-108576237D01*
X101343555Y-108657019D01*
X101350322Y-108675362D01*
X101390304Y-108798415D01*
X101390308Y-108798425D01*
X101486771Y-108987745D01*
X101486775Y-108987751D01*
X101526129Y-109041916D01*
X102158437Y-108409607D01*
X102175475Y-108473193D01*
G37*
%TD.AperFunction*%
%TA.AperFunction,Conductor*%
G36*
X103756670Y-109041916D02*
G01*
X103791524Y-109039173D01*
X103815801Y-109022953D01*
X103911089Y-109003999D01*
X104006377Y-109022953D01*
X104087159Y-109076929D01*
X104112531Y-109106637D01*
X104115472Y-109110684D01*
X104151297Y-109159993D01*
X104301607Y-109310303D01*
X104354531Y-109348755D01*
X104420480Y-109420099D01*
X104454107Y-109511249D01*
X104450292Y-109608329D01*
X104409617Y-109696559D01*
X104384242Y-109726270D01*
X104370385Y-109740126D01*
X104301608Y-109790096D01*
X104151296Y-109940408D01*
X104101326Y-110009185D01*
X104087470Y-110023042D01*
X104063057Y-110039353D01*
X104041501Y-110059280D01*
X104023044Y-110066088D01*
X104006688Y-110077018D01*
X103977896Y-110082745D01*
X103950351Y-110092907D01*
X103930692Y-110092134D01*
X103911400Y-110095972D01*
X103882607Y-110090244D01*
X103853271Y-110089092D01*
X103835405Y-110080855D01*
X103816112Y-110077018D01*
X103791702Y-110060708D01*
X103765041Y-110048417D01*
X103748396Y-110031772D01*
X103735330Y-110023042D01*
X103726599Y-110009975D01*
X103709955Y-109993331D01*
X103671503Y-109940407D01*
X103521193Y-109790097D01*
X103521192Y-109790096D01*
X103467839Y-109751333D01*
X103454487Y-109736889D01*
X103438129Y-109725959D01*
X103421818Y-109701548D01*
X103401892Y-109679992D01*
X103395082Y-109661534D01*
X103384153Y-109645177D01*
X103378425Y-109616383D01*
X103368265Y-109588842D01*
X103369037Y-109569185D01*
X103365199Y-109549889D01*
X103370926Y-109521094D01*
X103372079Y-109491762D01*
X103380314Y-109473896D01*
X103384153Y-109454601D01*
X103400373Y-109430324D01*
X103403116Y-109395470D01*
X102770808Y-108763162D01*
X102834393Y-108746125D01*
X102948407Y-108680299D01*
X103041499Y-108587207D01*
X103107325Y-108473193D01*
X103124362Y-108409608D01*
X103756670Y-109041916D01*
G37*
%TD.AperFunction*%
%TA.AperFunction,Conductor*%
G36*
X114107788Y-82308671D02*
G01*
X114188570Y-82362647D01*
X114242546Y-82443429D01*
X114261500Y-82538717D01*
X114261500Y-87881891D01*
X114242546Y-87977179D01*
X114188570Y-88057961D01*
X114107788Y-88111937D01*
X114012500Y-88130891D01*
X113917212Y-88111937D01*
X113836430Y-88057961D01*
X113798651Y-88004007D01*
X113797027Y-88005009D01*
X113782054Y-87980733D01*
X113697312Y-87843344D01*
X113573256Y-87719288D01*
X113543134Y-87700709D01*
X113466098Y-87653193D01*
X113423934Y-87627186D01*
X113423932Y-87627185D01*
X113423930Y-87627184D01*
X113423932Y-87627184D01*
X113257402Y-87572002D01*
X113257398Y-87572001D01*
X113257397Y-87572001D01*
X113154609Y-87561500D01*
X113154605Y-87561500D01*
X110354593Y-87561500D01*
X110251799Y-87572001D01*
X110085267Y-87627185D01*
X109935946Y-87719286D01*
X109811886Y-87843346D01*
X109719784Y-87992668D01*
X109664602Y-88159197D01*
X109664601Y-88159204D01*
X109654100Y-88261988D01*
X109654100Y-91062006D01*
X109664601Y-91164800D01*
X109719785Y-91331332D01*
X109788111Y-91442108D01*
X109811888Y-91480656D01*
X109935944Y-91604712D01*
X110085266Y-91696814D01*
X110085269Y-91696815D01*
X110085267Y-91696815D01*
X110248910Y-91751040D01*
X110251803Y-91751999D01*
X110354591Y-91762500D01*
X113154608Y-91762499D01*
X113257397Y-91751999D01*
X113423934Y-91696814D01*
X113573256Y-91604712D01*
X113697312Y-91480656D01*
X113789414Y-91331334D01*
X113789415Y-91331332D01*
X113797027Y-91318991D01*
X113799036Y-91320230D01*
X113844270Y-91258533D01*
X113927327Y-91208128D01*
X114023350Y-91193345D01*
X114117722Y-91216433D01*
X114196075Y-91273878D01*
X114246480Y-91356935D01*
X114261500Y-91442108D01*
X114261500Y-91784431D01*
X114292261Y-91939077D01*
X114292263Y-91939082D01*
X114352603Y-92084758D01*
X114352606Y-92084765D01*
X114437898Y-92212413D01*
X114440211Y-92215874D01*
X122288148Y-100063811D01*
X130117167Y-107892830D01*
X130171143Y-107973612D01*
X130190097Y-108068900D01*
X130171143Y-108164188D01*
X130117167Y-108244970D01*
X130036385Y-108298946D01*
X129941097Y-108317900D01*
X129517518Y-108317900D01*
X129422230Y-108298946D01*
X129341448Y-108244970D01*
X122704039Y-101607561D01*
X116054890Y-94958412D01*
X116040626Y-94948881D01*
X115923781Y-94870807D01*
X115923774Y-94870804D01*
X115778098Y-94810464D01*
X115778093Y-94810462D01*
X115623447Y-94779701D01*
X115623443Y-94779701D01*
X106393935Y-94779701D01*
X106351207Y-94771201D01*
X106308172Y-94764465D01*
X106304027Y-94761817D01*
X106298647Y-94760747D01*
X106225243Y-94713851D01*
X106213233Y-94702789D01*
X106211504Y-94700409D01*
X106061192Y-94550097D01*
X105996143Y-94502837D01*
X105985506Y-94493039D01*
X105965236Y-94465245D01*
X105941891Y-94439991D01*
X105936847Y-94426319D01*
X105928258Y-94414542D01*
X105920167Y-94381106D01*
X105908264Y-94348841D01*
X105908836Y-94334278D01*
X105905408Y-94320112D01*
X105910727Y-94286129D01*
X105912078Y-94251761D01*
X105918179Y-94238525D01*
X105920434Y-94224126D01*
X105938353Y-94194765D01*
X105940367Y-94190395D01*
X105943116Y-94155470D01*
X105310808Y-93523162D01*
X105374393Y-93506125D01*
X105488407Y-93440299D01*
X105581499Y-93347207D01*
X105647325Y-93233193D01*
X105664362Y-93169608D01*
X106296670Y-93801916D01*
X106336024Y-93747751D01*
X106432491Y-93558424D01*
X106432495Y-93558415D01*
X106498158Y-93356323D01*
X106531399Y-93146456D01*
X106531400Y-93146444D01*
X106531400Y-92933955D01*
X106531399Y-92933943D01*
X106498158Y-92724076D01*
X106432495Y-92521984D01*
X106432491Y-92521974D01*
X106336024Y-92332648D01*
X106296670Y-92278482D01*
X106296669Y-92278482D01*
X105664362Y-92910789D01*
X105647325Y-92847207D01*
X105581499Y-92733193D01*
X105488407Y-92640101D01*
X105374393Y-92574275D01*
X105310808Y-92557237D01*
X105943117Y-91924929D01*
X105941016Y-91898237D01*
X105908266Y-91809463D01*
X105912080Y-91712383D01*
X105952754Y-91624152D01*
X106007843Y-91569064D01*
X106040353Y-91545444D01*
X106061192Y-91530304D01*
X106211504Y-91379992D01*
X106336451Y-91208016D01*
X106432957Y-91018612D01*
X106498646Y-90816443D01*
X106516189Y-90705676D01*
X106531899Y-90606496D01*
X106531900Y-90606484D01*
X106531900Y-90393915D01*
X106531899Y-90393903D01*
X106501684Y-90203137D01*
X106498646Y-90183957D01*
X106432957Y-89981788D01*
X106336451Y-89792384D01*
X106211504Y-89620408D01*
X106061192Y-89470096D01*
X106008267Y-89431644D01*
X105942320Y-89360303D01*
X105908693Y-89269153D01*
X105912507Y-89172073D01*
X105953181Y-89083842D01*
X106008267Y-89028755D01*
X106061192Y-88990304D01*
X106211504Y-88839992D01*
X106336451Y-88668016D01*
X106432957Y-88478612D01*
X106498646Y-88276443D01*
X106521699Y-88130891D01*
X106531899Y-88066496D01*
X106531900Y-88066484D01*
X106531900Y-87853915D01*
X106531899Y-87853903D01*
X106498669Y-87644102D01*
X106498646Y-87643957D01*
X106432957Y-87441788D01*
X106336451Y-87252384D01*
X106211504Y-87080408D01*
X106061192Y-86930096D01*
X106008267Y-86891644D01*
X105991485Y-86873489D01*
X105971508Y-86858926D01*
X105958832Y-86838165D01*
X105942320Y-86820303D01*
X105933762Y-86797106D01*
X105920879Y-86776006D01*
X105917112Y-86751974D01*
X105908693Y-86729153D01*
X105909663Y-86704449D01*
X105905835Y-86680023D01*
X105911552Y-86656377D01*
X105912507Y-86632073D01*
X105922857Y-86609620D01*
X105928668Y-86585589D01*
X105940662Y-86570998D01*
X105953181Y-86543842D01*
X105985901Y-86507081D01*
X105996545Y-86497272D01*
X106061192Y-86450305D01*
X106211504Y-86299993D01*
X106213225Y-86297623D01*
X106225209Y-86286582D01*
X106262402Y-86263872D01*
X106298646Y-86239655D01*
X106303718Y-86238646D01*
X106308129Y-86235953D01*
X106351179Y-86229205D01*
X106393934Y-86220701D01*
X109725641Y-86220701D01*
X109880296Y-86189938D01*
X110025978Y-86129595D01*
X110157088Y-86041990D01*
X113836433Y-82362644D01*
X113917212Y-82308671D01*
X114012500Y-82289717D01*
X114107788Y-82308671D01*
G37*
%TD.AperFunction*%
%TA.AperFunction,Conductor*%
G36*
X103940190Y-106470152D02*
G01*
X103969525Y-106471305D01*
X103987392Y-106479541D01*
X104006688Y-106483380D01*
X104031097Y-106499689D01*
X104057756Y-106511979D01*
X104074401Y-106528623D01*
X104087470Y-106537356D01*
X104101324Y-106551210D01*
X104151296Y-106619991D01*
X104301608Y-106770303D01*
X104370388Y-106820274D01*
X104384243Y-106834129D01*
X104438219Y-106914911D01*
X104457173Y-107010199D01*
X104438219Y-107105487D01*
X104384243Y-107186269D01*
X104354533Y-107211643D01*
X104301609Y-107250094D01*
X104151296Y-107400407D01*
X104112535Y-107453758D01*
X104041192Y-107519707D01*
X103950042Y-107553333D01*
X103852962Y-107549519D01*
X103791601Y-107521231D01*
X103756669Y-107518482D01*
X103124362Y-108150789D01*
X103107325Y-108087207D01*
X103041499Y-107973193D01*
X102948407Y-107880101D01*
X102834393Y-107814275D01*
X102770807Y-107797237D01*
X103403117Y-107164928D01*
X103401016Y-107138237D01*
X103395084Y-107122156D01*
X103384154Y-107105799D01*
X103378426Y-107077003D01*
X103368266Y-107049463D01*
X103369038Y-107029806D01*
X103365200Y-107010510D01*
X103370927Y-106981715D01*
X103372080Y-106952383D01*
X103380315Y-106934517D01*
X103384154Y-106915222D01*
X103400463Y-106890813D01*
X103412754Y-106864152D01*
X103429400Y-106847506D01*
X103438130Y-106834441D01*
X103451196Y-106825709D01*
X103467843Y-106809064D01*
X103476602Y-106802700D01*
X103521192Y-106770304D01*
X103671504Y-106619992D01*
X103709955Y-106567067D01*
X103724398Y-106553716D01*
X103735330Y-106537356D01*
X103759739Y-106521046D01*
X103781295Y-106501120D01*
X103799753Y-106494309D01*
X103816112Y-106483380D01*
X103844902Y-106477653D01*
X103872445Y-106467492D01*
X103892104Y-106468264D01*
X103911400Y-106464426D01*
X103940190Y-106470152D01*
G37*
%TD.AperFunction*%
%TA.AperFunction,Conductor*%
G36*
X102175475Y-100853193D02*
G01*
X102241301Y-100967207D01*
X102334393Y-101060299D01*
X102448407Y-101126125D01*
X102511989Y-101143162D01*
X101879682Y-101775469D01*
X101881783Y-101802163D01*
X101914534Y-101890939D01*
X101910719Y-101988019D01*
X101870044Y-102076249D01*
X101814958Y-102131335D01*
X101761607Y-102170096D01*
X101611297Y-102320406D01*
X101486350Y-102492382D01*
X101389841Y-102681792D01*
X101324153Y-102883959D01*
X101290900Y-103093903D01*
X101290900Y-103315481D01*
X101271946Y-103410769D01*
X101217970Y-103491551D01*
X98583770Y-106125751D01*
X98502988Y-106179727D01*
X98407700Y-106198681D01*
X98312412Y-106179727D01*
X98231630Y-106125751D01*
X98177654Y-106044969D01*
X98158700Y-105949681D01*
X98158700Y-103838117D01*
X98177654Y-103742829D01*
X98231628Y-103662049D01*
X100937443Y-100956234D01*
X101018221Y-100902261D01*
X101113509Y-100883307D01*
X101208797Y-100902261D01*
X101289579Y-100956237D01*
X101343555Y-101037019D01*
X101350322Y-101055362D01*
X101390304Y-101178415D01*
X101390308Y-101178425D01*
X101486771Y-101367745D01*
X101486775Y-101367751D01*
X101526129Y-101421916D01*
X102158437Y-100789607D01*
X102175475Y-100853193D01*
G37*
%TD.AperFunction*%
%TA.AperFunction,Conductor*%
G36*
X153773388Y-62577871D02*
G01*
X153854166Y-62631844D01*
X163357904Y-72135582D01*
X172751565Y-81529243D01*
X172805541Y-81610025D01*
X172821429Y-81666360D01*
X172850553Y-81850240D01*
X172903702Y-82013817D01*
X172916243Y-82052412D01*
X173012749Y-82241816D01*
X173100538Y-82362647D01*
X173137697Y-82413793D01*
X173288007Y-82564103D01*
X173340931Y-82602555D01*
X173357712Y-82620709D01*
X173377690Y-82635273D01*
X173390367Y-82656035D01*
X173406880Y-82673899D01*
X173415436Y-82697093D01*
X173428320Y-82718193D01*
X173432086Y-82742224D01*
X173440507Y-82765049D01*
X173439536Y-82789753D01*
X173443364Y-82814176D01*
X173437647Y-82837820D01*
X173436692Y-82862129D01*
X173426341Y-82884579D01*
X173420532Y-82908610D01*
X173408536Y-82923202D01*
X173396017Y-82950359D01*
X173363299Y-82987118D01*
X173352644Y-82996935D01*
X173288008Y-83043896D01*
X173137696Y-83194208D01*
X173135975Y-83196576D01*
X173123992Y-83207618D01*
X173086796Y-83230329D01*
X173050554Y-83254546D01*
X173045483Y-83255554D01*
X173041072Y-83258248D01*
X172998017Y-83264996D01*
X172955266Y-83273500D01*
X172695326Y-83273500D01*
X172600038Y-83254546D01*
X172519256Y-83200570D01*
X172465280Y-83119788D01*
X172462025Y-83111515D01*
X172461343Y-83109687D01*
X172413596Y-82981669D01*
X172327346Y-82866454D01*
X172212131Y-82780204D01*
X172120085Y-82745873D01*
X172077281Y-82729908D01*
X172017673Y-82723500D01*
X170221934Y-82723500D01*
X170221930Y-82723500D01*
X170221928Y-82723501D01*
X170209114Y-82724878D01*
X170162319Y-82729908D01*
X170162315Y-82729909D01*
X170027470Y-82780203D01*
X169912255Y-82866453D01*
X169912253Y-82866455D01*
X169826004Y-82981669D01*
X169775708Y-83116518D01*
X169769300Y-83176123D01*
X169769300Y-84971865D01*
X169769301Y-84971869D01*
X169775708Y-85031480D01*
X169775709Y-85031484D01*
X169823907Y-85160709D01*
X169826004Y-85166331D01*
X169912254Y-85281546D01*
X170027469Y-85367796D01*
X170027470Y-85367796D01*
X170041727Y-85378469D01*
X170039372Y-85381614D01*
X170088669Y-85422825D01*
X170133689Y-85508919D01*
X170142336Y-85605689D01*
X170113292Y-85698401D01*
X170094539Y-85725633D01*
X170095447Y-85726293D01*
X170089697Y-85734206D01*
X170089696Y-85734208D01*
X169964749Y-85906184D01*
X169895552Y-86041992D01*
X169868241Y-86095592D01*
X169802553Y-86297759D01*
X169769300Y-86507703D01*
X169769300Y-86720296D01*
X169802553Y-86930240D01*
X169851452Y-87080737D01*
X169868243Y-87132412D01*
X169964749Y-87321816D01*
X170085075Y-87487431D01*
X170089697Y-87493793D01*
X170240007Y-87644103D01*
X170292931Y-87682555D01*
X170358880Y-87753899D01*
X170392507Y-87845049D01*
X170388692Y-87942129D01*
X170348017Y-88030359D01*
X170292931Y-88085445D01*
X170240007Y-88123896D01*
X170089697Y-88274206D01*
X169964750Y-88446182D01*
X169868241Y-88635592D01*
X169802553Y-88837759D01*
X169769300Y-89047703D01*
X169769300Y-89260296D01*
X169802553Y-89470240D01*
X169802554Y-89470243D01*
X169868243Y-89672412D01*
X169964749Y-89861816D01*
X170085075Y-90027431D01*
X170089697Y-90033793D01*
X170240007Y-90184103D01*
X170292931Y-90222555D01*
X170358880Y-90293899D01*
X170392507Y-90385049D01*
X170388692Y-90482129D01*
X170348017Y-90570359D01*
X170292931Y-90625445D01*
X170240007Y-90663896D01*
X170089697Y-90814206D01*
X169964750Y-90986182D01*
X169868241Y-91175592D01*
X169802553Y-91377759D01*
X169769300Y-91587703D01*
X169769300Y-91800296D01*
X169802553Y-92010240D01*
X169865603Y-92204289D01*
X169868243Y-92212412D01*
X169964749Y-92401816D01*
X170089696Y-92573792D01*
X170240008Y-92724104D01*
X170411984Y-92849051D01*
X170601388Y-92945557D01*
X170803557Y-93011246D01*
X170854130Y-93019256D01*
X171013503Y-93044499D01*
X171013510Y-93044499D01*
X171013513Y-93044500D01*
X171013516Y-93044500D01*
X171226084Y-93044500D01*
X171226087Y-93044500D01*
X171226090Y-93044499D01*
X171226096Y-93044499D01*
X171325276Y-93028789D01*
X171436043Y-93011246D01*
X171638212Y-92945557D01*
X171827616Y-92849051D01*
X171999592Y-92724104D01*
X172149904Y-92573792D01*
X172156265Y-92567431D01*
X172237046Y-92513454D01*
X172332334Y-92494500D01*
X172955263Y-92494500D01*
X172997990Y-92502999D01*
X173041026Y-92509736D01*
X173045170Y-92512383D01*
X173050551Y-92513454D01*
X173123955Y-92560350D01*
X173135968Y-92571414D01*
X173137696Y-92573793D01*
X173288008Y-92724105D01*
X173353053Y-92771362D01*
X173363689Y-92781159D01*
X173383955Y-92808947D01*
X173407304Y-92834206D01*
X173412348Y-92847879D01*
X173420937Y-92859656D01*
X173429027Y-92893088D01*
X173440931Y-92925356D01*
X173440358Y-92939918D01*
X173443787Y-92954086D01*
X173438467Y-92988068D01*
X173437117Y-93022436D01*
X173431015Y-93035672D01*
X173428761Y-93050072D01*
X173410843Y-93079429D01*
X173408830Y-93083794D01*
X173406081Y-93118728D01*
X174038391Y-93751037D01*
X173974807Y-93768075D01*
X173860793Y-93833901D01*
X173767701Y-93926993D01*
X173701875Y-94041007D01*
X173684837Y-94104590D01*
X173052528Y-93472281D01*
X173013180Y-93526441D01*
X173013172Y-93526454D01*
X172916708Y-93715774D01*
X172916704Y-93715784D01*
X172851041Y-93917876D01*
X172817800Y-94127743D01*
X172817800Y-94340256D01*
X172851041Y-94550123D01*
X172916704Y-94752215D01*
X172916708Y-94752225D01*
X173013171Y-94941545D01*
X173013175Y-94941551D01*
X173052528Y-94995716D01*
X173684837Y-94363407D01*
X173701875Y-94426993D01*
X173767701Y-94541007D01*
X173860793Y-94634099D01*
X173974807Y-94699925D01*
X174038389Y-94716962D01*
X173401423Y-95353928D01*
X173371901Y-95373653D01*
X173344654Y-95396418D01*
X173331822Y-95400433D01*
X173320642Y-95407904D01*
X173251933Y-95425435D01*
X173248766Y-95425775D01*
X173173811Y-95419056D01*
X173164468Y-95430909D01*
X173089774Y-95474868D01*
X173075471Y-95480202D01*
X172960255Y-95566453D01*
X172960253Y-95566455D01*
X172874004Y-95681669D01*
X172835048Y-95786116D01*
X172783989Y-95868773D01*
X172705186Y-95925598D01*
X172610635Y-95947941D01*
X172601747Y-95948100D01*
X171426646Y-95948100D01*
X171331358Y-95929146D01*
X171250576Y-95875170D01*
X171196600Y-95794388D01*
X171177646Y-95699100D01*
X171189833Y-95622155D01*
X171227514Y-95506181D01*
X171254599Y-95335181D01*
X171254600Y-95335169D01*
X171254600Y-95162030D01*
X171254599Y-95162018D01*
X171227514Y-94991016D01*
X171227514Y-94991015D01*
X171174013Y-94826354D01*
X171174007Y-94826341D01*
X171095404Y-94672075D01*
X171090889Y-94665861D01*
X170507446Y-95249306D01*
X170507408Y-95249331D01*
X170507383Y-95249369D01*
X170466213Y-95276857D01*
X170454600Y-95284616D01*
X170454600Y-95209104D01*
X170434156Y-95132804D01*
X170394660Y-95064395D01*
X170338805Y-95008540D01*
X170270396Y-94969044D01*
X170194096Y-94948600D01*
X170115104Y-94948600D01*
X170038804Y-94969044D01*
X169970395Y-95008540D01*
X169914540Y-95064395D01*
X169875044Y-95132804D01*
X169854600Y-95209104D01*
X169854600Y-95284618D01*
X169801752Y-95249307D01*
X169801749Y-95249303D01*
X169218308Y-94665861D01*
X169213796Y-94672073D01*
X169213792Y-94672080D01*
X169135192Y-94826341D01*
X169135186Y-94826354D01*
X169081685Y-94991015D01*
X169081685Y-94991016D01*
X169054600Y-95162018D01*
X169054600Y-95335181D01*
X169081685Y-95506181D01*
X169119367Y-95622155D01*
X169130786Y-95718637D01*
X169104414Y-95812144D01*
X169044266Y-95888441D01*
X168959499Y-95935913D01*
X168882554Y-95948100D01*
X167865953Y-95948100D01*
X167711307Y-95978861D01*
X167711302Y-95978863D01*
X167565626Y-96039203D01*
X167565619Y-96039206D01*
X167434514Y-96126808D01*
X162847849Y-100713472D01*
X162767067Y-100767448D01*
X162699659Y-100784836D01*
X162499890Y-100807345D01*
X162226081Y-100869840D01*
X161961000Y-100962595D01*
X161960986Y-100962601D01*
X161707952Y-101084456D01*
X161707946Y-101084459D01*
X161470152Y-101233876D01*
X161250578Y-101408981D01*
X161250570Y-101408988D01*
X161051988Y-101607570D01*
X161051981Y-101607578D01*
X160876876Y-101827152D01*
X160727459Y-102064946D01*
X160727456Y-102064952D01*
X160605601Y-102317986D01*
X160605595Y-102318000D01*
X160512840Y-102583081D01*
X160450345Y-102856890D01*
X160441648Y-102934076D01*
X160412144Y-103026643D01*
X160349462Y-103100873D01*
X160263145Y-103145465D01*
X160166334Y-103153630D01*
X160073767Y-103124126D01*
X160018144Y-103082266D01*
X154513835Y-97577957D01*
X154459859Y-97497175D01*
X154440905Y-97401887D01*
X154459859Y-97306599D01*
X154513835Y-97225817D01*
X154594617Y-97171841D01*
X154689905Y-97152887D01*
X154754345Y-97161370D01*
X154800358Y-97173700D01*
X155033267Y-97204363D01*
X155079848Y-97210496D01*
X155079849Y-97210496D01*
X155361752Y-97210496D01*
X155396687Y-97205896D01*
X155641242Y-97173700D01*
X155913539Y-97100738D01*
X156153477Y-97001353D01*
X156173972Y-96992864D01*
X156173977Y-96992861D01*
X156173983Y-96992859D01*
X156418117Y-96851908D01*
X156641765Y-96680296D01*
X156841100Y-96480961D01*
X157012712Y-96257313D01*
X157153663Y-96013179D01*
X157180620Y-95948100D01*
X157205331Y-95888441D01*
X157261542Y-95752735D01*
X157334504Y-95480438D01*
X157371300Y-95200947D01*
X157371300Y-94919045D01*
X157367468Y-94889942D01*
X157362593Y-94852908D01*
X157334504Y-94639554D01*
X157261542Y-94367257D01*
X157217637Y-94261261D01*
X157153668Y-94106823D01*
X157153660Y-94106807D01*
X157045802Y-93919992D01*
X157012712Y-93862679D01*
X156841100Y-93639031D01*
X156641765Y-93439696D01*
X156641760Y-93439692D01*
X156641759Y-93439691D01*
X156418121Y-93268087D01*
X156418117Y-93268084D01*
X156173988Y-93127135D01*
X156173972Y-93127127D01*
X155913544Y-93019256D01*
X155913543Y-93019255D01*
X155913539Y-93019254D01*
X155641242Y-92946292D01*
X155641235Y-92946291D01*
X155361752Y-92909496D01*
X155361751Y-92909496D01*
X155079849Y-92909496D01*
X155079848Y-92909496D01*
X154800364Y-92946291D01*
X154800362Y-92946291D01*
X154800358Y-92946292D01*
X154594508Y-93001449D01*
X154528064Y-93019253D01*
X154528055Y-93019256D01*
X154267627Y-93127127D01*
X154267611Y-93127135D01*
X154023485Y-93268082D01*
X154003137Y-93283696D01*
X153829680Y-93416794D01*
X153742547Y-93459764D01*
X153645600Y-93466119D01*
X153553601Y-93434890D01*
X153480555Y-93370831D01*
X153437585Y-93283696D01*
X153429100Y-93219249D01*
X153429100Y-80388358D01*
X153427901Y-80376185D01*
X153428393Y-80376136D01*
X153425300Y-80344729D01*
X153425300Y-71617918D01*
X153444254Y-71522630D01*
X153498230Y-71441848D01*
X153579012Y-71387872D01*
X153674300Y-71368918D01*
X153769588Y-71387872D01*
X153850370Y-71441848D01*
X157698770Y-75290248D01*
X157752746Y-75371030D01*
X157771700Y-75466318D01*
X157771700Y-78742646D01*
X157802461Y-78897292D01*
X157802463Y-78897297D01*
X157862803Y-79042973D01*
X157862806Y-79042980D01*
X157937288Y-79154449D01*
X157950411Y-79174089D01*
X160044372Y-81268050D01*
X160098346Y-81348829D01*
X160117300Y-81444117D01*
X160117300Y-81640296D01*
X160150553Y-81850240D01*
X160203702Y-82013817D01*
X160216243Y-82052412D01*
X160312749Y-82241816D01*
X160400538Y-82362647D01*
X160437697Y-82413793D01*
X160588007Y-82564103D01*
X160640931Y-82602555D01*
X160706880Y-82673899D01*
X160740507Y-82765049D01*
X160736692Y-82862129D01*
X160696017Y-82950359D01*
X160640931Y-83005445D01*
X160588007Y-83043896D01*
X160437697Y-83194206D01*
X160312750Y-83366182D01*
X160216241Y-83555592D01*
X160150553Y-83757759D01*
X160117300Y-83967703D01*
X160117300Y-84180296D01*
X160150553Y-84390240D01*
X160188960Y-84508446D01*
X160216243Y-84592412D01*
X160312749Y-84781816D01*
X160380203Y-84874659D01*
X160437699Y-84953796D01*
X160437701Y-84953798D01*
X160594366Y-85110462D01*
X160594370Y-85110465D01*
X160621255Y-85150702D01*
X160648346Y-85191246D01*
X160667169Y-85285873D01*
X160667300Y-85286535D01*
X160667300Y-85401464D01*
X160648346Y-85496752D01*
X160594370Y-85577534D01*
X160437697Y-85734206D01*
X160330428Y-85881851D01*
X160312749Y-85906184D01*
X160243552Y-86041992D01*
X160216241Y-86095592D01*
X160150553Y-86297759D01*
X160117300Y-86507703D01*
X160117300Y-86720296D01*
X160150553Y-86930240D01*
X160199452Y-87080737D01*
X160216243Y-87132412D01*
X160312749Y-87321816D01*
X160433075Y-87487431D01*
X160437697Y-87493793D01*
X160588007Y-87644103D01*
X160640931Y-87682555D01*
X160706880Y-87753899D01*
X160740507Y-87845049D01*
X160736692Y-87942129D01*
X160696017Y-88030359D01*
X160640931Y-88085445D01*
X160588007Y-88123896D01*
X160437697Y-88274206D01*
X160312750Y-88446182D01*
X160216241Y-88635592D01*
X160150553Y-88837759D01*
X160117300Y-89047703D01*
X160117300Y-89260296D01*
X160150553Y-89470240D01*
X160150554Y-89470243D01*
X160216243Y-89672412D01*
X160312749Y-89861816D01*
X160437696Y-90033792D01*
X160588008Y-90184104D01*
X160640932Y-90222555D01*
X160706880Y-90293897D01*
X160740507Y-90385047D01*
X160736693Y-90482127D01*
X160696019Y-90570358D01*
X160640933Y-90625444D01*
X160588009Y-90663895D01*
X160437697Y-90814207D01*
X160312750Y-90986183D01*
X160216241Y-91175593D01*
X160150553Y-91377760D01*
X160117300Y-91587704D01*
X160117300Y-91800297D01*
X160150553Y-92010241D01*
X160150554Y-92010243D01*
X160150554Y-92010244D01*
X160216243Y-92212413D01*
X160312749Y-92401817D01*
X160437696Y-92573792D01*
X160437697Y-92573794D01*
X160588009Y-92724106D01*
X160640929Y-92762554D01*
X160706878Y-92833896D01*
X160740506Y-92925046D01*
X160736693Y-93022126D01*
X160696018Y-93110357D01*
X160640931Y-93165445D01*
X160588007Y-93203896D01*
X160437697Y-93354206D01*
X160312750Y-93526182D01*
X160216241Y-93715592D01*
X160150553Y-93917759D01*
X160117300Y-94127703D01*
X160117300Y-94340296D01*
X160150553Y-94550240D01*
X160210260Y-94734000D01*
X160216243Y-94752412D01*
X160312749Y-94941816D01*
X160411642Y-95077932D01*
X160443447Y-95121707D01*
X160441146Y-95123378D01*
X160479592Y-95192055D01*
X160490995Y-95288538D01*
X160464608Y-95382041D01*
X160404447Y-95458329D01*
X160389205Y-95468834D01*
X160389727Y-95469531D01*
X160375470Y-95480203D01*
X160375469Y-95480204D01*
X160301119Y-95535861D01*
X160260255Y-95566453D01*
X160260253Y-95566455D01*
X160174004Y-95681669D01*
X160123708Y-95816518D01*
X160117300Y-95876123D01*
X160117300Y-97671865D01*
X160117300Y-97671868D01*
X160117301Y-97671872D01*
X160117894Y-97677388D01*
X160123708Y-97731480D01*
X160123709Y-97731484D01*
X160174003Y-97866329D01*
X160174004Y-97866331D01*
X160260254Y-97981546D01*
X160375469Y-98067796D01*
X160510317Y-98118091D01*
X160569927Y-98124500D01*
X162365672Y-98124499D01*
X162425283Y-98118091D01*
X162560131Y-98067796D01*
X162675346Y-97981546D01*
X162761596Y-97866331D01*
X162811891Y-97731483D01*
X162818300Y-97671873D01*
X162818299Y-95876128D01*
X162811891Y-95816517D01*
X162761596Y-95681669D01*
X162675346Y-95566454D01*
X162560131Y-95480204D01*
X162560129Y-95480203D01*
X162545873Y-95469531D01*
X162548226Y-95466387D01*
X162498906Y-95425144D01*
X162453899Y-95339043D01*
X162445267Y-95242272D01*
X162474326Y-95149564D01*
X162493074Y-95122376D01*
X162492153Y-95121707D01*
X162523956Y-95077934D01*
X162622851Y-94941816D01*
X162719357Y-94752412D01*
X162785046Y-94550243D01*
X162814028Y-94367260D01*
X162818299Y-94340296D01*
X162818300Y-94340284D01*
X162818300Y-94312308D01*
X169571861Y-94312308D01*
X170154599Y-94895045D01*
X170737336Y-94312309D01*
X170731120Y-94307793D01*
X170576858Y-94229192D01*
X170576845Y-94229186D01*
X170412183Y-94175685D01*
X170241181Y-94148600D01*
X170068018Y-94148600D01*
X169897016Y-94175685D01*
X169897015Y-94175685D01*
X169732354Y-94229186D01*
X169732341Y-94229192D01*
X169578080Y-94307792D01*
X169578073Y-94307796D01*
X169571861Y-94312308D01*
X162818300Y-94312308D01*
X162818300Y-94127715D01*
X162818299Y-94127703D01*
X162785400Y-93919992D01*
X162785046Y-93917757D01*
X162719357Y-93715588D01*
X162622851Y-93526184D01*
X162497904Y-93354208D01*
X162347592Y-93203896D01*
X162294667Y-93165444D01*
X162228720Y-93094103D01*
X162195093Y-93002953D01*
X162198907Y-92905873D01*
X162239581Y-92817642D01*
X162294667Y-92762556D01*
X162347592Y-92724105D01*
X162497904Y-92573793D01*
X162622851Y-92401817D01*
X162719357Y-92212413D01*
X162785046Y-92010244D01*
X162806751Y-91873208D01*
X162818299Y-91800297D01*
X162818300Y-91800285D01*
X162818300Y-91587716D01*
X162818299Y-91587704D01*
X162785046Y-91377760D01*
X162785046Y-91377759D01*
X162785046Y-91377758D01*
X162719357Y-91175589D01*
X162622851Y-90986185D01*
X162497904Y-90814209D01*
X162347592Y-90663897D01*
X162347591Y-90663896D01*
X162347587Y-90663893D01*
X162294668Y-90625445D01*
X162228719Y-90554102D01*
X162195092Y-90462953D01*
X162198906Y-90365872D01*
X162239581Y-90277642D01*
X162294667Y-90222555D01*
X162347592Y-90184104D01*
X162497904Y-90033792D01*
X162622851Y-89861816D01*
X162719357Y-89672412D01*
X162785046Y-89470243D01*
X162816945Y-89268842D01*
X162818299Y-89260296D01*
X162818300Y-89260284D01*
X162818300Y-89047715D01*
X162818299Y-89047703D01*
X162785400Y-88839992D01*
X162785046Y-88837757D01*
X162719357Y-88635588D01*
X162622851Y-88446184D01*
X162497904Y-88274208D01*
X162347592Y-88123896D01*
X162294667Y-88085444D01*
X162228720Y-88014103D01*
X162195093Y-87922953D01*
X162198907Y-87825873D01*
X162239581Y-87737642D01*
X162294667Y-87682555D01*
X162347592Y-87644104D01*
X162497904Y-87493792D01*
X162622851Y-87321816D01*
X162719357Y-87132412D01*
X162785046Y-86930243D01*
X162809475Y-86776006D01*
X162818299Y-86720296D01*
X162818300Y-86720284D01*
X162818300Y-86507715D01*
X162818299Y-86507703D01*
X162785046Y-86297759D01*
X162785046Y-86297757D01*
X162719357Y-86095588D01*
X162622851Y-85906184D01*
X162497904Y-85734208D01*
X162347592Y-85583896D01*
X162341230Y-85577534D01*
X162287254Y-85496752D01*
X162268300Y-85401464D01*
X162268300Y-85286535D01*
X162287254Y-85191247D01*
X162341230Y-85110465D01*
X162341233Y-85110462D01*
X162347588Y-85104106D01*
X162347592Y-85104104D01*
X162497904Y-84953792D01*
X162622851Y-84781816D01*
X162719357Y-84592412D01*
X162785046Y-84390243D01*
X162804859Y-84265149D01*
X162818299Y-84180296D01*
X162818300Y-84180284D01*
X162818300Y-83967715D01*
X162818299Y-83967703D01*
X162785046Y-83757759D01*
X162785046Y-83757757D01*
X162719357Y-83555588D01*
X162622851Y-83366184D01*
X162497904Y-83194208D01*
X162347592Y-83043896D01*
X162294667Y-83005444D01*
X162228720Y-82934103D01*
X162195093Y-82842953D01*
X162198907Y-82745873D01*
X162239581Y-82657642D01*
X162294667Y-82602555D01*
X162347592Y-82564104D01*
X162497904Y-82413792D01*
X162622851Y-82241816D01*
X162719357Y-82052412D01*
X162785046Y-81850243D01*
X162803552Y-81733400D01*
X162818299Y-81640296D01*
X162818300Y-81640284D01*
X162818300Y-81427715D01*
X162818299Y-81427703D01*
X162785046Y-81217759D01*
X162785046Y-81217757D01*
X162719357Y-81015588D01*
X162622851Y-80826184D01*
X162497904Y-80654208D01*
X162347592Y-80503896D01*
X162347591Y-80503895D01*
X162347587Y-80503892D01*
X162294668Y-80465444D01*
X162228719Y-80394101D01*
X162195092Y-80302952D01*
X162198906Y-80205871D01*
X162239581Y-80117641D01*
X162294667Y-80062554D01*
X162347592Y-80024103D01*
X162497904Y-79873791D01*
X162622851Y-79701815D01*
X162719357Y-79512411D01*
X162785046Y-79310242D01*
X162806611Y-79174085D01*
X162818299Y-79100295D01*
X162818300Y-79100283D01*
X162818300Y-78887714D01*
X162818299Y-78887702D01*
X162795323Y-78742642D01*
X162785046Y-78677756D01*
X162719357Y-78475587D01*
X162622851Y-78286183D01*
X162497904Y-78114207D01*
X162347592Y-77963895D01*
X162175616Y-77838948D01*
X161986212Y-77742442D01*
X161986209Y-77742441D01*
X161986207Y-77742440D01*
X161784040Y-77676752D01*
X161574096Y-77643499D01*
X161574087Y-77643499D01*
X161361513Y-77643499D01*
X161361503Y-77643499D01*
X161151559Y-77676752D01*
X160949392Y-77742440D01*
X160759982Y-77838949D01*
X160588006Y-77963896D01*
X160437697Y-78114205D01*
X160312750Y-78286181D01*
X160216241Y-78475590D01*
X160170096Y-78617611D01*
X160165259Y-78626246D01*
X160163329Y-78635953D01*
X160141672Y-78668365D01*
X160122624Y-78702378D01*
X160114852Y-78708504D01*
X160109353Y-78716735D01*
X160076937Y-78738393D01*
X160046326Y-78762526D01*
X160036800Y-78765212D01*
X160028571Y-78770711D01*
X159990333Y-78778316D01*
X159952818Y-78788897D01*
X159942991Y-78787733D01*
X159933283Y-78789665D01*
X159895048Y-78782059D01*
X159856337Y-78777478D01*
X159847701Y-78772641D01*
X159837995Y-78770711D01*
X159805582Y-78749054D01*
X159771570Y-78730006D01*
X159757213Y-78716735D01*
X159445630Y-78405152D01*
X159391654Y-78324370D01*
X159372700Y-78229082D01*
X159372700Y-74952756D01*
X159370949Y-74943951D01*
X159370949Y-74943950D01*
X159341938Y-74798105D01*
X159341937Y-74798104D01*
X159341937Y-74798102D01*
X159291188Y-74675584D01*
X159281594Y-74652421D01*
X159219600Y-74559640D01*
X159193993Y-74521316D01*
X159193987Y-74521309D01*
X159082489Y-74409810D01*
X159082489Y-74409811D01*
X153123327Y-68450649D01*
X153069351Y-68369867D01*
X153050397Y-68274579D01*
X153069351Y-68179291D01*
X153123327Y-68098509D01*
X153136555Y-68086521D01*
X153138882Y-68084193D01*
X153138889Y-68084189D01*
X153250389Y-67972689D01*
X153337994Y-67841579D01*
X153398337Y-67695897D01*
X153429100Y-67541242D01*
X153429100Y-67383558D01*
X153429100Y-62807917D01*
X153448054Y-62712629D01*
X153502030Y-62631847D01*
X153582812Y-62577871D01*
X153678100Y-62558917D01*
X153773388Y-62577871D01*
G37*
%TD.AperFunction*%
%TA.AperFunction,Conductor*%
G36*
X103756670Y-101421916D02*
G01*
X103791524Y-101419173D01*
X103815801Y-101402953D01*
X103911089Y-101383999D01*
X104006377Y-101402953D01*
X104087159Y-101456929D01*
X104112531Y-101486637D01*
X104151296Y-101539992D01*
X104151297Y-101539993D01*
X104301607Y-101690303D01*
X104354531Y-101728755D01*
X104420480Y-101800099D01*
X104454107Y-101891249D01*
X104450292Y-101988329D01*
X104409617Y-102076559D01*
X104384242Y-102106270D01*
X104370385Y-102120126D01*
X104301608Y-102170096D01*
X104151296Y-102320408D01*
X104101326Y-102389185D01*
X104087470Y-102403042D01*
X104063057Y-102419353D01*
X104041501Y-102439280D01*
X104023044Y-102446088D01*
X104006688Y-102457018D01*
X103977896Y-102462745D01*
X103950351Y-102472907D01*
X103930692Y-102472134D01*
X103911400Y-102475972D01*
X103882607Y-102470244D01*
X103853271Y-102469092D01*
X103835405Y-102460855D01*
X103816112Y-102457018D01*
X103791702Y-102440708D01*
X103765041Y-102428417D01*
X103748396Y-102411772D01*
X103735330Y-102403042D01*
X103726599Y-102389975D01*
X103709955Y-102373331D01*
X103671503Y-102320407D01*
X103521193Y-102170097D01*
X103521192Y-102170096D01*
X103467839Y-102131333D01*
X103454487Y-102116889D01*
X103438129Y-102105959D01*
X103421818Y-102081548D01*
X103401892Y-102059992D01*
X103395082Y-102041534D01*
X103384153Y-102025177D01*
X103378425Y-101996383D01*
X103368265Y-101968842D01*
X103369037Y-101949185D01*
X103365199Y-101929889D01*
X103370926Y-101901094D01*
X103372079Y-101871762D01*
X103380314Y-101853896D01*
X103384153Y-101834601D01*
X103400373Y-101810324D01*
X103403116Y-101775470D01*
X102770808Y-101143162D01*
X102834393Y-101126125D01*
X102948407Y-101060299D01*
X103041499Y-100967207D01*
X103107325Y-100853193D01*
X103124362Y-100789608D01*
X103756670Y-101421916D01*
G37*
%TD.AperFunction*%
%TA.AperFunction,Conductor*%
G36*
X147488570Y-65106854D02*
G01*
X147569352Y-65160830D01*
X152107852Y-69699330D01*
X152161828Y-69780112D01*
X152180782Y-69875400D01*
X152161828Y-69970688D01*
X152107852Y-70051469D01*
X152003012Y-70156309D01*
X152003010Y-70156312D01*
X151915406Y-70287419D01*
X151915403Y-70287426D01*
X151855063Y-70433102D01*
X151855061Y-70433107D01*
X151824300Y-70587753D01*
X151824300Y-76680882D01*
X151805346Y-76776170D01*
X151751370Y-76856952D01*
X151670588Y-76910928D01*
X151575300Y-76929882D01*
X151480012Y-76910928D01*
X151399230Y-76856952D01*
X147677030Y-73134752D01*
X147623054Y-73053970D01*
X147604100Y-72958682D01*
X147604100Y-72737115D01*
X147604099Y-72737103D01*
X147570846Y-72527159D01*
X147570846Y-72527157D01*
X147505157Y-72324988D01*
X147408651Y-72135584D01*
X147283704Y-71963608D01*
X147133392Y-71813296D01*
X147080039Y-71774533D01*
X147014092Y-71703192D01*
X146980465Y-71612042D01*
X146984279Y-71514962D01*
X147012567Y-71453597D01*
X147015316Y-71418670D01*
X146383008Y-70786362D01*
X146446593Y-70769325D01*
X146560607Y-70703499D01*
X146653699Y-70610407D01*
X146719525Y-70496393D01*
X146736562Y-70432808D01*
X147368870Y-71065116D01*
X147408224Y-71010951D01*
X147504691Y-70821624D01*
X147504695Y-70821615D01*
X147570358Y-70619523D01*
X147603599Y-70409656D01*
X147603600Y-70409644D01*
X147603600Y-70197155D01*
X147603599Y-70197143D01*
X147570358Y-69987276D01*
X147504695Y-69785184D01*
X147504691Y-69785174D01*
X147408224Y-69595848D01*
X147368869Y-69541681D01*
X146736562Y-70173989D01*
X146719525Y-70110407D01*
X146653699Y-69996393D01*
X146560607Y-69903301D01*
X146446593Y-69837475D01*
X146383007Y-69820437D01*
X147019973Y-69183472D01*
X147049469Y-69163763D01*
X147076682Y-69141015D01*
X147089546Y-69136985D01*
X147100755Y-69129496D01*
X147169392Y-69111972D01*
X147172566Y-69111631D01*
X147247595Y-69118335D01*
X147256935Y-69106488D01*
X147331635Y-69062527D01*
X147345931Y-69057196D01*
X147461146Y-68970946D01*
X147547396Y-68855731D01*
X147597691Y-68720883D01*
X147604100Y-68661273D01*
X147604099Y-66865528D01*
X147597691Y-66805917D01*
X147547396Y-66671069D01*
X147461146Y-66555854D01*
X147345931Y-66469604D01*
X147265717Y-66439686D01*
X147211081Y-66419308D01*
X147151473Y-66412900D01*
X145355734Y-66412900D01*
X145355730Y-66412900D01*
X145355728Y-66412901D01*
X145342914Y-66414278D01*
X145296119Y-66419308D01*
X145296115Y-66419309D01*
X145161270Y-66469603D01*
X145046055Y-66555853D01*
X145046053Y-66555855D01*
X144959804Y-66671069D01*
X144909508Y-66805918D01*
X144903100Y-66865523D01*
X144903100Y-68661265D01*
X144903100Y-68661268D01*
X144903101Y-68661272D01*
X144905167Y-68680493D01*
X144909508Y-68720880D01*
X144909509Y-68720883D01*
X144959804Y-68855731D01*
X145046054Y-68970946D01*
X145161269Y-69057196D01*
X145296117Y-69107491D01*
X145355727Y-69113900D01*
X145356029Y-69113899D01*
X145377075Y-69119978D01*
X145398088Y-69130851D01*
X145430442Y-69140974D01*
X145459097Y-69162419D01*
X145463363Y-69164627D01*
X145465615Y-69167297D01*
X145487227Y-69183472D01*
X146124192Y-69820437D01*
X146060607Y-69837475D01*
X145946593Y-69903301D01*
X145853501Y-69996393D01*
X145787675Y-70110407D01*
X145770637Y-70173990D01*
X145177275Y-69580628D01*
X145121694Y-69564577D01*
X145098980Y-69595841D01*
X145098972Y-69595854D01*
X145002508Y-69785174D01*
X145002504Y-69785184D01*
X144936841Y-69987276D01*
X144903600Y-70197143D01*
X144903600Y-70409656D01*
X144936841Y-70619523D01*
X145002504Y-70821615D01*
X145002508Y-70821625D01*
X145098971Y-71010945D01*
X145098975Y-71010951D01*
X145138329Y-71065117D01*
X145770637Y-70432808D01*
X145787675Y-70496393D01*
X145853501Y-70610407D01*
X145946593Y-70703499D01*
X146060607Y-70769325D01*
X146124189Y-70786362D01*
X145491882Y-71418669D01*
X145493983Y-71445363D01*
X145526734Y-71534139D01*
X145522919Y-71631219D01*
X145482244Y-71719449D01*
X145427158Y-71774535D01*
X145373807Y-71813296D01*
X145223497Y-71963606D01*
X145098550Y-72135582D01*
X145002041Y-72324992D01*
X144936353Y-72527159D01*
X144903100Y-72737103D01*
X144903100Y-72949696D01*
X144936353Y-73159640D01*
X144966623Y-73252803D01*
X145002043Y-73361812D01*
X145098549Y-73551216D01*
X145098550Y-73551217D01*
X145223497Y-73723193D01*
X145373807Y-73873503D01*
X145426731Y-73911955D01*
X145492680Y-73983299D01*
X145526307Y-74074449D01*
X145522492Y-74171529D01*
X145481817Y-74259759D01*
X145426731Y-74314845D01*
X145373807Y-74353296D01*
X145223497Y-74503606D01*
X145098550Y-74675582D01*
X145002041Y-74864992D01*
X144936353Y-75067159D01*
X144903100Y-75277103D01*
X144903100Y-75489696D01*
X144936353Y-75699640D01*
X144989725Y-75863903D01*
X145002043Y-75901812D01*
X145098549Y-76091216D01*
X145223496Y-76263192D01*
X145373808Y-76413504D01*
X145427156Y-76452263D01*
X145493104Y-76523603D01*
X145526732Y-76614753D01*
X145522919Y-76711833D01*
X145494630Y-76773196D01*
X145491881Y-76808128D01*
X146124191Y-77440437D01*
X146060607Y-77457475D01*
X145946593Y-77523301D01*
X145853501Y-77616393D01*
X145787675Y-77730407D01*
X145770637Y-77793990D01*
X145138328Y-77161681D01*
X145098980Y-77215841D01*
X145098972Y-77215854D01*
X145002508Y-77405174D01*
X145002504Y-77405184D01*
X144936841Y-77607276D01*
X144903600Y-77817143D01*
X144903600Y-78029656D01*
X144936841Y-78239523D01*
X145002504Y-78441615D01*
X145002508Y-78441625D01*
X145098971Y-78630945D01*
X145098975Y-78630951D01*
X145138329Y-78685117D01*
X145770637Y-78052808D01*
X145787675Y-78116393D01*
X145853501Y-78230407D01*
X145946593Y-78323499D01*
X146060607Y-78389325D01*
X146124189Y-78406362D01*
X145491882Y-79038669D01*
X145493983Y-79065363D01*
X145526734Y-79154139D01*
X145522919Y-79251219D01*
X145482244Y-79339449D01*
X145427158Y-79394535D01*
X145373807Y-79433296D01*
X145223497Y-79583606D01*
X145098550Y-79755582D01*
X145002041Y-79944992D01*
X144936353Y-80147159D01*
X144903100Y-80357103D01*
X144903100Y-80569696D01*
X144936353Y-80779640D01*
X144995037Y-80960252D01*
X145002043Y-80981812D01*
X145098549Y-81171216D01*
X145168901Y-81268047D01*
X145223497Y-81343193D01*
X145373807Y-81493503D01*
X145426731Y-81531955D01*
X145492680Y-81603299D01*
X145526307Y-81694449D01*
X145522492Y-81791529D01*
X145481817Y-81879759D01*
X145426731Y-81934845D01*
X145373807Y-81973296D01*
X145223497Y-82123606D01*
X145098550Y-82295582D01*
X145002041Y-82484992D01*
X144936353Y-82687159D01*
X144903100Y-82897103D01*
X144903100Y-83109696D01*
X144936353Y-83319640D01*
X144995601Y-83501988D01*
X145002043Y-83521812D01*
X145098549Y-83711216D01*
X145223496Y-83883192D01*
X145373808Y-84033504D01*
X145545784Y-84158451D01*
X145735188Y-84254957D01*
X145937357Y-84320646D01*
X146011201Y-84332341D01*
X146147303Y-84353899D01*
X146147310Y-84353899D01*
X146147313Y-84353900D01*
X146147316Y-84353900D01*
X146359884Y-84353900D01*
X146359887Y-84353900D01*
X146359890Y-84353899D01*
X146359896Y-84353899D01*
X146467302Y-84336887D01*
X146569843Y-84320646D01*
X146772012Y-84254957D01*
X146961416Y-84158451D01*
X147133392Y-84033504D01*
X147283704Y-83883192D01*
X147408651Y-83711216D01*
X147505157Y-83521812D01*
X147570846Y-83319643D01*
X147590713Y-83194206D01*
X147604099Y-83109696D01*
X147604100Y-83109684D01*
X147604100Y-82897115D01*
X147604099Y-82897103D01*
X147576602Y-82723500D01*
X147570846Y-82687157D01*
X147505157Y-82484988D01*
X147408651Y-82295584D01*
X147283704Y-82123608D01*
X147133392Y-81973296D01*
X147080467Y-81934844D01*
X147014520Y-81863503D01*
X146980893Y-81772353D01*
X146984707Y-81675273D01*
X147025381Y-81587042D01*
X147080467Y-81531955D01*
X147133392Y-81493504D01*
X147283704Y-81343192D01*
X147408651Y-81171216D01*
X147505157Y-80981812D01*
X147570846Y-80779643D01*
X147604100Y-80569687D01*
X147604100Y-80357113D01*
X147604099Y-80357110D01*
X147604099Y-80357103D01*
X147570846Y-80147159D01*
X147570846Y-80147157D01*
X147505157Y-79944988D01*
X147408651Y-79755584D01*
X147283704Y-79583608D01*
X147133392Y-79433296D01*
X147080039Y-79394533D01*
X147014092Y-79323192D01*
X146980465Y-79232042D01*
X146984279Y-79134962D01*
X147012567Y-79073597D01*
X147015316Y-79038670D01*
X146383008Y-78406362D01*
X146446593Y-78389325D01*
X146560607Y-78323499D01*
X146653699Y-78230407D01*
X146719525Y-78116393D01*
X146736562Y-78052808D01*
X147368870Y-78685116D01*
X147408224Y-78630951D01*
X147504691Y-78441624D01*
X147504695Y-78441615D01*
X147570358Y-78239523D01*
X147603599Y-78029656D01*
X147603600Y-78029644D01*
X147603600Y-77817155D01*
X147603599Y-77817143D01*
X147570358Y-77607276D01*
X147504695Y-77405184D01*
X147504691Y-77405174D01*
X147408224Y-77215848D01*
X147368870Y-77161682D01*
X147368869Y-77161682D01*
X146736562Y-77793989D01*
X146719525Y-77730407D01*
X146653699Y-77616393D01*
X146560607Y-77523301D01*
X146446593Y-77457475D01*
X146383008Y-77440437D01*
X147015317Y-76808129D01*
X147013216Y-76781437D01*
X146980466Y-76692663D01*
X146984280Y-76595583D01*
X147024954Y-76507352D01*
X147080043Y-76452264D01*
X147130987Y-76415251D01*
X147133392Y-76413504D01*
X147283704Y-76263192D01*
X147408651Y-76091216D01*
X147505157Y-75901812D01*
X147545074Y-75778959D01*
X147592545Y-75694193D01*
X147668843Y-75634045D01*
X147762350Y-75607673D01*
X147858832Y-75619092D01*
X147943599Y-75666563D01*
X147957957Y-75679835D01*
X150840770Y-78562648D01*
X150894746Y-78643430D01*
X150913700Y-78738718D01*
X150913700Y-95100837D01*
X150894746Y-95196125D01*
X150840770Y-95276907D01*
X150759988Y-95330883D01*
X150664700Y-95349837D01*
X150569412Y-95330883D01*
X150540201Y-95316478D01*
X150471661Y-95276907D01*
X150413986Y-95243608D01*
X150413983Y-95243607D01*
X150286692Y-95209500D01*
X130577118Y-95209500D01*
X130481830Y-95190546D01*
X130401048Y-95136570D01*
X130347072Y-95055788D01*
X130328118Y-94960500D01*
X130347072Y-94865212D01*
X130401048Y-94784430D01*
X131817048Y-93368430D01*
X131897830Y-93314454D01*
X131993118Y-93295500D01*
X136488642Y-93295500D01*
X136643297Y-93264737D01*
X136788979Y-93204394D01*
X136920089Y-93116789D01*
X137121388Y-92915490D01*
X137125393Y-92909496D01*
X137208994Y-92784379D01*
X137251662Y-92681366D01*
X137269337Y-92638698D01*
X137300100Y-92484043D01*
X137300100Y-92326358D01*
X137294349Y-92297444D01*
X137269338Y-92171706D01*
X137269337Y-92171703D01*
X137246190Y-92115821D01*
X137246190Y-92115820D01*
X137208996Y-92026026D01*
X137208993Y-92026019D01*
X137121391Y-91894914D01*
X137121389Y-91894911D01*
X137009889Y-91783411D01*
X137009885Y-91783408D01*
X136878780Y-91695806D01*
X136878773Y-91695803D01*
X136733097Y-91635463D01*
X136733092Y-91635461D01*
X136578446Y-91604700D01*
X136578442Y-91604700D01*
X136420757Y-91604700D01*
X136420752Y-91604700D01*
X136266105Y-91635461D01*
X136266102Y-91635462D01*
X136223433Y-91653137D01*
X136169333Y-91675546D01*
X136074045Y-91694500D01*
X131637242Y-91694500D01*
X131479557Y-91694500D01*
X131428279Y-91704700D01*
X131369032Y-91716484D01*
X131324900Y-91725263D01*
X131179226Y-91785603D01*
X131179219Y-91785606D01*
X131048114Y-91873208D01*
X127796370Y-95124951D01*
X127715588Y-95178927D01*
X127620300Y-95197881D01*
X127525012Y-95178927D01*
X127444230Y-95124951D01*
X127390254Y-95044169D01*
X127371300Y-94948881D01*
X127371300Y-94919044D01*
X127362593Y-94852908D01*
X127334504Y-94639554D01*
X127261542Y-94367257D01*
X127217637Y-94261261D01*
X127153668Y-94106823D01*
X127153660Y-94106807D01*
X127045802Y-93919992D01*
X127012712Y-93862679D01*
X126841100Y-93639031D01*
X126641765Y-93439696D01*
X126641760Y-93439692D01*
X126641759Y-93439691D01*
X126418121Y-93268087D01*
X126418117Y-93268084D01*
X126173988Y-93127135D01*
X126173972Y-93127127D01*
X125913544Y-93019256D01*
X125913543Y-93019255D01*
X125913539Y-93019254D01*
X125641242Y-92946292D01*
X125641235Y-92946291D01*
X125361752Y-92909496D01*
X125361751Y-92909496D01*
X125079849Y-92909496D01*
X125079848Y-92909496D01*
X124800364Y-92946291D01*
X124800362Y-92946291D01*
X124800358Y-92946292D01*
X124594508Y-93001449D01*
X124528064Y-93019253D01*
X124528055Y-93019256D01*
X124267627Y-93127127D01*
X124267611Y-93127135D01*
X124023482Y-93268084D01*
X124023478Y-93268087D01*
X123799840Y-93439691D01*
X123600495Y-93639036D01*
X123428891Y-93862674D01*
X123428888Y-93862678D01*
X123287939Y-94106807D01*
X123287931Y-94106823D01*
X123180060Y-94367251D01*
X123180058Y-94367257D01*
X123107096Y-94639554D01*
X123107095Y-94639558D01*
X123107095Y-94639560D01*
X123070300Y-94919044D01*
X123070300Y-95200947D01*
X123098264Y-95413357D01*
X123107096Y-95480438D01*
X123173625Y-95728727D01*
X123180057Y-95752731D01*
X123180060Y-95752740D01*
X123287931Y-96013168D01*
X123287939Y-96013184D01*
X123428888Y-96257313D01*
X123428891Y-96257317D01*
X123584410Y-96459993D01*
X123600500Y-96480961D01*
X123799835Y-96680296D01*
X123799839Y-96680299D01*
X123799840Y-96680300D01*
X123851703Y-96720096D01*
X124023483Y-96851908D01*
X124052469Y-96868643D01*
X124267611Y-96992856D01*
X124267627Y-96992864D01*
X124409542Y-97051646D01*
X124528061Y-97100738D01*
X124800358Y-97173700D01*
X125039921Y-97205239D01*
X125079848Y-97210496D01*
X125079849Y-97210496D01*
X125361752Y-97210496D01*
X125396687Y-97205896D01*
X125641242Y-97173700D01*
X125835256Y-97121713D01*
X125932201Y-97115360D01*
X126024200Y-97146590D01*
X126097245Y-97210649D01*
X126140216Y-97297784D01*
X126148700Y-97362230D01*
X126148700Y-101059067D01*
X126129746Y-101154355D01*
X126075770Y-101235137D01*
X125994988Y-101289113D01*
X125899700Y-101308067D01*
X125804412Y-101289113D01*
X125723630Y-101235137D01*
X117141655Y-92653162D01*
X117087679Y-92572380D01*
X117068725Y-92477092D01*
X117087679Y-92381804D01*
X117141652Y-92301025D01*
X117238389Y-92204289D01*
X119135848Y-90306830D01*
X119216630Y-90252854D01*
X119311918Y-90233900D01*
X135689442Y-90233900D01*
X135844097Y-90203137D01*
X135989779Y-90142794D01*
X136120889Y-90055189D01*
X141236189Y-84939889D01*
X141323794Y-84808779D01*
X141384137Y-84663097D01*
X141414900Y-84508442D01*
X141414900Y-84350757D01*
X141414900Y-66189758D01*
X141384137Y-66035103D01*
X141323794Y-65889421D01*
X141236189Y-65758311D01*
X141124689Y-65646811D01*
X140993579Y-65559206D01*
X140993578Y-65559205D01*
X140993576Y-65559204D01*
X140988515Y-65556499D01*
X140984077Y-65552857D01*
X140983408Y-65552410D01*
X140983452Y-65552344D01*
X140913412Y-65494865D01*
X140867613Y-65409183D01*
X140858090Y-65312495D01*
X140886292Y-65219524D01*
X140947926Y-65144421D01*
X141033608Y-65098622D01*
X141105891Y-65087900D01*
X147393282Y-65087900D01*
X147488570Y-65106854D01*
G37*
%TD.AperFunction*%
%TA.AperFunction,Conductor*%
G36*
X103940194Y-98850154D02*
G01*
X103969527Y-98851307D01*
X103987391Y-98859542D01*
X104006689Y-98863381D01*
X104031098Y-98879691D01*
X104057758Y-98891981D01*
X104074405Y-98908628D01*
X104087470Y-98917358D01*
X104101326Y-98931214D01*
X104151296Y-98999992D01*
X104301608Y-99150304D01*
X104370381Y-99200270D01*
X104384242Y-99214131D01*
X104438218Y-99294912D01*
X104457172Y-99390200D01*
X104438218Y-99485489D01*
X104384241Y-99566270D01*
X104354531Y-99591645D01*
X104301607Y-99630096D01*
X104151296Y-99780407D01*
X104112535Y-99833758D01*
X104041192Y-99899707D01*
X103950042Y-99933333D01*
X103852962Y-99929519D01*
X103791601Y-99901231D01*
X103756669Y-99898482D01*
X103124362Y-100530789D01*
X103107325Y-100467207D01*
X103041499Y-100353193D01*
X102948407Y-100260101D01*
X102834393Y-100194275D01*
X102770807Y-100177237D01*
X103403117Y-99544928D01*
X103401016Y-99518237D01*
X103395084Y-99502156D01*
X103384154Y-99485799D01*
X103378426Y-99457003D01*
X103368266Y-99429463D01*
X103369038Y-99409806D01*
X103365200Y-99390510D01*
X103370927Y-99361715D01*
X103372080Y-99332383D01*
X103380315Y-99314517D01*
X103384154Y-99295222D01*
X103400463Y-99270813D01*
X103412754Y-99244152D01*
X103429400Y-99227506D01*
X103438130Y-99214441D01*
X103451196Y-99205709D01*
X103467843Y-99189064D01*
X103518845Y-99152009D01*
X103521192Y-99150304D01*
X103671504Y-98999992D01*
X103709955Y-98947067D01*
X103724401Y-98933713D01*
X103735331Y-98917357D01*
X103759738Y-98901048D01*
X103781297Y-98881120D01*
X103799754Y-98874310D01*
X103816112Y-98863381D01*
X103844905Y-98857653D01*
X103872447Y-98847493D01*
X103892103Y-98848265D01*
X103911400Y-98844427D01*
X103940194Y-98850154D01*
G37*
%TD.AperFunction*%
%TA.AperFunction,Conductor*%
G36*
X104715475Y-93233193D02*
G01*
X104781301Y-93347207D01*
X104874393Y-93440299D01*
X104988407Y-93506125D01*
X105051989Y-93523162D01*
X104419682Y-94155469D01*
X104422425Y-94190327D01*
X104438645Y-94214602D01*
X104457599Y-94309890D01*
X104438645Y-94405179D01*
X104384668Y-94485960D01*
X104354960Y-94511334D01*
X104301606Y-94550098D01*
X104151296Y-94700408D01*
X104112845Y-94753332D01*
X104041501Y-94819281D01*
X103950351Y-94852908D01*
X103853271Y-94849093D01*
X103765041Y-94808418D01*
X103735330Y-94783043D01*
X103721475Y-94769188D01*
X103671504Y-94700408D01*
X103521192Y-94550096D01*
X103452411Y-94500124D01*
X103438557Y-94486270D01*
X103422246Y-94461859D01*
X103402320Y-94440303D01*
X103395510Y-94421845D01*
X103384581Y-94405488D01*
X103378853Y-94376694D01*
X103368693Y-94349153D01*
X103369465Y-94329496D01*
X103365627Y-94310200D01*
X103371354Y-94281405D01*
X103372507Y-94252073D01*
X103380742Y-94234207D01*
X103384581Y-94214912D01*
X103400890Y-94190502D01*
X103413181Y-94163842D01*
X103429826Y-94147196D01*
X103438557Y-94134130D01*
X103451623Y-94125399D01*
X103468267Y-94108755D01*
X103521192Y-94070304D01*
X103671504Y-93919992D01*
X103710264Y-93866642D01*
X103724710Y-93853288D01*
X103735641Y-93836930D01*
X103760047Y-93820622D01*
X103781606Y-93800693D01*
X103800065Y-93793882D01*
X103816422Y-93782954D01*
X103845213Y-93777227D01*
X103872756Y-93767066D01*
X103892414Y-93767838D01*
X103911710Y-93764000D01*
X103940500Y-93769726D01*
X103969836Y-93770879D01*
X103987703Y-93779115D01*
X104006999Y-93782954D01*
X104031273Y-93799174D01*
X104066129Y-93801917D01*
X104698437Y-93169608D01*
X104715475Y-93233193D01*
G37*
%TD.AperFunction*%
%TA.AperFunction,Conductor*%
G36*
X103940194Y-91230154D02*
G01*
X103969527Y-91231307D01*
X103987392Y-91239542D01*
X104006688Y-91243381D01*
X104031097Y-91259690D01*
X104057758Y-91271981D01*
X104074403Y-91288626D01*
X104087470Y-91297357D01*
X104096200Y-91310423D01*
X104112844Y-91327067D01*
X104151296Y-91379992D01*
X104301608Y-91530304D01*
X104354956Y-91569063D01*
X104368307Y-91583506D01*
X104384668Y-91594438D01*
X104400977Y-91618847D01*
X104420904Y-91640403D01*
X104427714Y-91658861D01*
X104438644Y-91675220D01*
X104444370Y-91704010D01*
X104454532Y-91731553D01*
X104453759Y-91751212D01*
X104457598Y-91770508D01*
X104451871Y-91799298D01*
X104450719Y-91828633D01*
X104442482Y-91846500D01*
X104438644Y-91865796D01*
X104422425Y-91890069D01*
X104419681Y-91924928D01*
X105051991Y-92557237D01*
X104988407Y-92574275D01*
X104874393Y-92640101D01*
X104781301Y-92733193D01*
X104715475Y-92847207D01*
X104698437Y-92910790D01*
X104066128Y-92278481D01*
X104031269Y-92281225D01*
X104006996Y-92297444D01*
X103911708Y-92316398D01*
X103816420Y-92297444D01*
X103735638Y-92243468D01*
X103710266Y-92213760D01*
X103671504Y-92160408D01*
X103521192Y-92010096D01*
X103468267Y-91971644D01*
X103402320Y-91900303D01*
X103368693Y-91809153D01*
X103372507Y-91712073D01*
X103413181Y-91623842D01*
X103438557Y-91594130D01*
X103452411Y-91580275D01*
X103521192Y-91530304D01*
X103671504Y-91379992D01*
X103721475Y-91311211D01*
X103735330Y-91297357D01*
X103759740Y-91281046D01*
X103781297Y-91261120D01*
X103799754Y-91254310D01*
X103816112Y-91243381D01*
X103844905Y-91237653D01*
X103872447Y-91227493D01*
X103892103Y-91228265D01*
X103911400Y-91224427D01*
X103940194Y-91230154D01*
G37*
%TD.AperFunction*%
%TA.AperFunction,Conductor*%
G36*
X131982651Y-64433808D02*
G01*
X132015007Y-64455427D01*
X132063432Y-64487784D01*
X132117408Y-64568566D01*
X132158005Y-64666577D01*
X132158006Y-64666580D01*
X132245608Y-64797685D01*
X132245611Y-64797689D01*
X132357111Y-64909189D01*
X132357114Y-64909191D01*
X132488219Y-64996793D01*
X132488220Y-64996793D01*
X132488221Y-64996794D01*
X132633903Y-65057137D01*
X132633905Y-65057137D01*
X132633907Y-65057138D01*
X132784548Y-65087102D01*
X132788558Y-65087900D01*
X132946242Y-65087900D01*
X140122909Y-65087900D01*
X140218197Y-65106854D01*
X140298979Y-65160830D01*
X140352955Y-65241612D01*
X140371909Y-65336900D01*
X140352955Y-65432188D01*
X140298979Y-65512970D01*
X140240285Y-65556499D01*
X140235223Y-65559204D01*
X140104114Y-65646808D01*
X139992608Y-65758314D01*
X139905006Y-65889419D01*
X139905003Y-65889426D01*
X139844663Y-66035102D01*
X139844661Y-66035107D01*
X139813900Y-66189753D01*
X139813900Y-83994882D01*
X139794946Y-84090170D01*
X139740970Y-84170952D01*
X135351952Y-88559970D01*
X135271170Y-88613946D01*
X135175882Y-88632900D01*
X118798352Y-88632900D01*
X118643707Y-88663661D01*
X118643702Y-88663663D01*
X118498026Y-88724003D01*
X118498019Y-88724006D01*
X118366914Y-88811608D01*
X116287570Y-90890952D01*
X116206788Y-90944928D01*
X116111500Y-90963882D01*
X116016212Y-90944928D01*
X115935430Y-90890952D01*
X115881454Y-90810170D01*
X115862500Y-90714882D01*
X115862500Y-81709158D01*
X115862499Y-81709153D01*
X115831738Y-81554507D01*
X115831737Y-81554505D01*
X115831737Y-81554503D01*
X115771394Y-81408821D01*
X115745658Y-81370305D01*
X115683791Y-81277714D01*
X115683789Y-81277711D01*
X115572289Y-81166211D01*
X115572285Y-81166208D01*
X115572284Y-81166207D01*
X115501202Y-81118711D01*
X115432503Y-81050012D01*
X115395324Y-80960252D01*
X115395325Y-80863097D01*
X115432505Y-80773338D01*
X115463465Y-80735611D01*
X129333553Y-66865523D01*
X132203100Y-66865523D01*
X132203100Y-68661265D01*
X132203100Y-68661268D01*
X132203101Y-68661272D01*
X132205167Y-68680493D01*
X132209508Y-68720880D01*
X132209509Y-68720883D01*
X132259804Y-68855731D01*
X132346054Y-68970946D01*
X132461269Y-69057196D01*
X132596117Y-69107491D01*
X132655727Y-69113900D01*
X132656029Y-69113899D01*
X132677075Y-69119978D01*
X132698088Y-69130851D01*
X132730442Y-69140974D01*
X132759097Y-69162419D01*
X132763363Y-69164627D01*
X132765615Y-69167297D01*
X132787227Y-69183472D01*
X133424192Y-69820437D01*
X133360607Y-69837475D01*
X133246593Y-69903301D01*
X133153501Y-69996393D01*
X133087675Y-70110407D01*
X133070637Y-70173990D01*
X132477275Y-69580628D01*
X132421694Y-69564577D01*
X132398980Y-69595841D01*
X132398972Y-69595854D01*
X132302508Y-69785174D01*
X132302504Y-69785184D01*
X132236841Y-69987276D01*
X132203600Y-70197143D01*
X132203600Y-70409656D01*
X132236841Y-70619523D01*
X132302504Y-70821615D01*
X132302508Y-70821625D01*
X132398971Y-71010945D01*
X132398975Y-71010951D01*
X132438329Y-71065117D01*
X133070637Y-70432808D01*
X133087675Y-70496393D01*
X133153501Y-70610407D01*
X133246593Y-70703499D01*
X133360607Y-70769325D01*
X133424189Y-70786362D01*
X132791882Y-71418669D01*
X132793983Y-71445363D01*
X132826734Y-71534139D01*
X132822919Y-71631219D01*
X132782244Y-71719449D01*
X132727158Y-71774535D01*
X132673807Y-71813296D01*
X132523497Y-71963606D01*
X132398550Y-72135582D01*
X132302041Y-72324992D01*
X132236353Y-72527159D01*
X132203100Y-72737103D01*
X132203100Y-72949696D01*
X132236353Y-73159640D01*
X132266623Y-73252803D01*
X132302043Y-73361812D01*
X132398549Y-73551216D01*
X132398550Y-73551217D01*
X132523497Y-73723193D01*
X132673807Y-73873503D01*
X132726731Y-73911955D01*
X132792680Y-73983299D01*
X132826307Y-74074449D01*
X132822492Y-74171529D01*
X132781817Y-74259759D01*
X132726731Y-74314845D01*
X132673807Y-74353296D01*
X132523497Y-74503606D01*
X132398550Y-74675582D01*
X132302041Y-74864992D01*
X132236353Y-75067159D01*
X132203100Y-75277103D01*
X132203100Y-75489696D01*
X132236353Y-75699640D01*
X132289725Y-75863903D01*
X132302043Y-75901812D01*
X132398549Y-76091216D01*
X132523496Y-76263192D01*
X132673808Y-76413504D01*
X132676213Y-76415251D01*
X132726731Y-76451955D01*
X132792680Y-76523299D01*
X132826307Y-76614449D01*
X132822492Y-76711529D01*
X132781817Y-76799759D01*
X132726731Y-76854845D01*
X132673807Y-76893296D01*
X132523497Y-77043606D01*
X132398550Y-77215582D01*
X132302041Y-77404992D01*
X132236353Y-77607159D01*
X132203100Y-77817103D01*
X132203100Y-78029696D01*
X132236353Y-78239640D01*
X132296060Y-78423400D01*
X132302043Y-78441812D01*
X132398549Y-78631216D01*
X132512265Y-78787733D01*
X132523497Y-78803193D01*
X132673807Y-78953503D01*
X132726731Y-78991955D01*
X132792680Y-79063299D01*
X132826307Y-79154449D01*
X132822492Y-79251529D01*
X132781817Y-79339759D01*
X132726731Y-79394845D01*
X132673807Y-79433296D01*
X132523497Y-79583606D01*
X132398550Y-79755582D01*
X132302041Y-79944992D01*
X132236353Y-80147159D01*
X132203100Y-80357103D01*
X132203100Y-80569696D01*
X132236353Y-80779640D01*
X132295037Y-80960252D01*
X132302043Y-80981812D01*
X132398549Y-81171216D01*
X132468901Y-81268047D01*
X132523497Y-81343193D01*
X132673807Y-81493503D01*
X132726731Y-81531955D01*
X132792680Y-81603299D01*
X132826307Y-81694449D01*
X132822492Y-81791529D01*
X132781817Y-81879759D01*
X132726731Y-81934845D01*
X132673807Y-81973296D01*
X132523497Y-82123606D01*
X132398550Y-82295582D01*
X132302041Y-82484992D01*
X132236353Y-82687159D01*
X132203100Y-82897103D01*
X132203100Y-83109696D01*
X132236353Y-83319640D01*
X132295601Y-83501988D01*
X132302043Y-83521812D01*
X132398549Y-83711216D01*
X132523496Y-83883192D01*
X132673808Y-84033504D01*
X132845784Y-84158451D01*
X133035188Y-84254957D01*
X133237357Y-84320646D01*
X133311201Y-84332341D01*
X133447303Y-84353899D01*
X133447310Y-84353899D01*
X133447313Y-84353900D01*
X133447316Y-84353900D01*
X133659884Y-84353900D01*
X133659887Y-84353900D01*
X133659890Y-84353899D01*
X133659896Y-84353899D01*
X133767302Y-84336887D01*
X133869843Y-84320646D01*
X134072012Y-84254957D01*
X134261416Y-84158451D01*
X134433392Y-84033504D01*
X134583704Y-83883192D01*
X134708651Y-83711216D01*
X134805157Y-83521812D01*
X134870846Y-83319643D01*
X134890713Y-83194206D01*
X134904099Y-83109696D01*
X134904100Y-83109684D01*
X134904100Y-82897115D01*
X134904099Y-82897103D01*
X134876602Y-82723500D01*
X134870846Y-82687157D01*
X134805157Y-82484988D01*
X134708651Y-82295584D01*
X134583704Y-82123608D01*
X134433392Y-81973296D01*
X134380467Y-81934844D01*
X134314520Y-81863503D01*
X134280893Y-81772353D01*
X134284707Y-81675273D01*
X134325381Y-81587042D01*
X134380467Y-81531955D01*
X134433392Y-81493504D01*
X134583704Y-81343192D01*
X134708651Y-81171216D01*
X134805157Y-80981812D01*
X134870846Y-80779643D01*
X134904100Y-80569687D01*
X134904100Y-80357113D01*
X134904099Y-80357110D01*
X134904099Y-80357103D01*
X134870846Y-80147159D01*
X134870846Y-80147157D01*
X134805157Y-79944988D01*
X134708651Y-79755584D01*
X134583704Y-79583608D01*
X134433392Y-79433296D01*
X134380467Y-79394844D01*
X134314520Y-79323503D01*
X134280893Y-79232353D01*
X134284707Y-79135273D01*
X134325381Y-79047042D01*
X134380467Y-78991955D01*
X134433392Y-78953504D01*
X134583704Y-78803192D01*
X134708651Y-78631216D01*
X134805157Y-78441812D01*
X134870846Y-78239643D01*
X134904100Y-78029687D01*
X134904100Y-77817113D01*
X134904099Y-77817110D01*
X134904099Y-77817103D01*
X134870846Y-77607159D01*
X134870846Y-77607157D01*
X134805157Y-77404988D01*
X134708651Y-77215584D01*
X134583704Y-77043608D01*
X134433392Y-76893296D01*
X134380467Y-76854844D01*
X134314520Y-76783503D01*
X134280893Y-76692353D01*
X134284707Y-76595273D01*
X134325381Y-76507042D01*
X134380467Y-76451955D01*
X134433392Y-76413504D01*
X134583704Y-76263192D01*
X134708651Y-76091216D01*
X134805157Y-75901812D01*
X134870846Y-75699643D01*
X134904100Y-75489687D01*
X134904100Y-75277113D01*
X134904099Y-75277110D01*
X134904099Y-75277103D01*
X134870846Y-75067159D01*
X134870846Y-75067157D01*
X134805157Y-74864988D01*
X134708651Y-74675584D01*
X134583704Y-74503608D01*
X134433392Y-74353296D01*
X134380467Y-74314844D01*
X134314520Y-74243503D01*
X134280893Y-74152353D01*
X134284707Y-74055273D01*
X134325381Y-73967042D01*
X134380467Y-73911955D01*
X134433392Y-73873504D01*
X134583704Y-73723192D01*
X134708651Y-73551216D01*
X134805157Y-73361812D01*
X134870846Y-73159643D01*
X134888768Y-73046489D01*
X134904099Y-72949696D01*
X134904100Y-72949684D01*
X134904100Y-72737115D01*
X134904099Y-72737103D01*
X134870846Y-72527159D01*
X134870846Y-72527157D01*
X134805157Y-72324988D01*
X134708651Y-72135584D01*
X134583704Y-71963608D01*
X134433392Y-71813296D01*
X134380039Y-71774533D01*
X134314092Y-71703192D01*
X134280465Y-71612042D01*
X134284279Y-71514962D01*
X134312567Y-71453597D01*
X134315316Y-71418670D01*
X133683008Y-70786362D01*
X133746593Y-70769325D01*
X133860607Y-70703499D01*
X133953699Y-70610407D01*
X134019525Y-70496393D01*
X134036562Y-70432808D01*
X134668870Y-71065116D01*
X134708224Y-71010951D01*
X134804691Y-70821624D01*
X134804695Y-70821615D01*
X134870358Y-70619523D01*
X134903599Y-70409656D01*
X134903600Y-70409644D01*
X134903600Y-70197155D01*
X134903599Y-70197143D01*
X134870358Y-69987276D01*
X134804695Y-69785184D01*
X134804691Y-69785174D01*
X134708224Y-69595848D01*
X134668869Y-69541681D01*
X134036562Y-70173989D01*
X134019525Y-70110407D01*
X133953699Y-69996393D01*
X133860607Y-69903301D01*
X133746593Y-69837475D01*
X133683007Y-69820437D01*
X134319973Y-69183472D01*
X134349469Y-69163763D01*
X134376682Y-69141015D01*
X134389546Y-69136985D01*
X134400755Y-69129496D01*
X134469392Y-69111972D01*
X134472566Y-69111631D01*
X134547595Y-69118335D01*
X134556935Y-69106488D01*
X134631635Y-69062527D01*
X134645931Y-69057196D01*
X134761146Y-68970946D01*
X134847396Y-68855731D01*
X134897691Y-68720883D01*
X134904100Y-68661273D01*
X134904099Y-66865528D01*
X134897691Y-66805917D01*
X134847396Y-66671069D01*
X134761146Y-66555854D01*
X134645931Y-66469604D01*
X134565717Y-66439686D01*
X134511081Y-66419308D01*
X134451473Y-66412900D01*
X132655734Y-66412900D01*
X132655730Y-66412900D01*
X132655728Y-66412901D01*
X132642914Y-66414278D01*
X132596119Y-66419308D01*
X132596115Y-66419309D01*
X132461270Y-66469603D01*
X132346055Y-66555853D01*
X132346053Y-66555855D01*
X132259804Y-66671069D01*
X132209508Y-66805918D01*
X132203100Y-66865523D01*
X129333553Y-66865523D01*
X131711295Y-64487781D01*
X131792074Y-64433808D01*
X131887362Y-64414854D01*
X131887363Y-64414854D01*
X131982651Y-64433808D01*
G37*
%TD.AperFunction*%
%TA.AperFunction,Conductor*%
G36*
X103756670Y-83641916D02*
G01*
X103791522Y-83639173D01*
X103815800Y-83622952D01*
X103911089Y-83603998D01*
X104006377Y-83622952D01*
X104087158Y-83676928D01*
X104112531Y-83706636D01*
X104151296Y-83759991D01*
X104151297Y-83759992D01*
X104301608Y-83910303D01*
X104301612Y-83910306D01*
X104354532Y-83948755D01*
X104420481Y-84020098D01*
X104454108Y-84111247D01*
X104450294Y-84208328D01*
X104409619Y-84296558D01*
X104384243Y-84326270D01*
X104370385Y-84340127D01*
X104301608Y-84390097D01*
X104151296Y-84540409D01*
X104101329Y-84609182D01*
X104087469Y-84623043D01*
X104063059Y-84639353D01*
X104041501Y-84659281D01*
X104023044Y-84666089D01*
X104006688Y-84677019D01*
X103977896Y-84682746D01*
X103950351Y-84692908D01*
X103930692Y-84692135D01*
X103911400Y-84695973D01*
X103882607Y-84690245D01*
X103853271Y-84689093D01*
X103835405Y-84680856D01*
X103816111Y-84677019D01*
X103791701Y-84660708D01*
X103765041Y-84648418D01*
X103748394Y-84631771D01*
X103735330Y-84623042D01*
X103726600Y-84609977D01*
X103709955Y-84593332D01*
X103671504Y-84540408D01*
X103521192Y-84390096D01*
X103467839Y-84351333D01*
X103454486Y-84336887D01*
X103438130Y-84325959D01*
X103421820Y-84301550D01*
X103401892Y-84279992D01*
X103395083Y-84261535D01*
X103384153Y-84245178D01*
X103378425Y-84216382D01*
X103368265Y-84188842D01*
X103369037Y-84169185D01*
X103365199Y-84149889D01*
X103370926Y-84121094D01*
X103372079Y-84091762D01*
X103380314Y-84073896D01*
X103384153Y-84054601D01*
X103400373Y-84030325D01*
X103403116Y-83995469D01*
X102770808Y-83363162D01*
X102834393Y-83346125D01*
X102948407Y-83280299D01*
X103041499Y-83187207D01*
X103107325Y-83073193D01*
X103124362Y-83009608D01*
X103756670Y-83641916D01*
G37*
%TD.AperFunction*%
%TA.AperFunction,Conductor*%
G36*
X103940194Y-81070154D02*
G01*
X103969527Y-81071307D01*
X103987392Y-81079542D01*
X104006688Y-81083381D01*
X104031097Y-81099690D01*
X104057758Y-81111981D01*
X104074403Y-81128626D01*
X104087470Y-81137357D01*
X104101324Y-81151211D01*
X104151296Y-81219992D01*
X104301608Y-81370304D01*
X104370388Y-81420275D01*
X104384242Y-81434129D01*
X104438218Y-81514911D01*
X104457172Y-81610199D01*
X104438218Y-81705487D01*
X104384242Y-81786269D01*
X104354531Y-81811644D01*
X104301607Y-81850095D01*
X104151297Y-82000405D01*
X104112533Y-82053759D01*
X104041189Y-82119707D01*
X103950038Y-82153333D01*
X103852958Y-82149517D01*
X103791602Y-82121231D01*
X103756670Y-82118482D01*
X103124362Y-82750789D01*
X103107325Y-82687207D01*
X103041499Y-82573193D01*
X102948407Y-82480101D01*
X102834393Y-82414275D01*
X102770808Y-82397237D01*
X103403117Y-81764929D01*
X103401016Y-81738237D01*
X103395084Y-81722156D01*
X103384154Y-81705799D01*
X103378426Y-81677003D01*
X103368266Y-81649463D01*
X103369038Y-81629806D01*
X103365200Y-81610510D01*
X103370927Y-81581715D01*
X103372080Y-81552383D01*
X103380315Y-81534517D01*
X103384154Y-81515222D01*
X103400463Y-81490813D01*
X103412754Y-81464152D01*
X103429400Y-81447506D01*
X103438130Y-81434441D01*
X103451196Y-81425709D01*
X103467843Y-81409064D01*
X103468171Y-81408826D01*
X103521192Y-81370304D01*
X103671504Y-81219992D01*
X103709955Y-81167067D01*
X103724399Y-81153715D01*
X103735330Y-81137357D01*
X103759740Y-81121046D01*
X103781297Y-81101120D01*
X103799754Y-81094310D01*
X103816112Y-81083381D01*
X103844905Y-81077653D01*
X103872447Y-81067493D01*
X103892103Y-81068265D01*
X103911400Y-81064427D01*
X103940194Y-81070154D01*
G37*
%TD.AperFunction*%
%TA.AperFunction,Conductor*%
G36*
X125801170Y-65106854D02*
G01*
X125881952Y-65160830D01*
X125935928Y-65241612D01*
X125954882Y-65336900D01*
X125935928Y-65432188D01*
X125881952Y-65512970D01*
X113017860Y-78377061D01*
X112937078Y-78431037D01*
X112841790Y-78449991D01*
X112746502Y-78431037D01*
X112665720Y-78377061D01*
X112611744Y-78296279D01*
X112607561Y-78286181D01*
X112596394Y-78259221D01*
X112583312Y-78239643D01*
X112508791Y-78128114D01*
X112508789Y-78128111D01*
X111559089Y-77178411D01*
X111559085Y-77178408D01*
X111427980Y-77090806D01*
X111427973Y-77090803D01*
X111282297Y-77030463D01*
X111282292Y-77030461D01*
X111127646Y-76999700D01*
X111127642Y-76999700D01*
X106393935Y-76999700D01*
X106351207Y-76991200D01*
X106308172Y-76984464D01*
X106304027Y-76981816D01*
X106298647Y-76980746D01*
X106225243Y-76933850D01*
X106213233Y-76922788D01*
X106211504Y-76920408D01*
X106061192Y-76770096D01*
X105996143Y-76722835D01*
X105985507Y-76713039D01*
X105965240Y-76685250D01*
X105941892Y-76659992D01*
X105936847Y-76646318D01*
X105928259Y-76634542D01*
X105920168Y-76601109D01*
X105908265Y-76568842D01*
X105908837Y-76554279D01*
X105905409Y-76540112D01*
X105910728Y-76506129D01*
X105912079Y-76471762D01*
X105918180Y-76458525D01*
X105920435Y-76444126D01*
X105938352Y-76414768D01*
X105940367Y-76410397D01*
X105943116Y-76375470D01*
X105310808Y-75743162D01*
X105374393Y-75726125D01*
X105488407Y-75660299D01*
X105581499Y-75567207D01*
X105647325Y-75453193D01*
X105664362Y-75389608D01*
X106296670Y-76021916D01*
X106336024Y-75967751D01*
X106388938Y-75863903D01*
X106388938Y-75863902D01*
X106432494Y-75778419D01*
X106432495Y-75778415D01*
X106498158Y-75576323D01*
X106531399Y-75366456D01*
X106531400Y-75366444D01*
X106531400Y-75153955D01*
X106531399Y-75153943D01*
X106498158Y-74944076D01*
X106432495Y-74741984D01*
X106432491Y-74741974D01*
X106336024Y-74552646D01*
X106296670Y-74498482D01*
X106296669Y-74498482D01*
X105664362Y-75130789D01*
X105647325Y-75067207D01*
X105581499Y-74953193D01*
X105488407Y-74860101D01*
X105374393Y-74794275D01*
X105310808Y-74777237D01*
X105803687Y-74284359D01*
X109654600Y-74284359D01*
X109654600Y-74559640D01*
X109690531Y-74832570D01*
X109690532Y-74832575D01*
X109761774Y-75098453D01*
X109761782Y-75098476D01*
X109867119Y-75352786D01*
X109867124Y-75352795D01*
X110004764Y-75591196D01*
X110004767Y-75591201D01*
X110103357Y-75719685D01*
X111038751Y-74784290D01*
X111045649Y-74800942D01*
X111133199Y-74931970D01*
X111244630Y-75043401D01*
X111375658Y-75130951D01*
X111392305Y-75137846D01*
X110456912Y-76073240D01*
X110585398Y-76171832D01*
X110585403Y-76171835D01*
X110823804Y-76309475D01*
X110823813Y-76309480D01*
X111078123Y-76414817D01*
X111078146Y-76414825D01*
X111344024Y-76486067D01*
X111344029Y-76486068D01*
X111616959Y-76522000D01*
X111892241Y-76522000D01*
X112165170Y-76486068D01*
X112165175Y-76486067D01*
X112431053Y-76414825D01*
X112431076Y-76414817D01*
X112685386Y-76309480D01*
X112685395Y-76309475D01*
X112923796Y-76171835D01*
X112923802Y-76171831D01*
X113052286Y-76073241D01*
X112116892Y-75137847D01*
X112133542Y-75130951D01*
X112264570Y-75043401D01*
X112376001Y-74931970D01*
X112463551Y-74800942D01*
X112470447Y-74784292D01*
X113405841Y-75719686D01*
X113504431Y-75591202D01*
X113504435Y-75591196D01*
X113642075Y-75352795D01*
X113642080Y-75352786D01*
X113747417Y-75098476D01*
X113747425Y-75098453D01*
X113818667Y-74832575D01*
X113818668Y-74832570D01*
X113854600Y-74559640D01*
X113854600Y-74284359D01*
X113818668Y-74011429D01*
X113818667Y-74011424D01*
X113747425Y-73745546D01*
X113747417Y-73745523D01*
X113642080Y-73491213D01*
X113642075Y-73491204D01*
X113504435Y-73252803D01*
X113504432Y-73252798D01*
X113405840Y-73124312D01*
X112470446Y-74059705D01*
X112463551Y-74043058D01*
X112376001Y-73912030D01*
X112264570Y-73800599D01*
X112133542Y-73713049D01*
X112116891Y-73706151D01*
X113052286Y-72770757D01*
X112923801Y-72672167D01*
X112923796Y-72672164D01*
X112685395Y-72534524D01*
X112685386Y-72534519D01*
X112431076Y-72429182D01*
X112431053Y-72429174D01*
X112165175Y-72357932D01*
X112165170Y-72357931D01*
X111892241Y-72322000D01*
X111616959Y-72322000D01*
X111344029Y-72357931D01*
X111344024Y-72357932D01*
X111078146Y-72429174D01*
X111078123Y-72429182D01*
X110823813Y-72534519D01*
X110823804Y-72534524D01*
X110585395Y-72672168D01*
X110456912Y-72770757D01*
X111392307Y-73706152D01*
X111375658Y-73713049D01*
X111244630Y-73800599D01*
X111133199Y-73912030D01*
X111045649Y-74043058D01*
X111038752Y-74059707D01*
X110103357Y-73124312D01*
X110004768Y-73252795D01*
X109867124Y-73491204D01*
X109867119Y-73491213D01*
X109761782Y-73745523D01*
X109761774Y-73745546D01*
X109690532Y-74011424D01*
X109690531Y-74011429D01*
X109654600Y-74284359D01*
X105803687Y-74284359D01*
X105943117Y-74144929D01*
X105888951Y-74105575D01*
X105888945Y-74105571D01*
X105699625Y-74009108D01*
X105699615Y-74009104D01*
X105497523Y-73943441D01*
X105287656Y-73910200D01*
X105075143Y-73910200D01*
X104865276Y-73943441D01*
X104663184Y-74009104D01*
X104663174Y-74009108D01*
X104473854Y-74105572D01*
X104473841Y-74105580D01*
X104419681Y-74144928D01*
X105051991Y-74777237D01*
X104988407Y-74794275D01*
X104874393Y-74860101D01*
X104781301Y-74953193D01*
X104715475Y-75067207D01*
X104698437Y-75130790D01*
X104066128Y-74498481D01*
X104039433Y-74500582D01*
X104005236Y-74513198D01*
X103969833Y-74529519D01*
X103959942Y-74529907D01*
X103950657Y-74533333D01*
X103911707Y-74531801D01*
X103872753Y-74533332D01*
X103863466Y-74529905D01*
X103853576Y-74529517D01*
X103818176Y-74513197D01*
X103781603Y-74499704D01*
X103774334Y-74492984D01*
X103765346Y-74488841D01*
X103710264Y-74433757D01*
X103671504Y-74380408D01*
X103521192Y-74230096D01*
X103349216Y-74105149D01*
X103159812Y-74008643D01*
X103159809Y-74008642D01*
X103159807Y-74008641D01*
X102957640Y-73942953D01*
X102747696Y-73909700D01*
X102747687Y-73909700D01*
X102535113Y-73909700D01*
X102535103Y-73909700D01*
X102325159Y-73942953D01*
X102148245Y-74000436D01*
X102051763Y-74011855D01*
X101958256Y-73985483D01*
X101881959Y-73925335D01*
X101834487Y-73840568D01*
X101822300Y-73763623D01*
X101822300Y-70939118D01*
X101841254Y-70843830D01*
X101895230Y-70763048D01*
X107497448Y-65160830D01*
X107578230Y-65106854D01*
X107673518Y-65087900D01*
X125705882Y-65087900D01*
X125801170Y-65106854D01*
G37*
%TD.AperFunction*%
%TA.AperFunction,Conductor*%
G36*
X104715475Y-75453193D02*
G01*
X104781301Y-75567207D01*
X104874393Y-75660299D01*
X104988407Y-75726125D01*
X105051989Y-75743162D01*
X104419682Y-76375469D01*
X104422425Y-76410327D01*
X104438645Y-76434602D01*
X104457599Y-76529890D01*
X104438645Y-76625179D01*
X104384668Y-76705960D01*
X104354958Y-76731335D01*
X104301607Y-76770096D01*
X104151296Y-76920407D01*
X104112845Y-76973331D01*
X104041501Y-77039280D01*
X103950351Y-77072907D01*
X103853271Y-77069092D01*
X103765041Y-77028417D01*
X103735331Y-77003042D01*
X103721470Y-76989181D01*
X103671504Y-76920408D01*
X103521192Y-76770096D01*
X103452414Y-76720126D01*
X103438558Y-76706270D01*
X103422248Y-76681861D01*
X103402320Y-76660303D01*
X103395511Y-76641846D01*
X103384581Y-76625489D01*
X103378853Y-76596693D01*
X103368693Y-76569153D01*
X103369465Y-76549496D01*
X103365627Y-76530200D01*
X103371354Y-76501405D01*
X103372507Y-76472073D01*
X103380742Y-76454207D01*
X103384581Y-76434912D01*
X103400890Y-76410503D01*
X103413181Y-76383842D01*
X103429827Y-76367195D01*
X103438557Y-76354131D01*
X103451621Y-76345401D01*
X103468267Y-76328755D01*
X103521192Y-76290304D01*
X103671504Y-76139992D01*
X103710264Y-76086642D01*
X103724710Y-76073288D01*
X103735641Y-76056930D01*
X103760047Y-76040622D01*
X103781606Y-76020693D01*
X103800065Y-76013882D01*
X103816422Y-76002954D01*
X103845213Y-75997227D01*
X103872756Y-75987066D01*
X103892414Y-75987838D01*
X103911710Y-75984000D01*
X103940500Y-75989726D01*
X103969836Y-75990879D01*
X103987703Y-75999115D01*
X104006999Y-76002954D01*
X104031273Y-76019174D01*
X104066129Y-76021917D01*
X104698437Y-75389608D01*
X104715475Y-75453193D01*
G37*
%TD.AperFunction*%
%TA.AperFunction,Conductor*%
G36*
X135626770Y-39732254D02*
G01*
X135707552Y-39786230D01*
X135707554Y-39786233D01*
X136216845Y-40295523D01*
X136662411Y-40741089D01*
X136793521Y-40828694D01*
X136793523Y-40828694D01*
X136793525Y-40828696D01*
X136866362Y-40858866D01*
X136939203Y-40889038D01*
X137093858Y-40919800D01*
X137093861Y-40919800D01*
X137173982Y-40919800D01*
X137269270Y-40938754D01*
X137350052Y-40992730D01*
X137404028Y-41073512D01*
X137422982Y-41168800D01*
X137404028Y-41264088D01*
X137350053Y-41344868D01*
X136642785Y-42052136D01*
X135257560Y-43437360D01*
X135176778Y-43491336D01*
X135081490Y-43510290D01*
X134986202Y-43491336D01*
X134905420Y-43437360D01*
X134851444Y-43356578D01*
X134844677Y-43338235D01*
X134804695Y-43215184D01*
X134804691Y-43215174D01*
X134708224Y-43025848D01*
X134668869Y-42971681D01*
X134036562Y-43603990D01*
X134019525Y-43540407D01*
X133953699Y-43426393D01*
X133860607Y-43333301D01*
X133746593Y-43267475D01*
X133683007Y-43250437D01*
X134319973Y-42613472D01*
X134349469Y-42593763D01*
X134376682Y-42571015D01*
X134389546Y-42566985D01*
X134400755Y-42559496D01*
X134469392Y-42541972D01*
X134472566Y-42541631D01*
X134547595Y-42548335D01*
X134556935Y-42536488D01*
X134631635Y-42492527D01*
X134645931Y-42487196D01*
X134761146Y-42400946D01*
X134847396Y-42285731D01*
X134897691Y-42150883D01*
X134904100Y-42091273D01*
X134904099Y-40295528D01*
X134897691Y-40235917D01*
X134847396Y-40101069D01*
X134847395Y-40101067D01*
X134838860Y-40085436D01*
X134841935Y-40083756D01*
X134841788Y-40083448D01*
X134824509Y-40057588D01*
X134821014Y-40040021D01*
X134813286Y-40023864D01*
X134811623Y-39992807D01*
X134805555Y-39962300D01*
X134809049Y-39944732D01*
X134808092Y-39926848D01*
X134818440Y-39897519D01*
X134824509Y-39867012D01*
X134834460Y-39852118D01*
X134840420Y-39835229D01*
X134861203Y-39812094D01*
X134878485Y-39786230D01*
X134893378Y-39776278D01*
X134905348Y-39762955D01*
X134933406Y-39749533D01*
X134959267Y-39732254D01*
X134976833Y-39728759D01*
X134992991Y-39721031D01*
X135054555Y-39713300D01*
X135531482Y-39713300D01*
X135626770Y-39732254D01*
G37*
%TD.AperFunction*%
%TD*%
M02*
