M48
; DRILL file {KiCad 9.0.5} date 2026-01-19T09:10:39-0500
; FORMAT={-:-/ absolute / metric / decimal}
; #@! TF.CreationDate,2026-01-19T09:10:39-05:00
; #@! TF.GenerationSoftware,Kicad,Pcbnew,9.0.5
; #@! TF.FileFunction,Plated,1,2,PTH
FMAT,2
METRIC
; #@! TA.AperFunction,Plated,PTH,ViaDrill
T1C0.400
; #@! TA.AperFunction,Plated,PTH,ComponentDrill
T2C0.600
; #@! TA.AperFunction,Plated,PTH,ComponentDrill
T3C0.800
; #@! TA.AperFunction,Plated,PTH,ComponentDrill
T4C0.900
; #@! TA.AperFunction,Plated,PTH,ComponentDrill
T5C1.000
; #@! TA.AperFunction,Plated,PTH,ComponentDrill
T6C1.600
; #@! TA.AperFunction,Plated,PTH,ComponentDrill
T7C2.700
%
G90
G05
T1
X98.095Y-126.771
X100.609Y-129.845
X107.569Y-125.857
X108.509Y-103.2
X108.509Y-115.799
X111.887Y-78.638
X115.062Y-81.788
X115.697Y-119.99
X116.617Y-91.694
X118.714Y-87.528
X119.482Y-110.846
X122.114Y-78.378
X122.114Y-87.528
X126.797Y-64.287
X126.949Y-101.981
X132.283Y-113.157
X132.867Y-64.287
X136.5Y-92.405
X137.173Y-40.119
X137.224Y-38.113
X138.951Y-118.25
X140.602Y-118.275
X140.614Y-66.269
X142.1Y-118.199
X143.548Y-118.148
X149.581Y-114.097
X151.46Y-36.652
X151.689Y-111.125
X151.714Y-105.486
X152.625Y-80.463
X152.629Y-67.462
X152.629Y-70.663
X153.264Y-110.16
X154.229Y-61.874
X154.737Y-109.118
X159.69Y-112.192
X168.123Y-53.696
X168.732Y-49.987
T2
X170.155Y-95.249
X170.155Y-96.749
X177.013Y-105.891
X177.013Y-107.391
T3
X94.747Y-94.209
X98.247Y-94.209
X103.302Y-129.845
X109.759Y-98.552
X110.922Y-129.845
X113.259Y-98.552
X115.773Y-123.469
X123.393Y-123.469
T4
X92.1Y-115.037
X92.761Y-105.588
X94.64Y-115.037
X95.301Y-105.588
T5
X102.641Y-75.26
X102.641Y-77.8
X102.641Y-80.34
X102.641Y-82.88
X102.641Y-85.42
X102.641Y-87.96
X102.641Y-90.5
X102.641Y-93.04
X102.641Y-95.58
X102.641Y-98.12
X102.641Y-100.66
X102.641Y-103.2
X102.641Y-105.74
X102.641Y-108.28
X102.641Y-110.82
X102.641Y-113.36
X102.641Y-115.9
X102.641Y-118.44
X102.641Y-120.98
X102.641Y-123.52
X105.181Y-75.26
X105.181Y-77.8
X105.181Y-80.34
X105.181Y-82.88
X105.181Y-85.42
X105.181Y-87.96
X105.181Y-90.5
X105.181Y-93.04
X105.181Y-95.58
X105.181Y-98.12
X105.181Y-100.66
X105.181Y-103.2
X105.181Y-105.74
X105.181Y-108.28
X105.181Y-110.82
X105.181Y-113.36
X105.181Y-115.9
X105.181Y-118.44
X105.181Y-120.98
X105.181Y-123.52
X126.009Y-46.482
X126.009Y-49.022
X133.554Y-41.193
X133.554Y-43.733
X133.554Y-46.273
X133.554Y-48.813
X133.554Y-51.353
X133.554Y-53.893
X133.554Y-56.433
X133.554Y-67.763
X133.554Y-70.303
X133.554Y-72.843
X133.554Y-75.383
X133.554Y-77.923
X133.554Y-80.463
X133.554Y-83.003
X146.254Y-41.193
X146.254Y-43.733
X146.254Y-46.273
X146.254Y-48.813
X146.254Y-51.353
X146.254Y-53.893
X146.254Y-56.433
X146.254Y-67.763
X146.254Y-70.303
X146.254Y-72.843
X146.254Y-75.383
X146.254Y-77.923
X146.254Y-80.463
X146.254Y-83.003
X155.397Y-46.025
X155.397Y-48.565
X161.468Y-78.994
X161.468Y-81.534
X161.468Y-84.074
X161.468Y-86.614
X161.468Y-89.154
X161.468Y-91.694
X161.468Y-94.234
X161.468Y-96.774
X163.957Y-108.153
X163.957Y-110.693
X163.957Y-113.233
X163.957Y-115.773
X163.957Y-118.313
X163.957Y-120.853
X163.957Y-123.393
X163.957Y-125.933
X163.957Y-128.473
X171.12Y-84.074
X171.12Y-86.614
X171.12Y-89.154
X171.12Y-91.694
X174.168Y-78.994
X174.168Y-81.534
X174.168Y-84.074
X174.168Y-86.614
X174.168Y-89.154
X174.168Y-91.694
X174.168Y-94.234
X174.168Y-96.774
T6
X111.755Y-74.422
X111.755Y-89.662
X111.78Y-108.483
X111.78Y-123.723
T7
X162.919Y-103.276
X167.919Y-103.276
M30
