%TF.GenerationSoftware,KiCad,Pcbnew,9.0.5*%
%TF.CreationDate,2026-01-19T09:10:45-05:00*%
%TF.ProjectId,PayloadBreakOut,5061796c-6f61-4644-9272-65616b4f7574,rev?*%
%TF.SameCoordinates,Original*%
%TF.FileFunction,Legend,Top*%
%TF.FilePolarity,Positive*%
%FSLAX46Y46*%
G04 Gerber Fmt 4.6, Leading zero omitted, Abs format (unit mm)*
G04 Created by KiCad (PCBNEW 9.0.5) date 2026-01-19 09:10:45*
%MOMM*%
%LPD*%
G01*
G04 APERTURE LIST*
%ADD10C,0.300000*%
%ADD11C,0.200000*%
%ADD12C,0.100000*%
%ADD13C,0.150000*%
%ADD14C,0.120000*%
%ADD15C,0.000000*%
G04 APERTURE END LIST*
D10*
X181610196Y-125277089D02*
X180110196Y-125277089D01*
X180110196Y-125277089D02*
X180110196Y-124705660D01*
X180110196Y-124705660D02*
X180181625Y-124562803D01*
X180181625Y-124562803D02*
X180253053Y-124491374D01*
X180253053Y-124491374D02*
X180395910Y-124419946D01*
X180395910Y-124419946D02*
X180610196Y-124419946D01*
X180610196Y-124419946D02*
X180753053Y-124491374D01*
X180753053Y-124491374D02*
X180824482Y-124562803D01*
X180824482Y-124562803D02*
X180895910Y-124705660D01*
X180895910Y-124705660D02*
X180895910Y-125277089D01*
X181610196Y-123134232D02*
X180824482Y-123134232D01*
X180824482Y-123134232D02*
X180681625Y-123205660D01*
X180681625Y-123205660D02*
X180610196Y-123348517D01*
X180610196Y-123348517D02*
X180610196Y-123634232D01*
X180610196Y-123634232D02*
X180681625Y-123777089D01*
X181538768Y-123134232D02*
X181610196Y-123277089D01*
X181610196Y-123277089D02*
X181610196Y-123634232D01*
X181610196Y-123634232D02*
X181538768Y-123777089D01*
X181538768Y-123777089D02*
X181395910Y-123848517D01*
X181395910Y-123848517D02*
X181253053Y-123848517D01*
X181253053Y-123848517D02*
X181110196Y-123777089D01*
X181110196Y-123777089D02*
X181038768Y-123634232D01*
X181038768Y-123634232D02*
X181038768Y-123277089D01*
X181038768Y-123277089D02*
X180967339Y-123134232D01*
X180610196Y-122562803D02*
X181610196Y-122205660D01*
X180610196Y-121848517D02*
X181610196Y-122205660D01*
X181610196Y-122205660D02*
X181967339Y-122348517D01*
X181967339Y-122348517D02*
X182038768Y-122419946D01*
X182038768Y-122419946D02*
X182110196Y-122562803D01*
X181610196Y-121062803D02*
X181538768Y-121205660D01*
X181538768Y-121205660D02*
X181395910Y-121277089D01*
X181395910Y-121277089D02*
X180110196Y-121277089D01*
X181610196Y-120277089D02*
X181538768Y-120419946D01*
X181538768Y-120419946D02*
X181467339Y-120491375D01*
X181467339Y-120491375D02*
X181324482Y-120562803D01*
X181324482Y-120562803D02*
X180895910Y-120562803D01*
X180895910Y-120562803D02*
X180753053Y-120491375D01*
X180753053Y-120491375D02*
X180681625Y-120419946D01*
X180681625Y-120419946D02*
X180610196Y-120277089D01*
X180610196Y-120277089D02*
X180610196Y-120062803D01*
X180610196Y-120062803D02*
X180681625Y-119919946D01*
X180681625Y-119919946D02*
X180753053Y-119848518D01*
X180753053Y-119848518D02*
X180895910Y-119777089D01*
X180895910Y-119777089D02*
X181324482Y-119777089D01*
X181324482Y-119777089D02*
X181467339Y-119848518D01*
X181467339Y-119848518D02*
X181538768Y-119919946D01*
X181538768Y-119919946D02*
X181610196Y-120062803D01*
X181610196Y-120062803D02*
X181610196Y-120277089D01*
X181610196Y-118491375D02*
X180824482Y-118491375D01*
X180824482Y-118491375D02*
X180681625Y-118562803D01*
X180681625Y-118562803D02*
X180610196Y-118705660D01*
X180610196Y-118705660D02*
X180610196Y-118991375D01*
X180610196Y-118991375D02*
X180681625Y-119134232D01*
X181538768Y-118491375D02*
X181610196Y-118634232D01*
X181610196Y-118634232D02*
X181610196Y-118991375D01*
X181610196Y-118991375D02*
X181538768Y-119134232D01*
X181538768Y-119134232D02*
X181395910Y-119205660D01*
X181395910Y-119205660D02*
X181253053Y-119205660D01*
X181253053Y-119205660D02*
X181110196Y-119134232D01*
X181110196Y-119134232D02*
X181038768Y-118991375D01*
X181038768Y-118991375D02*
X181038768Y-118634232D01*
X181038768Y-118634232D02*
X180967339Y-118491375D01*
X181610196Y-117134232D02*
X180110196Y-117134232D01*
X181538768Y-117134232D02*
X181610196Y-117277089D01*
X181610196Y-117277089D02*
X181610196Y-117562803D01*
X181610196Y-117562803D02*
X181538768Y-117705660D01*
X181538768Y-117705660D02*
X181467339Y-117777089D01*
X181467339Y-117777089D02*
X181324482Y-117848517D01*
X181324482Y-117848517D02*
X180895910Y-117848517D01*
X180895910Y-117848517D02*
X180753053Y-117777089D01*
X180753053Y-117777089D02*
X180681625Y-117705660D01*
X180681625Y-117705660D02*
X180610196Y-117562803D01*
X180610196Y-117562803D02*
X180610196Y-117277089D01*
X180610196Y-117277089D02*
X180681625Y-117134232D01*
X180110196Y-115491374D02*
X181610196Y-114991374D01*
X181610196Y-114991374D02*
X180110196Y-114491374D01*
X180110196Y-114134232D02*
X180110196Y-113205660D01*
X180110196Y-113205660D02*
X180681625Y-113705660D01*
X180681625Y-113705660D02*
X180681625Y-113491375D01*
X180681625Y-113491375D02*
X180753053Y-113348518D01*
X180753053Y-113348518D02*
X180824482Y-113277089D01*
X180824482Y-113277089D02*
X180967339Y-113205660D01*
X180967339Y-113205660D02*
X181324482Y-113205660D01*
X181324482Y-113205660D02*
X181467339Y-113277089D01*
X181467339Y-113277089D02*
X181538768Y-113348518D01*
X181538768Y-113348518D02*
X181610196Y-113491375D01*
X181610196Y-113491375D02*
X181610196Y-113919946D01*
X181610196Y-113919946D02*
X181538768Y-114062803D01*
X181538768Y-114062803D02*
X181467339Y-114134232D01*
X184025112Y-125277089D02*
X182525112Y-125277089D01*
X182525112Y-125277089D02*
X182525112Y-124919946D01*
X182525112Y-124919946D02*
X182596541Y-124705660D01*
X182596541Y-124705660D02*
X182739398Y-124562803D01*
X182739398Y-124562803D02*
X182882255Y-124491374D01*
X182882255Y-124491374D02*
X183167969Y-124419946D01*
X183167969Y-124419946D02*
X183382255Y-124419946D01*
X183382255Y-124419946D02*
X183667969Y-124491374D01*
X183667969Y-124491374D02*
X183810826Y-124562803D01*
X183810826Y-124562803D02*
X183953684Y-124705660D01*
X183953684Y-124705660D02*
X184025112Y-124919946D01*
X184025112Y-124919946D02*
X184025112Y-125277089D01*
X183953684Y-123205660D02*
X184025112Y-123348517D01*
X184025112Y-123348517D02*
X184025112Y-123634232D01*
X184025112Y-123634232D02*
X183953684Y-123777089D01*
X183953684Y-123777089D02*
X183810826Y-123848517D01*
X183810826Y-123848517D02*
X183239398Y-123848517D01*
X183239398Y-123848517D02*
X183096541Y-123777089D01*
X183096541Y-123777089D02*
X183025112Y-123634232D01*
X183025112Y-123634232D02*
X183025112Y-123348517D01*
X183025112Y-123348517D02*
X183096541Y-123205660D01*
X183096541Y-123205660D02*
X183239398Y-123134232D01*
X183239398Y-123134232D02*
X183382255Y-123134232D01*
X183382255Y-123134232D02*
X183525112Y-123848517D01*
X183953684Y-122562803D02*
X184025112Y-122419946D01*
X184025112Y-122419946D02*
X184025112Y-122134232D01*
X184025112Y-122134232D02*
X183953684Y-121991375D01*
X183953684Y-121991375D02*
X183810826Y-121919946D01*
X183810826Y-121919946D02*
X183739398Y-121919946D01*
X183739398Y-121919946D02*
X183596541Y-121991375D01*
X183596541Y-121991375D02*
X183525112Y-122134232D01*
X183525112Y-122134232D02*
X183525112Y-122348518D01*
X183525112Y-122348518D02*
X183453684Y-122491375D01*
X183453684Y-122491375D02*
X183310826Y-122562803D01*
X183310826Y-122562803D02*
X183239398Y-122562803D01*
X183239398Y-122562803D02*
X183096541Y-122491375D01*
X183096541Y-122491375D02*
X183025112Y-122348518D01*
X183025112Y-122348518D02*
X183025112Y-122134232D01*
X183025112Y-122134232D02*
X183096541Y-121991375D01*
X184025112Y-121277089D02*
X183025112Y-121277089D01*
X182525112Y-121277089D02*
X182596541Y-121348517D01*
X182596541Y-121348517D02*
X182667969Y-121277089D01*
X182667969Y-121277089D02*
X182596541Y-121205660D01*
X182596541Y-121205660D02*
X182525112Y-121277089D01*
X182525112Y-121277089D02*
X182667969Y-121277089D01*
X183025112Y-119919946D02*
X184239398Y-119919946D01*
X184239398Y-119919946D02*
X184382255Y-119991374D01*
X184382255Y-119991374D02*
X184453684Y-120062803D01*
X184453684Y-120062803D02*
X184525112Y-120205660D01*
X184525112Y-120205660D02*
X184525112Y-120419946D01*
X184525112Y-120419946D02*
X184453684Y-120562803D01*
X183953684Y-119919946D02*
X184025112Y-120062803D01*
X184025112Y-120062803D02*
X184025112Y-120348517D01*
X184025112Y-120348517D02*
X183953684Y-120491374D01*
X183953684Y-120491374D02*
X183882255Y-120562803D01*
X183882255Y-120562803D02*
X183739398Y-120634231D01*
X183739398Y-120634231D02*
X183310826Y-120634231D01*
X183310826Y-120634231D02*
X183167969Y-120562803D01*
X183167969Y-120562803D02*
X183096541Y-120491374D01*
X183096541Y-120491374D02*
X183025112Y-120348517D01*
X183025112Y-120348517D02*
X183025112Y-120062803D01*
X183025112Y-120062803D02*
X183096541Y-119919946D01*
X183025112Y-119205660D02*
X184025112Y-119205660D01*
X183167969Y-119205660D02*
X183096541Y-119134231D01*
X183096541Y-119134231D02*
X183025112Y-118991374D01*
X183025112Y-118991374D02*
X183025112Y-118777088D01*
X183025112Y-118777088D02*
X183096541Y-118634231D01*
X183096541Y-118634231D02*
X183239398Y-118562803D01*
X183239398Y-118562803D02*
X184025112Y-118562803D01*
X183953684Y-117277088D02*
X184025112Y-117419945D01*
X184025112Y-117419945D02*
X184025112Y-117705660D01*
X184025112Y-117705660D02*
X183953684Y-117848517D01*
X183953684Y-117848517D02*
X183810826Y-117919945D01*
X183810826Y-117919945D02*
X183239398Y-117919945D01*
X183239398Y-117919945D02*
X183096541Y-117848517D01*
X183096541Y-117848517D02*
X183025112Y-117705660D01*
X183025112Y-117705660D02*
X183025112Y-117419945D01*
X183025112Y-117419945D02*
X183096541Y-117277088D01*
X183096541Y-117277088D02*
X183239398Y-117205660D01*
X183239398Y-117205660D02*
X183382255Y-117205660D01*
X183382255Y-117205660D02*
X183525112Y-117919945D01*
X184025112Y-115919946D02*
X182525112Y-115919946D01*
X183953684Y-115919946D02*
X184025112Y-116062803D01*
X184025112Y-116062803D02*
X184025112Y-116348517D01*
X184025112Y-116348517D02*
X183953684Y-116491374D01*
X183953684Y-116491374D02*
X183882255Y-116562803D01*
X183882255Y-116562803D02*
X183739398Y-116634231D01*
X183739398Y-116634231D02*
X183310826Y-116634231D01*
X183310826Y-116634231D02*
X183167969Y-116562803D01*
X183167969Y-116562803D02*
X183096541Y-116491374D01*
X183096541Y-116491374D02*
X183025112Y-116348517D01*
X183025112Y-116348517D02*
X183025112Y-116062803D01*
X183025112Y-116062803D02*
X183096541Y-115919946D01*
X184025112Y-114062803D02*
X182525112Y-114062803D01*
X183096541Y-114062803D02*
X183025112Y-113919946D01*
X183025112Y-113919946D02*
X183025112Y-113634231D01*
X183025112Y-113634231D02*
X183096541Y-113491374D01*
X183096541Y-113491374D02*
X183167969Y-113419946D01*
X183167969Y-113419946D02*
X183310826Y-113348517D01*
X183310826Y-113348517D02*
X183739398Y-113348517D01*
X183739398Y-113348517D02*
X183882255Y-113419946D01*
X183882255Y-113419946D02*
X183953684Y-113491374D01*
X183953684Y-113491374D02*
X184025112Y-113634231D01*
X184025112Y-113634231D02*
X184025112Y-113919946D01*
X184025112Y-113919946D02*
X183953684Y-114062803D01*
X183025112Y-112848517D02*
X184025112Y-112491374D01*
X183025112Y-112134231D02*
X184025112Y-112491374D01*
X184025112Y-112491374D02*
X184382255Y-112634231D01*
X184382255Y-112634231D02*
X184453684Y-112705660D01*
X184453684Y-112705660D02*
X184525112Y-112848517D01*
X182525112Y-109991374D02*
X183596541Y-109991374D01*
X183596541Y-109991374D02*
X183810826Y-110062803D01*
X183810826Y-110062803D02*
X183953684Y-110205660D01*
X183953684Y-110205660D02*
X184025112Y-110419946D01*
X184025112Y-110419946D02*
X184025112Y-110562803D01*
X184025112Y-109062803D02*
X183953684Y-109205660D01*
X183953684Y-109205660D02*
X183882255Y-109277089D01*
X183882255Y-109277089D02*
X183739398Y-109348517D01*
X183739398Y-109348517D02*
X183310826Y-109348517D01*
X183310826Y-109348517D02*
X183167969Y-109277089D01*
X183167969Y-109277089D02*
X183096541Y-109205660D01*
X183096541Y-109205660D02*
X183025112Y-109062803D01*
X183025112Y-109062803D02*
X183025112Y-108848517D01*
X183025112Y-108848517D02*
X183096541Y-108705660D01*
X183096541Y-108705660D02*
X183167969Y-108634232D01*
X183167969Y-108634232D02*
X183310826Y-108562803D01*
X183310826Y-108562803D02*
X183739398Y-108562803D01*
X183739398Y-108562803D02*
X183882255Y-108634232D01*
X183882255Y-108634232D02*
X183953684Y-108705660D01*
X183953684Y-108705660D02*
X184025112Y-108848517D01*
X184025112Y-108848517D02*
X184025112Y-109062803D01*
X183953684Y-107991374D02*
X184025112Y-107848517D01*
X184025112Y-107848517D02*
X184025112Y-107562803D01*
X184025112Y-107562803D02*
X183953684Y-107419946D01*
X183953684Y-107419946D02*
X183810826Y-107348517D01*
X183810826Y-107348517D02*
X183739398Y-107348517D01*
X183739398Y-107348517D02*
X183596541Y-107419946D01*
X183596541Y-107419946D02*
X183525112Y-107562803D01*
X183525112Y-107562803D02*
X183525112Y-107777089D01*
X183525112Y-107777089D02*
X183453684Y-107919946D01*
X183453684Y-107919946D02*
X183310826Y-107991374D01*
X183310826Y-107991374D02*
X183239398Y-107991374D01*
X183239398Y-107991374D02*
X183096541Y-107919946D01*
X183096541Y-107919946D02*
X183025112Y-107777089D01*
X183025112Y-107777089D02*
X183025112Y-107562803D01*
X183025112Y-107562803D02*
X183096541Y-107419946D01*
X183953684Y-106134231D02*
X184025112Y-106277088D01*
X184025112Y-106277088D02*
X184025112Y-106562803D01*
X184025112Y-106562803D02*
X183953684Y-106705660D01*
X183953684Y-106705660D02*
X183810826Y-106777088D01*
X183810826Y-106777088D02*
X183239398Y-106777088D01*
X183239398Y-106777088D02*
X183096541Y-106705660D01*
X183096541Y-106705660D02*
X183025112Y-106562803D01*
X183025112Y-106562803D02*
X183025112Y-106277088D01*
X183025112Y-106277088D02*
X183096541Y-106134231D01*
X183096541Y-106134231D02*
X183239398Y-106062803D01*
X183239398Y-106062803D02*
X183382255Y-106062803D01*
X183382255Y-106062803D02*
X183525112Y-106777088D01*
X183025112Y-105419946D02*
X184525112Y-105419946D01*
X183096541Y-105419946D02*
X183025112Y-105277089D01*
X183025112Y-105277089D02*
X183025112Y-104991374D01*
X183025112Y-104991374D02*
X183096541Y-104848517D01*
X183096541Y-104848517D02*
X183167969Y-104777089D01*
X183167969Y-104777089D02*
X183310826Y-104705660D01*
X183310826Y-104705660D02*
X183739398Y-104705660D01*
X183739398Y-104705660D02*
X183882255Y-104777089D01*
X183882255Y-104777089D02*
X183953684Y-104848517D01*
X183953684Y-104848517D02*
X184025112Y-104991374D01*
X184025112Y-104991374D02*
X184025112Y-105277089D01*
X184025112Y-105277089D02*
X183953684Y-105419946D01*
X184025112Y-104062803D02*
X182525112Y-104062803D01*
X184025112Y-103419946D02*
X183239398Y-103419946D01*
X183239398Y-103419946D02*
X183096541Y-103491374D01*
X183096541Y-103491374D02*
X183025112Y-103634231D01*
X183025112Y-103634231D02*
X183025112Y-103848517D01*
X183025112Y-103848517D02*
X183096541Y-103991374D01*
X183096541Y-103991374D02*
X183167969Y-104062803D01*
X182525112Y-101777088D02*
X182525112Y-100919946D01*
X184025112Y-101348517D02*
X182525112Y-101348517D01*
X184025112Y-100205660D02*
X183953684Y-100348517D01*
X183953684Y-100348517D02*
X183882255Y-100419946D01*
X183882255Y-100419946D02*
X183739398Y-100491374D01*
X183739398Y-100491374D02*
X183310826Y-100491374D01*
X183310826Y-100491374D02*
X183167969Y-100419946D01*
X183167969Y-100419946D02*
X183096541Y-100348517D01*
X183096541Y-100348517D02*
X183025112Y-100205660D01*
X183025112Y-100205660D02*
X183025112Y-99991374D01*
X183025112Y-99991374D02*
X183096541Y-99848517D01*
X183096541Y-99848517D02*
X183167969Y-99777089D01*
X183167969Y-99777089D02*
X183310826Y-99705660D01*
X183310826Y-99705660D02*
X183739398Y-99705660D01*
X183739398Y-99705660D02*
X183882255Y-99777089D01*
X183882255Y-99777089D02*
X183953684Y-99848517D01*
X183953684Y-99848517D02*
X184025112Y-99991374D01*
X184025112Y-99991374D02*
X184025112Y-100205660D01*
X184025112Y-99062803D02*
X183025112Y-99062803D01*
X183167969Y-99062803D02*
X183096541Y-98991374D01*
X183096541Y-98991374D02*
X183025112Y-98848517D01*
X183025112Y-98848517D02*
X183025112Y-98634231D01*
X183025112Y-98634231D02*
X183096541Y-98491374D01*
X183096541Y-98491374D02*
X183239398Y-98419946D01*
X183239398Y-98419946D02*
X184025112Y-98419946D01*
X183239398Y-98419946D02*
X183096541Y-98348517D01*
X183096541Y-98348517D02*
X183025112Y-98205660D01*
X183025112Y-98205660D02*
X183025112Y-97991374D01*
X183025112Y-97991374D02*
X183096541Y-97848517D01*
X183096541Y-97848517D02*
X183239398Y-97777088D01*
X183239398Y-97777088D02*
X184025112Y-97777088D01*
X184025112Y-96419946D02*
X183239398Y-96419946D01*
X183239398Y-96419946D02*
X183096541Y-96491374D01*
X183096541Y-96491374D02*
X183025112Y-96634231D01*
X183025112Y-96634231D02*
X183025112Y-96919946D01*
X183025112Y-96919946D02*
X183096541Y-97062803D01*
X183953684Y-96419946D02*
X184025112Y-96562803D01*
X184025112Y-96562803D02*
X184025112Y-96919946D01*
X184025112Y-96919946D02*
X183953684Y-97062803D01*
X183953684Y-97062803D02*
X183810826Y-97134231D01*
X183810826Y-97134231D02*
X183667969Y-97134231D01*
X183667969Y-97134231D02*
X183525112Y-97062803D01*
X183525112Y-97062803D02*
X183453684Y-96919946D01*
X183453684Y-96919946D02*
X183453684Y-96562803D01*
X183453684Y-96562803D02*
X183382255Y-96419946D01*
X184940028Y-124848517D02*
X186011457Y-124848517D01*
X186011457Y-124848517D02*
X186225742Y-124919946D01*
X186225742Y-124919946D02*
X186368600Y-125062803D01*
X186368600Y-125062803D02*
X186440028Y-125277089D01*
X186440028Y-125277089D02*
X186440028Y-125419946D01*
X186440028Y-123491375D02*
X185654314Y-123491375D01*
X185654314Y-123491375D02*
X185511457Y-123562803D01*
X185511457Y-123562803D02*
X185440028Y-123705660D01*
X185440028Y-123705660D02*
X185440028Y-123991375D01*
X185440028Y-123991375D02*
X185511457Y-124134232D01*
X186368600Y-123491375D02*
X186440028Y-123634232D01*
X186440028Y-123634232D02*
X186440028Y-123991375D01*
X186440028Y-123991375D02*
X186368600Y-124134232D01*
X186368600Y-124134232D02*
X186225742Y-124205660D01*
X186225742Y-124205660D02*
X186082885Y-124205660D01*
X186082885Y-124205660D02*
X185940028Y-124134232D01*
X185940028Y-124134232D02*
X185868600Y-123991375D01*
X185868600Y-123991375D02*
X185868600Y-123634232D01*
X185868600Y-123634232D02*
X185797171Y-123491375D01*
X185440028Y-122777089D02*
X186440028Y-122777089D01*
X185582885Y-122777089D02*
X185511457Y-122705660D01*
X185511457Y-122705660D02*
X185440028Y-122562803D01*
X185440028Y-122562803D02*
X185440028Y-122348517D01*
X185440028Y-122348517D02*
X185511457Y-122205660D01*
X185511457Y-122205660D02*
X185654314Y-122134232D01*
X185654314Y-122134232D02*
X186440028Y-122134232D01*
X185440028Y-120777089D02*
X186440028Y-120777089D01*
X185440028Y-121419946D02*
X186225742Y-121419946D01*
X186225742Y-121419946D02*
X186368600Y-121348517D01*
X186368600Y-121348517D02*
X186440028Y-121205660D01*
X186440028Y-121205660D02*
X186440028Y-120991374D01*
X186440028Y-120991374D02*
X186368600Y-120848517D01*
X186368600Y-120848517D02*
X186297171Y-120777089D01*
X186440028Y-119419946D02*
X185654314Y-119419946D01*
X185654314Y-119419946D02*
X185511457Y-119491374D01*
X185511457Y-119491374D02*
X185440028Y-119634231D01*
X185440028Y-119634231D02*
X185440028Y-119919946D01*
X185440028Y-119919946D02*
X185511457Y-120062803D01*
X186368600Y-119419946D02*
X186440028Y-119562803D01*
X186440028Y-119562803D02*
X186440028Y-119919946D01*
X186440028Y-119919946D02*
X186368600Y-120062803D01*
X186368600Y-120062803D02*
X186225742Y-120134231D01*
X186225742Y-120134231D02*
X186082885Y-120134231D01*
X186082885Y-120134231D02*
X185940028Y-120062803D01*
X185940028Y-120062803D02*
X185868600Y-119919946D01*
X185868600Y-119919946D02*
X185868600Y-119562803D01*
X185868600Y-119562803D02*
X185797171Y-119419946D01*
X186440028Y-118705660D02*
X185440028Y-118705660D01*
X185725742Y-118705660D02*
X185582885Y-118634231D01*
X185582885Y-118634231D02*
X185511457Y-118562803D01*
X185511457Y-118562803D02*
X185440028Y-118419945D01*
X185440028Y-118419945D02*
X185440028Y-118277088D01*
X185440028Y-117919946D02*
X186440028Y-117562803D01*
X185440028Y-117205660D02*
X186440028Y-117562803D01*
X186440028Y-117562803D02*
X186797171Y-117705660D01*
X186797171Y-117705660D02*
X186868600Y-117777089D01*
X186868600Y-117777089D02*
X186940028Y-117919946D01*
X185082885Y-115562803D02*
X185011457Y-115491375D01*
X185011457Y-115491375D02*
X184940028Y-115348518D01*
X184940028Y-115348518D02*
X184940028Y-114991375D01*
X184940028Y-114991375D02*
X185011457Y-114848518D01*
X185011457Y-114848518D02*
X185082885Y-114777089D01*
X185082885Y-114777089D02*
X185225742Y-114705660D01*
X185225742Y-114705660D02*
X185368600Y-114705660D01*
X185368600Y-114705660D02*
X185582885Y-114777089D01*
X185582885Y-114777089D02*
X186440028Y-115634232D01*
X186440028Y-115634232D02*
X186440028Y-114705660D01*
X184940028Y-113777089D02*
X184940028Y-113634232D01*
X184940028Y-113634232D02*
X185011457Y-113491375D01*
X185011457Y-113491375D02*
X185082885Y-113419947D01*
X185082885Y-113419947D02*
X185225742Y-113348518D01*
X185225742Y-113348518D02*
X185511457Y-113277089D01*
X185511457Y-113277089D02*
X185868600Y-113277089D01*
X185868600Y-113277089D02*
X186154314Y-113348518D01*
X186154314Y-113348518D02*
X186297171Y-113419947D01*
X186297171Y-113419947D02*
X186368600Y-113491375D01*
X186368600Y-113491375D02*
X186440028Y-113634232D01*
X186440028Y-113634232D02*
X186440028Y-113777089D01*
X186440028Y-113777089D02*
X186368600Y-113919947D01*
X186368600Y-113919947D02*
X186297171Y-113991375D01*
X186297171Y-113991375D02*
X186154314Y-114062804D01*
X186154314Y-114062804D02*
X185868600Y-114134232D01*
X185868600Y-114134232D02*
X185511457Y-114134232D01*
X185511457Y-114134232D02*
X185225742Y-114062804D01*
X185225742Y-114062804D02*
X185082885Y-113991375D01*
X185082885Y-113991375D02*
X185011457Y-113919947D01*
X185011457Y-113919947D02*
X184940028Y-113777089D01*
X185082885Y-112705661D02*
X185011457Y-112634233D01*
X185011457Y-112634233D02*
X184940028Y-112491376D01*
X184940028Y-112491376D02*
X184940028Y-112134233D01*
X184940028Y-112134233D02*
X185011457Y-111991376D01*
X185011457Y-111991376D02*
X185082885Y-111919947D01*
X185082885Y-111919947D02*
X185225742Y-111848518D01*
X185225742Y-111848518D02*
X185368600Y-111848518D01*
X185368600Y-111848518D02*
X185582885Y-111919947D01*
X185582885Y-111919947D02*
X186440028Y-112777090D01*
X186440028Y-112777090D02*
X186440028Y-111848518D01*
X184940028Y-110562805D02*
X184940028Y-110848519D01*
X184940028Y-110848519D02*
X185011457Y-110991376D01*
X185011457Y-110991376D02*
X185082885Y-111062805D01*
X185082885Y-111062805D02*
X185297171Y-111205662D01*
X185297171Y-111205662D02*
X185582885Y-111277090D01*
X185582885Y-111277090D02*
X186154314Y-111277090D01*
X186154314Y-111277090D02*
X186297171Y-111205662D01*
X186297171Y-111205662D02*
X186368600Y-111134233D01*
X186368600Y-111134233D02*
X186440028Y-110991376D01*
X186440028Y-110991376D02*
X186440028Y-110705662D01*
X186440028Y-110705662D02*
X186368600Y-110562805D01*
X186368600Y-110562805D02*
X186297171Y-110491376D01*
X186297171Y-110491376D02*
X186154314Y-110419947D01*
X186154314Y-110419947D02*
X185797171Y-110419947D01*
X185797171Y-110419947D02*
X185654314Y-110491376D01*
X185654314Y-110491376D02*
X185582885Y-110562805D01*
X185582885Y-110562805D02*
X185511457Y-110705662D01*
X185511457Y-110705662D02*
X185511457Y-110991376D01*
X185511457Y-110991376D02*
X185582885Y-111134233D01*
X185582885Y-111134233D02*
X185654314Y-111205662D01*
X185654314Y-111205662D02*
X185797171Y-111277090D01*
D11*
X177933120Y-104060400D02*
X179075978Y-104060400D01*
X178504549Y-104631828D02*
X178504549Y-103488971D01*
X91954120Y-102460200D02*
X93096978Y-102460200D01*
X92525549Y-103031628D02*
X92525549Y-101888771D01*
X94525549Y-101531628D02*
X93811263Y-101531628D01*
X93811263Y-101531628D02*
X93739835Y-102245914D01*
X93739835Y-102245914D02*
X93811263Y-102174485D01*
X93811263Y-102174485D02*
X93954121Y-102103057D01*
X93954121Y-102103057D02*
X94311263Y-102103057D01*
X94311263Y-102103057D02*
X94454121Y-102174485D01*
X94454121Y-102174485D02*
X94525549Y-102245914D01*
X94525549Y-102245914D02*
X94596978Y-102388771D01*
X94596978Y-102388771D02*
X94596978Y-102745914D01*
X94596978Y-102745914D02*
X94525549Y-102888771D01*
X94525549Y-102888771D02*
X94454121Y-102960200D01*
X94454121Y-102960200D02*
X94311263Y-103031628D01*
X94311263Y-103031628D02*
X93954121Y-103031628D01*
X93954121Y-103031628D02*
X93811263Y-102960200D01*
X93811263Y-102960200D02*
X93739835Y-102888771D01*
X95025549Y-101531628D02*
X95525549Y-103031628D01*
X95525549Y-103031628D02*
X96025549Y-101531628D01*
X167627708Y-84706248D02*
X166770565Y-84706248D01*
X167199136Y-84706248D02*
X167199136Y-83056248D01*
X167199136Y-83056248D02*
X167056279Y-83291962D01*
X167056279Y-83291962D02*
X166913422Y-83449105D01*
X166913422Y-83449105D02*
X166770565Y-83527677D01*
X168770564Y-83841962D02*
X168984850Y-83920534D01*
X168984850Y-83920534D02*
X169056279Y-83999105D01*
X169056279Y-83999105D02*
X169127707Y-84156248D01*
X169127707Y-84156248D02*
X169127707Y-84391962D01*
X169127707Y-84391962D02*
X169056279Y-84549105D01*
X169056279Y-84549105D02*
X168984850Y-84627677D01*
X168984850Y-84627677D02*
X168841993Y-84706248D01*
X168841993Y-84706248D02*
X168270564Y-84706248D01*
X168270564Y-84706248D02*
X168270564Y-83056248D01*
X168270564Y-83056248D02*
X168770564Y-83056248D01*
X168770564Y-83056248D02*
X168913422Y-83134819D01*
X168913422Y-83134819D02*
X168984850Y-83213391D01*
X168984850Y-83213391D02*
X169056279Y-83370534D01*
X169056279Y-83370534D02*
X169056279Y-83527677D01*
X169056279Y-83527677D02*
X168984850Y-83684819D01*
X168984850Y-83684819D02*
X168913422Y-83763391D01*
X168913422Y-83763391D02*
X168770564Y-83841962D01*
X168770564Y-83841962D02*
X168270564Y-83841962D01*
X167841994Y-87362656D02*
X166984851Y-87362656D01*
X167413422Y-87362656D02*
X167413422Y-85712656D01*
X167413422Y-85712656D02*
X167270565Y-85948370D01*
X167270565Y-85948370D02*
X167127708Y-86105513D01*
X167127708Y-86105513D02*
X166984851Y-86184085D01*
X168413422Y-86891227D02*
X169127708Y-86891227D01*
X168270565Y-87362656D02*
X168770565Y-85712656D01*
X168770565Y-85712656D02*
X169270565Y-87362656D01*
X166984851Y-88526207D02*
X167056279Y-88447635D01*
X167056279Y-88447635D02*
X167199137Y-88369064D01*
X167199137Y-88369064D02*
X167556279Y-88369064D01*
X167556279Y-88369064D02*
X167699137Y-88447635D01*
X167699137Y-88447635D02*
X167770565Y-88526207D01*
X167770565Y-88526207D02*
X167841994Y-88683350D01*
X167841994Y-88683350D02*
X167841994Y-88840493D01*
X167841994Y-88840493D02*
X167770565Y-89076207D01*
X167770565Y-89076207D02*
X166913422Y-90019064D01*
X166913422Y-90019064D02*
X167841994Y-90019064D01*
X168413422Y-89547635D02*
X169127708Y-89547635D01*
X168270565Y-90019064D02*
X168770565Y-88369064D01*
X168770565Y-88369064D02*
X169270565Y-90019064D01*
X166770565Y-91182615D02*
X166841993Y-91104043D01*
X166841993Y-91104043D02*
X166984851Y-91025472D01*
X166984851Y-91025472D02*
X167341993Y-91025472D01*
X167341993Y-91025472D02*
X167484851Y-91104043D01*
X167484851Y-91104043D02*
X167556279Y-91182615D01*
X167556279Y-91182615D02*
X167627708Y-91339758D01*
X167627708Y-91339758D02*
X167627708Y-91496901D01*
X167627708Y-91496901D02*
X167556279Y-91732615D01*
X167556279Y-91732615D02*
X166699136Y-92675472D01*
X166699136Y-92675472D02*
X167627708Y-92675472D01*
X168770564Y-91811186D02*
X168984850Y-91889758D01*
X168984850Y-91889758D02*
X169056279Y-91968329D01*
X169056279Y-91968329D02*
X169127707Y-92125472D01*
X169127707Y-92125472D02*
X169127707Y-92361186D01*
X169127707Y-92361186D02*
X169056279Y-92518329D01*
X169056279Y-92518329D02*
X168984850Y-92596901D01*
X168984850Y-92596901D02*
X168841993Y-92675472D01*
X168841993Y-92675472D02*
X168270564Y-92675472D01*
X168270564Y-92675472D02*
X168270564Y-91025472D01*
X168270564Y-91025472D02*
X168770564Y-91025472D01*
X168770564Y-91025472D02*
X168913422Y-91104043D01*
X168913422Y-91104043D02*
X168984850Y-91182615D01*
X168984850Y-91182615D02*
X169056279Y-91339758D01*
X169056279Y-91339758D02*
X169056279Y-91496901D01*
X169056279Y-91496901D02*
X168984850Y-91654043D01*
X168984850Y-91654043D02*
X168913422Y-91732615D01*
X168913422Y-91732615D02*
X168770564Y-91811186D01*
X168770564Y-91811186D02*
X168270564Y-91811186D01*
X91166720Y-112290000D02*
X92309578Y-112290000D01*
X91738149Y-112861428D02*
X91738149Y-111718571D01*
X93666721Y-111361428D02*
X93381006Y-111361428D01*
X93381006Y-111361428D02*
X93238149Y-111432857D01*
X93238149Y-111432857D02*
X93166721Y-111504285D01*
X93166721Y-111504285D02*
X93023863Y-111718571D01*
X93023863Y-111718571D02*
X92952435Y-112004285D01*
X92952435Y-112004285D02*
X92952435Y-112575714D01*
X92952435Y-112575714D02*
X93023863Y-112718571D01*
X93023863Y-112718571D02*
X93095292Y-112790000D01*
X93095292Y-112790000D02*
X93238149Y-112861428D01*
X93238149Y-112861428D02*
X93523863Y-112861428D01*
X93523863Y-112861428D02*
X93666721Y-112790000D01*
X93666721Y-112790000D02*
X93738149Y-112718571D01*
X93738149Y-112718571D02*
X93809578Y-112575714D01*
X93809578Y-112575714D02*
X93809578Y-112218571D01*
X93809578Y-112218571D02*
X93738149Y-112075714D01*
X93738149Y-112075714D02*
X93666721Y-112004285D01*
X93666721Y-112004285D02*
X93523863Y-111932857D01*
X93523863Y-111932857D02*
X93238149Y-111932857D01*
X93238149Y-111932857D02*
X93095292Y-112004285D01*
X93095292Y-112004285D02*
X93023863Y-112075714D01*
X93023863Y-112075714D02*
X92952435Y-112218571D01*
X94238149Y-111361428D02*
X94738149Y-112861428D01*
X94738149Y-112861428D02*
X95238149Y-111361428D01*
D12*
X170890284Y-98576866D02*
X171652189Y-98576866D01*
X171271236Y-98957819D02*
X171271236Y-98195914D01*
D13*
X94381961Y-99895819D02*
X93810533Y-99895819D01*
X94096247Y-99895819D02*
X94096247Y-98895819D01*
X94096247Y-98895819D02*
X94001009Y-99038676D01*
X94001009Y-99038676D02*
X93905771Y-99133914D01*
X93905771Y-99133914D02*
X93810533Y-99181533D01*
X95001009Y-98895819D02*
X95096247Y-98895819D01*
X95096247Y-98895819D02*
X95191485Y-98943438D01*
X95191485Y-98943438D02*
X95239104Y-98991057D01*
X95239104Y-98991057D02*
X95286723Y-99086295D01*
X95286723Y-99086295D02*
X95334342Y-99276771D01*
X95334342Y-99276771D02*
X95334342Y-99514866D01*
X95334342Y-99514866D02*
X95286723Y-99705342D01*
X95286723Y-99705342D02*
X95239104Y-99800580D01*
X95239104Y-99800580D02*
X95191485Y-99848200D01*
X95191485Y-99848200D02*
X95096247Y-99895819D01*
X95096247Y-99895819D02*
X95001009Y-99895819D01*
X95001009Y-99895819D02*
X94905771Y-99848200D01*
X94905771Y-99848200D02*
X94858152Y-99800580D01*
X94858152Y-99800580D02*
X94810533Y-99705342D01*
X94810533Y-99705342D02*
X94762914Y-99514866D01*
X94762914Y-99514866D02*
X94762914Y-99276771D01*
X94762914Y-99276771D02*
X94810533Y-99086295D01*
X94810533Y-99086295D02*
X94858152Y-98991057D01*
X94858152Y-98991057D02*
X94905771Y-98943438D01*
X94905771Y-98943438D02*
X95001009Y-98895819D01*
X95953390Y-98895819D02*
X96048628Y-98895819D01*
X96048628Y-98895819D02*
X96143866Y-98943438D01*
X96143866Y-98943438D02*
X96191485Y-98991057D01*
X96191485Y-98991057D02*
X96239104Y-99086295D01*
X96239104Y-99086295D02*
X96286723Y-99276771D01*
X96286723Y-99276771D02*
X96286723Y-99514866D01*
X96286723Y-99514866D02*
X96239104Y-99705342D01*
X96239104Y-99705342D02*
X96191485Y-99800580D01*
X96191485Y-99800580D02*
X96143866Y-99848200D01*
X96143866Y-99848200D02*
X96048628Y-99895819D01*
X96048628Y-99895819D02*
X95953390Y-99895819D01*
X95953390Y-99895819D02*
X95858152Y-99848200D01*
X95858152Y-99848200D02*
X95810533Y-99800580D01*
X95810533Y-99800580D02*
X95762914Y-99705342D01*
X95762914Y-99705342D02*
X95715295Y-99514866D01*
X95715295Y-99514866D02*
X95715295Y-99276771D01*
X95715295Y-99276771D02*
X95762914Y-99086295D01*
X95762914Y-99086295D02*
X95810533Y-98991057D01*
X95810533Y-98991057D02*
X95858152Y-98943438D01*
X95858152Y-98943438D02*
X95953390Y-98895819D01*
X96905771Y-98895819D02*
X97001009Y-98895819D01*
X97001009Y-98895819D02*
X97096247Y-98943438D01*
X97096247Y-98943438D02*
X97143866Y-98991057D01*
X97143866Y-98991057D02*
X97191485Y-99086295D01*
X97191485Y-99086295D02*
X97239104Y-99276771D01*
X97239104Y-99276771D02*
X97239104Y-99514866D01*
X97239104Y-99514866D02*
X97191485Y-99705342D01*
X97191485Y-99705342D02*
X97143866Y-99800580D01*
X97143866Y-99800580D02*
X97096247Y-99848200D01*
X97096247Y-99848200D02*
X97001009Y-99895819D01*
X97001009Y-99895819D02*
X96905771Y-99895819D01*
X96905771Y-99895819D02*
X96810533Y-99848200D01*
X96810533Y-99848200D02*
X96762914Y-99800580D01*
X96762914Y-99800580D02*
X96715295Y-99705342D01*
X96715295Y-99705342D02*
X96667676Y-99514866D01*
X96667676Y-99514866D02*
X96667676Y-99276771D01*
X96667676Y-99276771D02*
X96715295Y-99086295D01*
X96715295Y-99086295D02*
X96762914Y-98991057D01*
X96762914Y-98991057D02*
X96810533Y-98943438D01*
X96810533Y-98943438D02*
X96905771Y-98895819D01*
X98096247Y-99229152D02*
X98096247Y-99895819D01*
X97667676Y-99229152D02*
X97667676Y-99752961D01*
X97667676Y-99752961D02*
X97715295Y-99848200D01*
X97715295Y-99848200D02*
X97810533Y-99895819D01*
X97810533Y-99895819D02*
X97953390Y-99895819D01*
X97953390Y-99895819D02*
X98048628Y-99848200D01*
X98048628Y-99848200D02*
X98096247Y-99800580D01*
X172570876Y-50442019D02*
X172570876Y-49442019D01*
X172570876Y-49442019D02*
X172904209Y-50156304D01*
X172904209Y-50156304D02*
X173237542Y-49442019D01*
X173237542Y-49442019D02*
X173237542Y-50442019D01*
X173666114Y-49537257D02*
X173713733Y-49489638D01*
X173713733Y-49489638D02*
X173808971Y-49442019D01*
X173808971Y-49442019D02*
X174047066Y-49442019D01*
X174047066Y-49442019D02*
X174142304Y-49489638D01*
X174142304Y-49489638D02*
X174189923Y-49537257D01*
X174189923Y-49537257D02*
X174237542Y-49632495D01*
X174237542Y-49632495D02*
X174237542Y-49727733D01*
X174237542Y-49727733D02*
X174189923Y-49870590D01*
X174189923Y-49870590D02*
X173618495Y-50442019D01*
X173618495Y-50442019D02*
X174237542Y-50442019D01*
X106234266Y-48382019D02*
X105758076Y-48382019D01*
X105758076Y-48382019D02*
X105758076Y-47382019D01*
X106948552Y-48334400D02*
X106853314Y-48382019D01*
X106853314Y-48382019D02*
X106662838Y-48382019D01*
X106662838Y-48382019D02*
X106567600Y-48334400D01*
X106567600Y-48334400D02*
X106519981Y-48239161D01*
X106519981Y-48239161D02*
X106519981Y-47858209D01*
X106519981Y-47858209D02*
X106567600Y-47762971D01*
X106567600Y-47762971D02*
X106662838Y-47715352D01*
X106662838Y-47715352D02*
X106853314Y-47715352D01*
X106853314Y-47715352D02*
X106948552Y-47762971D01*
X106948552Y-47762971D02*
X106996171Y-47858209D01*
X106996171Y-47858209D02*
X106996171Y-47953447D01*
X106996171Y-47953447D02*
X106519981Y-48048685D01*
X107281886Y-47715352D02*
X107662838Y-47715352D01*
X107424743Y-48382019D02*
X107424743Y-47524876D01*
X107424743Y-47524876D02*
X107472362Y-47429638D01*
X107472362Y-47429638D02*
X107567600Y-47382019D01*
X107567600Y-47382019D02*
X107662838Y-47382019D01*
X107853315Y-47715352D02*
X108234267Y-47715352D01*
X107996172Y-47382019D02*
X107996172Y-48239161D01*
X107996172Y-48239161D02*
X108043791Y-48334400D01*
X108043791Y-48334400D02*
X108139029Y-48382019D01*
X108139029Y-48382019D02*
X108234267Y-48382019D01*
X109853315Y-47429638D02*
X109758077Y-47382019D01*
X109758077Y-47382019D02*
X109615220Y-47382019D01*
X109615220Y-47382019D02*
X109472363Y-47429638D01*
X109472363Y-47429638D02*
X109377125Y-47524876D01*
X109377125Y-47524876D02*
X109329506Y-47620114D01*
X109329506Y-47620114D02*
X109281887Y-47810590D01*
X109281887Y-47810590D02*
X109281887Y-47953447D01*
X109281887Y-47953447D02*
X109329506Y-48143923D01*
X109329506Y-48143923D02*
X109377125Y-48239161D01*
X109377125Y-48239161D02*
X109472363Y-48334400D01*
X109472363Y-48334400D02*
X109615220Y-48382019D01*
X109615220Y-48382019D02*
X109710458Y-48382019D01*
X109710458Y-48382019D02*
X109853315Y-48334400D01*
X109853315Y-48334400D02*
X109900934Y-48286780D01*
X109900934Y-48286780D02*
X109900934Y-47953447D01*
X109900934Y-47953447D02*
X109710458Y-47953447D01*
X110329506Y-48382019D02*
X110329506Y-47382019D01*
X110329506Y-47382019D02*
X110710458Y-47382019D01*
X110710458Y-47382019D02*
X110805696Y-47429638D01*
X110805696Y-47429638D02*
X110853315Y-47477257D01*
X110853315Y-47477257D02*
X110900934Y-47572495D01*
X110900934Y-47572495D02*
X110900934Y-47715352D01*
X110900934Y-47715352D02*
X110853315Y-47810590D01*
X110853315Y-47810590D02*
X110805696Y-47858209D01*
X110805696Y-47858209D02*
X110710458Y-47905828D01*
X110710458Y-47905828D02*
X110329506Y-47905828D01*
X111329506Y-48382019D02*
X111329506Y-47382019D01*
X111996172Y-47382019D02*
X112186648Y-47382019D01*
X112186648Y-47382019D02*
X112281886Y-47429638D01*
X112281886Y-47429638D02*
X112377124Y-47524876D01*
X112377124Y-47524876D02*
X112424743Y-47715352D01*
X112424743Y-47715352D02*
X112424743Y-48048685D01*
X112424743Y-48048685D02*
X112377124Y-48239161D01*
X112377124Y-48239161D02*
X112281886Y-48334400D01*
X112281886Y-48334400D02*
X112186648Y-48382019D01*
X112186648Y-48382019D02*
X111996172Y-48382019D01*
X111996172Y-48382019D02*
X111900934Y-48334400D01*
X111900934Y-48334400D02*
X111805696Y-48239161D01*
X111805696Y-48239161D02*
X111758077Y-48048685D01*
X111758077Y-48048685D02*
X111758077Y-47715352D01*
X111758077Y-47715352D02*
X111805696Y-47524876D01*
X111805696Y-47524876D02*
X111900934Y-47429638D01*
X111900934Y-47429638D02*
X111996172Y-47382019D01*
X174217419Y-107760247D02*
X174217419Y-108331675D01*
X174217419Y-108045961D02*
X173217419Y-108045961D01*
X173217419Y-108045961D02*
X173360276Y-108141199D01*
X173360276Y-108141199D02*
X173455514Y-108236437D01*
X173455514Y-108236437D02*
X173503133Y-108331675D01*
X173217419Y-107141199D02*
X173217419Y-107045961D01*
X173217419Y-107045961D02*
X173265038Y-106950723D01*
X173265038Y-106950723D02*
X173312657Y-106903104D01*
X173312657Y-106903104D02*
X173407895Y-106855485D01*
X173407895Y-106855485D02*
X173598371Y-106807866D01*
X173598371Y-106807866D02*
X173836466Y-106807866D01*
X173836466Y-106807866D02*
X174026942Y-106855485D01*
X174026942Y-106855485D02*
X174122180Y-106903104D01*
X174122180Y-106903104D02*
X174169800Y-106950723D01*
X174169800Y-106950723D02*
X174217419Y-107045961D01*
X174217419Y-107045961D02*
X174217419Y-107141199D01*
X174217419Y-107141199D02*
X174169800Y-107236437D01*
X174169800Y-107236437D02*
X174122180Y-107284056D01*
X174122180Y-107284056D02*
X174026942Y-107331675D01*
X174026942Y-107331675D02*
X173836466Y-107379294D01*
X173836466Y-107379294D02*
X173598371Y-107379294D01*
X173598371Y-107379294D02*
X173407895Y-107331675D01*
X173407895Y-107331675D02*
X173312657Y-107284056D01*
X173312657Y-107284056D02*
X173265038Y-107236437D01*
X173265038Y-107236437D02*
X173217419Y-107141199D01*
X173217419Y-106188818D02*
X173217419Y-106093580D01*
X173217419Y-106093580D02*
X173265038Y-105998342D01*
X173265038Y-105998342D02*
X173312657Y-105950723D01*
X173312657Y-105950723D02*
X173407895Y-105903104D01*
X173407895Y-105903104D02*
X173598371Y-105855485D01*
X173598371Y-105855485D02*
X173836466Y-105855485D01*
X173836466Y-105855485D02*
X174026942Y-105903104D01*
X174026942Y-105903104D02*
X174122180Y-105950723D01*
X174122180Y-105950723D02*
X174169800Y-105998342D01*
X174169800Y-105998342D02*
X174217419Y-106093580D01*
X174217419Y-106093580D02*
X174217419Y-106188818D01*
X174217419Y-106188818D02*
X174169800Y-106284056D01*
X174169800Y-106284056D02*
X174122180Y-106331675D01*
X174122180Y-106331675D02*
X174026942Y-106379294D01*
X174026942Y-106379294D02*
X173836466Y-106426913D01*
X173836466Y-106426913D02*
X173598371Y-106426913D01*
X173598371Y-106426913D02*
X173407895Y-106379294D01*
X173407895Y-106379294D02*
X173312657Y-106331675D01*
X173312657Y-106331675D02*
X173265038Y-106284056D01*
X173265038Y-106284056D02*
X173217419Y-106188818D01*
X173550752Y-104998342D02*
X174217419Y-104998342D01*
X173550752Y-105426913D02*
X174074561Y-105426913D01*
X174074561Y-105426913D02*
X174169800Y-105379294D01*
X174169800Y-105379294D02*
X174217419Y-105284056D01*
X174217419Y-105284056D02*
X174217419Y-105141199D01*
X174217419Y-105141199D02*
X174169800Y-105045961D01*
X174169800Y-105045961D02*
X174122180Y-104998342D01*
X167739219Y-97131047D02*
X167739219Y-97702475D01*
X167739219Y-97416761D02*
X166739219Y-97416761D01*
X166739219Y-97416761D02*
X166882076Y-97511999D01*
X166882076Y-97511999D02*
X166977314Y-97607237D01*
X166977314Y-97607237D02*
X167024933Y-97702475D01*
X166739219Y-96511999D02*
X166739219Y-96416761D01*
X166739219Y-96416761D02*
X166786838Y-96321523D01*
X166786838Y-96321523D02*
X166834457Y-96273904D01*
X166834457Y-96273904D02*
X166929695Y-96226285D01*
X166929695Y-96226285D02*
X167120171Y-96178666D01*
X167120171Y-96178666D02*
X167358266Y-96178666D01*
X167358266Y-96178666D02*
X167548742Y-96226285D01*
X167548742Y-96226285D02*
X167643980Y-96273904D01*
X167643980Y-96273904D02*
X167691600Y-96321523D01*
X167691600Y-96321523D02*
X167739219Y-96416761D01*
X167739219Y-96416761D02*
X167739219Y-96511999D01*
X167739219Y-96511999D02*
X167691600Y-96607237D01*
X167691600Y-96607237D02*
X167643980Y-96654856D01*
X167643980Y-96654856D02*
X167548742Y-96702475D01*
X167548742Y-96702475D02*
X167358266Y-96750094D01*
X167358266Y-96750094D02*
X167120171Y-96750094D01*
X167120171Y-96750094D02*
X166929695Y-96702475D01*
X166929695Y-96702475D02*
X166834457Y-96654856D01*
X166834457Y-96654856D02*
X166786838Y-96607237D01*
X166786838Y-96607237D02*
X166739219Y-96511999D01*
X166739219Y-95559618D02*
X166739219Y-95464380D01*
X166739219Y-95464380D02*
X166786838Y-95369142D01*
X166786838Y-95369142D02*
X166834457Y-95321523D01*
X166834457Y-95321523D02*
X166929695Y-95273904D01*
X166929695Y-95273904D02*
X167120171Y-95226285D01*
X167120171Y-95226285D02*
X167358266Y-95226285D01*
X167358266Y-95226285D02*
X167548742Y-95273904D01*
X167548742Y-95273904D02*
X167643980Y-95321523D01*
X167643980Y-95321523D02*
X167691600Y-95369142D01*
X167691600Y-95369142D02*
X167739219Y-95464380D01*
X167739219Y-95464380D02*
X167739219Y-95559618D01*
X167739219Y-95559618D02*
X167691600Y-95654856D01*
X167691600Y-95654856D02*
X167643980Y-95702475D01*
X167643980Y-95702475D02*
X167548742Y-95750094D01*
X167548742Y-95750094D02*
X167358266Y-95797713D01*
X167358266Y-95797713D02*
X167120171Y-95797713D01*
X167120171Y-95797713D02*
X166929695Y-95750094D01*
X166929695Y-95750094D02*
X166834457Y-95702475D01*
X166834457Y-95702475D02*
X166786838Y-95654856D01*
X166786838Y-95654856D02*
X166739219Y-95559618D01*
X167072552Y-94369142D02*
X167739219Y-94369142D01*
X167072552Y-94797713D02*
X167596361Y-94797713D01*
X167596361Y-94797713D02*
X167691600Y-94750094D01*
X167691600Y-94750094D02*
X167739219Y-94654856D01*
X167739219Y-94654856D02*
X167739219Y-94511999D01*
X167739219Y-94511999D02*
X167691600Y-94416761D01*
X167691600Y-94416761D02*
X167643980Y-94369142D01*
X106200676Y-50569019D02*
X106200676Y-49569019D01*
X106200676Y-49569019D02*
X106534009Y-50283304D01*
X106534009Y-50283304D02*
X106867342Y-49569019D01*
X106867342Y-49569019D02*
X106867342Y-50569019D01*
X107295914Y-49664257D02*
X107343533Y-49616638D01*
X107343533Y-49616638D02*
X107438771Y-49569019D01*
X107438771Y-49569019D02*
X107676866Y-49569019D01*
X107676866Y-49569019D02*
X107772104Y-49616638D01*
X107772104Y-49616638D02*
X107819723Y-49664257D01*
X107819723Y-49664257D02*
X107867342Y-49759495D01*
X107867342Y-49759495D02*
X107867342Y-49854733D01*
X107867342Y-49854733D02*
X107819723Y-49997590D01*
X107819723Y-49997590D02*
X107248295Y-50569019D01*
X107248295Y-50569019D02*
X107867342Y-50569019D01*
X171347971Y-103391100D02*
X172490829Y-103391100D01*
X158347971Y-103391100D02*
X159490829Y-103391100D01*
X158919400Y-103962528D02*
X158919400Y-102819671D01*
X106200676Y-54150419D02*
X106200676Y-53150419D01*
X106200676Y-53150419D02*
X106534009Y-53864704D01*
X106534009Y-53864704D02*
X106867342Y-53150419D01*
X106867342Y-53150419D02*
X106867342Y-54150419D01*
X107867342Y-54150419D02*
X107295914Y-54150419D01*
X107581628Y-54150419D02*
X107581628Y-53150419D01*
X107581628Y-53150419D02*
X107486390Y-53293276D01*
X107486390Y-53293276D02*
X107391152Y-53388514D01*
X107391152Y-53388514D02*
X107295914Y-53436133D01*
X167934095Y-47620019D02*
X167600762Y-47143828D01*
X167362667Y-47620019D02*
X167362667Y-46620019D01*
X167362667Y-46620019D02*
X167743619Y-46620019D01*
X167743619Y-46620019D02*
X167838857Y-46667638D01*
X167838857Y-46667638D02*
X167886476Y-46715257D01*
X167886476Y-46715257D02*
X167934095Y-46810495D01*
X167934095Y-46810495D02*
X167934095Y-46953352D01*
X167934095Y-46953352D02*
X167886476Y-47048590D01*
X167886476Y-47048590D02*
X167838857Y-47096209D01*
X167838857Y-47096209D02*
X167743619Y-47143828D01*
X167743619Y-47143828D02*
X167362667Y-47143828D01*
X168362667Y-47620019D02*
X168362667Y-46953352D01*
X168362667Y-46620019D02*
X168315048Y-46667638D01*
X168315048Y-46667638D02*
X168362667Y-46715257D01*
X168362667Y-46715257D02*
X168410286Y-46667638D01*
X168410286Y-46667638D02*
X168362667Y-46620019D01*
X168362667Y-46620019D02*
X168362667Y-46715257D01*
X169267428Y-46953352D02*
X169267428Y-47762876D01*
X169267428Y-47762876D02*
X169219809Y-47858114D01*
X169219809Y-47858114D02*
X169172190Y-47905733D01*
X169172190Y-47905733D02*
X169076952Y-47953352D01*
X169076952Y-47953352D02*
X168934095Y-47953352D01*
X168934095Y-47953352D02*
X168838857Y-47905733D01*
X169267428Y-47572400D02*
X169172190Y-47620019D01*
X169172190Y-47620019D02*
X168981714Y-47620019D01*
X168981714Y-47620019D02*
X168886476Y-47572400D01*
X168886476Y-47572400D02*
X168838857Y-47524780D01*
X168838857Y-47524780D02*
X168791238Y-47429542D01*
X168791238Y-47429542D02*
X168791238Y-47143828D01*
X168791238Y-47143828D02*
X168838857Y-47048590D01*
X168838857Y-47048590D02*
X168886476Y-47000971D01*
X168886476Y-47000971D02*
X168981714Y-46953352D01*
X168981714Y-46953352D02*
X169172190Y-46953352D01*
X169172190Y-46953352D02*
X169267428Y-47000971D01*
X169743619Y-47620019D02*
X169743619Y-46620019D01*
X170172190Y-47620019D02*
X170172190Y-47096209D01*
X170172190Y-47096209D02*
X170124571Y-47000971D01*
X170124571Y-47000971D02*
X170029333Y-46953352D01*
X170029333Y-46953352D02*
X169886476Y-46953352D01*
X169886476Y-46953352D02*
X169791238Y-47000971D01*
X169791238Y-47000971D02*
X169743619Y-47048590D01*
X170505524Y-46953352D02*
X170886476Y-46953352D01*
X170648381Y-46620019D02*
X170648381Y-47477161D01*
X170648381Y-47477161D02*
X170696000Y-47572400D01*
X170696000Y-47572400D02*
X170791238Y-47620019D01*
X170791238Y-47620019D02*
X170886476Y-47620019D01*
X172505524Y-46667638D02*
X172410286Y-46620019D01*
X172410286Y-46620019D02*
X172267429Y-46620019D01*
X172267429Y-46620019D02*
X172124572Y-46667638D01*
X172124572Y-46667638D02*
X172029334Y-46762876D01*
X172029334Y-46762876D02*
X171981715Y-46858114D01*
X171981715Y-46858114D02*
X171934096Y-47048590D01*
X171934096Y-47048590D02*
X171934096Y-47191447D01*
X171934096Y-47191447D02*
X171981715Y-47381923D01*
X171981715Y-47381923D02*
X172029334Y-47477161D01*
X172029334Y-47477161D02*
X172124572Y-47572400D01*
X172124572Y-47572400D02*
X172267429Y-47620019D01*
X172267429Y-47620019D02*
X172362667Y-47620019D01*
X172362667Y-47620019D02*
X172505524Y-47572400D01*
X172505524Y-47572400D02*
X172553143Y-47524780D01*
X172553143Y-47524780D02*
X172553143Y-47191447D01*
X172553143Y-47191447D02*
X172362667Y-47191447D01*
X172981715Y-47620019D02*
X172981715Y-46620019D01*
X172981715Y-46620019D02*
X173362667Y-46620019D01*
X173362667Y-46620019D02*
X173457905Y-46667638D01*
X173457905Y-46667638D02*
X173505524Y-46715257D01*
X173505524Y-46715257D02*
X173553143Y-46810495D01*
X173553143Y-46810495D02*
X173553143Y-46953352D01*
X173553143Y-46953352D02*
X173505524Y-47048590D01*
X173505524Y-47048590D02*
X173457905Y-47096209D01*
X173457905Y-47096209D02*
X173362667Y-47143828D01*
X173362667Y-47143828D02*
X172981715Y-47143828D01*
X173981715Y-47620019D02*
X173981715Y-46620019D01*
X174648381Y-46620019D02*
X174838857Y-46620019D01*
X174838857Y-46620019D02*
X174934095Y-46667638D01*
X174934095Y-46667638D02*
X175029333Y-46762876D01*
X175029333Y-46762876D02*
X175076952Y-46953352D01*
X175076952Y-46953352D02*
X175076952Y-47286685D01*
X175076952Y-47286685D02*
X175029333Y-47477161D01*
X175029333Y-47477161D02*
X174934095Y-47572400D01*
X174934095Y-47572400D02*
X174838857Y-47620019D01*
X174838857Y-47620019D02*
X174648381Y-47620019D01*
X174648381Y-47620019D02*
X174553143Y-47572400D01*
X174553143Y-47572400D02*
X174457905Y-47477161D01*
X174457905Y-47477161D02*
X174410286Y-47286685D01*
X174410286Y-47286685D02*
X174410286Y-46953352D01*
X174410286Y-46953352D02*
X174457905Y-46762876D01*
X174457905Y-46762876D02*
X174553143Y-46667638D01*
X174553143Y-46667638D02*
X174648381Y-46620019D01*
X106353313Y-44318019D02*
X105877123Y-44318019D01*
X105877123Y-44318019D02*
X105877123Y-43318019D01*
X107067599Y-44270400D02*
X106972361Y-44318019D01*
X106972361Y-44318019D02*
X106781885Y-44318019D01*
X106781885Y-44318019D02*
X106686647Y-44270400D01*
X106686647Y-44270400D02*
X106639028Y-44175161D01*
X106639028Y-44175161D02*
X106639028Y-43794209D01*
X106639028Y-43794209D02*
X106686647Y-43698971D01*
X106686647Y-43698971D02*
X106781885Y-43651352D01*
X106781885Y-43651352D02*
X106972361Y-43651352D01*
X106972361Y-43651352D02*
X107067599Y-43698971D01*
X107067599Y-43698971D02*
X107115218Y-43794209D01*
X107115218Y-43794209D02*
X107115218Y-43889447D01*
X107115218Y-43889447D02*
X106639028Y-43984685D01*
X107400933Y-43651352D02*
X107781885Y-43651352D01*
X107543790Y-44318019D02*
X107543790Y-43460876D01*
X107543790Y-43460876D02*
X107591409Y-43365638D01*
X107591409Y-43365638D02*
X107686647Y-43318019D01*
X107686647Y-43318019D02*
X107781885Y-43318019D01*
X107972362Y-43651352D02*
X108353314Y-43651352D01*
X108115219Y-43318019D02*
X108115219Y-44175161D01*
X108115219Y-44175161D02*
X108162838Y-44270400D01*
X108162838Y-44270400D02*
X108258076Y-44318019D01*
X108258076Y-44318019D02*
X108353314Y-44318019D01*
X109448553Y-44318019D02*
X109448553Y-43318019D01*
X109448553Y-43318019D02*
X109829505Y-43318019D01*
X109829505Y-43318019D02*
X109924743Y-43365638D01*
X109924743Y-43365638D02*
X109972362Y-43413257D01*
X109972362Y-43413257D02*
X110019981Y-43508495D01*
X110019981Y-43508495D02*
X110019981Y-43651352D01*
X110019981Y-43651352D02*
X109972362Y-43746590D01*
X109972362Y-43746590D02*
X109924743Y-43794209D01*
X109924743Y-43794209D02*
X109829505Y-43841828D01*
X109829505Y-43841828D02*
X109448553Y-43841828D01*
X110353315Y-43318019D02*
X110591410Y-44318019D01*
X110591410Y-44318019D02*
X110781886Y-43603733D01*
X110781886Y-43603733D02*
X110972362Y-44318019D01*
X110972362Y-44318019D02*
X111210458Y-43318019D01*
X111591410Y-44318019D02*
X111591410Y-43318019D01*
X111591410Y-43318019D02*
X111924743Y-44032304D01*
X111924743Y-44032304D02*
X112258076Y-43318019D01*
X112258076Y-43318019D02*
X112258076Y-44318019D01*
X109913361Y-104256819D02*
X109341933Y-104256819D01*
X109627647Y-104256819D02*
X109627647Y-103256819D01*
X109627647Y-103256819D02*
X109532409Y-103399676D01*
X109532409Y-103399676D02*
X109437171Y-103494914D01*
X109437171Y-103494914D02*
X109341933Y-103542533D01*
X110532409Y-103256819D02*
X110627647Y-103256819D01*
X110627647Y-103256819D02*
X110722885Y-103304438D01*
X110722885Y-103304438D02*
X110770504Y-103352057D01*
X110770504Y-103352057D02*
X110818123Y-103447295D01*
X110818123Y-103447295D02*
X110865742Y-103637771D01*
X110865742Y-103637771D02*
X110865742Y-103875866D01*
X110865742Y-103875866D02*
X110818123Y-104066342D01*
X110818123Y-104066342D02*
X110770504Y-104161580D01*
X110770504Y-104161580D02*
X110722885Y-104209200D01*
X110722885Y-104209200D02*
X110627647Y-104256819D01*
X110627647Y-104256819D02*
X110532409Y-104256819D01*
X110532409Y-104256819D02*
X110437171Y-104209200D01*
X110437171Y-104209200D02*
X110389552Y-104161580D01*
X110389552Y-104161580D02*
X110341933Y-104066342D01*
X110341933Y-104066342D02*
X110294314Y-103875866D01*
X110294314Y-103875866D02*
X110294314Y-103637771D01*
X110294314Y-103637771D02*
X110341933Y-103447295D01*
X110341933Y-103447295D02*
X110389552Y-103352057D01*
X110389552Y-103352057D02*
X110437171Y-103304438D01*
X110437171Y-103304438D02*
X110532409Y-103256819D01*
X111484790Y-103256819D02*
X111580028Y-103256819D01*
X111580028Y-103256819D02*
X111675266Y-103304438D01*
X111675266Y-103304438D02*
X111722885Y-103352057D01*
X111722885Y-103352057D02*
X111770504Y-103447295D01*
X111770504Y-103447295D02*
X111818123Y-103637771D01*
X111818123Y-103637771D02*
X111818123Y-103875866D01*
X111818123Y-103875866D02*
X111770504Y-104066342D01*
X111770504Y-104066342D02*
X111722885Y-104161580D01*
X111722885Y-104161580D02*
X111675266Y-104209200D01*
X111675266Y-104209200D02*
X111580028Y-104256819D01*
X111580028Y-104256819D02*
X111484790Y-104256819D01*
X111484790Y-104256819D02*
X111389552Y-104209200D01*
X111389552Y-104209200D02*
X111341933Y-104161580D01*
X111341933Y-104161580D02*
X111294314Y-104066342D01*
X111294314Y-104066342D02*
X111246695Y-103875866D01*
X111246695Y-103875866D02*
X111246695Y-103637771D01*
X111246695Y-103637771D02*
X111294314Y-103447295D01*
X111294314Y-103447295D02*
X111341933Y-103352057D01*
X111341933Y-103352057D02*
X111389552Y-103304438D01*
X111389552Y-103304438D02*
X111484790Y-103256819D01*
X112437171Y-103256819D02*
X112532409Y-103256819D01*
X112532409Y-103256819D02*
X112627647Y-103304438D01*
X112627647Y-103304438D02*
X112675266Y-103352057D01*
X112675266Y-103352057D02*
X112722885Y-103447295D01*
X112722885Y-103447295D02*
X112770504Y-103637771D01*
X112770504Y-103637771D02*
X112770504Y-103875866D01*
X112770504Y-103875866D02*
X112722885Y-104066342D01*
X112722885Y-104066342D02*
X112675266Y-104161580D01*
X112675266Y-104161580D02*
X112627647Y-104209200D01*
X112627647Y-104209200D02*
X112532409Y-104256819D01*
X112532409Y-104256819D02*
X112437171Y-104256819D01*
X112437171Y-104256819D02*
X112341933Y-104209200D01*
X112341933Y-104209200D02*
X112294314Y-104161580D01*
X112294314Y-104161580D02*
X112246695Y-104066342D01*
X112246695Y-104066342D02*
X112199076Y-103875866D01*
X112199076Y-103875866D02*
X112199076Y-103637771D01*
X112199076Y-103637771D02*
X112246695Y-103447295D01*
X112246695Y-103447295D02*
X112294314Y-103352057D01*
X112294314Y-103352057D02*
X112341933Y-103304438D01*
X112341933Y-103304438D02*
X112437171Y-103256819D01*
X113627647Y-103590152D02*
X113627647Y-104256819D01*
X113199076Y-103590152D02*
X113199076Y-104113961D01*
X113199076Y-104113961D02*
X113246695Y-104209200D01*
X113246695Y-104209200D02*
X113341933Y-104256819D01*
X113341933Y-104256819D02*
X113484790Y-104256819D01*
X113484790Y-104256819D02*
X113580028Y-104209200D01*
X113580028Y-104209200D02*
X113627647Y-104161580D01*
X172697876Y-54226619D02*
X172697876Y-53226619D01*
X172697876Y-53226619D02*
X173031209Y-53940904D01*
X173031209Y-53940904D02*
X173364542Y-53226619D01*
X173364542Y-53226619D02*
X173364542Y-54226619D01*
X174364542Y-54226619D02*
X173793114Y-54226619D01*
X174078828Y-54226619D02*
X174078828Y-53226619D01*
X174078828Y-53226619D02*
X173983590Y-53369476D01*
X173983590Y-53369476D02*
X173888352Y-53464714D01*
X173888352Y-53464714D02*
X173793114Y-53512333D01*
X168103942Y-43784619D02*
X167770609Y-43308428D01*
X167532514Y-43784619D02*
X167532514Y-42784619D01*
X167532514Y-42784619D02*
X167913466Y-42784619D01*
X167913466Y-42784619D02*
X168008704Y-42832238D01*
X168008704Y-42832238D02*
X168056323Y-42879857D01*
X168056323Y-42879857D02*
X168103942Y-42975095D01*
X168103942Y-42975095D02*
X168103942Y-43117952D01*
X168103942Y-43117952D02*
X168056323Y-43213190D01*
X168056323Y-43213190D02*
X168008704Y-43260809D01*
X168008704Y-43260809D02*
X167913466Y-43308428D01*
X167913466Y-43308428D02*
X167532514Y-43308428D01*
X168532514Y-43784619D02*
X168532514Y-43117952D01*
X168532514Y-42784619D02*
X168484895Y-42832238D01*
X168484895Y-42832238D02*
X168532514Y-42879857D01*
X168532514Y-42879857D02*
X168580133Y-42832238D01*
X168580133Y-42832238D02*
X168532514Y-42784619D01*
X168532514Y-42784619D02*
X168532514Y-42879857D01*
X169437275Y-43117952D02*
X169437275Y-43927476D01*
X169437275Y-43927476D02*
X169389656Y-44022714D01*
X169389656Y-44022714D02*
X169342037Y-44070333D01*
X169342037Y-44070333D02*
X169246799Y-44117952D01*
X169246799Y-44117952D02*
X169103942Y-44117952D01*
X169103942Y-44117952D02*
X169008704Y-44070333D01*
X169437275Y-43737000D02*
X169342037Y-43784619D01*
X169342037Y-43784619D02*
X169151561Y-43784619D01*
X169151561Y-43784619D02*
X169056323Y-43737000D01*
X169056323Y-43737000D02*
X169008704Y-43689380D01*
X169008704Y-43689380D02*
X168961085Y-43594142D01*
X168961085Y-43594142D02*
X168961085Y-43308428D01*
X168961085Y-43308428D02*
X169008704Y-43213190D01*
X169008704Y-43213190D02*
X169056323Y-43165571D01*
X169056323Y-43165571D02*
X169151561Y-43117952D01*
X169151561Y-43117952D02*
X169342037Y-43117952D01*
X169342037Y-43117952D02*
X169437275Y-43165571D01*
X169913466Y-43784619D02*
X169913466Y-42784619D01*
X170342037Y-43784619D02*
X170342037Y-43260809D01*
X170342037Y-43260809D02*
X170294418Y-43165571D01*
X170294418Y-43165571D02*
X170199180Y-43117952D01*
X170199180Y-43117952D02*
X170056323Y-43117952D01*
X170056323Y-43117952D02*
X169961085Y-43165571D01*
X169961085Y-43165571D02*
X169913466Y-43213190D01*
X170675371Y-43117952D02*
X171056323Y-43117952D01*
X170818228Y-42784619D02*
X170818228Y-43641761D01*
X170818228Y-43641761D02*
X170865847Y-43737000D01*
X170865847Y-43737000D02*
X170961085Y-43784619D01*
X170961085Y-43784619D02*
X171056323Y-43784619D01*
X172151562Y-43784619D02*
X172151562Y-42784619D01*
X172151562Y-42784619D02*
X172532514Y-42784619D01*
X172532514Y-42784619D02*
X172627752Y-42832238D01*
X172627752Y-42832238D02*
X172675371Y-42879857D01*
X172675371Y-42879857D02*
X172722990Y-42975095D01*
X172722990Y-42975095D02*
X172722990Y-43117952D01*
X172722990Y-43117952D02*
X172675371Y-43213190D01*
X172675371Y-43213190D02*
X172627752Y-43260809D01*
X172627752Y-43260809D02*
X172532514Y-43308428D01*
X172532514Y-43308428D02*
X172151562Y-43308428D01*
X173056324Y-42784619D02*
X173294419Y-43784619D01*
X173294419Y-43784619D02*
X173484895Y-43070333D01*
X173484895Y-43070333D02*
X173675371Y-43784619D01*
X173675371Y-43784619D02*
X173913467Y-42784619D01*
X174294419Y-43784619D02*
X174294419Y-42784619D01*
X174294419Y-42784619D02*
X174627752Y-43498904D01*
X174627752Y-43498904D02*
X174961085Y-42784619D01*
X174961085Y-42784619D02*
X174961085Y-43784619D01*
D14*
%TO.C,J11*%
X91810400Y-113800600D02*
X91810400Y-113956600D01*
X91810400Y-116116600D02*
X91810400Y-116272600D01*
X91810400Y-113801084D02*
G75*
G02*
X95041837Y-113956600I1560000J-1235516D01*
G01*
X92329439Y-113956600D02*
G75*
G02*
X94411361Y-113956600I1040961J-1080000D01*
G01*
X94411361Y-116116600D02*
G75*
G02*
X92329439Y-116116600I-1040961J1080000D01*
G01*
X95041837Y-116116600D02*
G75*
G02*
X91810400Y-116272116I-1671437J1080000D01*
G01*
%TO.C,C_Pol3*%
X92417200Y-94741599D02*
X92417200Y-93675601D01*
X92457200Y-94976600D02*
X92457200Y-93440600D01*
X92497200Y-95155600D02*
X92497200Y-93261600D01*
X92537200Y-95305600D02*
X92537200Y-93111600D01*
X92577200Y-95436601D02*
X92577200Y-92980599D01*
X92617200Y-95554600D02*
X92617200Y-92862600D01*
X92657200Y-95661600D02*
X92657200Y-92755600D01*
X92697200Y-95760600D02*
X92697200Y-92656600D01*
X92737200Y-95852600D02*
X92737200Y-92564600D01*
X92777200Y-95939600D02*
X92777200Y-92477600D01*
X92817200Y-96021600D02*
X92817200Y-92395600D01*
X92857200Y-96098600D02*
X92857200Y-92318600D01*
X92897200Y-96172600D02*
X92897200Y-92244600D01*
X92937200Y-96242600D02*
X92937200Y-92174600D01*
X92977200Y-96309600D02*
X92977200Y-92107600D01*
X93017200Y-96373600D02*
X93017200Y-92043600D01*
X93057200Y-96435600D02*
X93057200Y-91981600D01*
X93097200Y-96495600D02*
X93097200Y-91921600D01*
X93137200Y-96552600D02*
X93137200Y-91864600D01*
X93177200Y-96608600D02*
X93177200Y-91808600D01*
X93217200Y-96661600D02*
X93217200Y-91755600D01*
X93257200Y-96713600D02*
X93257200Y-91703600D01*
X93297200Y-96763600D02*
X93297200Y-91653600D01*
X93337200Y-96812600D02*
X93337200Y-91604600D01*
X93377200Y-96859600D02*
X93377200Y-91557600D01*
X93417200Y-96904600D02*
X93417200Y-91512600D01*
X93457200Y-96949600D02*
X93457200Y-91467600D01*
X93497200Y-96992600D02*
X93497200Y-91424600D01*
X93537200Y-97034600D02*
X93537200Y-91382600D01*
X93577200Y-97075600D02*
X93577200Y-91341600D01*
X93617200Y-97114600D02*
X93617200Y-91302600D01*
X93657199Y-97153600D02*
X93657199Y-91263600D01*
X93697201Y-97190600D02*
X93697201Y-91226600D01*
X93737199Y-93168600D02*
X93737200Y-91189600D01*
X93737200Y-97227600D02*
X93737199Y-95248600D01*
X93777200Y-93168600D02*
X93777200Y-91153600D01*
X93777200Y-97263600D02*
X93777200Y-95248600D01*
X93817200Y-93168600D02*
X93817200Y-91119600D01*
X93817200Y-97297600D02*
X93817200Y-95248600D01*
X93857200Y-93168600D02*
X93857200Y-91085600D01*
X93857200Y-97331600D02*
X93857200Y-95248600D01*
X93897200Y-93168599D02*
X93897201Y-91052600D01*
X93897201Y-97364600D02*
X93897200Y-95248601D01*
X93937200Y-93168600D02*
X93937200Y-91020600D01*
X93937200Y-97396600D02*
X93937200Y-95248600D01*
X93977200Y-93168600D02*
X93977200Y-90989600D01*
X93977200Y-97427600D02*
X93977200Y-95248600D01*
X94017200Y-93168600D02*
X94017200Y-90958600D01*
X94017200Y-97458600D02*
X94017200Y-95248600D01*
X94057200Y-97488600D02*
X94057201Y-95248600D01*
X94057201Y-93168600D02*
X94057200Y-90928600D01*
X94097200Y-93168600D02*
X94097200Y-90899600D01*
X94097200Y-97517600D02*
X94097200Y-95248600D01*
X94137200Y-93168600D02*
X94137200Y-90871600D01*
X94137200Y-97545600D02*
X94137200Y-95248600D01*
X94177199Y-93168600D02*
X94177200Y-90843600D01*
X94177200Y-97573600D02*
X94177199Y-95248600D01*
X94217200Y-93168600D02*
X94217200Y-90816600D01*
X94217200Y-97600600D02*
X94217200Y-95248600D01*
X94257200Y-93168600D02*
X94257200Y-90790600D01*
X94257200Y-97626600D02*
X94257200Y-95248600D01*
X94297200Y-93168600D02*
X94297200Y-90765600D01*
X94297200Y-97651600D02*
X94297200Y-95248600D01*
X94337200Y-93168599D02*
X94337200Y-90740600D01*
X94337200Y-97676600D02*
X94337200Y-95248601D01*
X94377200Y-93168600D02*
X94377200Y-90715600D01*
X94377200Y-97701600D02*
X94377200Y-95248600D01*
X94417200Y-93168600D02*
X94417200Y-90692601D01*
X94417200Y-97724599D02*
X94417200Y-95248600D01*
X94457200Y-93168600D02*
X94457200Y-90669600D01*
X94457200Y-97747600D02*
X94457200Y-95248600D01*
X94497200Y-97770600D02*
X94497201Y-95248600D01*
X94497201Y-93168600D02*
X94497200Y-90646600D01*
X94537200Y-93168600D02*
X94537200Y-90624600D01*
X94537200Y-97792600D02*
X94537200Y-95248600D01*
X94577200Y-93168600D02*
X94577200Y-90603600D01*
X94577200Y-97813600D02*
X94577200Y-95248600D01*
X94617199Y-93168600D02*
X94617200Y-90582600D01*
X94617200Y-97834600D02*
X94617199Y-95248600D01*
X94657200Y-93168600D02*
X94657200Y-90562600D01*
X94657200Y-97854600D02*
X94657200Y-95248600D01*
X94697199Y-97874600D02*
X94697200Y-95248600D01*
X94697200Y-93168600D02*
X94697199Y-90542600D01*
X94737200Y-93168600D02*
X94737200Y-90523600D01*
X94737200Y-97893600D02*
X94737200Y-95248600D01*
X94777200Y-93168599D02*
X94777200Y-90504600D01*
X94777200Y-97912600D02*
X94777200Y-95248601D01*
X94817200Y-93168600D02*
X94817200Y-90486600D01*
X94817200Y-97930600D02*
X94817200Y-95248600D01*
X94857200Y-93168600D02*
X94857200Y-90468601D01*
X94857200Y-97948599D02*
X94857200Y-95248600D01*
X94897200Y-93168600D02*
X94897200Y-90451600D01*
X94897200Y-97965600D02*
X94897200Y-95248600D01*
X94937200Y-97981599D02*
X94937201Y-95248600D01*
X94937201Y-93168600D02*
X94937200Y-90435601D01*
X94977200Y-93168600D02*
X94977200Y-90419600D01*
X94977200Y-97997600D02*
X94977200Y-95248600D01*
X95017200Y-93168600D02*
X95017200Y-90403600D01*
X95017200Y-98013600D02*
X95017200Y-95248600D01*
X95057199Y-93168600D02*
X95057199Y-90388600D01*
X95057199Y-98028600D02*
X95057199Y-95248600D01*
X95097200Y-98043600D02*
X95097201Y-95248600D01*
X95097201Y-93168600D02*
X95097200Y-90373600D01*
X95137200Y-93168600D02*
X95137200Y-90359600D01*
X95137200Y-98057600D02*
X95137200Y-95248600D01*
X95177200Y-93168600D02*
X95177200Y-90345600D01*
X95177200Y-98071600D02*
X95177200Y-95248600D01*
X95217200Y-93168599D02*
X95217200Y-90332601D01*
X95217200Y-98084599D02*
X95217200Y-95248601D01*
X95257200Y-93168600D02*
X95257200Y-90319600D01*
X95257200Y-98097600D02*
X95257200Y-95248600D01*
X95297200Y-93168600D02*
X95297200Y-90307599D01*
X95297200Y-98109601D02*
X95297200Y-95248600D01*
X95337200Y-93168600D02*
X95337200Y-90295600D01*
X95337200Y-98121600D02*
X95337200Y-95248600D01*
X95377200Y-93168599D02*
X95377200Y-90283599D01*
X95377200Y-98133601D02*
X95377200Y-95248601D01*
X95417200Y-93168600D02*
X95417200Y-90272600D01*
X95417200Y-98144600D02*
X95417200Y-95248600D01*
X95457200Y-93168600D02*
X95457201Y-90261600D01*
X95457201Y-98155600D02*
X95457200Y-95248600D01*
X95497200Y-93168600D02*
X95497200Y-90251600D01*
X95497200Y-98165600D02*
X95497200Y-95248600D01*
X95537200Y-98175600D02*
X95537201Y-95248600D01*
X95537201Y-93168600D02*
X95537200Y-90241600D01*
X95577199Y-98184600D02*
X95577200Y-95248600D01*
X95577200Y-93168600D02*
X95577199Y-90232600D01*
X95617200Y-93168600D02*
X95617200Y-90223600D01*
X95617200Y-98193600D02*
X95617200Y-95248600D01*
X95657199Y-93168600D02*
X95657200Y-90215600D01*
X95657200Y-98201600D02*
X95657199Y-95248600D01*
X95697200Y-93168600D02*
X95697200Y-90206600D01*
X95697200Y-98210600D02*
X95697200Y-95248600D01*
X95737200Y-93168600D02*
X95737200Y-90199600D01*
X95737200Y-98217600D02*
X95737200Y-95248600D01*
X95777200Y-93168600D02*
X95777200Y-90191600D01*
X95777200Y-98225600D02*
X95777200Y-95248600D01*
X95817200Y-98231600D02*
X95817200Y-90185600D01*
X95857200Y-98238600D02*
X95857200Y-90178600D01*
X95897200Y-98244600D02*
X95897200Y-90172600D01*
X95937200Y-98250600D02*
X95937200Y-90166600D01*
X95977200Y-98255601D02*
X95977200Y-90161599D01*
X96017200Y-98260600D02*
X96017200Y-90156600D01*
X96057200Y-98264600D02*
X96057200Y-90152600D01*
X96097200Y-98269600D02*
X96097200Y-90147600D01*
X96137200Y-98272600D02*
X96137200Y-90144600D01*
X96177200Y-98276599D02*
X96177200Y-90140601D01*
X96217200Y-98278600D02*
X96217200Y-90138600D01*
X96257200Y-98281599D02*
X96257200Y-90135601D01*
X96297200Y-98283600D02*
X96297200Y-90133600D01*
X96337200Y-98285600D02*
X96337200Y-90131600D01*
X96377200Y-98286600D02*
X96377200Y-90130600D01*
X96417200Y-98287600D02*
X96417200Y-90129600D01*
X96457200Y-98288600D02*
X96457200Y-90128600D01*
X96497200Y-98288600D02*
X96497200Y-90128600D01*
X100506898Y-96923600D02*
X100506898Y-96123600D01*
X100906898Y-96523600D02*
X100106898Y-96523600D01*
X100617200Y-94208600D02*
G75*
G02*
X92377200Y-94208600I-4120000J0D01*
G01*
X92377200Y-94208600D02*
G75*
G02*
X100617200Y-94208600I4120000J0D01*
G01*
%TO.C,TP8*%
X170195200Y-49037200D02*
X172095200Y-49037200D01*
X170195200Y-50937200D02*
X170195200Y-49037200D01*
X172095200Y-49037200D02*
X172095200Y-50937200D01*
X172095200Y-50937200D02*
X170195200Y-50937200D01*
%TO.C,TP3*%
X108117600Y-45227200D02*
X110017600Y-45227200D01*
X108117600Y-47127200D02*
X108117600Y-45227200D01*
X110017600Y-45227200D02*
X110017600Y-47127200D01*
X110017600Y-47127200D02*
X108117600Y-47127200D01*
%TO.C,C_Pol1*%
X179132599Y-106641200D02*
G75*
G02*
X174892601Y-106641200I-2119999J0D01*
G01*
X174892601Y-106641200D02*
G75*
G02*
X179132599Y-106641200I2119999J0D01*
G01*
%TO.C,C1*%
X172274599Y-95998600D02*
G75*
G02*
X168034601Y-95998600I-2119999J0D01*
G01*
X168034601Y-95998600D02*
G75*
G02*
X172274599Y-95998600I2119999J0D01*
G01*
D15*
%TO.C,G\u002A\u002A\u002A*%
G36*
X169052556Y-115958662D02*
G01*
X169052556Y-116194449D01*
X169597306Y-116194448D01*
X170142057Y-116194449D01*
X170142057Y-116243233D01*
X170142057Y-116292016D01*
X169597306Y-116292016D01*
X169052556Y-116292016D01*
X169052557Y-116527804D01*
X169052556Y-116763591D01*
X169011903Y-116763591D01*
X168971250Y-116763591D01*
X168971250Y-116243232D01*
X168971250Y-115722874D01*
X169011903Y-115722874D01*
X169052556Y-115722874D01*
X169052556Y-115958662D01*
G37*
G36*
X175992025Y-118670047D02*
G01*
X176703452Y-118674283D01*
X176708291Y-118731778D01*
X176708530Y-118773216D01*
X176702765Y-118799263D01*
X176701516Y-118800888D01*
X176683308Y-118803330D01*
X176635958Y-118805597D01*
X176562847Y-118807634D01*
X176467352Y-118809388D01*
X176352858Y-118810803D01*
X176222744Y-118811824D01*
X176080387Y-118812397D01*
X175985249Y-118812503D01*
X175280597Y-118812503D01*
X175280597Y-118739157D01*
X175280597Y-118665810D01*
X175992025Y-118670047D01*
G37*
G36*
X174711455Y-120210967D02*
G01*
X174711455Y-121576908D01*
X172776372Y-121576908D01*
X170841288Y-121576908D01*
X170841288Y-120242856D01*
X170841288Y-118908804D01*
X170983574Y-118913502D01*
X171125859Y-118918201D01*
X171130031Y-120101203D01*
X171134203Y-121284206D01*
X171882112Y-121284206D01*
X172630020Y-121284206D01*
X172630021Y-120154052D01*
X172630021Y-119023899D01*
X172768241Y-119023899D01*
X172906461Y-119023899D01*
X172906461Y-120154053D01*
X172906461Y-121284206D01*
X173662607Y-121284206D01*
X174418753Y-121284206D01*
X174418753Y-120064616D01*
X174418753Y-118845026D01*
X174565104Y-118845025D01*
X174711455Y-118845025D01*
X174711455Y-120210967D01*
G37*
G36*
X169052556Y-118910070D02*
G01*
X169052557Y-119284078D01*
X169263952Y-119284078D01*
X169475347Y-119284078D01*
X169475347Y-118925200D01*
X169475347Y-118566324D01*
X169511935Y-118571519D01*
X169523919Y-118573927D01*
X169533006Y-118580016D01*
X169539663Y-118593869D01*
X169544355Y-118619573D01*
X169547549Y-118661211D01*
X169549712Y-118722870D01*
X169551310Y-118808634D01*
X169552808Y-118922589D01*
X169552905Y-118930397D01*
X169557288Y-119284078D01*
X169809019Y-119284078D01*
X170060751Y-119284078D01*
X170060751Y-118910070D01*
X170060751Y-118536063D01*
X170101404Y-118536063D01*
X170142057Y-118536063D01*
X170142057Y-118958854D01*
X170142057Y-119381645D01*
X169556653Y-119381645D01*
X168971250Y-119381645D01*
X168971251Y-118958854D01*
X168971250Y-118536063D01*
X169011903Y-118536063D01*
X169052556Y-118536063D01*
X169052556Y-118910070D01*
G37*
G36*
X170142057Y-114770668D02*
G01*
X170142057Y-115202927D01*
X169560720Y-115198656D01*
X168979381Y-115194385D01*
X168979381Y-114771594D01*
X168979382Y-114348803D01*
X169015968Y-114343606D01*
X169052556Y-114338410D01*
X169052557Y-114713549D01*
X169052556Y-115088687D01*
X169263952Y-115088687D01*
X169475347Y-115088688D01*
X169475347Y-114737941D01*
X169475347Y-114387194D01*
X169511935Y-114392390D01*
X169524043Y-114394839D01*
X169533189Y-114401035D01*
X169539861Y-114415116D01*
X169544537Y-114441214D01*
X169547706Y-114483463D01*
X169549847Y-114545998D01*
X169551444Y-114632953D01*
X169552911Y-114743137D01*
X169557300Y-115088687D01*
X169808720Y-115088687D01*
X170060141Y-115088687D01*
X170064511Y-114718745D01*
X170065978Y-114600004D01*
X170067501Y-114509792D01*
X170069511Y-114444117D01*
X170072446Y-114398987D01*
X170076743Y-114370411D01*
X170082835Y-114354397D01*
X170091160Y-114346955D01*
X170102152Y-114344089D01*
X170105469Y-114343606D01*
X170142057Y-114338410D01*
X170142057Y-114770668D01*
G37*
G36*
X175361903Y-124918585D02*
G01*
X175361903Y-125365768D01*
X175622082Y-125365768D01*
X175882261Y-125365768D01*
X175882261Y-124942977D01*
X175882261Y-124520185D01*
X175931045Y-124520185D01*
X175979829Y-124520185D01*
X175979829Y-124942977D01*
X175979829Y-125365768D01*
X176296922Y-125365768D01*
X176614016Y-125365768D01*
X176614016Y-124918585D01*
X176614016Y-124471402D01*
X176662799Y-124471402D01*
X176711584Y-124471402D01*
X176711583Y-124972790D01*
X176711244Y-125097374D01*
X176710284Y-125211369D01*
X176708787Y-125310741D01*
X176706840Y-125391454D01*
X176704530Y-125449473D01*
X176701938Y-125480765D01*
X176700742Y-125485017D01*
X176682701Y-125487295D01*
X176635513Y-125489411D01*
X176562552Y-125491313D01*
X176467197Y-125492949D01*
X176352821Y-125494269D01*
X176222800Y-125495224D01*
X176080506Y-125495758D01*
X175985249Y-125495858D01*
X175280597Y-125495858D01*
X175280597Y-124983630D01*
X175280597Y-124471402D01*
X175321250Y-124471402D01*
X175361903Y-124471402D01*
X175361903Y-124918585D01*
G37*
G36*
X170141752Y-111360601D02*
G01*
X170141219Y-111376273D01*
X170138222Y-111391087D01*
X170130412Y-111407159D01*
X170115443Y-111426606D01*
X170090966Y-111451545D01*
X170054634Y-111484092D01*
X170004098Y-111526362D01*
X169937012Y-111580474D01*
X169851027Y-111648542D01*
X169743796Y-111732685D01*
X169631939Y-111820185D01*
X169122430Y-112218585D01*
X169632244Y-112222879D01*
X170142057Y-112227172D01*
X170142057Y-112284064D01*
X170142057Y-112340955D01*
X169560720Y-112336684D01*
X168979382Y-112332413D01*
X168974783Y-112275499D01*
X168974075Y-112260916D01*
X168976031Y-112247016D01*
X168982972Y-112231709D01*
X168997223Y-112212900D01*
X169021112Y-112188497D01*
X169056963Y-112156406D01*
X169107100Y-112114536D01*
X169173850Y-112060793D01*
X169259537Y-111993084D01*
X169366487Y-111909317D01*
X169480641Y-111820185D01*
X169991097Y-111421786D01*
X169485239Y-111413655D01*
X168979381Y-111405525D01*
X168979381Y-111356741D01*
X168979382Y-111307958D01*
X169560720Y-111303687D01*
X170142057Y-111299416D01*
X170141752Y-111360601D01*
G37*
G36*
X176711583Y-111446055D02*
G01*
X176712233Y-111459925D01*
X176712911Y-111471639D01*
X176711713Y-111482821D01*
X176706730Y-111495103D01*
X176696058Y-111510108D01*
X176677789Y-111529464D01*
X176650018Y-111554801D01*
X176610838Y-111587743D01*
X176558343Y-111629918D01*
X176490627Y-111682954D01*
X176405783Y-111748479D01*
X176301905Y-111828120D01*
X176177087Y-111923503D01*
X176029424Y-112036256D01*
X175941715Y-112103256D01*
X175440157Y-112486510D01*
X176071805Y-112490768D01*
X176703452Y-112495026D01*
X176708499Y-112556005D01*
X176713546Y-112616984D01*
X175997072Y-112616985D01*
X175280597Y-112616984D01*
X175281450Y-112539744D01*
X175282303Y-112462503D01*
X175906466Y-111990928D01*
X176031121Y-111896517D01*
X176147522Y-111807913D01*
X176253152Y-111727064D01*
X176345493Y-111655916D01*
X176422028Y-111596418D01*
X176480241Y-111550519D01*
X176517614Y-111520165D01*
X176531627Y-111507306D01*
X176531669Y-111507157D01*
X176516230Y-111504448D01*
X176471769Y-111501949D01*
X176401788Y-111499725D01*
X176309787Y-111497849D01*
X176199267Y-111496386D01*
X176073730Y-111495405D01*
X175936674Y-111494975D01*
X175906654Y-111494961D01*
X175280597Y-111494961D01*
X175280597Y-111438047D01*
X175280597Y-111381133D01*
X175996091Y-111381133D01*
X176711584Y-111381133D01*
X176711583Y-111446055D01*
G37*
G36*
X176647823Y-115002631D02*
G01*
X176672179Y-115085420D01*
X176692696Y-115190735D01*
X176708479Y-115308981D01*
X176718637Y-115430565D01*
X176722277Y-115545895D01*
X176718505Y-115645378D01*
X176712182Y-115694200D01*
X176668916Y-115856981D01*
X176603355Y-115997991D01*
X176516690Y-116115983D01*
X176410120Y-116209711D01*
X176284838Y-116277929D01*
X176142040Y-116319388D01*
X176107705Y-116324890D01*
X175946837Y-116332587D01*
X175797997Y-116310692D01*
X175663071Y-116260513D01*
X175543947Y-116183360D01*
X175442514Y-116080542D01*
X175360657Y-115953367D01*
X175300265Y-115803145D01*
X175287122Y-115755798D01*
X175276028Y-115703035D01*
X175269173Y-115645633D01*
X175266168Y-115576138D01*
X175266623Y-115487095D01*
X175268893Y-115406183D01*
X175274340Y-115283383D01*
X175281775Y-115189756D01*
X175291974Y-115121970D01*
X175305717Y-115076698D01*
X175323782Y-115050611D01*
X175346947Y-115040380D01*
X175354537Y-115039904D01*
X175374953Y-115040894D01*
X175387142Y-115047635D01*
X175391624Y-115065782D01*
X175388921Y-115100991D01*
X175379554Y-115158917D01*
X175370281Y-115210646D01*
X175348564Y-115393560D01*
X175351117Y-115563372D01*
X175377188Y-115717956D01*
X175426021Y-115855187D01*
X175496863Y-115972938D01*
X175588957Y-116069083D01*
X175700296Y-116140881D01*
X175742320Y-116160348D01*
X175779638Y-116173305D01*
X175820598Y-116181062D01*
X175873547Y-116184933D01*
X175946830Y-116186227D01*
X175989599Y-116186319D01*
X176073351Y-116185955D01*
X176133179Y-116183804D01*
X176177683Y-116178278D01*
X176215462Y-116167788D01*
X176255113Y-116150749D01*
X176297731Y-116129405D01*
X176412208Y-116053176D01*
X176504907Y-115953058D01*
X176574793Y-115830209D01*
X176583293Y-115809769D01*
X176599158Y-115765935D01*
X176609933Y-115723336D01*
X176616573Y-115674079D01*
X176620033Y-115610274D01*
X176621267Y-115524031D01*
X176621343Y-115495217D01*
X176619777Y-115401275D01*
X176615297Y-115311214D01*
X176608546Y-115234656D01*
X176600390Y-115182189D01*
X176579187Y-115088687D01*
X176279508Y-115088687D01*
X175979829Y-115088687D01*
X175979829Y-115405781D01*
X175979829Y-115722874D01*
X175930745Y-115722874D01*
X175881662Y-115722874D01*
X175886027Y-115344801D01*
X175890392Y-114966728D01*
X176260621Y-114962357D01*
X176630849Y-114957986D01*
X176647823Y-115002631D01*
G37*
G36*
X169944998Y-117208203D02*
G01*
X170022415Y-117247787D01*
X170081765Y-117314019D01*
X170123199Y-117407113D01*
X170146878Y-117527281D01*
X170152437Y-117606392D01*
X170152071Y-117711849D01*
X170144431Y-117807959D01*
X170134938Y-117863932D01*
X170115054Y-117941598D01*
X170095676Y-117991995D01*
X170073768Y-118020182D01*
X170046292Y-118031216D01*
X170034047Y-118031965D01*
X170004831Y-118027732D01*
X170001341Y-118011140D01*
X170004128Y-118003508D01*
X170043568Y-117887090D01*
X170068517Y-117765442D01*
X170078409Y-117646471D01*
X170072669Y-117538082D01*
X170050732Y-117448184D01*
X170045078Y-117434702D01*
X169998696Y-117366032D01*
X169936366Y-117321059D01*
X169864585Y-117301818D01*
X169789845Y-117310343D01*
X169734114Y-117337280D01*
X169681335Y-117385145D01*
X169636599Y-117453969D01*
X169597582Y-117547990D01*
X169571815Y-117633341D01*
X169549351Y-117707741D01*
X169523004Y-117781897D01*
X169498147Y-117840790D01*
X169496100Y-117844961D01*
X169442992Y-117935215D01*
X169386045Y-117996618D01*
X169320182Y-118032825D01*
X169240327Y-118047484D01*
X169213458Y-118048226D01*
X169160775Y-118045803D01*
X169124664Y-118034246D01*
X169090406Y-118007129D01*
X169068690Y-117985010D01*
X169017703Y-117915390D01*
X168989902Y-117847720D01*
X168978179Y-117774724D01*
X168972545Y-117680627D01*
X168972843Y-117576250D01*
X168978923Y-117472406D01*
X168990632Y-117379916D01*
X168996945Y-117348139D01*
X169011173Y-117289322D01*
X169023271Y-117255500D01*
X169037591Y-117239798D01*
X169058481Y-117235342D01*
X169068415Y-117235166D01*
X169114190Y-117235166D01*
X169080995Y-117336799D01*
X169061768Y-117411230D01*
X169050610Y-117496312D01*
X169046187Y-117602473D01*
X169046112Y-117609174D01*
X169046245Y-117690389D01*
X169049375Y-117747771D01*
X169056753Y-117789956D01*
X169069629Y-117825587D01*
X169080637Y-117847641D01*
X169127579Y-117906450D01*
X169187123Y-117938525D01*
X169252980Y-117943605D01*
X169318859Y-117921432D01*
X169378474Y-117871743D01*
X169387679Y-117860350D01*
X169409043Y-117823198D01*
X169435865Y-117763159D01*
X169464671Y-117688617D01*
X169491252Y-117610305D01*
X169536435Y-117478495D01*
X169580656Y-117375962D01*
X169626543Y-117299660D01*
X169676724Y-117246541D01*
X169733825Y-117213558D01*
X169800475Y-117197665D01*
X169849355Y-117195055D01*
X169944998Y-117208203D01*
G37*
G36*
X170137572Y-112841552D02*
G01*
X170141923Y-112874292D01*
X170142057Y-112882302D01*
X170141092Y-112904856D01*
X170135324Y-112923476D01*
X170120446Y-112941733D01*
X170092148Y-112963196D01*
X170046123Y-112991439D01*
X169978062Y-113030032D01*
X169934726Y-113054156D01*
X169832381Y-113111396D01*
X169754796Y-113157525D01*
X169698402Y-113197408D01*
X169659632Y-113235912D01*
X169634919Y-113277902D01*
X169620695Y-113328248D01*
X169613392Y-113391813D01*
X169609443Y-113473465D01*
X169608492Y-113499155D01*
X169601428Y-113690224D01*
X169871743Y-113690224D01*
X170142057Y-113690224D01*
X170142057Y-113747138D01*
X170142057Y-113804052D01*
X169565780Y-113804052D01*
X169056621Y-113804051D01*
X168989505Y-113804052D01*
X168978874Y-113733167D01*
X168974622Y-113682644D01*
X168972789Y-113609954D01*
X168973110Y-113522411D01*
X168973764Y-113494331D01*
X169036640Y-113494331D01*
X169039200Y-113575744D01*
X169046055Y-113637338D01*
X169046458Y-113639408D01*
X169056621Y-113690224D01*
X169287666Y-113690223D01*
X169371261Y-113689499D01*
X169442954Y-113687507D01*
X169496600Y-113684524D01*
X169526062Y-113680824D01*
X169529551Y-113679383D01*
X169535692Y-113656803D01*
X169538962Y-113609196D01*
X169539470Y-113543917D01*
X169537326Y-113468324D01*
X169532639Y-113389777D01*
X169525519Y-113315629D01*
X169523950Y-113303026D01*
X169498959Y-113179348D01*
X169459930Y-113084640D01*
X169406972Y-113019053D01*
X169340195Y-112982736D01*
X169282722Y-112974793D01*
X169207828Y-112989657D01*
X169145719Y-113034124D01*
X169096785Y-113107728D01*
X169061414Y-113210004D01*
X169052798Y-113249894D01*
X169043632Y-113319535D01*
X169038182Y-113404972D01*
X169036640Y-113494331D01*
X168973764Y-113494331D01*
X168975326Y-113427332D01*
X168979172Y-113332030D01*
X168984386Y-113243821D01*
X168990705Y-113170021D01*
X168997868Y-113117944D01*
X169001497Y-113102908D01*
X169040657Y-113017300D01*
X169096706Y-112941560D01*
X169138757Y-112903322D01*
X169201217Y-112875115D01*
X169277275Y-112866892D01*
X169355235Y-112878187D01*
X169423403Y-112908539D01*
X169432400Y-112914964D01*
X169498126Y-112983801D01*
X169545720Y-113072359D01*
X169564484Y-113138155D01*
X169575030Y-113194370D01*
X169652154Y-113121138D01*
X169689409Y-113091381D01*
X169748229Y-113050756D01*
X169821435Y-113003628D01*
X169901855Y-112954360D01*
X169982316Y-112907316D01*
X170055643Y-112866858D01*
X170114664Y-112837352D01*
X170128984Y-112831090D01*
X170137572Y-112841552D01*
G37*
G36*
X174711455Y-115301928D02*
G01*
X174711455Y-115505813D01*
X173980393Y-116171290D01*
X173249331Y-116836767D01*
X173248639Y-117361191D01*
X173247946Y-117885614D01*
X173979701Y-117885614D01*
X174711455Y-117885614D01*
X174711455Y-118040095D01*
X174711455Y-118194577D01*
X172775665Y-118194577D01*
X172045076Y-118194577D01*
X170839875Y-118194576D01*
X170841458Y-117885614D01*
X171115521Y-117885614D01*
X172045075Y-117885615D01*
X172974629Y-117885615D01*
X172966579Y-117101011D01*
X172964028Y-116892277D01*
X172960944Y-116709444D01*
X172957360Y-116553647D01*
X172953311Y-116426017D01*
X172948833Y-116327686D01*
X172943960Y-116259789D01*
X172939560Y-116226972D01*
X172906528Y-116117280D01*
X172855411Y-116002888D01*
X172792339Y-115895371D01*
X172723440Y-115806304D01*
X172708646Y-115790870D01*
X172619492Y-115717447D01*
X172511016Y-115651700D01*
X172396417Y-115600839D01*
X172318105Y-115577610D01*
X172132493Y-115550353D01*
X171955003Y-115552023D01*
X171788015Y-115581330D01*
X171633905Y-115636990D01*
X171495052Y-115717714D01*
X171373835Y-115822219D01*
X171272633Y-115949217D01*
X171193822Y-116097423D01*
X171155141Y-116206533D01*
X171148731Y-116232126D01*
X171143304Y-116263246D01*
X171138748Y-116302847D01*
X171134953Y-116353883D01*
X171131807Y-116419310D01*
X171129198Y-116502083D01*
X171127015Y-116605156D01*
X171125147Y-116731485D01*
X171123481Y-116884024D01*
X171121906Y-117065728D01*
X171121692Y-117092881D01*
X171115521Y-117885614D01*
X170841458Y-117885614D01*
X170844935Y-117206709D01*
X170849994Y-116218841D01*
X170895255Y-116072490D01*
X170969303Y-115884519D01*
X171067874Y-115716824D01*
X171188959Y-115570875D01*
X171330547Y-115448145D01*
X171490630Y-115350098D01*
X171667194Y-115278209D01*
X171858234Y-115233945D01*
X172061739Y-115218777D01*
X172062627Y-115218777D01*
X172244055Y-115229775D01*
X172410750Y-115264249D01*
X172572596Y-115324423D01*
X172609344Y-115341726D01*
X172769516Y-115437241D01*
X172907520Y-115555950D01*
X173022468Y-115696460D01*
X173113480Y-115857378D01*
X173179676Y-116037317D01*
X173220174Y-116234880D01*
X173229106Y-116320146D01*
X173239817Y-116458458D01*
X173898395Y-115853045D01*
X174024497Y-115737054D01*
X174145503Y-115625619D01*
X174258899Y-115521064D01*
X174362171Y-115425714D01*
X174452802Y-115341892D01*
X174528282Y-115271924D01*
X174586094Y-115218133D01*
X174623723Y-115182845D01*
X174634214Y-115172836D01*
X174711455Y-115098041D01*
X174711455Y-115301928D01*
G37*
G36*
X176483256Y-121214045D02*
G01*
X176564073Y-121260056D01*
X176578816Y-121272786D01*
X176637554Y-121347949D01*
X176681920Y-121447943D01*
X176710934Y-121567959D01*
X176723614Y-121703191D01*
X176718982Y-121848831D01*
X176710592Y-121919196D01*
X176696532Y-121988346D01*
X176675422Y-122064543D01*
X176662623Y-122102135D01*
X176642128Y-122153500D01*
X176625064Y-122181263D01*
X176604464Y-122192636D01*
X176573363Y-122194833D01*
X176573094Y-122194834D01*
X176518248Y-122194834D01*
X176557054Y-122109462D01*
X176594459Y-122003166D01*
X176618218Y-121884197D01*
X176628053Y-121761151D01*
X176623685Y-121642623D01*
X176604835Y-121537208D01*
X176577909Y-121465667D01*
X176523177Y-121388873D01*
X176452833Y-121340564D01*
X176367248Y-121320958D01*
X176326552Y-121321352D01*
X176257351Y-121333155D01*
X176198390Y-121360000D01*
X176147144Y-121405087D01*
X176101086Y-121471610D01*
X176057691Y-121562768D01*
X176014432Y-121681756D01*
X175996090Y-121739520D01*
X175945042Y-121887465D01*
X175891491Y-122005007D01*
X175833586Y-122094259D01*
X175769477Y-122157333D01*
X175697313Y-122196342D01*
X175615243Y-122213399D01*
X175579963Y-122214555D01*
X175491622Y-122204255D01*
X175420849Y-122172941D01*
X175363570Y-122117337D01*
X175315712Y-122034169D01*
X175295891Y-121986153D01*
X175281836Y-121945611D01*
X175272540Y-121907122D01*
X175267371Y-121863246D01*
X175265702Y-121806537D01*
X175266904Y-121729555D01*
X175268886Y-121666344D01*
X175275222Y-121542786D01*
X175285144Y-121446122D01*
X175299308Y-121370851D01*
X175307674Y-121341120D01*
X175325958Y-121287515D01*
X175341856Y-121257615D01*
X175361706Y-121243791D01*
X175391846Y-121238419D01*
X175393128Y-121238293D01*
X175429293Y-121237446D01*
X175440383Y-121246820D01*
X175437584Y-121259149D01*
X175395095Y-121382822D01*
X175368928Y-121494771D01*
X175356310Y-121609600D01*
X175354053Y-121698867D01*
X175355204Y-121785155D01*
X175359377Y-121847716D01*
X175367775Y-121895294D01*
X175381594Y-121936632D01*
X175389015Y-121953609D01*
X175433848Y-122025899D01*
X175490686Y-122069481D01*
X175563917Y-122087261D01*
X175591665Y-122087976D01*
X175663987Y-122076209D01*
X175727107Y-122041841D01*
X175782710Y-121982742D01*
X175832481Y-121896785D01*
X175878105Y-121781843D01*
X175906291Y-121690736D01*
X175954573Y-121541215D01*
X176006458Y-121421609D01*
X176063517Y-121329378D01*
X176127323Y-121261975D01*
X176199215Y-121216966D01*
X176291244Y-121191093D01*
X176389118Y-121190588D01*
X176483256Y-121214045D01*
G37*
G36*
X176083453Y-127746095D02*
G01*
X176235808Y-127773283D01*
X176367546Y-127825573D01*
X176478839Y-127903081D01*
X176569853Y-128005921D01*
X176640757Y-128134207D01*
X176687430Y-128271190D01*
X176700445Y-128340480D01*
X176710567Y-128432996D01*
X176717414Y-128539538D01*
X176720607Y-128650907D01*
X176719764Y-128757902D01*
X176714505Y-128851326D01*
X176712307Y-128872795D01*
X176704243Y-128932712D01*
X176695684Y-128980460D01*
X176688403Y-129006261D01*
X176688012Y-129006950D01*
X176671613Y-129011791D01*
X176628286Y-129015815D01*
X176557091Y-129019048D01*
X176457089Y-129021514D01*
X176327338Y-129023235D01*
X176166898Y-129024235D01*
X175986489Y-129024539D01*
X175818066Y-129024465D01*
X175679257Y-129024164D01*
X175611263Y-129023773D01*
X175567153Y-129023519D01*
X175478848Y-129022412D01*
X175411429Y-129020724D01*
X175361990Y-129018338D01*
X175327624Y-129015137D01*
X175305420Y-129011002D01*
X175292472Y-129005815D01*
X175285870Y-128999459D01*
X175284152Y-128996081D01*
X175280567Y-128971604D01*
X175277427Y-128920058D01*
X175274912Y-128846894D01*
X175273203Y-128757564D01*
X175272479Y-128657522D01*
X175272466Y-128642401D01*
X175272560Y-128609878D01*
X175353945Y-128609878D01*
X175354694Y-128694762D01*
X175356868Y-128769587D01*
X175360158Y-128827519D01*
X175364255Y-128861723D01*
X175365533Y-128866187D01*
X175370304Y-128873541D01*
X175380028Y-128879479D01*
X175397800Y-128884120D01*
X175426716Y-128887587D01*
X175469868Y-128890000D01*
X175530352Y-128891478D01*
X175611263Y-128892144D01*
X175715694Y-128892117D01*
X175846741Y-128891518D01*
X175991433Y-128890580D01*
X176605573Y-128886319D01*
X176617079Y-128837535D01*
X176623080Y-128789207D01*
X176625496Y-128717020D01*
X176624712Y-128629387D01*
X176621115Y-128534728D01*
X176615091Y-128441458D01*
X176607026Y-128357997D01*
X176597306Y-128292761D01*
X176590862Y-128265938D01*
X176540409Y-128150859D01*
X176467004Y-128049758D01*
X176375908Y-127968149D01*
X176272382Y-127911545D01*
X176242891Y-127901236D01*
X176175124Y-127887039D01*
X176086525Y-127877672D01*
X175988467Y-127873487D01*
X175892334Y-127874836D01*
X175809502Y-127882071D01*
X175781409Y-127886952D01*
X175661273Y-127928101D01*
X175558655Y-127996164D01*
X175474900Y-128089831D01*
X175411362Y-128207796D01*
X175390673Y-128265409D01*
X175375051Y-128320809D01*
X175364479Y-128374795D01*
X175358045Y-128435915D01*
X175354836Y-128512717D01*
X175353945Y-128609878D01*
X175272560Y-128609878D01*
X175272797Y-128527844D01*
X175274116Y-128439871D01*
X175276914Y-128372542D01*
X175281679Y-128319924D01*
X175288902Y-128276080D01*
X175299072Y-128235072D01*
X175308693Y-128203348D01*
X175367148Y-128062651D01*
X175444920Y-127948004D01*
X175542508Y-127859020D01*
X175660415Y-127795319D01*
X175799138Y-127756523D01*
X175910317Y-127743896D01*
X176083453Y-127746095D01*
G37*
G36*
X168999229Y-119882010D02*
G01*
X169040953Y-119890291D01*
X169097584Y-119905121D01*
X169114601Y-119910094D01*
X169185016Y-119931000D01*
X169273150Y-119956986D01*
X169365486Y-119984072D01*
X169418433Y-119999533D01*
X169511676Y-120026743D01*
X169613861Y-120056633D01*
X169709141Y-120084564D01*
X169751788Y-120097096D01*
X169835874Y-120121833D01*
X169924821Y-120148000D01*
X170003163Y-120171046D01*
X170024163Y-120177222D01*
X170142057Y-120211903D01*
X170142057Y-120282693D01*
X170142057Y-120353484D01*
X170007902Y-120394541D01*
X169933437Y-120417246D01*
X169841640Y-120445102D01*
X169738057Y-120476441D01*
X169628235Y-120509592D01*
X169517721Y-120542886D01*
X169412061Y-120574654D01*
X169316802Y-120603224D01*
X169237491Y-120626928D01*
X169179674Y-120644095D01*
X169154084Y-120651582D01*
X169114589Y-120665195D01*
X169094250Y-120676750D01*
X169093698Y-120680320D01*
X169110843Y-120686968D01*
X169155439Y-120701771D01*
X169223777Y-120723564D01*
X169312148Y-120751187D01*
X169416845Y-120783477D01*
X169534157Y-120819272D01*
X169618226Y-120844715D01*
X170133926Y-121000280D01*
X170138731Y-121073485D01*
X170143535Y-121146689D01*
X169756592Y-121258603D01*
X169639653Y-121292506D01*
X169524001Y-121326182D01*
X169416245Y-121357696D01*
X169322996Y-121385114D01*
X169250862Y-121406497D01*
X169223299Y-121414769D01*
X169151909Y-121435861D01*
X169086097Y-121454441D01*
X169036408Y-121467564D01*
X169022953Y-121470724D01*
X168986668Y-121476777D01*
X168973143Y-121467778D01*
X168973436Y-121435927D01*
X168974169Y-121428167D01*
X168979381Y-121373905D01*
X169361519Y-121267121D01*
X169477659Y-121234691D01*
X169592274Y-121202727D01*
X169698741Y-121173073D01*
X169790434Y-121147575D01*
X169860728Y-121128077D01*
X169885674Y-121121184D01*
X169946464Y-121102953D01*
X169991513Y-121086587D01*
X170014556Y-121074517D01*
X170015763Y-121070744D01*
X169997574Y-121063243D01*
X169952399Y-121047867D01*
X169884445Y-121025952D01*
X169797919Y-120998832D01*
X169697025Y-120967843D01*
X169589176Y-120935283D01*
X169433995Y-120888883D01*
X169307076Y-120850880D01*
X169205597Y-120820118D01*
X169126736Y-120795436D01*
X169067665Y-120775677D01*
X169025566Y-120759682D01*
X168997610Y-120746294D01*
X168980978Y-120734354D01*
X168972844Y-120722703D01*
X168970386Y-120710184D01*
X168970779Y-120695638D01*
X168971250Y-120681788D01*
X168978312Y-120629719D01*
X168999707Y-120603467D01*
X169022520Y-120594806D01*
X169072025Y-120578277D01*
X169143749Y-120555293D01*
X169233215Y-120527274D01*
X169335950Y-120495638D01*
X169434694Y-120465655D01*
X169588036Y-120419345D01*
X169712932Y-120381448D01*
X169812094Y-120351055D01*
X169888232Y-120327248D01*
X169944056Y-120309113D01*
X169982277Y-120295736D01*
X170005605Y-120286204D01*
X170016751Y-120279602D01*
X170018425Y-120275017D01*
X170013338Y-120271533D01*
X170011967Y-120270973D01*
X169990667Y-120264385D01*
X169942066Y-120250313D01*
X169870222Y-120229899D01*
X169779188Y-120204288D01*
X169673024Y-120174625D01*
X169555785Y-120142053D01*
X169507870Y-120128791D01*
X169387134Y-120095178D01*
X169275682Y-120063706D01*
X169177617Y-120035576D01*
X169097042Y-120011975D01*
X169038063Y-119994099D01*
X169004782Y-119983141D01*
X168999707Y-119981028D01*
X168979282Y-119955726D01*
X168970626Y-119918247D01*
X168977141Y-119886098D01*
X168980446Y-119881967D01*
X168999229Y-119882010D01*
G37*
G36*
X173014938Y-111113158D02*
G01*
X173152396Y-111128295D01*
X173284747Y-111153609D01*
X173420891Y-111190233D01*
X173484968Y-111210446D01*
X173722504Y-111303817D01*
X173938258Y-111420883D01*
X174131481Y-111560865D01*
X174301431Y-111722980D01*
X174447361Y-111906446D01*
X174568524Y-112110483D01*
X174664177Y-112334304D01*
X174715114Y-112500641D01*
X174732914Y-112571352D01*
X174746045Y-112632001D01*
X174755341Y-112690159D01*
X174761635Y-112753394D01*
X174765759Y-112829277D01*
X174768550Y-112925379D01*
X174769987Y-112999123D01*
X174771065Y-113150659D01*
X174768340Y-113272207D01*
X174761724Y-113366088D01*
X174753745Y-113421914D01*
X174694499Y-113667498D01*
X174614292Y-113889688D01*
X174511880Y-114090950D01*
X174386021Y-114273750D01*
X174246143Y-114430044D01*
X174064303Y-114587886D01*
X173861693Y-114721310D01*
X173639907Y-114829512D01*
X173400539Y-114911689D01*
X173200377Y-114957620D01*
X173037432Y-114983676D01*
X172892465Y-114997934D01*
X172874730Y-114998329D01*
X172753401Y-115001029D01*
X172608165Y-114993599D01*
X172574198Y-114990615D01*
X172308771Y-114951749D01*
X172060823Y-114886985D01*
X171831461Y-114797308D01*
X171621793Y-114683701D01*
X171432922Y-114547153D01*
X171265956Y-114388645D01*
X171122000Y-114209163D01*
X171002161Y-114009691D01*
X170907544Y-113791217D01*
X170839257Y-113554721D01*
X170814357Y-113423919D01*
X170802280Y-113316239D01*
X170795753Y-113187628D01*
X170794535Y-113046897D01*
X170797031Y-112953524D01*
X171074390Y-112953524D01*
X171075669Y-113197387D01*
X171104913Y-113428342D01*
X171161292Y-113644900D01*
X171243975Y-113845574D01*
X171352131Y-114028876D01*
X171484931Y-114193320D01*
X171641544Y-114337417D01*
X171821139Y-114459680D01*
X171953671Y-114528529D01*
X172169070Y-114610733D01*
X172397672Y-114665890D01*
X172634539Y-114693942D01*
X172874730Y-114694834D01*
X173113305Y-114668508D01*
X173345326Y-114614908D01*
X173536555Y-114546660D01*
X173700006Y-114464225D01*
X173859403Y-114358486D01*
X174008324Y-114235017D01*
X174140352Y-114099388D01*
X174249064Y-113957171D01*
X174287011Y-113895436D01*
X174378539Y-113702566D01*
X174444718Y-113493112D01*
X174484755Y-113271817D01*
X174497856Y-113043420D01*
X174483229Y-112812663D01*
X174476407Y-112763335D01*
X174427154Y-112534805D01*
X174351694Y-112325519D01*
X174249969Y-112135395D01*
X174121917Y-111964354D01*
X173967479Y-111812314D01*
X173786595Y-111679196D01*
X173584883Y-111567626D01*
X173421920Y-111498721D01*
X173259072Y-111449756D01*
X173086686Y-111418481D01*
X172895112Y-111402645D01*
X172873939Y-111401801D01*
X172755075Y-111399678D01*
X172640612Y-111401628D01*
X172541398Y-111407355D01*
X172495365Y-111412254D01*
X172265263Y-111457486D01*
X172048743Y-111529369D01*
X171848224Y-111626460D01*
X171666122Y-111747317D01*
X171504857Y-111890499D01*
X171366847Y-112054564D01*
X171331149Y-112106407D01*
X171234456Y-112275443D01*
X171161606Y-112453521D01*
X171111026Y-112645824D01*
X171081147Y-112857535D01*
X171074390Y-112953524D01*
X170797031Y-112953524D01*
X170798385Y-112902855D01*
X170807061Y-112764312D01*
X170820322Y-112640077D01*
X170837927Y-112538960D01*
X170838682Y-112535678D01*
X170905142Y-112307204D01*
X170994089Y-112100156D01*
X171107589Y-111910646D01*
X171247711Y-111734788D01*
X171287297Y-111692340D01*
X171441171Y-111546839D01*
X171601755Y-111425544D01*
X171774914Y-111325104D01*
X171966514Y-111242168D01*
X172182422Y-111173384D01*
X172207229Y-111166717D01*
X172280615Y-111148151D01*
X172344760Y-111134489D01*
X172407788Y-111124754D01*
X172477820Y-111117976D01*
X172562978Y-111113176D01*
X172671386Y-111109379D01*
X172689095Y-111108866D01*
X172863471Y-111107061D01*
X173014938Y-111113158D01*
G37*
G36*
X171864936Y-122341184D02*
G01*
X172233174Y-122341226D01*
X172570102Y-122341356D01*
X172876934Y-122341584D01*
X173154882Y-122341918D01*
X173405159Y-122342368D01*
X173628978Y-122342941D01*
X173827551Y-122343646D01*
X174002092Y-122344493D01*
X174153814Y-122345489D01*
X174283928Y-122346644D01*
X174393649Y-122347967D01*
X174484189Y-122349465D01*
X174556761Y-122351148D01*
X174612576Y-122353025D01*
X174652850Y-122355103D01*
X174678793Y-122357393D01*
X174691620Y-122359902D01*
X174693525Y-122361511D01*
X174686611Y-122379121D01*
X174667079Y-122424000D01*
X174635953Y-122493897D01*
X174594258Y-122586555D01*
X174543016Y-122699722D01*
X174483251Y-122831145D01*
X174415988Y-122978569D01*
X174342248Y-123139741D01*
X174263057Y-123312408D01*
X174179438Y-123494315D01*
X174144710Y-123569749D01*
X174059196Y-123755414D01*
X173977318Y-123933196D01*
X173900139Y-124100785D01*
X173828723Y-124255874D01*
X173764131Y-124396153D01*
X173707428Y-124519314D01*
X173659676Y-124623047D01*
X173621938Y-124705044D01*
X173595277Y-124762997D01*
X173580757Y-124794594D01*
X173578645Y-124799208D01*
X173574579Y-124810978D01*
X173574527Y-124824161D01*
X173580454Y-124841285D01*
X173594316Y-124864889D01*
X173618075Y-124897498D01*
X173653691Y-124941646D01*
X173703123Y-124999867D01*
X173768331Y-125074691D01*
X173851275Y-125168650D01*
X173953915Y-125284276D01*
X173955626Y-125286200D01*
X174045408Y-125387814D01*
X174127460Y-125481831D01*
X174199460Y-125565502D01*
X174259086Y-125636077D01*
X174304016Y-125690806D01*
X174331926Y-125726939D01*
X174340496Y-125741729D01*
X174340421Y-125741823D01*
X174321759Y-125748446D01*
X174276464Y-125760789D01*
X174209667Y-125777565D01*
X174126493Y-125797487D01*
X174032072Y-125819271D01*
X174028485Y-125820083D01*
X173843953Y-125861980D01*
X173688727Y-125897510D01*
X173563255Y-125926571D01*
X173467989Y-125949054D01*
X173403379Y-125964855D01*
X173369874Y-125973867D01*
X173364976Y-125975751D01*
X173366819Y-125992115D01*
X173374216Y-126036860D01*
X173386525Y-126106440D01*
X173403095Y-126197311D01*
X173423281Y-126305926D01*
X173446435Y-126428742D01*
X173471911Y-126562213D01*
X173473659Y-126571318D01*
X173501029Y-126713981D01*
X173533180Y-126881933D01*
X173568842Y-127068506D01*
X173606741Y-127267035D01*
X173645606Y-127470854D01*
X173684165Y-127673295D01*
X173721143Y-127867693D01*
X173743207Y-127983822D01*
X173773844Y-128144896D01*
X173803036Y-128297875D01*
X173830148Y-128439474D01*
X173854549Y-128566407D01*
X173875605Y-128675386D01*
X173892681Y-128763126D01*
X173905144Y-128826339D01*
X173912361Y-128861740D01*
X173913302Y-128865991D01*
X173919888Y-128904534D01*
X173918833Y-128925315D01*
X173916992Y-128926512D01*
X173905582Y-128913734D01*
X173876742Y-128877219D01*
X173832322Y-128819419D01*
X173774174Y-128742786D01*
X173704148Y-128649774D01*
X173624095Y-128542835D01*
X173535867Y-128424421D01*
X173441314Y-128296987D01*
X173410789Y-128255737D01*
X173304934Y-128112627D01*
X173197012Y-127966763D01*
X173090133Y-127822345D01*
X172987406Y-127683574D01*
X172891942Y-127554651D01*
X172806850Y-127439776D01*
X172735240Y-127343150D01*
X172685778Y-127276459D01*
X172638698Y-127212996D01*
X172574342Y-127126220D01*
X172494797Y-127018944D01*
X172402151Y-126893987D01*
X172298492Y-126754161D01*
X172185905Y-126602282D01*
X172066480Y-126441167D01*
X171942303Y-126273632D01*
X171815460Y-126102492D01*
X171688040Y-125930563D01*
X171685236Y-125926780D01*
X171552333Y-125747455D01*
X171415862Y-125563332D01*
X171278435Y-125377936D01*
X171142669Y-125194795D01*
X171011178Y-125017433D01*
X170886576Y-124849380D01*
X170771478Y-124694160D01*
X170668498Y-124555301D01*
X170580252Y-124436328D01*
X170523947Y-124360435D01*
X170432548Y-124237224D01*
X170341879Y-124114940D01*
X170255004Y-123997717D01*
X170174986Y-123889690D01*
X170104887Y-123794992D01*
X170047768Y-123717759D01*
X170006693Y-123662125D01*
X170003836Y-123658248D01*
X169965038Y-123605686D01*
X169909808Y-123531000D01*
X169841102Y-123438178D01*
X169761873Y-123331209D01*
X169675076Y-123214081D01*
X169583666Y-123090783D01*
X169490597Y-122965305D01*
X169467217Y-122933793D01*
X169379921Y-122816028D01*
X169298435Y-122705887D01*
X169224854Y-122606214D01*
X169161269Y-122519854D01*
X169109773Y-122449653D01*
X169072463Y-122398455D01*
X169051427Y-122369105D01*
X169047682Y-122363540D01*
X169049831Y-122360683D01*
X169060628Y-122358073D01*
X169081397Y-122355699D01*
X169113461Y-122353549D01*
X169158143Y-122351615D01*
X169216768Y-122349885D01*
X169290658Y-122348348D01*
X169381138Y-122346994D01*
X169489529Y-122345813D01*
X169617155Y-122344793D01*
X169765341Y-122343926D01*
X169935408Y-122343200D01*
X170128682Y-122342604D01*
X170346484Y-122342128D01*
X170590138Y-122341762D01*
X170860968Y-122341495D01*
X171160297Y-122341317D01*
X171489448Y-122341217D01*
X171849745Y-122341183D01*
X171864936Y-122341184D01*
G37*
D14*
%TO.C,J7*%
X92470800Y-104351800D02*
X92470800Y-104507800D01*
X92470800Y-106667800D02*
X92470800Y-106823800D01*
X92470800Y-104352284D02*
G75*
G02*
X95702237Y-104507800I1560000J-1235516D01*
G01*
X92989839Y-104507800D02*
G75*
G02*
X95071761Y-104507800I1040961J-1080000D01*
G01*
X95071761Y-106667800D02*
G75*
G02*
X92989839Y-106667800I-1040961J1080000D01*
G01*
X95702237Y-106667800D02*
G75*
G02*
X92470800Y-106823316I-1671437J1080000D01*
G01*
%TO.C,TP7*%
X108117600Y-49138800D02*
X110017600Y-49138800D01*
X108117600Y-51038800D02*
X108117600Y-49138800D01*
X110017600Y-49138800D02*
X110017600Y-51038800D01*
X110017600Y-51038800D02*
X108117600Y-51038800D01*
%TO.C,PWR1*%
X160209400Y-105986400D02*
X160209400Y-100566400D01*
X168929400Y-100566400D02*
X160209400Y-100566400D01*
X168929400Y-105986400D02*
X160209400Y-105986400D01*
X170629400Y-101866400D02*
X168929400Y-100566400D01*
X170629400Y-104686400D02*
X168929400Y-105986400D01*
X170629400Y-104686400D02*
X170629400Y-101866400D01*
%TO.C,TP5*%
X108041400Y-52644000D02*
X109941400Y-52644000D01*
X108041400Y-54544000D02*
X108041400Y-52644000D01*
X109941400Y-52644000D02*
X109941400Y-54544000D01*
X109941400Y-54544000D02*
X108041400Y-54544000D01*
%TO.C,TP4*%
X170246000Y-44465200D02*
X172146000Y-44465200D01*
X170246000Y-46365200D02*
X170246000Y-44465200D01*
X172146000Y-44465200D02*
X172146000Y-46365200D01*
X172146000Y-46365200D02*
X170246000Y-46365200D01*
%TO.C,J9*%
X169789800Y-85344000D02*
X169789800Y-93024000D01*
X169789800Y-85344000D02*
X172449800Y-85344000D01*
X169789800Y-93024000D02*
X172449800Y-93024000D01*
X171119800Y-82744000D02*
X172449800Y-82744000D01*
X172449800Y-82744000D02*
X172449800Y-84074000D01*
X172449800Y-85344000D02*
X172449800Y-93024000D01*
%TO.C,TP2*%
X108117600Y-41163200D02*
X110017600Y-41163200D01*
X108117600Y-43063200D02*
X108117600Y-41163200D01*
X110017600Y-41163200D02*
X110017600Y-43063200D01*
X110017600Y-43063200D02*
X108117600Y-43063200D01*
%TO.C,C_Pol2*%
X107098902Y-96237000D02*
X107898902Y-96237000D01*
X107498902Y-95837000D02*
X107498902Y-96637000D01*
X111508600Y-94472000D02*
X111508600Y-102632000D01*
X111548600Y-94472000D02*
X111548600Y-102632000D01*
X111588600Y-94473000D02*
X111588600Y-102631000D01*
X111628600Y-94474000D02*
X111628600Y-102630000D01*
X111668600Y-94475000D02*
X111668600Y-102629000D01*
X111708600Y-94477000D02*
X111708600Y-102627000D01*
X111748600Y-94479000D02*
X111748600Y-102625000D01*
X111788600Y-94482000D02*
X111788600Y-102622000D01*
X111828600Y-94484000D02*
X111828600Y-102620000D01*
X111868600Y-94488000D02*
X111868600Y-102616000D01*
X111908600Y-94491000D02*
X111908600Y-102613000D01*
X111948600Y-94496000D02*
X111948600Y-102608000D01*
X111988600Y-94500000D02*
X111988600Y-102604000D01*
X112028600Y-94505000D02*
X112028600Y-102599000D01*
X112068600Y-94510000D02*
X112068600Y-102594000D01*
X112108600Y-94516000D02*
X112108600Y-102588000D01*
X112148600Y-94522000D02*
X112148600Y-102582000D01*
X112188600Y-94529000D02*
X112188600Y-102575000D01*
X112228600Y-94535000D02*
X112228600Y-97512000D01*
X112228600Y-99592000D02*
X112228600Y-102569000D01*
X112268600Y-94543000D02*
X112268600Y-97512000D01*
X112268600Y-99592000D02*
X112268600Y-102561000D01*
X112308600Y-94550000D02*
X112308600Y-97512000D01*
X112308600Y-99592000D02*
X112308600Y-102554000D01*
X112348600Y-94559000D02*
X112348600Y-97512000D01*
X112348600Y-99592000D02*
X112348600Y-102545000D01*
X112388600Y-94567000D02*
X112388600Y-97512000D01*
X112388600Y-99592000D02*
X112388600Y-102537000D01*
X112428600Y-94576000D02*
X112428600Y-97512000D01*
X112428600Y-99592000D02*
X112428600Y-102528000D01*
X112468600Y-94585000D02*
X112468600Y-97512000D01*
X112468600Y-99592000D02*
X112468600Y-102519000D01*
X112508600Y-94595000D02*
X112508600Y-97512000D01*
X112508600Y-99592000D02*
X112508600Y-102509000D01*
X112548600Y-94605000D02*
X112548600Y-97512000D01*
X112548600Y-99592000D02*
X112548600Y-102499000D01*
X112588600Y-94616000D02*
X112588600Y-97512000D01*
X112588600Y-99592000D02*
X112588600Y-102488000D01*
X112628600Y-94627000D02*
X112628600Y-97512000D01*
X112628600Y-99592000D02*
X112628600Y-102477000D01*
X112668600Y-94639000D02*
X112668600Y-97512000D01*
X112668600Y-99592000D02*
X112668600Y-102465000D01*
X112708600Y-94651000D02*
X112708600Y-97512000D01*
X112708600Y-99592000D02*
X112708600Y-102453000D01*
X112748600Y-94663000D02*
X112748600Y-97512000D01*
X112748600Y-99592000D02*
X112748600Y-102441000D01*
X112788600Y-94676000D02*
X112788600Y-97512000D01*
X112788600Y-99592000D02*
X112788600Y-102428000D01*
X112828600Y-94689000D02*
X112828600Y-97512000D01*
X112828600Y-99592000D02*
X112828600Y-102415000D01*
X112868600Y-94703000D02*
X112868600Y-97512000D01*
X112868600Y-99592000D02*
X112868600Y-102401000D01*
X112908600Y-94717000D02*
X112908600Y-97512000D01*
X112908600Y-99592000D02*
X112908600Y-102387000D01*
X112948600Y-94732000D02*
X112948600Y-97512000D01*
X112948600Y-99592000D02*
X112948600Y-102372000D01*
X112988600Y-94747000D02*
X112988600Y-97512000D01*
X112988600Y-99592000D02*
X112988600Y-102357000D01*
X113028600Y-94763000D02*
X113028600Y-97512000D01*
X113028600Y-99592000D02*
X113028600Y-102341000D01*
X113068600Y-94779000D02*
X113068600Y-97512000D01*
X113068600Y-99592000D02*
X113068600Y-102325000D01*
X113108600Y-94795000D02*
X113108600Y-97512000D01*
X113108600Y-99592000D02*
X113108600Y-102309000D01*
X113148600Y-94812000D02*
X113148600Y-97512000D01*
X113148600Y-99592000D02*
X113148600Y-102292000D01*
X113188600Y-94830000D02*
X113188600Y-97512000D01*
X113188600Y-99592000D02*
X113188600Y-102274000D01*
X113228600Y-94848000D02*
X113228600Y-97512000D01*
X113228600Y-99592000D02*
X113228600Y-102256000D01*
X113268600Y-94867000D02*
X113268600Y-97512000D01*
X113268600Y-99592000D02*
X113268600Y-102237000D01*
X113308600Y-94886000D02*
X113308600Y-97512000D01*
X113308600Y-99592000D02*
X113308600Y-102218000D01*
X113348600Y-94906000D02*
X113348600Y-97512000D01*
X113348600Y-99592000D02*
X113348600Y-102198000D01*
X113388600Y-94926000D02*
X113388600Y-97512000D01*
X113388600Y-99592000D02*
X113388600Y-102178000D01*
X113428600Y-94947000D02*
X113428600Y-97512000D01*
X113428600Y-99592000D02*
X113428600Y-102157000D01*
X113468600Y-94968000D02*
X113468600Y-97512000D01*
X113468600Y-99592000D02*
X113468600Y-102136000D01*
X113508600Y-94990000D02*
X113508600Y-97512000D01*
X113508600Y-99592000D02*
X113508600Y-102114000D01*
X113548600Y-95013000D02*
X113548600Y-97512000D01*
X113548600Y-99592000D02*
X113548600Y-102091000D01*
X113588600Y-95036000D02*
X113588600Y-97512000D01*
X113588600Y-99592000D02*
X113588600Y-102068000D01*
X113628600Y-95059000D02*
X113628600Y-97512000D01*
X113628600Y-99592000D02*
X113628600Y-102045000D01*
X113668600Y-95084000D02*
X113668600Y-97512000D01*
X113668600Y-99592000D02*
X113668600Y-102020000D01*
X113708600Y-95109000D02*
X113708600Y-97512000D01*
X113708600Y-99592000D02*
X113708600Y-101995000D01*
X113748600Y-95134000D02*
X113748600Y-97512000D01*
X113748600Y-99592000D02*
X113748600Y-101970000D01*
X113788600Y-95160000D02*
X113788600Y-97512000D01*
X113788600Y-99592000D02*
X113788600Y-101944000D01*
X113828600Y-95187000D02*
X113828600Y-97512000D01*
X113828600Y-99592000D02*
X113828600Y-101917000D01*
X113868600Y-95215000D02*
X113868600Y-97512000D01*
X113868600Y-99592000D02*
X113868600Y-101889000D01*
X113908600Y-95243000D02*
X113908600Y-97512000D01*
X113908600Y-99592000D02*
X113908600Y-101861000D01*
X113948600Y-95272000D02*
X113948600Y-97512000D01*
X113948600Y-99592000D02*
X113948600Y-101832000D01*
X113988600Y-95302000D02*
X113988600Y-97512000D01*
X113988600Y-99592000D02*
X113988600Y-101802000D01*
X114028600Y-95333000D02*
X114028600Y-97512000D01*
X114028600Y-99592000D02*
X114028600Y-101771000D01*
X114068600Y-95364000D02*
X114068600Y-97512000D01*
X114068600Y-99592000D02*
X114068600Y-101740000D01*
X114108600Y-95396000D02*
X114108600Y-97512000D01*
X114108600Y-99592000D02*
X114108600Y-101708000D01*
X114148600Y-95429000D02*
X114148600Y-97512000D01*
X114148600Y-99592000D02*
X114148600Y-101675000D01*
X114188600Y-95463000D02*
X114188600Y-97512000D01*
X114188600Y-99592000D02*
X114188600Y-101641000D01*
X114228600Y-95497000D02*
X114228600Y-97512000D01*
X114228600Y-99592000D02*
X114228600Y-101607000D01*
X114268600Y-95533000D02*
X114268600Y-97512000D01*
X114268600Y-99592000D02*
X114268600Y-101571000D01*
X114308600Y-95570000D02*
X114308600Y-101534000D01*
X114348600Y-95607000D02*
X114348600Y-101497000D01*
X114388600Y-95646000D02*
X114388600Y-101458000D01*
X114428600Y-95685000D02*
X114428600Y-101419000D01*
X114468600Y-95726000D02*
X114468600Y-101378000D01*
X114508600Y-95768000D02*
X114508600Y-101336000D01*
X114548600Y-95811000D02*
X114548600Y-101293000D01*
X114588600Y-95856000D02*
X114588600Y-101248000D01*
X114628600Y-95901000D02*
X114628600Y-101203000D01*
X114668600Y-95948000D02*
X114668600Y-101156000D01*
X114708600Y-95997000D02*
X114708600Y-101107000D01*
X114748600Y-96047000D02*
X114748600Y-101057000D01*
X114788600Y-96099000D02*
X114788600Y-101005000D01*
X114828600Y-96152000D02*
X114828600Y-100952000D01*
X114868600Y-96208000D02*
X114868600Y-100896000D01*
X114908600Y-96265000D02*
X114908600Y-100839000D01*
X114948600Y-96325000D02*
X114948600Y-100779000D01*
X114988600Y-96387000D02*
X114988600Y-100717000D01*
X115028600Y-96451000D02*
X115028600Y-100653000D01*
X115068600Y-96518000D02*
X115068600Y-100586000D01*
X115108600Y-96588000D02*
X115108600Y-100516000D01*
X115148600Y-96662000D02*
X115148600Y-100442000D01*
X115188600Y-96739000D02*
X115188600Y-100365000D01*
X115228600Y-96821000D02*
X115228600Y-100283000D01*
X115268600Y-96908000D02*
X115268600Y-100196000D01*
X115308600Y-97000000D02*
X115308600Y-100104000D01*
X115348600Y-97099000D02*
X115348600Y-100005000D01*
X115388600Y-97206000D02*
X115388600Y-99898000D01*
X115428600Y-97324000D02*
X115428600Y-99780000D01*
X115468600Y-97455000D02*
X115468600Y-99649000D01*
X115508600Y-97605000D02*
X115508600Y-99499000D01*
X115548600Y-97784000D02*
X115548600Y-99320000D01*
X115588600Y-98019000D02*
X115588600Y-99085000D01*
X115628600Y-98552000D02*
G75*
G02*
X107388600Y-98552000I-4120000J0D01*
G01*
X107388600Y-98552000D02*
G75*
G02*
X115628600Y-98552000I4120000J0D01*
G01*
%TO.C,TP6*%
X170271400Y-52745600D02*
X172171400Y-52745600D01*
X170271400Y-54645600D02*
X170271400Y-52745600D01*
X172171400Y-52745600D02*
X172171400Y-54645600D01*
X172171400Y-54645600D02*
X170271400Y-54645600D01*
%TO.C,TP1*%
X170296800Y-40629800D02*
X172196800Y-40629800D01*
X170296800Y-42529800D02*
X170296800Y-40629800D01*
X172196800Y-40629800D02*
X172196800Y-42529800D01*
X172196800Y-42529800D02*
X170296800Y-42529800D01*
%TD*%
M02*
