%TF.GenerationSoftware,KiCad,Pcbnew,9.0.5*%
%TF.CreationDate,2026-01-15T01:42:08-05:00*%
%TF.ProjectId,PayloadBreakOut,5061796c-6f61-4644-9272-65616b4f7574,rev?*%
%TF.SameCoordinates,Original*%
%TF.FileFunction,Soldermask,Top*%
%TF.FilePolarity,Negative*%
%FSLAX46Y46*%
G04 Gerber Fmt 4.6, Leading zero omitted, Abs format (unit mm)*
G04 Created by KiCad (PCBNEW 9.0.5) date 2026-01-15 01:42:08*
%MOMM*%
%LPD*%
G01*
G04 APERTURE LIST*
G04 Aperture macros list*
%AMRoundRect*
0 Rectangle with rounded corners*
0 $1 Rounding radius*
0 $2 $3 $4 $5 $6 $7 $8 $9 X,Y pos of 4 corners*
0 Add a 4 corners polygon primitive as box body*
4,1,4,$2,$3,$4,$5,$6,$7,$8,$9,$2,$3,0*
0 Add four circle primitives for the rounded corners*
1,1,$1+$1,$2,$3*
1,1,$1+$1,$4,$5*
1,1,$1+$1,$6,$7*
1,1,$1+$1,$8,$9*
0 Add four rect primitives between the rounded corners*
20,1,$1+$1,$2,$3,$4,$5,0*
20,1,$1+$1,$4,$5,$6,$7,0*
20,1,$1+$1,$6,$7,$8,$9,0*
20,1,$1+$1,$8,$9,$2,$3,0*%
G04 Aperture macros list end*
%ADD10R,1.500000X1.500000*%
%ADD11R,1.800000X1.800000*%
%ADD12C,1.800000*%
%ADD13RoundRect,0.250000X0.550000X0.550000X-0.550000X0.550000X-0.550000X-0.550000X0.550000X-0.550000X0*%
%ADD14C,1.600000*%
%ADD15C,1.200000*%
%ADD16RoundRect,0.760000X1.140000X1.140000X-1.140000X1.140000X-1.140000X-1.140000X1.140000X-1.140000X0*%
%ADD17C,4.000000*%
%ADD18R,1.700000X1.700000*%
%ADD19C,1.700000*%
%ADD20RoundRect,0.250000X-0.550000X-0.550000X0.550000X-0.550000X0.550000X0.550000X-0.550000X0.550000X0*%
%ADD21RoundRect,0.250000X1.350000X-1.350000X1.350000X1.350000X-1.350000X1.350000X-1.350000X-1.350000X0*%
%ADD22C,3.200000*%
G04 APERTURE END LIST*
D10*
%TO.C,TP8*%
X171145200Y-49987200D03*
%TD*%
%TO.C,TP7*%
X109067600Y-50088800D03*
%TD*%
%TO.C,TP6*%
X171221400Y-53695600D03*
%TD*%
%TO.C,TP5*%
X108991400Y-53594000D03*
%TD*%
%TO.C,TP4*%
X171196000Y-45415200D03*
%TD*%
%TO.C,TP3*%
X109067600Y-46177200D03*
%TD*%
%TO.C,TP2*%
X109067600Y-42113200D03*
%TD*%
%TO.C,TP1*%
X171246800Y-41579800D03*
%TD*%
D11*
%TO.C,J11*%
X92100400Y-115036600D03*
D12*
X94640400Y-115036600D03*
%TD*%
D13*
%TO.C,C_Pol3*%
X98247200Y-94208600D03*
D14*
X94747200Y-94208600D03*
%TD*%
D15*
%TO.C,C_Pol1*%
X177012600Y-105891200D03*
X177012600Y-107391200D03*
%TD*%
%TO.C,C1*%
X170154600Y-96748600D03*
X170154600Y-95248600D03*
%TD*%
D11*
%TO.C,J7*%
X92760800Y-105587800D03*
D12*
X95300800Y-105587800D03*
%TD*%
D16*
%TO.C,PWR1*%
X167919400Y-103276400D03*
D17*
X162919400Y-103276400D03*
%TD*%
D18*
%TO.C,J9*%
X171119800Y-84074000D03*
D19*
X171119800Y-86614000D03*
X171119800Y-89154000D03*
X171119800Y-91694000D03*
%TD*%
D20*
%TO.C,C_Pol2*%
X109758600Y-98552000D03*
D14*
X113258600Y-98552000D03*
%TD*%
D18*
%TO.C,J2*%
X146253600Y-41193400D03*
D19*
X146253600Y-43733400D03*
X146253600Y-46273400D03*
X146253600Y-48813400D03*
X146253600Y-51353400D03*
X146253600Y-53893400D03*
X146253600Y-56433400D03*
%TD*%
D21*
%TO.C,D_Buck2*%
X111780000Y-123723400D03*
D22*
X111780000Y-108483400D03*
%TD*%
D21*
%TO.C,D_Buck1*%
X111754600Y-89662000D03*
D22*
X111754600Y-74422000D03*
%TD*%
D18*
%TO.C,RPI1*%
X105181400Y-123520200D03*
D19*
X102641400Y-123520200D03*
X105181400Y-120980200D03*
X102641400Y-120980200D03*
X105181400Y-118440201D03*
X102641400Y-118440200D03*
X105181400Y-115900200D03*
X102641400Y-115900200D03*
X105181400Y-113360200D03*
X102641400Y-113360200D03*
X105181400Y-110820200D03*
X102641400Y-110820200D03*
X105181400Y-108280200D03*
X102641400Y-108280200D03*
X105181400Y-105740199D03*
X102641400Y-105740200D03*
X105181400Y-103200200D03*
X102641400Y-103200200D03*
X105181400Y-100660200D03*
X102641400Y-100660200D03*
X105181400Y-98120200D03*
X102641400Y-98120200D03*
X105181400Y-95580201D03*
X102641400Y-95580200D03*
X105181400Y-93040200D03*
X102641400Y-93040200D03*
X105181400Y-90500200D03*
X102641400Y-90500200D03*
X105181400Y-87960200D03*
X102641400Y-87960200D03*
X105181400Y-85420201D03*
X102641400Y-85420200D03*
X105181400Y-82880199D03*
X102641400Y-82880200D03*
X105181400Y-80340200D03*
X102641400Y-80340200D03*
X105181400Y-77800200D03*
X102641400Y-77800200D03*
X105181400Y-75260200D03*
X102641400Y-75260200D03*
%TD*%
D18*
%TO.C,Trans1*%
X163957000Y-108153200D03*
D19*
X163957000Y-110693200D03*
X163957000Y-113233200D03*
X163957000Y-115773200D03*
X163957000Y-118313200D03*
X163957000Y-120853200D03*
X163957000Y-123393200D03*
X163957000Y-125933200D03*
X163957000Y-128473200D03*
%TD*%
D18*
%TO.C,J10*%
X174167800Y-96774000D03*
D19*
X174167800Y-94234000D03*
X174167800Y-91694001D03*
X174167800Y-89154000D03*
X174167800Y-86614000D03*
X174167800Y-84074000D03*
X174167800Y-81534000D03*
X174167800Y-78993999D03*
%TD*%
D14*
%TO.C,R1*%
X123393200Y-123469400D03*
X115773200Y-123469400D03*
%TD*%
%TO.C,R2*%
X110921800Y-129844800D03*
X103301800Y-129844800D03*
%TD*%
D18*
%TO.C,J5*%
X133553600Y-67763400D03*
D19*
X133553600Y-70303400D03*
X133553600Y-72843400D03*
X133553600Y-75383400D03*
X133553600Y-77923400D03*
X133553600Y-80463400D03*
X133553600Y-83003400D03*
%TD*%
D18*
%TO.C,J4*%
X155397200Y-46024800D03*
D19*
X155397200Y-48564800D03*
%TD*%
D18*
%TO.C,J8*%
X161467800Y-96774000D03*
D19*
X161467800Y-94234000D03*
X161467800Y-91694001D03*
X161467800Y-89154000D03*
X161467800Y-86614000D03*
X161467800Y-84074000D03*
X161467800Y-81534000D03*
X161467800Y-78993999D03*
%TD*%
D18*
%TO.C,J1*%
X146253600Y-67763400D03*
D19*
X146253600Y-70303400D03*
X146253600Y-72843400D03*
X146253600Y-75383400D03*
X146253600Y-77923400D03*
X146253600Y-80463400D03*
X146253600Y-83003400D03*
%TD*%
D18*
%TO.C,J6*%
X133553600Y-41193400D03*
D19*
X133553600Y-43733400D03*
X133553600Y-46273400D03*
X133553600Y-48813400D03*
X133553600Y-51353400D03*
X133553600Y-53893400D03*
X133553600Y-56433400D03*
%TD*%
D18*
%TO.C,J3*%
X126009400Y-46482000D03*
D19*
X126009400Y-49022000D03*
%TD*%
M02*
